<?xml version="1.0" standalone="no"?>
<!DOCTYPE svg PUBLIC "-//W3C//DTD SVG 1.1//EN" "http://www.w3.org/Graphics/SVG/1.1/DTD/svg11.dtd" >
<svg>
<metadata>
Created by FontForge 20090622 at Thu Oct 13 16:41:55 2016
 By deploy user
Generated by Fontographer 3.5
</metadata>
<defs>
<font id="Reporter-Two" horiz-adv-x="222" >
  <font-face 
    font-family="Reporter-Two"
    font-weight="500"
    font-stretch="normal"
    units-per-em="1000"
    panose-1="0 0 0 0 0 0 0 0 0 0"
    ascent="800"
    descent="-200"
    x-height="455"
    cap-height="799"
    bbox="-82 -280 1000 995"
    underline-thickness="50"
    underline-position="-55"
    unicode-range="U+0020-U+F002"
  />
<missing-glyph horiz-adv-x="780" 
d="M48 0v780h684v-780h-684zM684 48v684h-588v-684h588z" />
    <glyph glyph-name=".notdef" horiz-adv-x="780" 
d="M48 0v780h684v-780h-684zM684 48v684h-588v-684h588z" />
    <glyph glyph-name=".null" horiz-adv-x="0" 
 />
    <glyph glyph-name="nonmarkingreturn" horiz-adv-x="231" 
 />
    <glyph glyph-name="space" unicode=" " horiz-adv-x="231" 
 />
    <glyph glyph-name="exclam" unicode="!" horiz-adv-x="259" 
d="M128 171l6 -4l6 -5l6 -2l4 1l4 3l4 2l4 1q7 0 12.5 -8.5t5.5 -26.5l-4 -20l-8 -33l-6 -19l-7 -17l-3 -7l-3 -5q-8 -13 -22.5 -22t-33.5 -9q-11 0 -16.5 2t-5.5 7l-1 11q-2 5 -4 5l-3 -3l-4 -5l-7 -7l-7 -2q-4 4 -5 6l-3 15l-1 9v8l1 24l6 34q3 23 12 42t22 22l6 -1l4 -2
v-1l3 -2l5 -1l5 2l8 4l3 2l3 1l5 2l5 1zM266 605l-25 -110l-3 -10l-2 -10l-23 -92l-16 -58l-3 -9l-2 -10l-7 -31q-3 -16 -12 -40l-6 -12l-9 -4h-4l-3 2l-4 1l-3 1l-5 -2l-5 -3l-6 -4l-4 -1l-4 2l-3 5l-1 3v7l2 7v7l1 6l-1 3l-2 2h-2l-4 -3l-2 -5l-2 -4l-1 -4l-5 -11
q-2 -3 -7 -5q-5 3 -6 5l-2 13v4l2 32l7 39v7q1 5 2 6l4 24l4 22l5 32l4 32l3 31l5 32l4 31l5 31l3 15q0 10 2 16l7 46l6 46l3 26q0 13 2.5 22t4.5 11l7 3q8 0 11 -6l2 -12v-5v-4l1 -6l1 -6l3 -2l7 3l3 9h1l3 8q5 4 8 4l5 -2l9 -3l5 -4l6 -3l3 -3l1 -3l-1 -6v-3l-2 -4v-5
l2 -3h7h1l7 -1l3 -4h5q5 1 6 2h4l6 1l3 -4l1 -8l1 -6v-4q0 -8 -2 -20.5t-9 -43.5z" />
    <glyph glyph-name="dollar" unicode="$" horiz-adv-x="464" 
d="M136 529q61 75 137 126l9 61q3 27 7 38l2 4l4 -1l4 -1l3 -1l5 2l3 6l2 5l4 8l7 4l3 -3l2 -7l5 1l2 2l3 6l2 2l5 6l3 2l3 -1l-6 -34l-8 -53l98 62q39 24 53 26l6 -3l2 -7q0 -6 -5 -11l-10 -8l-9 -6l-5 -5l-2 -2l3 -9l8 -3l6 -4q4 -5 4 -7l-3 -8l-6 -6l-4 -3l-4 -4l-2 -5
l1 -4l5 -2l2 -1l3 -2v-2l-1 -4l-2 -3v-5h4l5 2l4 1l5 1q-1 -7 -3 -11t-4 -6l-31 -20q-21 -10 -60 -39l-29 -22l-31 -24l-24 -22l-24 -21q-33 -30 -56.5 -59.5t-23.5 -47.5q0 -10 3.5 -15t14.5 -9l3 -1l4 -1l21 3l22 5l14 3l13 4l50 11q24 6 41 6l6 -1l6 -1l5 -2l5 -2l5 -2
l4 -2q12 -9 22 -32t10 -48q0 -80 -57 -143t-129 -114l-8 -6l-8 -6l-3 -25q-1 -8 -1.5 -14t-3.5 -16q-2 -16 -3.5 -22.5t-4.5 -17.5q-3 -21 -8 -28l-2 -3l-6 1l-1 3l-1 5l-4 1l-2 -3l-3 -7l-3 -7l-5 -3l-3 1l-1 4l1 4l-2 4l-6 -4l-4 -10l-3 -9l-4 -4l-4 3v8l3 20l6 31l3 20
l3 23l-97 -64l-43 -26q-5 1 -6 2l-1 5l3 10l6 9l6 10q3 3 3 9l-1 3l-2 2l-2 2l-2 2l1 5l4 3l3 2l3 6l2 4l-3 3h-5h-1l-7 1l-3 3l1 3q1 5 2 6l1 3l3 6l2 4l-4 3l-4 1l-6 3l-2 5q0 12 19 25l42 28l14 9l14 10l30 22l33 25l18 14l18 14q31 25 55 51t24 44l-3 7q-6 3 -10 3
l-12 -1q-8 0 -12 -2l-14 -3l-14 -4l-27 -7l-31 -3q-51 0 -75 24.5t-33 57.5q0 10 -2 15l-1 14q0 78 60 152z" />
    <glyph glyph-name="percent" unicode="%" horiz-adv-x="796" 
d="M634 659l5 1l2 -5v-2l-22 -40l-47 -76l-1 -3l-46 -72l-25 -40l-23 -36l-22 -36l-76 -128l-24 -41q-20 -32 -38 -55l-19 -25l-19 -27l-8 -12l-8 -10l-61 -89q-26 -39 -33 -41l-1 1h-1l-2 1l-3 -1l-2 -3l1 -1l-5 -8l-7 -10l-2 -2l-14 -17l-6 -7l-2 4l3 6l7 10l2 4l5 9l3 7
v2l-1 2l1 6l1 4l3 10l7 12l1 2l6 12l4 7l-1 3l-5 -1l-3 3q8 18 9 19q8 15 20 32l32 51l2 2l2 4l19 30l19 31l54 90l93 152l82 135l57 94q36 60 54 99q9 19 15 29q2 4 7 10l4 -2l2 -4l-1 -4v-4l-2 -4v-4v-6l2 -2l2 1h3l3 -1l1 -4l-1 -2l-1 -3v-4l3 -1l3 1l5 -1l2 -3l-1 -4
l-1 -4l-16 -40zM575 84l7 3q21 9 40 41q20 30 33 66l10 29l6 28l1 7v5l1 5l3 21q1 4 2 6t3 3q4 -3 5 -5l2 -9l1 -4v-7l3 -3l5 1l3 3l2 2l6 1l4 -4l2 -12h2l3 -3l2 -4l4 1l3 3l1 1l5 2l2 -1q4 -4 5 -6l2 -12q0 -16 -3 -30t-4 -20.5t-7 -23.5l-14 -37q-6 -18 -15 -33l-8 -14
l-7 -11l-8 -10l-9 -9q-18 -19 -51 -38q-17 -8 -31 -12t-33 -4q-48 0 -72 34q-10 16 -16 35.5t-6 41.5l3 33l9 34q14 42 40.5 82t55 73.5t57.5 55t42 22.5l4 -1v-9l-2 -4l-2 -4l-1 -3l1 -5l4 -2l5 1l5 1l3 -1l3 -2l2 -6v-4h-1v-4l1 -4l3 -1l3 1h3l3 -2l2 -4l-15 -20l-31 -32
q-55 -55 -81 -104t-26 -91l3 -21q3 -5 15 -7zM219 422l7 3q21 9 40 41q20 30 33 66l10 29l6 28l1 7v5l1 5l3 21q1 4 2 6t3 3q4 -3 5 -5l2 -9l1 -4v-7l3 -3l5 1l3 3l2 2l6 1l4 -4l2 -12h2l3 -3l2 -4l4 1l3 3l1 1l5 2l2 -1q4 -4 5 -6l2 -12q0 -16 -3 -30t-4 -20.5t-7 -23.5
l-14 -37q-6 -18 -15 -33l-8 -14l-7 -11l-8 -10l-9 -9q-18 -19 -50 -37t-65 -18q-48 0 -72 34q-22 36 -22 78l3 33l9 34q14 42 40.5 82t55 73.5t57.5 55t42 22.5l4 -1v-9l-2 -4l-2 -4l-1 -3l1 -5l4 -2l5 1l5 1l3 -1l3 -2l2 -6v-4h-1v-4l1 -4l3 -1l3 1h3l3 -2l2 -4l-15 -20
l-31 -32q-55 -55 -81 -104t-26 -91l3 -21q3 -5 15 -7z" />
    <glyph glyph-name="ampersand" unicode="&#x26;" horiz-adv-x="556" 
d="M309 54l-15 -11l-24 -15l-24 -13l-30 -11l-27 -4q-66 0 -103.5 39t-47.5 89l-2 13v14q0 59 36 102t79 80l17 14l16 14l17 14l15 15q0 7 -2 11l-2 10l-5 19l-4 18l-5 32l-2 37v2v6v7l2 10q2 5 6 6q4 -2 5 -4l3 -7v-1l2 -8l5 -3q4 2 4 4l3 11v6v6q0 13 3 21t12 19t22 20
l32 23l24 14q9 5 20 6l6 1h7l12 -1l13 -3q34 -9 60.5 -36.5t26.5 -61.5q0 -13 -5 -28.5t-6.5 -18t-9.5 -18t-23 -33.5q-11 -16 -28 -35l-22 -23l-20 -20q0 -8 5 -22l11 -31l1 -3l9 -28l6 -21l13 15l13 15q28 38 45.5 67.5t27.5 29.5l5 -1q6 0 10 -5l4 -8l-3 -12l-6 -11
l-7 -12l-3 -12l1 -3h4l5 3l7 8l2 2l6 6l5 3l7 -3l2 -7l-3 -9l-6 -10l-1 -2l-7 -11l-3 -8l1 -5l2 -2l4 1l4 5l2 4l4 2l4 -2l3 -7v-1v-1q0 -7 -2 -14t-9.5 -22t-11 -21t-14.5 -19l-10 -14l-10 -14l-26 -31l-20 -22l9 -26l21 -46q1 -5 2 -6l2 -4l18 -45l8 -30v-4l-3 -8
q-5 -4 -7 -4q-7 2 -9 4l-5 7l-3 5l-2 3l-3 3l-5 -1l-1 -5l2 -10l5 -11l5 -11l2 -12q0 -8 -3 -12.5t-12 -5.5q-7 3 -9 5l-7 10l-6 11l-4 4l-3 -6l1 -9l4 -16l1 -7l2 -13l1 -12v-4l-1 -6q0 -7 -4.5 -13.5t-14.5 -6.5q-5 0 -19 33l-25 72l-1 3l-1 3l-18 50q-7 23 -15 37z
M232 277l-17 -14l-41 -46q-18 -24 -18 -52q0 -14 12 -26q11 -8 27 -13l4 -1h5l17 3l19 10l10 6l10 7l15 10l13 10l2 2l2 1l-8 19l-7 20l-16 38l-14 40zM327 482l11 12l4 6l5 6l10 17l5 13q0 10 -5 15q-3 6 -14 7q-15 0 -24 -10.5t-9 -26.5v-8l2 -8l1 -7q1 -5 2 -6
q0 -7 2 -11l2 -6z" />
    <glyph glyph-name="parenleft" unicode="(" horiz-adv-x="333" 
d="M219 44v-43v-49v-21t2 -23l1 -36l1 -29q0 -18 -3 -22.5t-12 -5.5q-8 0 -13 9l-6 20l-1 5v5l-4 14q0 6 -5 6q-4 -2 -5 -4l-4 -11l-4 -10q-1 -4 -5 -5q-7 6 -9 10l-8 21l-9 22q-3 9 -9 9l-5 -2l-2 -7v-1l-2 -4l-3 -3q-1 5 -2 8q-4 15 -6 26l-5 73l-1 27v28l-1 16v17l-1 18
v21v7l1 7v8v9q0 54 7 99.5t24 109.5q25 100 69 203l45 96l24 48q4 8 28 48l19 31q6 9 10 10l5 -3l2 -7l-1 -7l-1 -6q-1 -5 -2 -6v-4v-2l4 -3l4 2l7 7l4 3l5 3l5 2l6 -3l4 -7l1 -4l-1 -7l-3 -7q-1 -5 -2 -6l-2 -4l-6 -10l-2 -6l1 -5l4 -2l2 1l2 2l3 2l4 1q5 -1 6 -2l2 -3
l-1 -4v-4l-2 -4v-4l1 -3l4 -2h3l4 2l1 1l3 1l3 -1l2 -3q0 -6 -21 -44q-10 -17 -21 -40l-24 -52l-14 -34l-13 -36l-10 -27l-8 -27q-11 -35 -20.5 -70.5t-20 -86.5t-16 -92t-5.5 -97v-17v-15q-2 -10 -2 -15z" />
    <glyph glyph-name="parenright" unicode=")" horiz-adv-x="333" 
d="M150 568l1 44l-1 50l-1 44v14q0 8 -2 22v29q0 18 3 22.5t12 5.5q8 0 13 -9l6 -20v-5l1 -5l3 -14q1 -3 3 -4.5t3 -1.5q4 2 5 4l4 11l4 10q1 4 5 5q6 -6 8 -10l9 -21l9 -22q3 -6 5 -7.5t4 -1.5l4 2l3 7v1l2 4l3 3q1 -2 1 -4q4 -14 6 -30l6 -73v-29l1 -27v-16l1 -17v-18
l1 -21v-7v-7l-1 -8v-9q0 -54 -7 -99.5t-24 -109.5q-25 -100 -69 -203l-46 -95l-51 -96l-19 -31q-6 -9 -10 -10l-6 3l-1 7v7q1 5 2 6l1 6l1 4v2l-2 2l-6 -1l-7 -7l-4 -3l-6 -3l-4 -2l-7 3l-3 7l-1 4l1 7l3 7q1 5 2 6l2 4l5 10l3 6l-1 5l-4 2l-2 -1l-2 -2l-4 -2l-3 -1l-5 2
l-2 3l1 4v4l2 4v4l-1 3l-4 2h-3l-4 -2l-1 -1l-3 -1l-3 1l-2 3q0 8 20.5 44t44.5 91l14 33l13 37l9 27l9 27q11 35 22 76q8 30 18.5 81t16 92t5.5 97z" />
    <glyph glyph-name="asterisk" unicode="*" horiz-adv-x="389" 
d="M64 565l7 4l5 2l18 4l35 8l3 1l37 8l19 4l-13 10l-13 11l-20 14l-19 15l-15 13l-13 12l-2 2l-2 3l-3 5l-1 5l2 7l5 4h2l7 -2l5 -5l1 -1l5 -4l6 -2l-1 7l-3 8l-3 5l-1 6l2 4l4 1l4 -1l3 -1l2 -1l2 -1l3 3l-1 4l-3 4l-2 3l-4 4l-2 4l1 3l4 2h2l5 -2l4 -2l2 -2l4 -3l5 1l1 4
l-1 6l-1 3v4l2 5l7 1l14 -14l28 -29l26 -30l15 -14l2 8q1 7 2 9l1 6l1 6l6 28l4 30l2 6v6l1 8l3 13q3 6 8 7q6 -3 7 -5l2 -9l1 -3v-8l4 -3q5 2 6 4l4 11l1 3l4 11q3 6 8 6q6 -2 6 -4l3 -7l1 -4l1 -6l3 -2l4 1l2 5l1 3l4 2l2 -2l2 -5v-2l-1 -5v-5v-2q-1 -5 -2 -6v-5l1 -3
l3 -1l4 4l3 6l4 6l5 3l4 -1l2 -4l-4 -17l-9 -35l-1 -2l-9 -33q-3 -14 -5 -16q-1 -5 -2 -6l-2 -5q-1 -5 -2 -8t-2 -4l15 6l18 8l5 2l5 2l42 16l22 7l4 -2l2 -4l-3 -5l-5 -4l-5 -3l-3 -3l3 -4l7 -1h5h6q7 0 11 -2q5 -5 5 -9q0 -6 -4 -10l-7 -4l-3 -1l-5 -3l-2 -3l1 -4l8 -2h3
l8 -3q4 -4 4 -6l-3 -5l-5 -3l-3 -1l-11 -6l-4 -11l-20 -6l-20 -5l-21 -6l-20 -6l10 -9l10 -8l21 -18l22 -16l16 -13l8 -9l1 -4l1 -3q-3 -6 -5 -7l-24 -2q0 -18 -4 -21t-6 -3h-4l-4 1h-7h-8l2 -5l4 -5l2 -4l6 -8q3 -3 3 -8l-3 -6l-5 -3l-4 -1l-6 1l-5 4l-6 4l-5 6l-6 6l-4 6
l-12 12l-20 22l-16 17l-12 12l-5 -17l-4 -18l-7 -44l-5 -26l-3 2l-1 1l-6 2l-1 -4v-4q0 -6 -3.5 -13t-12.5 -7l-3 2l-3 7l-4 5l-3 3l-4 -3l-3 -5l-1 -2l-4 -8q-5 -3 -7 -3l-5 1l-2 6v5l2 8v2v7l1 6v5l-2 2l-8 -2l-5 -5h-1l-5 -6l-9 -2l-1 4l-2 3l7 29l9 29l8 28l8 30
q-6 -1 -9 -2t-12 -6l-35 -14l-38 -16l-19 -7l-3 1l-1 3l1 4l2 2l2 2l3 3l2 3l-3 2l-7 1h-2l-9 1l-3 4l2 7l6 7l5 6l3 5l-3 2l-5 1l-3 1l-8 2l-3 6l3 6l7 3l2 1l5 2l3 4l-4 3l-8 1l-2 1l-10 1l-4 6z" />
    <glyph glyph-name="comma" unicode="," horiz-adv-x="232" 
d="M46 -102l-1 11l-1 4l-1 10l-1 3l-2 -2l-1 -6l-1 -2l-1 -6l-3 -3l-6 -1l-3 -4l-2 -2l-1 -4l-3 -5l-4 -2h-1h-3l-7 3q-3 3 -3 14l3 30l7 33l5 31l4 32q0 11 5 35l14 58l3 11l3 12q1 7 7 10l16 2l15 3l13 8l2 1l11 7q6 3 14 3q6 -1 7 -2l6 -5l2 -3l3 -3l4 -1l5 2l5 4l2 3
l6 5q3 3 10 3q6 0 9 -3.5t3 -13.5q0 -17 -10 -51q-3 -13 -10 -36.5t-13 -39.5l-6 -15l-4 -15l-9.5 -27.5t-10.5 -23.5l-15 -38l-2 -4l-7 -10l-11 -4q-4 2 -4 4l-1 6v1l-2 7l-3 3l-4 -5l-5 -11l-7 -11q-2 -3 -10 -5q-4 3 -5 5z" />
    <glyph glyph-name="hyphen" unicode="-" horiz-adv-x="315" 
d="M283 337q3 -8 3 -13t-4 -8l-7 -3l-3 -1l-7 -2l-2 -3l3 -4l8 -2l2 -1q5 -1 6 -2l3 -3q-2 -5 -4 -6l-9 -4l-2 -1l-8 -4l-3 -5l1 -3l4 -1l3 -1l5 -3q3 -5 3 -8l-2 -8l-6 -5l-4 -2l-3 -1l-1 -2l2 -4l5 -1h2h2l3 -1l2 -4q-1 -2 -2 -4.5t-5 -4.5l-19 -6l-16 -4l-19 -5l-16 -4
l-19 -5l-21 -4l-21 -4l-50 -9l-38 -3l-13 3l-6 9l-1 3v4l3 12l8 6l4 3l4 1l2 2l-1 5l-4 2l-2 1q-5 1 -6 2l-2 6l1 10l3 12l6 16q3 7 9 10l29 10l28 6q10 0 30 7l43 12q5 1 8 2t4 2l43 11l34 5q6 1 10 -3z" />
    <glyph glyph-name="period" unicode="." horiz-adv-x="232" 
d="M78 2l-7 7l-3 7q-1 5 -2 6l-2 3l-3 -1l-3 -5l-3 -7l-5 -3l-7 -1h-5q-6 3 -8 5l-4 12l-2 5v5l1 6l1 7l3 24l4 29q3 26 12 51t26 25q3 0 4.5 -1t2.5 -2l2 -5v-10l3 -3l1 1l3 4l5 9l7 9l13 4l16 -1q6 0 10 -5l7 -2l14 -1q9 0 12 -6t3 -16l-3 -23l-6 -38l-4 -19l-4 -18
l-4 -14l-4 -9q-8 -13 -22.5 -22t-33.5 -9q-11 0 -15 2z" />
    <glyph glyph-name="slash" unicode="/" horiz-adv-x="426" 
d="M-62 -84q20 30 43 74l6 10l6 11l3 4l3 6l2 4l3 4l10 14l7 12l4 10l8 18l2 5l4 5l10 17l17 30l1 3l15 29l10 19l2 5l4 5l21 32l35 63l40 74l31 50l4 6l4 8l10 19l11 21l7 13l7 11l2 4l4 5l25 38q14 21 40 79l5 11l8 13l2 3l9 13l6 10l7 12l9 17l1 2l9 18l8 14
q19 29 24.5 42t10.5 18l5 2l8 -1q3 -4 3 -6l-2 -6l-4 -7l-1 -2l-4 -6l-1 -5l1 -6l4 -1l5 2l5 4l2 3l6 6q3 3 9 3q7 0 10.5 -4t3.5 -14l-1 -5v-4l-1 -5v-4v-3l1 -4l3 -2l5 3l5 9l2 3l3 5l4 3l5 -2q4 -2 5 -4l2 -6l-4 -16l-8 -18l-5 -10l-6 -9l-15 -20l-8 -14l-5 -11l-5 -11
l-6 -12l-6 -11l-8 -13l-8 -11l-22 -34l-28 -49l-4 -5q-1 -5 -2 -6l-33 -59l-19 -38l-13 -24l-24 -43l-1 -2l-21 -36l-14 -25l-31 -54l-42 -73l-3 -7l-4 -6l-19 -33l-18 -30l-9 -15l-8 -15l-43 -74l-39 -72l-12 -22l-9 -19q-5 -8 -9.5 -11.5t-13.5 -5.5q-4 2 -5 4l-2 9v2l1 9
v7l1 3l1 6v5l-7 -4l-6 -8l-6 -8l-9 -4l-5 1l-2 5l2 10l3 11l2 2l5 14l2 10v5l-9 -5l-13 -13l-2 -2l-11 -11l-9 -5l-7 3l-2 6q2 5 5 11.5t15 23.5z" />
    <glyph glyph-name="zero" unicode="0" horiz-adv-x="464" 
d="M85 48q-32 47 -40 106l-1 10v12q0 158 84.5 298.5t195.5 245.5q13 13 30 25l18 10q8 0 13.5 -5t5.5 -13q0 -7 -5 -12l-9 -11l-3 -3l-2 -2l-7 -8l-2 -8q5 1 6 2l7 4l10 5l12 3l3 -2l-1 -9v-10v-4v-4q0 -8 5 -11l13 -3h1l11 -3q5 -4 5 -7l-2 -6q-4 -7 -7 -10l-17 -16
l-16 -15q-40 -39 -79 -82t-66 -95l-3 -5l-2 -5q-13 -23 -23.5 -44t-21.5 -48q-21 -49 -30 -98l-3 -25l-1 -24q0 -18 9.5 -34t32.5 -16q38 0 70 56.5t56 128.5l27 94l15 70l2 17l5 29q2 13 3.5 18.5t5.5 17.5t11 12q6 -4 6 -7l2 -16v-1q0 -10 2 -15q0 -5 6 -7l6 2l2 3l4 2
l6 2h3l2 -1l2 -16l1 -22v-4v-5v-1l-1 -6v-4v-2l4 -3q5 4 6 7l4 16l1 7q0 7 2 11l4 5l2 -3l1 -3v-4l1 -6v-3v-10l1 -5l2 -2h1l3 2l4 5l2 5l4 2q4 -4 4 -6l2 -14l-10 -88q-9 -86 -59 -184q-15 -31 -36 -63t-49 -63l-5 -5l-5 -5l-34 -26l-37 -22l-39 -16l-33 -5q-62 0 -98 48z
" />
    <glyph glyph-name="one" unicode="1" horiz-adv-x="370" 
d="M242 553l-4 3l-6 -3t-11 -8l-27 -24l-2 -2l-27 -24l-17 -10h-4l-7 3l-3 6l1 4l4 5l2 2l4 5l2 4l-1 4l-2 2l-4 -1l-2 -2l-3 -2l-1 1l-1 3l-3 -3l-6 -6l-7 -6l-6 -4l-3 -1l-4 1l-1 3l-1 2l1 6l5 8l2 3l1 4l1 4l1 4v1l-1 3l-2 2h-2l-7 -6l-12 -13l-2 -2l-2 -2l-12 -11l-8 -4
l-7 3l-1 8v2q3 9 5 12l13 15l4 3l4 4l13 13l10 9l34 33l61 58l4 5l5 4q37 35 65.5 58.5t38.5 25.5q12 0 19 -10l10 -20l1 -8l1 -8l-1 -10v-8l-1 -8v-7l1 -7l5 -3l3 2l2 6l1 3l2 4l3 9q2 3 7 5q5 0 8 -7l3 -14v-6v-6q0 -18 -10 -71l-22 -116q0 -8 -2 -12l-2 -11l-19 -87
l-13 -63l-58 -265l-2 -7v-4l-6 -11l-6 -2l-6 1l-4 4l-2 4l-2 5v1q-1 5 -2 6l-2 4l-3 -1l-2 -1l-2 2l-2 2l-4 -5l-7 -11l-10 -11q-3 -3 -12 -5l-7 3l-3 8l-1 3l-3 5l-3 3l-5 -3l-3 -5l-2 -4l-2 -3l-8 -11q-2 -2 -13 -4l-8 3l-2 8l-1 3q0 18 19 94l44 167l1 4l1 4l42 167
q19 82 19 97z" />
    <glyph glyph-name="two" unicode="2" horiz-adv-x="464" 
d="M32 4l-5 12q-1 5 -2 8t-2 4l-2 4l-2 4l-4 8l-3 6l-3 4v6v2v2q0 17 47 93l100 161l2 5l3 4l105 165q48 75 48 85l-3 7l-6 3q-8 0 -35 -15l-55 -32l-3 -2l-59 -36q-23 -14 -30 -16l-7 3q-3 3 -3 8q0 6 4 11l10 9l9 7l5 5l-2 3l-5 2l-4 -2l-5 -3l-2 -2l-5 -3l-4 -1l-4 3
l-1 7l3 7l9 9l3 3l10 10l5 7l-2 3l-3 1l-5 -3l-9 -5l-4 -2l-3 -2l-7 -3l-6 -1l-5 2l-1 5l2 5l4 5l3 3l6 6l3 6l-2 3l-6 1l-5 -2l-6 -3l-2 -1l-7 -4l-4 -2l-5 2l-1 7l1 6l3 6q5 6 15 12l26 15l43 22l79 40l10 5l11 5l83 38q37 14 54 16q18 0 31 -9.5t20 -20.5l5 -11l2 -9
l-1 -7l-1 -7q0 -7 -4 -15l-6 -13q-3 -10 -8 -16l-4 -7l3 -3l6 4l9 9l4 3l3 4l7 4l6 2l4 -3l1 -7v-5q0 -71 -72 -178l-190 -284q-10 -17 -17 -24l-7 -13q1 -5 2 -6l7 -1l43 6l81 16l4 1l81 15l39 7l3 -1l5 -3l2 -5q0 -5 -7 -11l-16 -6l-5 -2l-5 -1l-9 -4q-4 -2 -4 -4l4 -3
l8 -1h5l4 1h3h4l6 -1l3 -2l-1 -4l-1 -4l-2 -3l-1 -4v-8l1 -6l-4 -4l-8 -4l-3 -1l-3 -1l-13 -5q-2 -1 -3.5 -2t-2.5 -2l6 -3h15q6 0 9.5 -5t3.5 -11q0 -15 -10 -21q-6 -3 -24 -5h-2h-3h-1h-1q-15 0 -34.5 -3l-32.5 -5l-108 -17l-4 -1l-112 -18l-62 -7q-11 0 -15 4z" />
    <glyph glyph-name="three" unicode="3" horiz-adv-x="464" 
d="M422 306q-33 -49 -85 -110l-33 -36l-34 -36q-60 -63 -110.5 -103.5t-68.5 -40.5q-6 4 -8 6l-2 12l-1 6v7l-1 4l-1 4q-5 1 -6 2l-3 6l-1 4q0 12 4 17l9 9l3 2l3 2l4 3l4 5l2 4l1 2v1h-1l-9 -2l-10 -7l-2 -2l-11 -6l-7 -2l-4 1l-4 4l-6 7l-4 10l-2 4v5v3l1 2l34 31l36 30
l4 4l4 4l13 10l14 12l30 27l46 46l7 7l7 8l46 51q20 25 20 35q0 5 -6 8l-13 4h-4h-4l-20 -1l-18 -1l-20 -2l-19 -1q-8 0 -16 6l-11 16l-3 6l-3 9l-1 4q-1 5 -2 6l-3 12l-1 10l157 169l-2 4l-7 2l-26 -7l-45 -14l-4 -2q-17 -4 -24 -6t-20 -8l-24 -8q-10 -3 -15 -5l-21 -10
l-23 -10l-14 -4q-6 0 -11 5l-3 13q0 15 8 22l19 12l10 3q7 0 10 2l5 2l2 2q-3 4 -5 4l-12 1h-4q-10 0 -15.5 2t-5.5 7q0 11 3.5 16.5t9.5 8.5l5 3l5 3l2 3l-2 4l-5 1h-4l-3 -1l-9 2q-3 6 -3 9l2 3l5 5l5 2l7 3l52 16l66 20l10 2l10 4l104 28q45 11 62 13l5 -1q9 0 18 -9
q9 -6 15 -15l7 -11l3 -9q-3 -4 -5 -5l-10 -1l-8 -1h-5l-7 -1l-2 -3l8 -2h17h5h3q6 0 12 -6q6 -3 6 -15q0 -11 -21 -40l-46 -60l-4 -4l-4 -5l-51 -61q-21 -26 -23 -34q2 -4 4 -5h16q47 0 81.5 -17.5t34.5 -61.5q0 -29 -35 -82z" />
    <glyph glyph-name="four" unicode="4" horiz-adv-x="481" 
d="M320 2l-6 6l-6 5l-5 3l-8 -4l-9 -9l-2 -3l-10 -7l-7 -3q-6 0 -9 4l-4 7l-2 5l-1 5l-3 2q-6 -3 -8 -5l-6 -10l-6 -11l-6 -5h-2l-5 3l-2 4q0 13 4 30l11 41l1 5q1 5 2 6l11 43q6 20 6 28l-4 3l-8 2l-36 -4l-49 -9l-5 -2h-4l-48 -9l-37 -3q-13 0 -20 7t-9 22l3 15l9 17l2 4
l3 4l11 20l5 15v1l-2 2l-5 -5l-9 -10l-1 -2l-9 -10l-6 -4l-4 3v11q0 22 35 89l37 69t45 78l8 14l9 15l75 125l51 79l10 16l17 26l4 6l5 7l18 22q9 9 14 9l10 -3l6 -7l2 -5l1 -3l-2 -9l-5 -10l-2 -3l-9 -14l-3 -8v-2l2 -3l6 3l9 9l5 3l7 5l7 3l4 -1l5 -9l3 -12v-1v-1l2 -1
l3 -4l2 -3l-1 -4l-2 -4l-4 -6l-1 -7l1 -4l3 -2l4 2l1 3l2 3l4 5l6 2q5 -2 6 -4l3 -6q-3 -10 -5 -14l-12 -18l-44 -63l-83 -122l-83 -121l-44 -64l-2 -3l-2 -2l-2 -3l-9 -11l-3 -8q2 -5 4 -6l9 -1h2l25 3l38 9l6 1l7 2l28 7l20 6l11 50l12 49l11 47l11 45l4 11l6 3l1 -3l1 -5
v-2l1 -7l4 -3l3 2l4 4l3 6l4 7l3 11l2 7l3 7l6 7l5 6l4 5l3 10l4 3l4 -1l5 -1q6 -2 8 -4l4 -6l-1 -4l-1 -4l-2 -4v-4q1 -5 2 -6l6 -2q6 0 9 9l6 21v5q1 5 2 6l9 28q6 12 20 13l4 -1l3 -2l2 -4l-3 -16l-5 -22v-2l-4 -13q0 -7 -2 -11l-8 -41l-7 -40l-5 -22l-5 -24l-11 -44
l-4 -25l3 -6l8 -1l11 1l15 3l6 1l7 1l8 1l8 1q7 0 10 -4t3 -6q0 -7 -6 -13l-12 -7l-4 -2l-4 -2l-7 -3l-2 -4l2 -3h7h2q7 -1 10 -3.5t3 -5.5q0 -6 -4 -11l-8 -6l-4 -2l-4 -1l-3 -2l1 -5l5 -1l3 -1q5 -1 7 -4t2 -5q0 -14 -22 -20l-46 -8l-10 -2l-9 -1q-5 -2 -6 -4l-3 -7l-1 -3
l-1 -3l-5 -29q-2 -12 -3 -24q-5 -18 -7 -27q-6 -31 -16 -55q-7 -23 -18 -25q-5 1 -6 2z" />
    <glyph glyph-name="five" unicode="5" horiz-adv-x="464" 
d="M442 475q28 -26 28 -58v-4q-1 -18 -8 -31l-12 -26l-15 -22l-6 -10v-4l5 3l8 11l1 2l7 9l6 4l4 -2l1 -5q0 -6 -7 -20l-18 -30q-9 -14 -17 -25t-21 -26l-46 -55l-28 -30l-28 -30q-63 -63 -112.5 -105.5t-57.5 -44.5l-6 3l-2 7l2 6l5 7l2 2l6 8l3 5v2l-2 2l-8 -2l-5 -4
l-6 -6l-5 -2q-5 1 -6 2l-1 7q0 6 4 13l11 10l10 7l5 5l-1 3l-3 2l-6 -3l-9 -5l-2 -2l-9 -5l-7 -1q-6 1 -7 2l-1 6l-1 5l-5 2h-5h-4l-5 -1h-4q-6 3 -7 5l-2 14l3 11l10 13l10 10l13 10l15 12l13 10l37 33l62 59l10 10l10 10q37 37 58.5 64t23.5 41l-3 6l-7 4h-4l-3 1
q-9 0 -32 -9q-14 -5 -21 -8t-22 -11l-45 -20q-21 -9 -32 -9q-7 3 -10 5l-12 12l-8 11l-8 12l-11 22l-4 15l15 51l33 101l2 5l23 68l18 54q3 10 15.5 16.5t28.5 9.5l13 3l11 3l7 1q5 1 8 2t4 2l17 4l17 6l53 14l54 14l15 3l21 5l26 6l15 3l3 -2v-1l5 -2l3 -2l1 -7
q-4 -6 -8 -8l-18 -8l-18 -6q-5 -1 -6.5 -2t-1.5 -2l5 -3h2h5l6 1h6h8q7 0 10 -3.5t3 -7.5q0 -14 -10 -23l-22 -11l-2 -1l-3 -2l-2 -1l3 -1l3 -1l1 -3l-3 -3l1 -2h4l5 1l5 2l5 1l4 1q6 0 7 -4l2 -8l-1 -6l-4 -5q-5 -5 -31 -14l-75 -21q-54 -14 -80 -24q-22 -7 -31 -15l-5 -5
q-1 -5 -2 -6l-5 -13l-5 -18l-1 -5l-1 -4l-7 -25l-2 -15l2 -5l6 -2h2l20 6l32 13l9 4l10 3l27 8l24 4q35 2 63 -27z" />
    <glyph glyph-name="six" unicode="6" horiz-adv-x="481" 
d="M100 55q-44 53 -50 122l-1 8v8q0 50 23 115q13 36 26.5 67.5t32.5 67.5l31 59l32 57l58 95q28 46 49 76l3 4l2 2l4 1l3 -1l1 -3l-2 -6l-5 -11v-1l-6 -11l-2 -5l3 -3l6 6l12 14l2 3l11 12l8 5q18 0 27 -1.5t10 -5.5l-1 -6l-3 -5l-2 -2l-5 -8l-2 -8l10 10l13 12l1 1l19 18
l13 8q12 0 17.5 -3.5t5.5 -9.5q0 -11 -26 -53l-57 -89l-58 -90q-24 -40 -26 -53v-2l2 -3l4 -1l9 4l17 8l17 7l20 4l5 1h6q51 0 81 -45t37 -102l1 -16l1 -14v-11q0 -6 -2 -20l-6 -31q-21 -84 -91.5 -157t-161.5 -73q-70 0 -116 55zM309 159q22 27 34 62l6 26l2 24v5v5
q0 28 -15 54t-51 26q-18 0 -37 -6.5t-33 -26.5l-7 -11l-6 -13l-7 -16l-6 -17l-10 -34l-4 -24q0 -31 21.5 -56.5t55.5 -25.5q33 2 57 28z" />
    <glyph glyph-name="seven" unicode="7" horiz-adv-x="464" 
d="M474 743l11 -25l4 -18l2 -14q0 -8 -14 -42l-31 -74l-2 -2l-33 -78l-14 -38l2 -8l6 -2l16 4l27 9l1 1l27 9l15 4l5 -2l2 -5l-4 -7l-9 -4l-7 -2l-9 -3l-7 -4l-6 -5q2 -4 4 -4l10 -1l10 -1q5 -3 5 -5q-3 -4 -5 -5l-10 -4l-11 -4q-4 -1 -5 -5l3 -3h7h3l8 -2q4 -3 4 -5l-3 -6
l-7 -7l-7 -8q-3 -3 -3 -9q0 -8 -1.5 -11.5t-9.5 -8.5l-12 -5l-14 -4l-8 -3l-7 -2q-18 -4 -27 -8l-19 -4q-9 -2 -15.5 -7t-11.5 -16l-41 -109q-14 -37 -33 -81q-27 -64 -40 -89l-2 -4l-3 -3l-5 -6l-5 -4l-5 -3h-4l-9 1l-4 5l-2 2l-2 3l-3 1l-4 -2l-2 -3l-2 -2l-6 -5l-9 -1
l-7 1l-3 6l1 5l3 9v1l3 8l1 5v1l-4 2l-7 -8l-11 -16l-2 -4l-2 -3l-10 -11q-1 -2 -3.5 -3.5t-3.5 -2.5l-3 1h-5l-4 1h-6l-3 -1h-4l-3 2l-1 4q0 10 4 22l10 26l3 7l4 7l8 18l8 17l4 10l4 10l5 15l7 16l9 20l14 32l3 5l16 39l7 21v2l-2 3l-5 2l-12 -2l-16 -4l-3 -2l-17 -4
l-12 -1q-7 0 -9 2l-2 6q0 5 6 11l15 7l5 2l5 2l9 4q1 1 2 6l-3 3l-4 1l-6 -1q-5 -1 -6 -2l-3 -1l-3 -1l-5 -1h-4h-3l-5 2l-2 5q2 6 4 8l8 5l6 2l5 2l1 4l-3 1l-3 1l-6 -1l-7 -1l-4 -1l-8 -2l-5 -1h-3l-5 2l-2 4q4 6 7 8l17 9l14 5l15 6l30 9l20 6l10 3l10 4l3 1l3 1l6 3l7 2
q9 3 14 8l7 13q1 5 2 6l4 7l16 35l21 48l3 5l28 66l13 34l-3 6l-8 2q-7 0 -20 -3l-22 -5l-74 -16l-75 -17l-41 -7q-7 0 -9.5 3.5t-2.5 5.5q0 6 5 10l11 7l8 2q5 1 6 2l4 2l2 2l2 2l1 2l2 2h1l3 3l-2 2l-4 1h-2l-3 -2l-8 -2l-7 -1l-5 1q-5 1 -6 2l-11 7l-4 8q0 6 5 11l13 11
l12 7q2 1 3.5 2.5l2.5 2.5l-3 4l-6 1l-5 -1l-6 -3l-9 -3l-12 -1q-5 1 -6 2l-2 7l3 11q3 5 15 9l15 4l23 5l46 9l81 15l76 15l48 9l16 3l19 4l4 1l4 1l29 5l22 3q8 2 15 -12z" />
    <glyph glyph-name="eight" unicode="8" horiz-adv-x="464" 
d="M450 465l-3 -6l-2 -3l-2 -5l-1 -5v-1l4 -4l2 -3q2 -9 -13 -18l-32 -11h-2l-28 -10q-13 -3 -18 -11q42 -23 60.5 -62t18.5 -84q0 -95 -77.5 -168.5t-172.5 -73.5q-69 0 -116.5 45t-47.5 115q0 72 37.5 122.5t86.5 95.5l-4 4l-3 5q-16 22 -24.5 44.5t-8.5 50.5q0 77 57 133
t125 89q47 21 89.5 33t68.5 12q10 0 17 -4t9 -13q0 -9 -4 -13l-7 -7l-2 -1l-6 -6q-3 -3 -3 -9l1 -4l2 -2l1 -1l2 -4l1 -4q0 -6 -6 -12l-14 -9l-14 -7q-4 -2 -5 -3t-1 -2l2 -3l7 -1h6l7 2h3l7 1l7 1q6 -1 7 -2l2 -6q-4 -5 -6 -7l-15 -7l-16 -6l-17 -4l-30 -9l-20 -5l-24 -9
l-29 -14q-24 -15 -45.5 -34.5t-24.5 -41.5v-4l3 -19q3 -9 11 -17l30 16l52 24l6 3l8 4l62 25q29 12 35 12q7 0 11.5 -3t4.5 -5q0 -6 -6 -12l-14 -11l-14 -9q-2 -1 -3.5 -3t-2.5 -3l3 -5l9 -3l4 -1q8 -2 11.5 -4.5t5.5 -10.5q0 -8 -2 -12zM161 133q15 -20 46 -20q37 0 66 29
t29 66q0 32 -8 48q-7 18 -24 33l-13 11l-15 13l-13 -9l-13 -10q-12 -10 -23.5 -21.5t-21.5 -25.5q-20 -27 -24 -56l-1 -5v-5q0 -27 15 -48z" />
    <glyph glyph-name="nine" unicode="9" horiz-adv-x="481" 
d="M106 325q-33 54 -33 129v6v6q0 18 2 27l6 28q21 85 92.5 156.5t159.5 71.5q62 0 105 -44.5t61 -100.5l6 -28l2 -27q0 -73 -25 -142q-12 -34 -25 -63.5t-28 -57.5l-33 -56l-27 -39l-114 -155q-23 -29 -31 -32l-9 3l3 4l4 7l1 3l2 3l3 7l2 7l-1 3l-8 -5q-3 -7 -11 -12
l-5 -6l-5 -4l-8 -7l-8 -2l-14 1l-2 3v15l-1 6l-3 3l-5 -5l-10 -9l-12 -10l-14 -4h-5l-15 3q-6 3 -6 15q0 7 15 24l33 40l9 12l9 13l23 31l38 54l3 3l41 58l19 31v2l-1 5l-5 2l-2 -2l-36 -18q-19 -7 -39 -7q-64 1 -98 54zM251 594q-23 -26 -37 -60l-10 -32l-3 -28
q0 -48 19.5 -72.5t56.5 -24.5q34 0 57 28t35 65l6 26l2 24l-1 11v12q-3 29 -19.5 53.5t-48.5 24.5q-33 2 -57 -27z" />
    <glyph glyph-name="colon" unicode=":" horiz-adv-x="232" 
d="M78 2l-7 7l-3 7q-1 5 -2 6l-2 3l-3 -1l-3 -5l-3 -7l-5 -3l-7 -1h-5q-6 3 -8 5l-4 12l-2 5v5l1 6l1 7l3 24l4 29q3 26 12 51t26 25q3 0 4.5 -1t2.5 -2l2 -5v-10l3 -3l1 1l3 4l5 9l7 9l13 4l16 -1q6 0 10 -5l7 -2l14 -1q9 0 12 -6t3 -16l-3 -23l-6 -38l-4 -19l-4 -18
l-4 -14l-4 -9q-8 -13 -22.5 -22t-33.5 -9q-11 0 -15 2zM140 288l-7 7l-3 7q-1 5 -2 6l-2 3l-3 -1l-3 -5l-3 -7l-5 -3l-7 -1h-5q-6 3 -8 5l-4 12l-2 5v5l1 6l1 7l3 24l4 29q3 26 12 51t26 25q3 0 4.5 -1t2.5 -2l2 -5v-10l3 -3l1 1l3 4l5 9l7 9l13 4l16 -1q6 0 10 -5l7 -2
l14 -1q9 0 12 -6t3 -16l-3 -23l-6 -38l-4 -19l-4 -18l-4 -14l-4 -9q-9 -15 -23 -23.5t-33 -8.5q-13 2 -15 3z" />
    <glyph glyph-name="semicolon" unicode=";" horiz-adv-x="232" 
d="M46 -102l-1 11l-1 4l-1 10l-1 3l-2 -2l-1 -6l-1 -2l-1 -6l-3 -3l-6 -1l-3 -4l-2 -2l-1 -4l-3 -5l-4 -2h-1h-3l-7 3q-3 3 -3 14l3 30l7 33l5 31l4 32q0 11 5 35l14 58l3 11l3 12q1 7 7 10l16 2l15 3l13 8l2 1l11 7q6 3 14 3q6 -1 7 -2l6 -5l2 -3l3 -3l4 -1l5 2l5 4l2 3
l6 5q3 3 10 3q6 0 9 -3.5t3 -13.5q0 -17 -10 -51q-3 -13 -10 -36.5t-13 -39.5l-6 -15l-4 -15l-9.5 -27.5t-10.5 -23.5l-15 -38l-2 -4l-7 -10l-11 -4q-4 2 -4 4l-1 6v1l-2 7l-3 3l-4 -5l-5 -11l-7 -11q-2 -3 -10 -5q-4 3 -5 5zM140 288l-7 7l-3 7q-1 5 -2 6l-2 3l-3 -1l-3 -5
l-3 -7l-5 -3l-7 -1h-5q-6 3 -8 5l-4 12l-2 5v5l1 6l1 7l3 24l4 29q3 26 12 51t26 25q3 0 4.5 -1t2.5 -2l2 -5v-10l3 -3l1 1l3 4l5 9l7 9l13 4l16 -1q6 0 10 -5l7 -2l14 -1q9 0 12 -6t3 -16l-3 -23l-6 -38l-4 -19l-4 -18l-4 -14l-4 -9q-9 -15 -23 -23.5t-33 -8.5q-13 2 -15 3
z" />
    <glyph glyph-name="question" unicode="?" horiz-adv-x="389" 
d="M208 171l6 -4l6 -5l6 -2l4 1l4 3l4 2l4 1q7 0 12.5 -8.5t5.5 -26.5l-4 -20l-8 -33l-6 -19l-7 -17l-3 -7l-3 -5q-8 -13 -22.5 -22t-33.5 -9q-11 0 -16.5 2t-5.5 7l-1 11q-2 5 -4 5l-3 -3l-4 -5l-7 -7l-7 -2q-4 4 -5 6l-3 15l-1 9v8l1 24l6 34q3 23 12 42t22 22l6 -1l4 -2
v-1l3 -2l5 -1l5 2l8 4l3 2l3 1l5 2l5 1zM77 530q-3 3 -3 8l1 4l4 6l1 1l4 5l2 5l-1 3l-3 2h-2l-7 -4l-8 -6l-5 -4l-4 -4l-4 -2l-4 -1l-4 2l-2 4l-1 5v3q1 5 2 6l3 4l45 36l66 51l13 9l13 10l80 53q38 23 56 23l14 -6l23 -13l8 -6l8 -6q10 -7 15.5 -13.5t6.5 -11.5l-1 -9
l-2 -11l-2 -4v-4l-5 -13l-1 -6l1 -3l3 -1l4 6l6 13l6 12q1 2 3.5 3.5t3.5 2.5l4 -10l2 -26q0 -22 -12.5 -63.5t-31.5 -86.5l-6 -16l-6 -15l-28 -67l-21 -50l-14 -32l-11 -29q-3 -10 -5 -15l-9 -24l-4 -11l-4 -9q-3 -10 -6.5 -14t-8.5 -6l-5 2l-3 5l-1 3v5l1 2v6l-3 3l-2 -2
l-2 -3l-2 1h-2l-3 -4l-4 -8l-6 -8l-8 -4l-6 1l-2 6l1 4l2 5v1l1 4l1 4l-1 3l-7 -4l-7 -11l-6 -8l-5 -5l-4 -3l-10 3l-3 7v4l6 33l15 52l1 4l1 5l13 43l9 30l3 10l4 10l1 2l5 14l4 15l2 10l3 10l1 4l2 5l3 9l3 8l5 14l8 25l3 10l3 10l5 23l3 21q0 12 -3 18t-11 6
q-9 0 -27 -12l-34 -26l-5 -5l-5 -4l-38 -33q-13 -12 -21 -14l-8 1l-2 7l2 5l5 5l2 2l3 2l1 2l-1 4l-3 2l-11 -2l-9 -4l-10 -5l-7 -2z" />
    <glyph glyph-name="A" unicode="A" horiz-adv-x="630" 
d="M229 115l-30 -51l-44 -83l-4 -6l-3 -8l-41 -79l-26 -58q-3 -12 -8.5 -18t-10.5 -6q-6 0 -10 5l-4 11v4v4l1 4l2 3l1 5l1 3l-3 5l-5 3l-1 1q-5 2 -6 4l-3 5q1 5 2 6l4 7l4 8l2 9l-2 4l-4 1l-5 -1l-4 -3l-3 -1l-3 -2l-5 -1q-6 2 -8 4l-3 8l-1 3l1 12l5 7l1 3l3 5l1 6l-3 6
l-5 1l-5 -2l-2 -5l-1 -1l-4 -6l-6 -3l-5 3l-3 6v4q-1 7 8 27l21 35l3 5l23 38l11 21l-2 7l-4 3l-14 -4l-28 -7l-3 -2l-29 -7l-19 -3l-5 3l-3 7v5v7l2 10l3 8l4 7l7 3l11 2l6 1h5l4 1l7 4l2 7q-2 4 -4 5l-10 1q-6 1 -7 2l-2 6l1 4l1 6l6 11q3 6 7 7l109 22l7 1l7 4l3 2l2 2
l62 109q16 30 39 68q20 34 46 73l130 203l77 121l2 2l2 2l3 2l3 1l5 -1l6 -3l5 -3l2 -3l1 -6l-1 -3v-4l-1 -6v-4v-2l2 -4l3 -1l4 2l4 1l3 -2l2 -5l-1 -9l-2 -10l-2 -4v-4l-2 -8v-7v-5l2 -5l5 -2q4 4 5 7l4 17l1 5l4 19q2 5 4 6.5t3 2.5q6 -4 7 -6l2 -18v-7l1 -8l5 -4l3 1
l3 4l2 2l2 2h4h4q6 -3 11.5 -11t5.5 -19l-1 -10l-1 -11l-1 -6v-6l-17 -183l-2 -20l-2 -22l-1 -6v-5l-4 -35l-1 -24v-3l1 -15q1 -5 6 -7l14 4l19 8l19 8l14 4l6 -3l3 -7v-4q0 -9 -6 -17l-11 -10l-6 -3l-5 -3l-5 -3l-1 -3q2 -4 4 -5l8 -1h1l7 -1q4 -2 4 -4q0 -11 -3 -17
q-5 -4 -7 -4l-5 -1l-4 -1l-9 -5l-3 -7l1 -5l5 -1l5 1l6 2l4 1l3 1l4 -2l2 -5l-4 -7l-10 -6l-13 -6l-13 -6l-25 -9l-14 -5q-5 -1 -8 -8l-3 -16l-14 -140q0 -9 -5.5 -14t-16.5 -7q-5 1 -6 2l-2 6l1 5l1 6l1 4l1 5l-3 5l-7 2l-3 -2l-3 -4l-3 -7l-4 -9l-8 -15q-5 -6 -12 -6l-5 1
l-1 5v5l1 6v1v7l1 5q0 7 -2 9l-4 3q-7 0 -13 -15l-4 -35v-3l-2 -5l-4 -2l-5 1l-2 2l-8 -2l-4 -7v-1l-5 -7l-5 -3l-5 3l-2 10l3 35l6 47l1 4l1 4l6 50l4 33l-2 6l-4 2l-6 -1l-8 -3l-3 -1l-4 -1zM450 497l-2 3l-4 2h-2q-3 -1 -11 -12l-20 -32l-120 -199l-1 -3l-2 -3l-1 -3
l-1 -4l1 -4l3 -1l14 2l29 8l88 29z" />
    <glyph glyph-name="B" unicode="B" horiz-adv-x="556" 
d="M74 531l6 4l3 2l3 2l2 3l-1 3l-2 2l-1 2l-4 3l-1 4l2 4l2 2l2 2l1 4l-3 5l-7 3h-1l-8 2q-3 5 -3 8q1 6 2 7l7 5l2 2l4 3l2 4q-2 4 -4 5l-6 3l-8 2l-3 6l6 8l15 10l20 8l23 9l42 13q18 6 22 10l4 5q2 3 3.5 7t2.5 9l9 30l10 32q6 15 12 15l6 -3l3 -6l1 -3l2 -6l6 -1l3 2
l4 1l3 1q5 0 8 -5l2 -9l-1 -5l-1 -6v-2q-1 -5 -2 -6v-4l1 -4l3 -1l5 2l4 5l3 5l5 2l5 -2l4 -5l4 -5l4 -2l25 6l42 16l4 1l41 14q20 6 28 6l14 -2l14 -5q21 -11 44 -37q20 -23 32 -53l6 -20l2 -18q0 -52 -24.5 -97t-53 -78.5t-53.5 -57t-25 -30.5v-2l2 -4l5 -1h8l8 1h8l8 1
q51 0 76 -34t25 -81v-26q-3 -12 -4 -18l-9 -44q-11 -43 -29 -80q-12 -29 -17 -40t-18 -33l-45 -73l-29 -41l-9 -13l-9 -16l-2 -3l-3 -4q-7 -14 -14 -21q-6 -9 -12 -9l-2 1l-2 3l-2 3l-1 4l1 6l3 1l3 3l1 5q-1 5 -2 6l-4 1l-4 -1l-2 -2l-5 -2l-5 -1l-5 2l-2 5v2l3 9l7 7l7 7
l3 6l-1 3l-2 5l-4 2l-5 -1l-5 -4l-8 -2l-10 -2l-8 2l-4 5v2l1 6l3 4l2 2l4 7l2 8l-2 4l-4 1h-4l-2 -2l-6 -1l-4 2l-2 6q0 15 31.5 48.5t68.5 117.5l1 3l2 4l3 8l4 9l7 18l7 20l3 17l2 17q0 44 -25 56q-27 10 -64 10l-15 -1l-20 -3l-26 -8q-10 -4 -12 -12q0 -12 -5 -35
l-6 -54l-1 -3q-2 -24 -3 -35t-5 -29l-3 -35q0 -36 -3.5 -48.5t-14.5 -12.5q-6 0 -9.5 3.5t-3.5 8.5v6l1 6v6v6v7l-1 7q-4 3 -6 3l-5 -3l-2 -5v-1l-3 -7l-6 -3l-5 3l-4 8l-2 5l-2 3l-2 2q-5 -1 -6 -2l-2 -3v-1l-3 -4l-4 -1l-6 3q-1 5 -2 6v2v5l1 6v5v6v3v2v2l-3 6q-3 3 -5 3
l-5 -2l-2 -4l-1 -1l-3 -4l-3 -2q-6 2 -7 4l-1 14l8 71l19 150l2 23l4 24l15 109l7 39t6 22l1 4l1 4v4v4l-2 5l-5 3q-7 0 -16 -5l-20 -11l-21 -11l-15 -5l-4 1l-2 6zM249 385l34 26l42 39l28 30q7 7 14 15t14.5 18.5t13 19t16 28t10.5 38.5q0 16 -7 25t-20 9q-10 0 -24 -5
q-10 -2 -17.5 -4.5t-15.5 -6.5l-26 -13l-22 -13l-4 -4l-4 -3l-9 -49l-12 -69l-7 -40l-6 -36z" />
    <glyph glyph-name="C" unicode="C" horiz-adv-x="426" 
d="M57 278l9 54q13 66 42 134l27.5 62.5t31.5 62.5q6 12 10 18.5t13 18.5q4 7 20 28q11 16 15 20l26 31l28 29q17 16 37 29.5t37 13.5t28.5 -7.5t21.5 -22.5l14 -20l17 -21q6 -6 10 -17l7 -21l2 -12l1 -12l-1 -17q0 -12 -1.5 -17.5t-2.5 -6.5v-6l-4 -22l-1 -16v-1v-4v-4
l-1 -11l-1 -10q-3 -16 -10 -28.5t-15 -12.5l-7 2l-5 4l-2 1l-4 3l-5 2q-5 -2 -6 -4l-3 -7l-1 -3l-7 -13q-3 -5 -11 -5q-5 0 -8 3l-1 8v4v5l-1 6l-4 2q-5 -4 -7 -7l-6 -15l-2 -9l-2 -7l-2 -4l-2 -2l-4 -1h-2l-3 -1l-6 -10l-7 -3l-4 3l-1 7l2 10l7 19l4 22l4 27l2 15l4 23l1 2
l4 23l2 17q0 12 -3.5 22.5t-14.5 11.5q-10 0 -27.5 -30.5t-38.5 -81.5l-23 -62l-20 -67q-15 -51 -24 -98t-9 -82v-11l3 -11q6 -27 27 -51q22 -22 58 -22l14 1l16 3l22 8l23 10l13 6l12 6l15 8l15 10l23 18l12 8l2 -2l1 -4l-1 -3l-3 -3l-2 -2l-2 -4l1 -7l2 -4l1 -3l1 -6
l-3 -6l-6 -5l-2 -1l-6 -4l-2 -5l2 -5l5 -6l4 -6l2 -5q-3 -4 -5 -6q-6 -6 -17 -16q-21 -18 -54 -39l-33 -20l-34 -18l-15 -6.5t-28.5 -9.5t-40.5 -7q-24 0 -43 12.5t-36 31.5l-13 14l-10 13l-9 11l-8 12q-11 17 -17 46l-4 85z" />
    <glyph glyph-name="D" unicode="D" horiz-adv-x="556" 
d="M260 483q0 -8 6 -11l14 -3h2q7 0 13.5 -3.5t7.5 -13.5l-10 -59l-22 -106l-1 -4l-19 -85l-12 -61l-5 -23l-4 -18l-1 -8v-9q1 -5 2 -6l7 -2q10 0 35.5 16t50.5 44q34 35 63 85t29 105q0 70 -52 131q-25 30 -52.5 55t-59.5 47.5t-57 37.5t-49 27l-60 31l-5 2l-5 3l-6 3l-4 3
l-5 4l-2 4l2 4l5 2h1l3 1l2 3l-4 3l-6 4l-8 4l-3 7v3l3 10l6 9l4 5l4 2l3 -1h4l2 -1h2l3 1l1 4l-1 3l-1 4l-2 3v6l2 8l4 7l4 4l2 3l-1 4l-2 3l-3 3l-1 4l2 5l7 3l23 -10l41 -21l6 -4l6 -3l20 -12l17 -10l35 -24l43 -29l61 -43l35 -23q41 -25 66 -53q25 -25 47 -55
q31 -46 44 -93q5 -20 8 -39.5t3 -36.5q0 -118 -70.5 -202t-155 -138t-157.5 -81l-72 -26q-6 0 -9 3l-2 7l2 5l7 3l2 1l8 5q4 5 4 7l-2 3l-5 1l-9 -2l-10 -5l-11 -4l-9 -2q-5 2 -6 4l-3 8l-2 5l-1 4l-3 6l-2 4l-1 4v5l3 2l1 1l3 3l1 3l-4 3h-2l-6 -1h-2l-4 -1l-3 2l-1 3v3
q6 7 10 9l33 17l4 2l15 12q5 6 10 21l23 114l17 98l10 54l3.5 22.5t7.5 31.5l1 6l2 7l8 36l9 43l2 10q0 7 2 11l15 62q6 27 12 27q6 -1 8 -4t2 -5v-7l-1 -5v-4q2 -8 4.5 -11t8.5 -5h2l7 1h6q6 0 9 -3t3 -11v-12z" />
    <glyph glyph-name="E" unicode="E" horiz-adv-x="611" 
d="M250 492l1 6l1 7l11 68l5 36l-2 4l-5 2l-25 -5l-49 -10l-3 -1l-50 -11l-27 -4q-6 0 -9 4l-2 10q0 5 3 8l6 3q5 1 7 4t2 5l-3 7l-4 6l-4 2l-2 4l-2 2q1 8 2 9l5 4h1l4 3l2 6l-3 5l-5 4h-1l-5 3l-2 5q2 7 4 9.5t13 4.5l24 4l42 10l3 1l32 8l24 6l16 3l18 4l16 3l17 4l19 3
l18 4l7 1l21 4l23 4l34 7l42 9l3 1l4 1l60 13l31 7l5 -3l2 -5l-1 -4l-2 -2l3 -7h7l5 1l8 2h1l7 1l6 1l7 -3l2 -7l-2 -4l-3 -2l-1 -1l-4 -3l-2 -5v-1l3 -3l5 -3l4 -6q3 -3 3 -8l-3 -12l-5 -7l-2 -2l-5 -5l-1 -5l1 -3l3 -2h1l3 -4l2 -5q0 -6 -5 -9l-13 -6q-5 -1 -6 -2l-7 -1
l-29 -6l-38 -6l-7 -2l-8 -1q-22 -3 -28 -3.5t-22 -4.5l-35 -4l-9 -4l-6 -8l-7 -29l-10 -46l-2 -8l-1 -7l-11 -60l-5 -33l2 -7l7 -2l17 5l32 11l6 3l7 2l19 5l18 5l19 6l30 10l32 12l19 5l6 -3l4 -6v-2l-3 -7l-5 -3l-2 -1l-4 -2l-2 -4l1 -4l3 -1v-1l3 -4l-2 -5l-3 -4l-2 -2
l-3 -4l-1 -3l1 -5l4 -2l3 -1l4 -4q3 -3 3 -11q0 -24 -9.5 -34t-36.5 -16q-7 -1 -9 -2l-8 -2l-43 -15l-90 -27l-10 -3q-7 -1 -10.5 -2t-6.5 -2l-6 -2t-4 -2l-4 -2l-1 -5l-1 -4l-1 -4l-3 -12l-1 -13l-3 -26l-7 -35l-1 -3l-9 -40l-3 -23l3 -5l8 -1l22 3l43 9l22 3t19 5l24 4
l16 2l23 5l4 1l23 5l18 2l12 2l15 4l2 1l14 3l12 2q9 0 13 -3t6 -13l-3 -8l-6 -6l-3 -1l-5 -6l-2 -5l1 -5l5 -1l1 -1l4 -2l3 -6l-3 -7l-5 -5l-6 -5l-2 -7l2 -4l3 -2l2 -3l2 -3l-2 -5l-5 -4l-5 -7l-2 -6l-1 -4l-3 -3l-6 -2l-6 -1l-3 -1l-64 -8q-21 -3 -64 -10.5t-95 -18.5
l-9 -2l-10 -1l-7 -1l-6 -1l-8 -1l-8 -2l-12 -3l-14 -2l-16 -3l-16 -3l-44 -5l-24 -2l-10 -1l-13 -5l-4 -1q-8 0 -12 -2l-10 -2q-7 1 -9 2q-4 5 -4 7q1 5 2 6l5 5l2 2l3 3l1 4l-1 3l-3 2l-4 3l-6 3l-2 7q0 6 3 9l9 5l3 1l5 3l3 5l-3 5l-4 2l-3 3l-7 6l-3 6l2 4l6 5l15 7l18 8
l24 7l15 4l2 3l3 9l3 13l3 16l3 21l2 16l1 17l4 21l3 20l2 17l-1 7l-3 3l-18 -4l-32 -7l-2 -1l-32 -8l-19 -3l-6 1l-2 7l1 3l2 2l2 2l1 4q0 6 -4 7l-7 2h-1l-7 1q-3 4 -3 6l1 3l2 2l3 3l3 1l1 7l-3 2l-3 1l-4 -1l-7 -1l-2 -1q-5 -1 -6 -2h-5q-5 1 -6 2l-2 6v1l1 3l3 4l1 1
l2 3l2 6l-2 4l-2 2h-1l-3 2l-1 4q2 4 4 5l11 4l16 4l20 5l23 5l30 8l4 1l45 10l21 5l3 2l3 6l2 8l2 12z" />
    <glyph glyph-name="F" unicode="F" horiz-adv-x="574" 
d="M253 148l6 37l1 3l7 42l3 26l-2 4l-4 1l-24 -6l-41 -11l-41 -12l-24 -5l-7 2l-2 6l1 4l3 3l1 1l2 2l-1 5l-4 2l-5 -1h-5h-3q-5 -1 -6 -2h-5l-5 2l-1 1v4l1 5v5q0 10 -6 14t-18 6l-5 -1h-4l-3 -2h-4l-6 3l-2 6l-1 4v4v1q3 5 5 7l11 5q40 14 62.5 21t66.5 19l80 24l7 2l8 4
l5 8l5 31l3 34v3v7l1 8l3 21l4 30l3 16l2 17q0 15 2 23l1 23q0 6 -2 8l-7 2l-35 -7l-56 -14h-3l-57 -16l-32 -6h-2l-9 1l-4 6l1 3l2 3l1 1l2 3l2 5l-2 5l-5 3l-4 -1l-7 -2q-5 -1 -6 -2l-6 -1h-4l-8 2l-2 6l1 5q1 5 2 6v2l1 5l1 5l-3 4l-7 1q-11 0 -20 6q-6 6 -6 15
q0 8 3.5 13t9.5 6l68 19l95 25l21 4l22 6l135 29l84 15l19 4l26 6h2l28 7l21 3l7 -4l5 -8v-4l1 -4l-3 -11l-6 -5l-2 -1l-5 -3l-2 -6l1 -3l3 -2l3 -1l5 -5l2 -9q0 -8 -3 -13l-7 -7l-2 -2l-6 -6l-2 -6l3 -4l7 -2h1l7 -2q4 -4 4 -6q0 -6 -17 -12l-60 -9l-10 -1l-11 -1
q-10 0 -18 -4q-10 -2 -12 -5l-6 -8l-4 -10l-1 -4l-5 -35l-8 -59l-10 -63l-4 -32l1 -7l7 -2l27 9l50 21l3 1l49 20q23 9 30 9l6 -3l5 -7v-4q1 -10 -3 -16l-7 -6l-3 -1l-7 -4l-2 -4v-1l1 -4l4 -2l2 -2l4 -1l6 -7l4 -10l-3 -11l-7 -5l-3 -2l-6 -3l-1 -3q0 -6 4 -7l10 -1l5 -3
l2 -7q-3 -5 -5 -6l-9 -4l-4 -1q-13 -2 -40 -13l-116 -41q-14 -3 -19 -8l-6 -8l-12 -50l-18 -97q0 -8 -2 -12l-2 -11l-17 -94l-9 -64q0 -11 -4 -20l-8 -17l-3 -9l-1 -14l-1 -8v-8l-1 -6q0 -6 -4.5 -12.5t-13.5 -8.5l-4 1q-5 2 -6 4l-2 8v7l1 7v1v8l1 6v2q-1 7 -3.5 10t-5.5 3
l-5 -1l-4 -3l-4 -2l-4 -1q-6 0 -9 5l-4 10v5v4v4v5v2q-1 5 -3 7t-4 2l-7 -1l-4 -5l-1 -1l-4 -2l-4 -2l-6 3l-3 5v4v21q3 11 4 17l9 45v5l2 5l3 22t5 19l6 35z" />
    <glyph glyph-name="G" unicode="G" horiz-adv-x="537" 
d="M47 242q10 40 27 88l16 43l18 43q15 36 31 65l25 44l2 2l2 4q13 19 28 38l32 39q36 43 68 72q53 50 102.5 84.5t76.5 34.5q15 0 21 -5.5t6 -15.5q0 -7 -2 -11l-3 -9l-4 -8l-1 -5l3 -6l7 -2l3 1l5 2h1l4 1l4 1l7 -3l3 -6l-3 -8l-6 -5l-4 -4l-4 -4l-1 -3l2 -5l5 -2h2l4 1
l7 2h1q5 1 6 2l5 1l2 -2l2 -3v-2l-2 -5l-5 -5l-7 -4l-6 -4l-8 -4l-7 -3q-25 -10 -56 -33q-27 -20 -59 -52q-13 -13 -32 -34l-33 -38l-60 -78q-45 -65 -83 -135q-32 -64 -32 -92l1 -5l3 -7l7 -2q9 0 36 21l27 22l31 28l7 6l6 6l43 39l31 31q48 48 86 91q33 39 47 39
q9 0 16 -8l13 -18l3 -10l2 -8l-1 -8v-7l-1 -3l-1 -3v-4l1 -8h6l3 4l3 4l3 4l3 1l5 -2l4 -6l-16 -87q-15 -83 -46 -178q-10 -31 -20.5 -60t-24.5 -62q-25 -59 -52 -96l-3 -4l-4 -4l-1 -2l-6 -7l-2 -5l-2 -4l-3 -3l-5 -1l-4 2l-1 3v2v5l2 4l1 1l1 4l1 6l-4 3l-4 -1l-2 -5
l-13 -27q-6 -20 -30 -42l-17 -11q-9 -5 -20 -6l-4 -1h-4q-20 0 -34 18q-11 17 -15 38l-1 6v4q0 17 5 33q2 9 5 17.5t8 21.5l6 16l6 14q5 13 6.5 17.5t7.5 13.5l11 24l4 8l5 10l6 11l8 10q3 7 8 9l9 4l4 -2l1 -4l-3 -9l-6 -9l-6 -10l-3 -9q1 -5 2 -6l5 -4l5 -4l2 -6l-6 -19
l-12 -30l-2 -5l-2 -5l-10 -29l-4 -23l3 -12q2 -3 10 -5q8 0 14 12l10 26l1 3l1 3l4 15l6 12l4 8l4 12l1 5l2 5l5 19l3 13q1 7 2 9l3 10q1 5 2 6l3 6l2 8l3 7l7 24l11 39l2 7l11 47l6 25l-1 6q-3 3 -5 3q-5 -4 -8 -6q-14 -10 -22 -18l-55 -51l-2 -2l-52 -49l-30 -28l-12 -12
l-15 -16l-2 -2l-2 -2l-20 -18l-13 -8q-5 1 -6 2l-2 7l1 4l3 4l2 4l1 4q-1 5 -2 6l-4 2q-7 -3 -9 -5l-10 -9l-5 -5l-4 -4l-7 -4l-6 -2l-8 2l-6 5l-3 3l-3 4l-2 2l-2 2q-14 14 -26 38q-8 22 -13 50l-1 11v12q0 31 10 72z" />
    <glyph glyph-name="H" unicode="H" horiz-adv-x="630" 
d="M642 382l-7 -5l-2 -2l-6 -5l-2 -5l1 -4l5 -2l3 -2q5 -2 7 -5.5t2 -5.5l-3 -3q-5 -5 -11 -8l-29 -12l-14 -6q-8 -2 -12 -5l-8 -5l-6 -4l-4 -15l-5 -31l-1 -12l-1 -10l-5 -41l-3 -25l-3 -22l-4 -21l-3 -13q0 -8 -2 -12l-9 -43l-5 -37l-3 -7l-3 -2l-1 1l-2 5l-3 3l-4 2
l-3 -3l-1 -3l-2 -4l-3 -2l-2 1l-1 2l-3 1l-4 1l-4 -6l-2 -11l-1 -3v-4l-4 -17q-1 -6 -6 -8l-6 3l-4 6v1l-4 6l-6 3l-5 -1l-4 -3l-5 -6l-5 -6l-11 -11q-7 -5 -14 -5q-6 0 -11 4l-4 11l1 10l3 15l1 2l2 13l2 9l7 41l8 55l1 5l11 81l6 39l-1 6l-3 2l-18 -6l-34 -11l-3 -2
l-29 -11q-11 -3 -17 -7l-9 -3l-11 -3l-4 -2l-4 -1q-14 -2 -21 -5l-11 -4l-5 -7l-3 -10q-1 -5 -2 -6l-1 -5l-7 -31l-10 -43l-2 -7l-1 -7l-11 -53l-5 -35l-3 -20l-7 -27l-1 -1l-7 -26l-3 -20l-2 -8q-3 -4 -5 -4l-4 2l-3 3l-4 4l-4 1l-6 -3l-4 -6l-1 -2l-5 -6l-6 -4l-5 3l-5 2
l-3 1l-11 -6l-9 -13l-7 -9l-7 -7l-4 -2l-3 -1l-5 3l-4 5l-1 1l-3 5l-4 2l-4 -1l-3 -4l-2 -3l-1 -3l-7 -6l-10 -4l-4 3l-1 5v5q0 7 3 18.5t5 18.5l17 67l1 5l14 56l9 41l4 19l6 29l7 33l4 18l-2 3l-3 1l-10 -1h-10l-10 -2l-10 -1l-6 -1l-7 -1l-4 -1l-10 -3l-6 -1h-6l-4 1l1 4
l1 4l1 5l-2 2l-6 2l-5 1l-9 3l-4 10l3 8l7 7l3 3l5 4l2 6l-1 4l-2 2l-2 1l-12 -1l-9 -3l-10 -3l-12 -1l-5 2l-2 4l3 8q5 4 7 4l93 29l65 19l5 3l4 5l5 25l5 25l2 14l3 14l17 86l20 86l3 15l3 15q0 7 2 11q1 7 2 9l2 12l4 17l1 5l1 5l3 23l3 16l2 8l2 11l4 11l4 9l3 2
q4 -2 5 -4l2 -8v-1l1 -9l6 -4q5 3 6 5l5 13l1 6q1 5 2 6l8 20q6 9 17 9l5 -3l3 -5v-1q1 -5 2 -6l5 -2l4 2l4 5l2 3l2 4l7 9q2 4 11 5q12 0 17.5 -5t5.5 -17q0 -9 -1 -15l-7 -29l-16 -75l-1 -4l-17 -70l-8 -43l-5 -29l-6 -32l-3 -12l-3 -12l-13 -52l-5 -27l2 -7l6 -2
q6 1 9.5 2t14.5 6l42 19l4 2l27 11l23 9l27 9l13 6l2 3l7 29l3 31q0 15 5 37q1 9 2.5 17t5.5 19q1 7 2 11.5t2 6.5l5 31l4 30l4 34l6 35l5 34l4 35l1 12l3 17l7 22q3 10 10 11q9 0 14 -3l4 -8l1 -10l4 -3l3 1l4 3l4 7l5 9l9 14q5 6 10 6q7 0 10 -3t3 -7v-5l-1 -3l2 -7l5 -1
l5 4l2 2l3 4l5 7q3 3 8 3l5 -3l2 -6l-1 -19l-1 -19l-3 -26q0 -13 -2 -20l-1 -7l-1 -6l-2 -17l-2 -20q0 -13 -2 -24t-3 -17l-9 -54l-2 -8l-1 -6l-12 -62l-5 -32v-4l3 -6l8 -2l8 2l10 6l10 5l12 3q6 -1 8 -4t2 -5q0 -6 -3 -9l-5 -5l-2 -2l-4 -4l-1 -5l3 -9l7 -6l7 -8
q3 -3 3 -8t-4 -10z" />
    <glyph glyph-name="I" unicode="I" horiz-adv-x="500" 
d="M393 239q-10 -52 -12 -59q-8 -28 -11 -41l-1 -3l-24 -101l-12 -51q0 -10 -16 -19l-32 -13l-20 -4l-16 -2l-11 4l-11 9q-10 10 -18 25l-15 28l-16 34l-9 26l-5 11l-4 10l-6 9l-4 10q-1 5 -2 6l-1 7l1 6q2 8 4 11t8 4q6 0 9 -3l5 -5l2 -2l2 -2l2 -3h4q4 4 4 6l3 11v4l1 4
l5 17q3 7 10 8q6 0 9 -8l5 -17v-4l8 -24q5 -9 14 -9q6 0 10 7l4 15l4 23l7 38l1 2l7 40l4 24q-2 6 -4 8l-8 4l-29 -3l-38 -7q-16 -2 -22 -3.5t-17 -4.5l-29 -3q-6 0 -9 4l-3 10l-1 3q0 6 -5 11q-3 6 -14 6h-4l-4 -1h-5q-5 -1 -6 -2h-4q-6 2 -7 4l-1 11v2q0 7 -3 11.5t-7 4.5
q-14 0 -17.5 1.5t-5.5 6.5q0 12 11 15l30 6h4l5 1q15 0 43 7l62 15l6 1l5 2q10 1 19.5 2.5t22.5 5.5l38 8l14 4q5 3 6 10l6 31l8 43l1 4l1 5l10 53l4 35q0 8 -4.5 13.5t-16.5 11.5l-43 15l-71 22l-87 27q-30 10 -38 20l-2 2l3 13l6 9l4 4l4 4l1 4l-1 4q-1 5 -2 6l-2 5l-1 7
l2 5l5 3l5 3l2 6l-2 5l-3 6l-2 3l-3 3v4v2l3 6l6 5l3 1l3 1q9 0 61 -17l117 -36q5 -1 8 -2t4 -2l111 -36q52 -17 56.5 -20t9.5 -12l4 -18q0 -6 -1 -17.5t-3.5 -26.5t-3.5 -29q-5 -22 -7 -33l-2 -10l-2 -9l-13 -66l-6 -30v-5l2 -4l5 -2l12 4l18 9l6 3l8 3l10 4l11 2l6 -3
l2 -7q0 -8 -3 -13l-5 -5l-2 -2l-6 -4l-1 -4q1 -5 2 -6l5 -2h1l4 -2l2 -4l-2 -4l-2 -2l-4 -4l-1 -3l2 -5l5 -4l1 -1l3 -3l2 -3l-3 -7l-6 -4l-2 -2l-7 -3l-1 -3l1 -3l4 -1l4 1l6 -2l1 -4q0 -6 -16 -12l-34 -9l-5 -1l-37 -9q-16 -4 -17 -14q0 -7 -1.5 -16t-9.5 -40z" />
    <glyph glyph-name="J" unicode="J" horiz-adv-x="500" 
d="M248 41l4 16q0 11 0.5 16t4.5 21l11 53l1 5l11 59l6 34l-2 3l-3 2h-2l-19 -4l-40 -7l-7 -2h-6l-38 -7l-27 -2h-2l-5 3l-2 4l1 7l1 2l1 5l1 3l-2 3l-6 2l-7 -1h-6h-5l-5 -1h-4l-7 1l-8 2l-3 5l2 6v4l1 4l-1 3l-2 3h-2l-3 -1l-5 -1l-2 -1l-4 -2h-4l-4 2l-4 4l-3 4l-2 2
l-5 1l-7 3l-2 8q0 7 2 9l6 4l6 1l6 1l2 1l10 2l12 2l11 1l12 3l10 2l12 1q11 0 24 4l31 8l3 1l26 7l23 4l12 2l17 4l5 1l13 3l11 3l6 3l7 8l6 16l6 37l4 23l4 22l7 31l4 15l3 15l3 24l2 22q0 5 -15 14l-40 16l-42 12l-47 12l-100 25q-45 12 -45 23q0 8 3 13l7 4l2 1l5 1l3 4
l-1 5l-3 4l-1 2l-5 6l-1 8q0 9 5 12l12 4h4l8 2q4 3 4 5q-2 6 -4 7l-7 3h-1l-8 4q-4 5 -4 8q0 6 3 9t11 3q11 0 37.5 -6t79.5 -21l93.5 -27l99.5 -31l14 -4q10 -2 15 -5l16 -5l17 -5l3 -1q10 -3 17.5 -9t8.5 -18l-6 -42l-14 -69l-1 -6l-1 -6l-14 -63l-8 -36l-6 -20l-2 -12
q1 -5 2 -6l5 -2l13 4l20 10l3 1l20 10l12 5l3 -4l3 -8v-6v-3l-3 -15l-5 -8l-2 -2l-2 -2l-3 -4l-1 -5l3 -4l4 -1h1l4 -2q3 -4 3 -7q-1 -7 -2 -9l-5 -7h-1l-5 -7l-2 -7l2 -3l4 -1h2l4 -1l3 -4l-1 -3l-3 -2l-16 -8l-22 -7l-27 -7l-15 -3l-7 -3l-5 -5l-2 -2q-7 -8 -20 -78
l-30 -148q-14 -67 -30.5 -122t-36.5 -84q-6 -9 -16 -12l-22 -4q-24 0 -47 36q-19 33 -38 80l-19 52l-14 41l-2 5l-2 7l-1 3l-1 3l-4 13l-1 8l1 4l3 1l5 -1l3 -2l2 -2l3 -1q5 4 7 6l5 13l1 10l1 7l2 7l2 5l4 3l5 -1l3 -1l2 -1l5 4l1 11l1 4l1 13q0 6 5 6q2 -2 4.5 -5t4.5 -9
l8 -31l6 -28l5 -16l5 -13l4 -10l4 -8l5 -3q5 2 7 4z" />
    <glyph glyph-name="K" unicode="K" horiz-adv-x="574" 
d="M191 143l-10 -80l-1 -10l-3 -12l-7 -19q-3 -7 -10 -8l-8 2l-8 5l-8 4l-9 2h-5l-3 -1l-10 3l-3 6v2v4q1 5 2 6v1v5l1 4l-2 8l-5 4l-4 1l-6 -3l-6 -6l-2 -2l-2 -2l-4 -4l-4 -1q-6 0 -9 4l-4 10v5v6v6v18q3 9 4 13l7 31l6 34l4 32q0 9 -5 14l-9 6l-4 2l-7 3q-3 5 -3 7
q0 8 5 12l13 7l4 1l3 1l5 2l4 3l6 12l5 22l3 20l5 22l1 3l1 4l19 78q4 20 12.5 56.5t16.5 65.5l15 62l17 57q12 40 24.5 64.5t23.5 25.5l11 -1q6 0 14 -4q15 -5 27 -15.5t14 -27.5l-1 -5l-1 -4l-2 -3l-1 -3l-4 -8l-1 -11l1 -5l4 -1l7 1l1 1l5 1l3 1l3 -3l2 -8l-12 -59
l-27 -104l-2 -5l-1 -5l-24 -89l-15 -57l-3 -10l-1 -8l1 -3l2 -4l5 -1q11 0 27.5 19.5t37.5 51.5l10 17l11 18l35 62l21 40q12 20 25 53l29 68l8 21l10 21q18 44 36 75.5t35 31.5l8 -2l10 -5l16 -18l16 -22l8 -21l5 -16l-1 -6l-2 -5l-3 -5l-2 -5l-7 -9l-2 -6l2 -4l7 -1l4 -3
l1 -5l-31 -66l-41 -83l-30 -55l-11 -22l-12 -21q-28 -52 -55.5 -94.5t-46.5 -59.5l-16 -13l-10 -6q3 -10 16 -21l27 -25l19 -19l16 -19q6 -12 18.5 -21.5t27.5 -9.5l9 1l10 4l22 16l21 22l24 29q10 13 14 14h2l5 -3l2 -4l-3 -7l-5 -6l-7 -6l-2 -5v-2l3 -3l5 2l3 1h3l3 -2
l2 -3v-2l-3 -12l-5 -10l-7 -10l-2 -9l4 -3l6 2l3 1l4 1l3 -2l2 -7q-3 -4 -4 -7q-6 -11 -13 -20l-40 -49l-11 -14l-12 -12q-18 -18 -38 -34t-31 -16l-22 3q-7 1 -15 9q-14 11 -41 47q-24 36 -106 106l-5 4l-4 4l-3 2l-17 14q-3 2 -6.5 3.5t-4.5 2.5q-3 -6 -4 -10
q-4 -11 -6 -18z" />
    <glyph glyph-name="L" unicode="L" horiz-adv-x="481" 
d="M-3 36l14 8l45 13q9 2 12 5l8 13l2 8l4 11l22 109l47 229l45 219l24 111q1 5 2 8t2 4l6 11q4 4 13 4q5 0 8 -5l4 -9v-4l2 -8l5 -3l5 1l4 3l4 2l4 1h2l5 -6l2 -8l-1 -4l-1 -3v-1l-2 -3v-5l1 -6l5 -1l8 2l5 7l3 2l2 3l2 2l3 1l6 -3l3 -6l3 -6l6 -3l5 2l4 1q6 -2 8 -4l4 -11
l-21 -91l-47 -192q-1 -5 -2 -6l-1 -6l-40 -168l-23 -111q-3 -23 -7 -32l-2 -13q1 -5 2 -6l4 -2l16 3l24 7l12 4l14 3l21 4l23 4l8 2l8 1l42 9q22 3 30 8l7 2l10 2l4 1l3 1q11 0 16 2l10 2q5 -1 7 -3t2 -4l-1 -3l-3 -2h-1l-4 -3l-1 -4l4 -4l3 -3l5 -5q3 -3 3 -8
q-1 -2 -2 -4.5t-4 -4.5l-12 -7q-5 -1 -6 -2l-4 -2l-6 -4l-2 -4q3 -5 5 -6l10 -3l2 -1l9 -3q5 -3 5 -5l-3 -7l-4 -5l-3 -2l-2 -2l-2 -3l-1 -3l4 -3l4 -1l4 -4q3 -5 3 -8q0 -6 -8 -9l-30 -5l-32 -5l-58 -12q-16 -2 -22 -3.5t-17 -4.5l-32 -6l-72 -14l-49 -7l-25 -4l-39 -7
l-4 -1l-41 -7l-27 -3h-2q-7 0 -10 2l-4 5l3 10l8 4l2 1l6 3q3 3 3 5l-3 5l-5 2q-5 1 -6 2l-2 4l2 5l7 2v1l5 2l3 4l-3 3l-5 2h-4l-8 3q-3 4 -3 6l1 5l4 3l3 2l2 3l-2 3l-4 2h-1l-5 3l-2 6z" />
    <glyph glyph-name="M" unicode="M" horiz-adv-x="815" 
d="M337 786l14 -8q12 -9 21.5 -21.5t11.5 -29.5l-3 -42l-7 -43l-4 -20l-4 -20l-12 -53l-6 -44q0 -12 -7 -36l-13 -51l-10 -40l-8 -34l-2 -10l-2 -10l-4 -14l-2 -10v-1v-1l2 -2q7 5 9 9l16 26l37 67l144 267l5 5l7 1l4 -1l4 -1l4 -2l3 -1l3 1h3l2 -2l1 -5v-2l-1 -4l-1 -5
l-2 -3l-1 -3v-5l4 -7l7 -2l3 1l4 2l3 1l3 1q6 -5 7 -9l4 -20l1 -16l1 -11l-1 -19l-3 -17l-3 -15l-1 -11l-3 -38l-7 -42l-2 -8l-1 -8l-6 -33l-5 -29l-3 -12q0 -8 -2 -12l-5 -24l-2 -24q1 -5 2 -6l4 -2q6 0 22 32l32 72l2 4l27 62q11 28 21 41l9 14l12 22l2 4l2 4l11 23l8 18
l11 20q6 9 17 9l7 -1l7 -2l5 -2l4 -1l5 -1q5 -1 8 -3t10 -9.5t7 -17.5l-1 -11l-3 -11l-2 -3v-4l-5 -15l-2 -15v-5l2 -5l4 -2q5 2 6 4l4 10l1 2l2 8l5 3l3 -4l2 -10l-1 -8l-1 -14l-1 -9v-9v-6v-7v-8v-8v-5l1 -4v-12v-11l-2 -39l-4 -65l-1 -5v-4l-4 -58l-3 -35l-2 -25l-4 -39
l-1 -3l-4 -41l-2 -26v-2v-2v-3q0 -12 -3.5 -19t-8.5 -7l-5 3l-1 7v3v5l1 6l1 2v7l1 6v4l-3 7q-3 3 -5 3q-5 0 -8 -8l-4 -18l-1 -4q0 -11 -3.5 -20t-11.5 -9q-5 3 -6 5l-2 11v1q0 7 -2 11t-4 4q-4 -2 -5 -4l-3 -9l-2 -4q0 -7 -3 -11.5t-9 -5.5l-3 3l-1 8v2q-1 7 -3 10t-4 3
q-5 -4 -7 -8l-3 -16l-2 -14v-9q0 -11 -4 -15.5t-12 -5.5q-5 2 -6 4l-2 8l1 14l4 15q0 10 2 15l2 15l1 15q0 12 2 18v1l3 18l1 15l1 12q2 12 5 18l1 6l2 14l2 12v7l1 7v14l1 14l1 17l3 15l3 12l1 7l-2 4l-3 2l-8 -9l-10 -19l-2 -3l-1 -4l-10 -21l-6 -12l-14 -27l-21 -40
l-2 -3l-23 -41l-15 -24l-13 -24l-18 -39l-5 -9l-4 -8l-14 -24q-6 -13 -13 -18l-3 -3l-4 -4l-7 -7l-8 -4l-8 4l-9 7l-3 4l-3 3l-8 10l-6 6l-5 7l-2 7v4l1 4v5l1 6v5l-2 8q-2 4 -4 4l-5 -3l-4 -6l-4 -7l-4 -3l-6 3l-1 7l1 10q0 10 2 16v3l1 5l1 6l6 40l13 63l1 5l13 69l7 34
q-2 6 -4 8l-9 4h-2q-3 -4 -5 -6q-8 -10 -13 -18l-30 -52l-1 -4l-2 -3l-22 -41l-16 -30l-27 -49l-31 -54l-3 -4l-3 -5l-56 -94l-33 -57l-6 -7l-10 -2l-3 1l-4 3l-4 3l-2 3l-2 3l-4 9l-3 6l-6 8l-7 6l-5 4l-4 3l-6 7l-2 10q0 21 2 33t9 49l25 121l3 14l4 15l16 74l15 63l10 48
l17 80l1 4l18 91l9 45v2l-3 5l-6 2l-11 -7l-18 -14l-1 -2l-17 -14l-10 -8l-7 -5l-6 -5l-16 -15q-6 -6 -11 -7l-3 1l-2 2l-1 2l2 3l2 2l2 2l3 1l4 3l4 4l3 5v3l-1 4l-4 2l-5 -3l-5 -5l-5 -5l-4 -3l-3 -1l-4 1v5l4 5l2 3l2 4l1 4l-1 7l-5 2q-6 -3 -8 -5l-11 -10l-1 -1l-10 -11
l-8 -4l-3 2l-1 8l-1 6l-3 2l-4 -1l-3 -2l-2 -2l-8 -6l-4 -2l-4 1l-4 2l-1 5q1 1 1 2q4 7 10 13l26 25l2 2l3 2l24 22l16 13l31 28l28 27l16 15l20 18l21 18l17 16l8 8l8 10l32 36q14 15 30 17q9 -1 12 -3z" />
    <glyph glyph-name="N" unicode="N" horiz-adv-x="630" 
d="M593 368l-3 -60q0 -25 -5 -58l-4 -54l-11 -93l-4 -48v-4v-5l-3 -14q-2 -6 -7 -6l-5 3l-2 7l-4 6l-4 3q-6 -2 -6 -4l-1 -10v-1q0 -7 -2 -11q-4 -4 -7 -4q-4 2 -5 4l-1 10q-1 7 -2.5 10t-3.5 3q-6 -4 -8 -7l-4 -14l-1 -3l-6 -20q-3 -6 -12 -8q-6 3 -6 5l-1 10l-1 9
q-3 5 -5 5q-6 -4 -8 -7l-4 -12q0 -7 -2 -10v-8v-4q-1 -7 -2 -10t-8 -4q-7 2 -9 4l-5 9v2l2 23l5 41v4l1 5l4 38l2 29l3 41l6 45l6 46l3 52v4v4v4v4q0 9 -2 14q0 6 -8 7q-7 -5 -9 -9l-11 -18l-1 -1l-10 -15l-7 -9l-47 -63l-80 -116l-2 -4l-83 -123l-43 -64l-2 -2l-2 -3
l-10 -8l-12 -4q-7 2 -9 4l-8 9l-2 3l-2 3l-4 4l-3 4q-11 11 -19 25l-5 19l1 7l2 9l1 9l1 10l18 87l39 178l36 166l20 86l1 6l2 8l1 5q0 7 2 11l1 9l-1 7q-3 3 -5 3q-6 0 -15 -10l-20 -20l-2 -2l-20 -21q-7 -6 -15 -8l-4 2l-1 4l1 4l2 3l2 5l-1 4l-4 2l-5 -2l-6 -3l-4 -2
q-5 -1 -6 -2l-5 -1l-4 2l-2 4l1 4l3 4l2 1l4 4l2 7l-3 3l-5 1h-5l-4 -1l-6 -3q-5 -2 -6 -4l-3 -2l-12 -9q-3 -3 -9 -3l-5 2l-2 5q0 6 12 18l27 25l2 2l7 7l8 7l2 2l2 2l33 35l76 77l10 9l11 10l18 15l16 12l7 7l8 11l2 2l3 4l8 9l8 4l12 -3l10 -7l2 -3l3 -2l5 -5l3 -4l1 -5
l1 -6l1 -11q3 -4 5 -4l3 1l3 3l2 3l3 1l6 -3l1 -6v-2l-1 -14l-1 -15l-1 -10l-1 -9q0 -12 -2 -18l-1 -12q0 -15 -4 -36.5l-8 -41.5l-7 -35q-6 -27 -15 -64l-5 -19l-4 -18q-15 -66 -30 -117l-13 -55l1 -8q2 -4 4 -4q6 0 13 13l17 29l7 12l8 11l25 38l50 76l50 78l25 40
q16 35 27.5 48.5t18.5 15.5l5 -1l6 -1l10 -6q4 -2 5 -11l-2 -14l-2 -14q0 -7 -2 -11l-2 -10l1 -8q5 -3 7 -3q6 0 7 7l2 17v2l1 14q0 6 5 7l5 -3l8 -18l7 -25l3 -13l1 -11l2 -12l4 -19l4 -31l2 -42v-20v-18q-2 -13 -2 -19z" />
    <glyph glyph-name="O" unicode="O" horiz-adv-x="537" 
d="M102 452q57 109 135 182q84 80 147 109l83 35q14 3 29.5 7.5t27.5 9.5l19 4h2q7 -1 9 -2q4 -5 4 -7v-1l-3 -8l-7 -4l-2 -2l-6 -4l-2 -3l2 -3h7h3l5 -2q4 -3 4 -5q0 -6 -5 -9l-10 -6h-2l-10 -6q-4 -5 -4 -7l5 -4h2l5 -3l2 -5q-3 -5 -5 -7l-9 -5l-1 -1l-9 -5l-4 -6
q2 -4 4 -5l11 -1h5l14 -3q6 -3 6 -12q0 -6 -4 -9l-10 -3l-3 -2l-28 -9l-39 -15l-12 -4l-10 -4l-9 -3l-8 -2q-21 -6 -51 -27q-25 -17 -58 -48q-53 -52 -98.5 -127t-57.5 -154q0 -12 -2 -19v-18v-15l3 -15q5 -31 23.5 -55.5t52.5 -24.5q53 0 89.5 56t58.5 125l20 83
q3 20 5 36.5t2 29.5l1 25l4 30l3 34l2 41q0 9 1 12.5t3 5t3 2.5q6 -2 6 -4l2 -8l1 -8q4 -4 6 -4l3 1l2 4v1l3 4l5 2q4 -2 5 -4l3 -7l1 -5v-4v-4l-1 -4v-4l-1 -6v-6l1 -6l4 -2l4 3l4 8l1 4l4 10q2 4 8 5q4 -3 4 -5l3 -11q0 -7 1.5 -11t5.5 -5q5 2 6 4l5 10l1 1q2 7 4.5 10
t7.5 5q9 0 12 -13l4 -28v-8v-8v-13l-1 -12q0 -16 -2 -26q0 -13 -4 -24v-1l-15 -88q-9 -67 -46 -141q-14 -30 -35.5 -62t-50.5 -61l-2 -2q-22 -21 -57 -42q-16 -10 -30 -16t-36 -13l-22 -4l-22 -1q-29 0 -48 8l-40 22l-9 6l-10 8q-45 34 -62 76q-14 44 -14 97q0 125 58 235z
" />
    <glyph glyph-name="P" unicode="P" horiz-adv-x="556" 
d="M226 564l4 -20v-4q0 -13 2 -19q0 -5 6 -7l7 3l4 8l1 1l4 8l9 4q11 0 14 -10t3 -24v-4v-7l1 -16q3 -5 5 -5q6 2 6 4l2 9v1l1 8q3 4 5 4q4 -2 5 -4l2 -7v-4q0 -16 -14 -92l-31 -172l-1 -6l-1 -6l-28 -146l-17 -92l-7 -41l-5 -30q-2 -12 -4.5 -17.5t-7.5 -5.5q-4 2 -5 4v9v3
q0 8 -3 12.5t-6 4.5q-7 -6 -9 -11l-13 -24q-5 -11 -14.5 -21.5t-19.5 -12.5q-4 2 -5 4l-3 9l-1 2l-3 9l-4 3q-6 0 -10 -7l-5 -18l-1 -2l-6 -19q-3 -9 -13 -9q-6 0 -9 5l-2 12l1 12l2 8l1 4l2 4v4l2 23l5 29l1 10l2 8l6 28l4 16l15 73l18 95l10 56l12 52l6 27l5 27l3 18l4 19
l8 47q3 25 10 50l5 26l7 32q4 26 11 51.5t16 25.5q8 1 11 -9zM535 240l-1 -21q0 -16 -3 -30t-14.5 -42t-40.5 -47l-6 -5l-5 -4l-3 -2l-2 -2l-18 -13q-6 -3 -11 -4t-17 -1q-6 0 -15 6l-17 14l-9 8l-7 10l-14 16l-10 14l-46 70l-9 22v2l2 3l4 3q5 -2 6 -4l5 -7l5 -9l4 -3l4 1
l2 3l-3 9l-6 12v2l-7 13l-3 9l4 5l3 -1l4 -1l3 -2l5 -4l3 -1l4 1l3 2v2l-4 8l-8 14l-8 14l-4 8l1 6l6 3q6 0 18 -16l23 -33l5 -8l6 -7l19 -24q8 -8 18 -10q16 0 22 11q5 13 5 40q0 17 -4 40t-13 48q-17 54 -53 109l-10 13l-9 14l-16 20l-15 17q-4 4 -8.5 9t-14.5 12l-26 19
l-26 15l-30 19l-27 13l-30 10l-30 9l-26 8l-23 9q-7 4 -8 11q4 6 6 6l13 3h5l10 1l4 3l-3 4l-7 3l-2 1l-9 3l-4 8q2 6 4.5 8t12.5 2l7 -1l7 -1l7 -2h7l6 1q4 6 4 9q0 5 -12 7l-23 3h-1l-26 3q-9 1 -11 9q3 5 5 6l12 4l6 1l6 1l4 1l2 2l-1 3l-3 3l-4 2l-4 4l-9 6l-4 8
q0 6 4.5 9.5t10.5 3.5q8 0 19 -4l22 -7l4 -2q8 -2 12 -5l13 -4l11 -4l10 -2l8 -3l8 -2l18 -7l19 -8q149 -81 231 -187t82 -293z" />
    <glyph glyph-name="Q" unicode="Q" horiz-adv-x="593" 
d="M102 452q57 109 135 182q84 80 147 109l83 35q14 3 29.5 7.5t27.5 9.5l19 4h2q7 -1 9 -2q4 -5 4 -7v-1l-3 -8l-7 -4l-2 -2l-6 -4l-2 -3l2 -3h7h3l5 -2q4 -3 4 -5q0 -6 -5 -9l-10 -6h-2l-10 -6q-4 -5 -4 -7l5 -4h2l5 -3l2 -5q-3 -5 -5 -7l-9 -5l-1 -1l-9 -5l-4 -6
q2 -4 4 -5l11 -1h5l14 -3q6 -3 6 -12q0 -6 -4 -9l-10 -3l-3 -2l-28 -9l-39 -15l-12 -4l-10 -4l-9 -3l-8 -2q-21 -6 -51 -27q-25 -17 -58 -48q-53 -52 -98.5 -127t-57.5 -154q0 -12 -2 -19v-18l1 -22q0 -9 4 -20l6 -16l9 -18q3 -4 7.5 -9.5t9.5 -9.5l24 -12l8 -2l8 -1l-3 2
l-3 4l-10 12q-3 4 -5 15l1 7l5 2l3 -1l2 -2l1 -1l2 -2q7 1 8 2l2 6l-1 3l-2 4l-1 2l-4 5l-1 8q1 5 2 6l7 2l4 -1h4l4 -2h4l3 1l1 4l-1 3l-1 4l-2 3l2 8l5 2q7 -3 9 -5l31 -22l3 -2l8 -6l12 -6q20 27 36 60q13 28 25 67t20 81q3 20 5 36.5t2 30.5l1 25l4 30l3 34l2 41
q0 9 1 12.5t3 5t3 2.5q6 -2 6 -4l2 -8l1 -8q4 -4 6 -4l3 1l2 4v1l3 4l5 2q4 -2 5 -4l3 -7l1 -5v-4v-4l-1 -4v-4l-1 -6v-6l1 -6l4 -2l4 3l4 8l1 4l4 10q2 4 8 5q4 -3 4 -5l3 -11q0 -7 1.5 -11t5.5 -5q5 2 6 4l5 10l1 1q2 7 4.5 10t7.5 5q9 0 12 -13l4 -28v-8v-8v-13l-1 -12
q0 -16 -2 -26q0 -13 -4 -24l-1 -3l-18 -103q-11 -70 -52 -145l-20 -33l-23 -32l28 -19l30 -18l65 -35l40 -20l22 -11l30 -12l32 -12l23 -12l4 -4l1 -6q-1 -5 -2 -6l-3 -2l-3 -1l-4 1l-7 2l-3 2l-5 2h-5l-4 -1l-2 -4v-3l3 -7l7 -5l1 -1l7 -5l4 -9q-1 -5 -2 -6l-5 -3l-4 -1
l-6 1h-5q-5 1 -6 2h-6l-5 -1l-2 -3l2 -5l6 -4l4 -4l3 -5q-2 -6 -4.5 -8.5t-7.5 -2.5q-9 0 -26 6l-31 14q-41 16 -47 19l-53 25l-12 6l-12 6l-83 41q-37 19 -48 28l-31 -15l-30 -12l-26 -6l-24 -1q-29 0 -48 8l-40 22l-9 6l-10 8q-45 32 -62 76q-14 44 -14 97q0 125 58 235z
" />
    <glyph glyph-name="R" unicode="R" horiz-adv-x="556" 
d="M543 271l-3 -29q-4 -25 -17.5 -47.5t-38.5 -22.5l-23 3q-10 3 -16 8l-13 6l-8 4l-8 -3l-2 -8l7 -23l16 -42l3 -6l2 -7q1 -6 2.5 -11.5t5.5 -12.5l7 -22l13 -38l26 -63l1 -3l26 -69q12 -32 12 -38l-3 -5l-5 -1q-7 4 -9 8l-6 17l-1 1l-7 18q-3 6 -9 8l-7 -2l-2 -6v-5l2 -8
v-3l2 -7l1 -5l-3 -5l-5 -3q-6 0 -12 9l-10 20l-2 3l-9 19q-4 7 -11 8h-2l-4 -2l-1 -5l1 -7v-3v-5l-2 -4l-3 -1h-4l-5 3l-4 6l-6 7l-6 3l-3 -1v-4v-5l-2 -5q-4 -3 -6 -3q-5 4 -7 7l-5 16q-1 5 -2 6l-1 6l-2 5l-1 4l-3 6l-3 5l-6 14l-4 14l-7 24l-9 30l-15 42l-24 66l-1 4
l-2 5l-26 75l-11 44l2 14q2 12 5 20t5.5 13t10 14.5t20.5 10.5l18 -6l29 -11l28 -13l19 -5q7 0 12 6t6 14v4q0 15 -17 52q-15 37 -43 80q-18 31 -40 58q-10 13 -21 25.5t-23 23.5l-8 7l-8 6q-79 58 -126 77l-64 25l-4 2l-7 4l-3 7l3 10q3 3 8 3l6 -1l9 -2l3 -2h4l5 -2h5l3 1
l3 4v2l-3 4l-6 3l-6 2l-11 6q-3 2 -5 13q0 9 6 14l13 4l4 1l9 1q5 4 5 6l-3 5l-4 3l-1 1l-6 3l-2 9q0 5 6 11l13 5l6 1l6 1l10 -3l13 -5l2 -1l8 -4l9 -3q20 -7 34 -13q7 -3 23 -12q28 -14 61 -36q96 -66 178 -178.5t82 -237.5zM236 255l-9 -63l-1 -4l-1 -4l-5 -30l-6 -34
l-4 -16l-4 -20l-2 -8l-1 -7l-5 -25l-1 -20v-3q0 -7 -5 -12q-3 -6 -11 -6q-9 0 -14 5l-6 12l-1 3l-1 3l-3 8l-5 3l-7 -4l-3 -7l-4 -8q-5 -3 -7 -3l-7 3l-4 8l-1 4l-3 5l-3 2q-5 -2 -6 -4l-1 -9l-1 -3q0 -7 -4 -12q-1 -4 -11 -5q-6 2 -8 4l-3 10l-1 7v5v13t4 26l9 50l2 8
q1 7 2.5 15.5t2.5 15.5t5 19l7 31l8 40l13 63v4q1 5 2 6l10 57l8 44q2 16 5.5 37.5t8.5 36.5l8 34l1 4v4l1 5q2 17 5 26t14 10q14 0 23 -10l10 -21l1 -10l2 -8q0 -7 2 -10.5t4 -3.5l5 3l3 6l1 2l3 7l7 3q8 0 13 -8q6 -6 9 -16l3 -11l1 -8l-3 -28l-6 -38l-2 -8l-1 -7l-6 -31
l-4 -21z" />
    <glyph glyph-name="S" unicode="S" horiz-adv-x="444" 
d="M461 768l-14 -8l-3 -2l-12 -7q-4 -2 -5 -8l2 -5l5 -3h2h4l4 1l6 1l5 -2l2 -5q-2 -7 -4 -9l-9 -6l-9 -8l-4 -8l1 -4l4 -2l6 2l5 1l4 -3v-2l-2 -4l-4 -2l-2 -1l-3 -2v-7l6 -2l6 1l3 2l4 1l5 1l4 -2l1 -4q-3 -2 -4 -3q-8 -6 -13 -9l-52 -33l-40 -30q-27 -20 -49 -41l-24 -22
l-23 -23q-26 -26 -45 -53.5t-19 -45.5q0 -6 6 -14l14 -7l5 -2h5l24 4l38 10q8 0 12 2l13 3l31 5l27 3l6 -1q10 -2 18 -11l16 -17l9 -16l5 -11l2 -11l1 -14v-5v-4v-22q-3 -11 -5 -23.5t-10 -27.5q-22 -56 -72 -112q-44 -49 -105 -101.5t-118.5 -89.5t-65.5 -37q-9 0 -13 5
l-5 10l-1 6v4l3 13l9 7l2 2l7 6l2 6v4l-1 3v4l1 2l1 4l1 3l-4 4h-3l-5 -1l-4 -1l-4 2l-2 4q0 6 4 11l10 10l9 8l5 5l-1 3l-3 1l-3 -1l-4 -2l-4 -3l-3 -1l-5 1l-4 4l-1 6l1 6l3 5q7 12 34.5 28t66.5 43l25 19l43 37l16 16l16 17l26 33q9 15 11 30q-2 6 -4.5 8.5t-14.5 2.5
l-18 -3l-22 -6q-12 -2 -18 -5l-18 -3l-7 -1h-8q-46 0 -71 34q-21 31 -26 74l-1 6v7l3 36q2 9 4.5 18.5t6.5 18.5q24 67 80 130q27 30 57 58t63 55q40 31 71 51l33 19q11 6 31 16l10 4l8 2l5 1h4q8 0 13 -6l4 -14q0 -6 -6 -11z" />
    <glyph glyph-name="T" unicode="T" horiz-adv-x="463" 
d="M196 207q4 32 10 69t13 74l13 68q4 23 6.5 34.5t7.5 29.5l16 63l15 45l4 10l6 4l5 -2l2 -9l-1 -5v-5l-1 -5v-5l1 -6l6 -2q4 2 5 4l3 12v4l2 5l6 16q3 7 13 8q6 -1 8 -4t2 -5l-1 -7v-7l-1 -3v-4l-2 -10v-8q0 -7 2 -10l5 -3q6 4 7 8l4 19v5q2 15 5 23t10 9q9 0 12 -3.5
t3 -12.5l-5 -31q-2 -14 -3 -27q-5 -20 -7 -30l-1 -4l-1 -3l-10 -52l-6 -28l-8 -37l-12 -61l-2 -10l-1 -9l-13 -72l-5 -44v-7l1 -7q0 -9 5 -17t18 -9l17 4l25 9l4 2q5 1 6 2l22 10l13 7l4 2l4 3l4 3l4 3l18 13l10 7l3 -2l3 -4l-4 -6l-8 -6l-2 -2l-11 -7l-4 -5v-2l4 -3l5 1
l5 3l4 3l5 1l3 -1l2 -2v-2l-4 -7l-6 -6l-8 -8l-3 -6v-1l2 -2l4 2l5 4l4 4l4 2l2 -2l1 -3l-4 -8l-7 -6l-4 -2l-3 -2l-4 -4l-1 -3l4 -3h1l2 2l2 2l3 2l5 1l3 -1l1 -3l-13 -14l-29 -24l-3 -3l-3 -2l-27 -21l-18 -12l-20 -14l-26 -20l-7 -6l-7 -5l-29 -18q-11 -5 -24 -7
q-7 3 -10 5l-12 10l-3 2l-8 7l-7 5q-6 3 -9 9l-5 12l-1 5v6v9l2 9v8l1 9v3l-2 5l-3 2q-4 -2 -4 -4l-1 -12v-7l-2 -7l-4 -3q-4 2 -4 4l-1 11v6v7l-1 8v10q0 30 9 98zM80 700l17 5l13 2l14 4l3 1l50 11l99 22l6 1q5 1 6 2l103 21l57 10h5l6 -1q6 0 13 -4t7 -11q0 -6 -4 -11
l-9 -6l-4 -2l-4 -1l-4 -3v-6l5 -1l6 2l2 1l5 1l7 -3q3 -5 3 -7q0 -5 -6 -10l-12 -5h-2q-8 -2 -12 -5q-4 -1 -5 -8l2 -5l6 -1l7 2l7 1q6 0 9 -4t3 -11q0 -12 -6.5 -18t-36.5 -9q-14 0 -61 -9l-96 -18l-10 -2l-10 -2l-53 -9.5t-44 -10.5l-47 -10l-5 -2l-5 -2q-5 -1 -6 -2
l-5 -1l-17 -5l-12 -2l-8 3q-3 3 -3 11t5 13l13 9l7 4l6 4l3 2l1 3l-2 3l-5 1h-3h-4l-8 1l-3 6q4 4 6 5l14 3l2 1q8 0 12.5 2t4.5 4l-3 4l-5 1l-7 1l-2 4l3 5l8 4l6 3l4 5l-3 6l-7 2l-3 -1h-4l-3 -1l-4 -2l-8 1l-1 5q0 6 6 9z" />
    <glyph glyph-name="U" unicode="U" horiz-adv-x="630" 
d="M439 -18l-14 16l-6 11l-2 9l-1 4v4l-3 13q0 6 -4 7l-5 -3l-1 -7v-1q-1 -5 -2 -6l-3 -3q-4 4 -4 8l-1 17v5q0 23 2 35l6 34l4 24l3 26q0 13 4 25l6 25l7 28l4 27l-2 6l-3 2l-11 -10l-20 -21l-2 -2l-2 -2l-14 -18l-10 -13l-22 -33l-38 -54l-2 -3l-2 -3l-42 -58
q-18 -24 -23 -25l-3 1v4l-1 2l-1 4l-4 -3l-6 -6l-9 -7l-10 -3l-8 1l-9 5l-10 6l-8 8l-5 6l-1 6v5l2 5v4l1 4l-2 3l-2 1l-4 -2l-3 -2l-3 -1q-5 0 -13 15q-4 13 -4.5 25t-0.5 19l1 34l4 37l4 32l5 31q2 22 3 30.5t5 21.5l5 27l3 25l4 26l4 20q2 14 5 21l11 56q4 26 4.5 37
t0.5 18l-3 8l-6 4q-7 0 -13 -5l-14 -13l-6 -5l-4 -6l-19 -20q-8 -9 -13 -9l-5 2l-2 9l1 5q1 5 2 6l1 2l1 5l1 5v2l-2 3l-3 2l-5 -2l-4 -4l-1 -1l-5 -5l-5 -2q-4 2 -5 4l-2 10v2l-2 8l-3 4q-6 -3 -8 -5l-7 -9l-9 -10l-9 -4l-4 1l-1 4l1 6l10 12l38 41l71 75l4 4l5 6l74 74
q33 33 43 33q14 0 24 -14.5t14 -32.5l4 -21l1 -17l-1 -12l-2 -10l-1 -3q-1 -9 -2 -11l-1 -8v-2l-1 -2l1 -1l3 -2l2 2l1 6l1 1v5l2 2h2l2 -2v-13l-1 -15v-1q0 -7 -2 -11v-9q0 -13 -4 -26l-5 -29l-6 -28l-3 -29l-6 -49l-7 -42l-11 -46l-5 -36l-3 -18q-2 -12 -5 -18l-1 -4
l-6 -26l-3 -21l3 -12q3 -3 10 -3q9 0 33 37l49 81l33 54q15 27 28 43l19 30l27 46l3 4l2 5l32 50q14 21 22 23q10 0 16 -8.5t9 -21.5v-8l1 -6l-1 -6v-4l-1 -6v-4l1 -3l5 1l4 6l2 2l3 3l2 2l3 1l4 -2q5 -2 6 -4l7 -12l4 -15q0 -18 -9 -69l-21 -107l-1 -3v-4l-22 -109
q-9 -50 -9 -63v-4l2 -13q1 -3 6 -5q7 0 15 5l17 12l8 8l8 8l21 22l12 11l3 -2l2 -5l-4 -8l-8 -11l-9 -11l-3 -8l1 -3l3 -1l3 1l3 3l2 3l4 4l5 2l3 -3v-2l-2 -4l-2 -4l-2 -2l-5 -5l-2 -7q-1 -5 -2 -6l-3 -6l-4 -7l-1 -6l2 -3h2l3 1l4 4l1 2l4 4l5 2l3 -2l2 -4l-7 -14l-16 -19
l-3 -3l-2 -3l-17 -17l-10 -11l-17 -17l-31 -30l-5 -4l-4 -4l-33 -26q-15 -12 -21 -12q-11 0 -20 8z" />
    <glyph glyph-name="V" unicode="V" horiz-adv-x="519" 
d="M240 761l14 11l13 10l10 5l12 2l4 -1h4l11 -6q6 -3 6 -10l-1 -8v-6l-1 -6v-4v-6l3 -1l4 2l3 2l3 -2l1 -3v-2l-1 -4l-1 -4l-2 -3l1 -6l4 -1l4 2h2l3 1l4 -3l1 -7l-3 -14l-8 -27l-19 -72l-26 -111l-7 -33l-6 -32l-27 -143q-11 -71 -11 -99v-13l1 -12q0 -21 5 -37.5
t19 -18.5q15 0 28 19q5 7 13 20t14 26l9 18l9 19q18 40 30 80l12 42l11 43q15 63 21 124q3 31 5 57.5t2 51.5q0 12 4 16q2 4 11 5q10 0 18.5 -9t8.5 -25v-11l1 -8q0 -9 2 -12l4 -3l3 2l3 5l1 4l3 7l9 4q5 0 7 -6l2 -16l1 -3l3 -2l3 -3l4 -3l3 -8l1 -11v-4l-1 -7l-1 -9v-6
l1 -5l4 -2l3 3l4 7l4 7l4 3q4 -2 5 -4l3 -8v-5v-4q0 -22 -3 -45t-11 -55q-13 -63 -35 -121q-26 -74 -60.5 -139t-73.5 -108l-8 -7l-6 -6l-12 -12l-14 -17l-24 -23q-11 -9 -28 -11q-18 0 -31 8q-14 6 -25 16l-7 5l-6 5q-47 36 -57 87t-10 121q0 41 6 88l15 95l4 28l6 28
l13 71l11 66v4l-2 5q-3 3 -5 3q-7 0 -15 -8l-19 -17l-9 -8l-8 -7l-12 -7l-12 -3q-6 1 -7 2l-1 5l1 3l3 4l3 4l1 5v2q-1 5 -2 6l-4 3l-4 -2l-4 -4l-6 -4l-7 -2l-5 2l-2 7l1 4l3 4l2 4l1 4l-2 3l-3 2l-3 1q-5 -1 -6 -2l-5 -5l-2 -2l-7 -6l-6 -3l-3 1l-2 3v2l3 8l8 8z" />
    <glyph glyph-name="W" unicode="W" horiz-adv-x="704" 
d="M265 782l20 12l15 5l7 -1q11 -3 18 -11q9 -7 12 -18l1 -4l1 -4l-1 -13l-1 -11q-1 -7 -2 -9v-4v-3l1 -5l3 -2q4 2 5 4l5 10l1 2l4 8l4 3l3 -2l2 -3v-3q0 -6 -3 -22.5t-11 -53.5l-32 -146l-4 -12q0 -8 -2 -12l-29 -118q-12 -56 -19 -73l-11 -32l-4 -19l2 -7l5 -3l7 1l6 5
l12 17l13 19l6 10l7 10l15 26l14 24l7 12l6 14q25 49 39.5 88.5t25.5 40.5l8 -3l5 -7h1l3 -5l4 -3l4 -2l5 -2q5 -1 6 -2l8 -5q4 -1 7 -7l9 -36l15 -58q0 -7 2 -11l2 -10l9 -34q3 -17 8 -26l4 -13l6 -17l12 -23q6 -8 15 -10q10 0 15 24l4 79l-3 76q0 38 -5 90l-3 29v11
q0 7 -2 19l-9 104l-4 58l2 6l6 2q5 -2 6 -4l4 -7l1 -3l3 -6l3 -2l2 1l2 3l3 3l5 1q9 0 13 -10l8 -20v-4l2 -4l4 -15q3 -6 7 -7q4 2 5 4l1 11l1 3q0 11 3 17t11 6q6 0 9 -7l4 -14l1 -4q0 -8 1.5 -11.5t6.5 -5.5l5 3l2 8v1l2 7l4 3l5 -2l2 -3l2 -2l2 -18l3 -37v-17
q0 -10 2 -16v-20.5t2 -22.5l1 -33q0 -59 -3 -108t-11 -101q-12 -95 -30 -157l-18 -57q-9 -21 -15 -24l-9 -3h-11l-3 -1l-8 -3l-4 -3l-7 -6l-5 -2l-7 2l-7 1l-5 -2l-4 -5l-6 -5l-7 -2q-11 0 -30 29l-39 67l-5 11l-6 11l-18 35l-17 33l-7 14l-4 12q-2 7 -6 10t-6 3
q-4 -4 -6 -7q-18 -22 -34 -46l-77 -115l-5 -8l-5 -7q-39 -58 -74 -104.5t-48 -47.5l-4 1l-4 2q-8 5 -15 16l-10 23l-2 10l-1 10v9l2 8v8l1 8l-1 8l-3 3l-6 -3l-4 -6l-6 -6l-5 -3l-3 4l-1 4l2 15l5 29q5 37 22 105l36 150v4l2 5l42 175q10 40 12 50q7 30 8 43l-1 7q-4 3 -6 3
q-6 0 -17 -8l-22 -18l-2 -1l-23 -20q-9 -6 -16 -8q-6 4 -7 6l-1 13v3l-1 10l-3 5l-4 -1l-4 -3l-2 -2l-8 -7l-9 -2l-4 3l-1 9v1l-2 7l-2 3l-4 -3l-2 -3l-7 -9l-8 -2l-4 1l-1 6l6 10l15 15l2 2l2 2l8 8l8 7z" />
    <glyph glyph-name="X" unicode="X" horiz-adv-x="574" 
d="M226 392l-18 45l-2 2l-18 43l-10 26l-13 33l-22 58l-13 32l-11 29l-2 4l-2 5l-8 18l-4 12l3 7l7 3q6 -3 7 -5l3 -9l1 -3l2 -8l4 -3l3 7l1 17l1 4v6l3 23q1 10 8 11q9 0 12 -4l4 -7v-2q1 -5 2 -6l6 -3q4 4 5 7l3 13l1 6q0 10 3.5 18t15.5 8q7 0 11.5 -3t8.5 -12l48 -124
l26 -72l2 -4l2 -4l4 -11l4 -11l10 -27q3 -9 7 -12l2 -1l4 2l5 7l7 12l6 11l6 11l27 48l52 85l2 3l8 17l8 20q8 19 19 34t28 15l8 -3l9 -7l8 -10l9 -11l8 -17l4 -11l-3 -13l-6 -15l-2 -3l-9 -20l-3 -10l1 -3l4 -1h3l3 2l5 4v2l5 4l3 3l3 -1l2 -4l-1 -6l-3 -7q-7 -17 -14 -32
q-12 -22 -18 -34q-26 -53 -94 -165l-7 -9l-9 -12l-4 -6l-3 -6l-7 -13l-3 -11l11 -29l24 -54l2 -4l23 -49l14 -28l9 -14l10 -8l3 -1h4l10 2l11 5l13 9l13 13l18 19l9 9l4 -2l2 -5l-2 -7l-5 -9l-2 -2l-7 -11l-3 -6l-1 -4v-6l-4 -8l-8 -9l-3 -3l-2 -3l-6 -8l-2 -6l1 -3l3 -1
l6 3l2 2l3 3l4 6l6 9l2 2l2 3l6 7l5 3l3 -2l1 -3l-3 -7l-6 -11v-1l-7 -11l-3 -7l3 -3l4 2l4 5l1 1l4 3l4 2l2 -2l1 -4q-3 -4 -4 -7q-6 -11 -13 -20q-15 -23 -41 -50l-22 -22l-22 -19l-14 -6l-18 -1h-9l-8 3q-7 3 -17 14l-17 31l-69 147l-5 9l-4 7l-4 3l-3 1q-4 -3 -7 -6
t-8 -10l-22 -35l-2 -3l-2 -2l-15 -25l-12 -20l-2 -4l-2 -2l-14 -22l-14 -20l-36 -47l-26 -36l-3 -4l-2 -5l-1 -3l-5 -7q-1 -5 -2 -6l-4 -5l-5 -6l-1 -1l-9 -12l-7 -12l-2 -2l-1 -4l-10 -10q-3 -4 -11 -5l-3 1l-3 3l-4 3l-2 4l-2 5l-1 4l1 9l3 8l1 5l1 6l1 5v2l-1 5l-3 2
l-2 -1l-2 -2l-4 -1l-3 -1q-6 0 -10 5l-4 10v1v1v1v4l2 4l1 2l1 5l1 4l-2 5l-5 1l-5 -1l-5 -2l-5 -3l-5 -1l-5 3l-1 6l7 17l16 26l2 4l3 4l10 14l9 12l18 25l27 40l2 3l24 38l18 27l15 25l18 27l2 3l38 59q18 27 18 38q-1 7 -2 10.5t-6 16.5z" />
    <glyph glyph-name="Y" unicode="Y" horiz-adv-x="556" 
d="M184 566l-20 -21l-2 -2l-21 -21l-13 -10h-4l-5 2l-8 4l-3 4q1 8 2 9l1 5l1 4l-3 2l-3 1l-4 -1l-2 -2l-1 -1l-4 -3l-4 -1l-3 1v3v2l2 3l4 4l3 5l2 10l-4 3h-2q-5 -3 -7 -5l-8 -10l-9 -11l-9 -4l-5 2l-1 5q3 8 5 11l13 15l2 2l3 3l11 10l9 10l23 27l31 35l2 2l3 3l29 30
l24 25l15 16l20 22l5 4l5 6l27 24q13 11 21 11q6 0 13 -7l12 -15l5 -13l4 -8l-2 -7l-4 -9l-3 -11l-2 -12v-1v-4l5 -1l5 2l3 6l3 5l5 3q4 -2 5 -4l3 -7v-4v-4q0 -9 -11 -56l-24 -107l-1 -4l-1 -3q-9 -49 -11 -56q-6 -23 -9 -33l-14 -58l-4 -17l-4 -18l-1 -2l-9 -41l-4 -24v-2
q1 -5 2 -6l5 -3q3 3 5 4q7 6 13 13l32 41l5 7l6 7l15 23l14 21l22 32l33 46l4 6l6 8l7 11l8 11l8 12l9 14l6 9l6 9l12 13l11 5l7 -3l10 -7l6 -6l6 -6l5 -7l4 -6l1 -7v-9l-1 -7v-10v-3l-1 -10v-8l2 -8l4 -3l4 3l2 8l2 7q2 4 4 4l3 -2l1 -3l-3 -34l-6 -48l-1 -8v-6l-4 -28
q0 -17 -2 -26q0 -17 -1 -28t-7.5 -53.5t-19 -97t-30.5 -107t-41 -87.5l-4 -6l-4 -8l-1 -3l-7 -9l-4 -5l-3 1l-1 4v5l2 8l1 8l1 5v2l-1 3h-5l-2 -6l-10 -25l-15 -31q-14 -27 -34 -49q-18 -23 -43 -23q-15 0 -20.5 11t-7.5 26l-1 8v7q0 61 9 103t12 53.5t12 32.5l5 11l4 10
l3 9l5 13l2 7l3 6l5 9l5 4l4 -3l1 -6l-3 -12l-5 -15l-2 -2l-7 -18l-3 -10v-2l4 -3l3 2l3 4l1 1l3 5l5 2l3 -3l1 -4q0 -10 -5 -24l-10 -34l-5 -15l-4 -13l-5 -24l-2 -23q0 -15 2.5 -21.5t10.5 -7.5h2l6 3q5 6 7 10q6 14 9 31l8 36l2 13l3 16q1 7 2 9l2 10l6 29l6 30l15 88
l9 53l2 11l3 13l1 5l4 23l2 15l-2 5l-3 2q-7 0 -41 -41l-71 -90l-4 -6l-3 -4q-36 -47 -68.5 -83.5t-46.5 -38.5q-11 0 -20 8l-17 17l-10 13q-3 7 -8 9l-1 4v3q1 7 2 9l2 8l1 4l1 4l-2 2l-4 2l-4 -1l-2 -3l-1 -1l-4 -4l-5 -1l-4 2l-1 4l10 54l10 49t13 54l2 7l2 8l4 22l6 22
l5 19l7 25l1 1l7 27l6 20l4 19l5 19l13 52l7 31v2l-3 5l-4 2z" />
    <glyph glyph-name="Z" unicode="Z" horiz-adv-x="611" 
d="M116 320l-6 2l-9 -1l-7 -1l-5 -2q-11 3 -13 5l-7 12l-1 3v4l2 3l4 2l2 1l4 2l3 6l-3 4l-6 1l-4 -1h-4l-6 -1h-5q-7 0 -9 2l-2 5q0 5 5 8l12 3h2l36 6l55 11l5 1q5 1 6 2l55 12l29 7l18 4l25 5l16 30l21 40l2 4l2 4l22 43l15 34l7 17l7 15l2 4l2 4l4 8l5 9l3 7l3 5l1 3
q0 8 -15 13q-15 3 -70 3l-20 1l-23 2h-12l-11 2h-15l-14 1l-12 -1h-14h-3q-10 0 -15 -2h-12q-12 0 -20 8.5t-11 22.5v5q0 13 6 18l13 6l3 1q10 0 13 3t3 5l-3 5l-6 2l-4 1q-6 0 -9 3.5t-5 16.5v3q0 8 9 18t22 10l31 -2l46 -5l4 -1h4l32 -4l26 -3l9 -1h14l21 -1h33l29 -2
l54 -3l5 -1h5l45 -4q23 0 27 -2q16 0 22.5 -9.5t6.5 -21.5q0 -13 -8 -26l-17 -30l-6 -9l-5 -9l-16 -32l-31 -60l-2 -3l-21 -41q-4 -8 -8.5 -16t-8.5 -14l-13 -24l-2 -9l2 -4l6 -1l11 3l18 8l2 1l16 7l11 4q35 8 51 15l22 7l6 -3l5 -4l1 -4q1 -9 -4 -14l-10 -7l-5 -2l-4 -2
l-4 -4l-2 -3l3 -6l8 -1l3 -1l8 -2q5 -4 6 -6q-3 -8 -5 -10l-9 -7l-6 -4l-4 -4l-3 -4l-1 -3l3 -3l3 1q5 1 6 2h1l5 1l4 1l4 -2l2 -5l-1 -3l-2 -3l-3 -4l-5 -2l-36 -14l-38 -13l-87 -25q-42 -9 -56 -17l-29 -55l-51 -93l-3 -6l-4 -7l-1 -1l-6 -10l-2 -7l4 -7l8 -2l46 8l92 17
h4l4 2l90 15l53 8q6 0 9.5 -3t5.5 -10q0 -9 -5 -12l-11 -3h-1l-11 -3q-4 -6 -4 -9l3 -6l7 -2h2l7 -3q4 -4 4 -7q0 -6 -4 -10l-8 -6l-9 -5l-4 -3l1 -5l3 -2l6 1h4l5 1q6 -2 8 -4.5t2 -7.5q0 -9 -6.5 -15t-17.5 -9q-9 0 -25 -5l-40 -6l-3 -1l-40 -7l-26 -4l-58 -9l-92 -13
l-13 -2l-13 -2l-113 -14l-67 -5l-11 3q-2 2 -4 12q0 9 4 12l9 5l6 1l5 1l2 3l-3 3l-6 3l-4 1l-10 1l-3 6l3 11l9 6l5 2l4 3l2 4l-3 3l-3 1l-5 4l-2 7q0 13 10.5 19t23.5 9l4 1l14 4l11 7l7 9l4 8l7 13l12 24l11 22l8 15l8 15l11 20l1 1l15 25l7 16l-2 4l-4 2l-19 -3l-34 -7
h-2l-35 -7l-20 -3q-7 0 -9 2l-3 7l3 6l7 5l3 1l5 3l2 4z" />
    <glyph glyph-name="bracketleft" unicode="[" horiz-adv-x="333" 
d="M113 260l20 89l2 5l7 32l7 31q3 29 13 71l34 159h-9h-9l-9 -1h-9l-8 2l-3 6q1 5 2 6l6 4l3 1l3 2l2 3q-3 4 -5 5l-9 1h-1l-10 1q-4 2 -4 4l1 6l4 3l1 1l4 4l2 9l-1 3l-3 2l-1 1l-3 3l-1 4q4 4 6 4l14 3l13 2q2 0 3.5 1.5l2.5 2.5l-3 4l-7 1l-7 -1h-8l-3 -1l-12 -2h-6
q-7 0 -9 2l-2 6q6 5 11 6l25 6h6l7 2l7 1l7 2l14 3q10 0 16 2q10 0 16 2l14 3l127 23l60 10l4 -8l10 -4h5h5l15 -1q6 0 6 -5q-2 -5 -4 -6l-8 -1l-2 -1l-7 -1l-3 -2l3 -3l5 -2q5 -1 6 -2l9 -5l4 -8l-3 -6l-6 -5l-3 -2l-5 -4l-2 -5l2 -4l4 -2l1 -1l5 -3l2 -5q-2 -5 -4 -6
l-11 -5l-47 -11l-89 -16l-1 -4l-1 -3l-39 -173q-17 -85 -31 -134l-15 -64l-21 -96l-2 -10l-2 -9l-24 -116l-10 -68q14 0 22 2l24 4l7 1l7 2l41 7l31 4l5 -2l2 -3v-2l-3 -5l-6 -2l-2 -1l-4 -2l-4 -3v-4v-6l-1 -5l-2 -4l-3 -1l-2 -2l-5 -3l-2 -6l2 -5l6 -3l2 -1l4 -2l2 -3
l-1 -5l-2 -5l-2 -2l-1 -3l-1 -4l3 -5l2 -2l3 -4l2 -4q-3 -4 -5 -5l-9 -4h-5l-4 -1h-3l-8 -2l-9 -3l-11 -2l-14 -2l-10 -1l-10 -4l-6 -1l-7 -2l-6 -1q-13 0 -21 -2l-21 -3l-6 -1l-5 -1l-16 -3l-16 -3l-25 -3l-22 -5l-24 -5l-22 -3q-5 1 -6 2l-2 5v3v4l1 4l1 2v3l-3 5l-3 1h-2
l-2 3l-2 2v2l1 7l2 4l2 3l1 3l-2 8l-4 1l-5 1l-2 5l3 6l5 4l2 1l4 4l2 3l-2 3l-2 2l-3 3l-1 4l3 5l8 2l7 2l13 3l3 1l4 1l7 3l5 2l24 99l27 126z" />
    <glyph glyph-name="bracketright" unicode="]" horiz-adv-x="333" 
d="M290 400l-20 -89l-1 -3l-8 -34l-7 -31q-3 -29 -13 -71q-3 -16 -11.5 -56l-22.5 -103h9l9 1h9h9l8 -2q3 -4 3 -6l-3 -6l-5 -3l-3 -1l-4 -2l-1 -3q2 -4 4 -5l11 -1l9 -1q5 -2 5 -4q-1 -5 -2 -6l-3 -3l-1 -1l-4 -4l-2 -9l1 -3l3 -2v-1l3 -3l2 -4q-4 -4 -6 -4l-13 -3
q-9 0 -14 -2q-2 0 -3.5 -1.5l-2.5 -2.5l3 -4l7 -1l7 1h8l5 1q7 1 9 2h7q7 0 9 -2l2 -6q-6 -5 -11 -6l-25 -6h-7q-5 -1 -6 -2l-8 -1q-5 -1 -6 -2l-14 -3q-10 0 -16 -2q-10 0 -16 -2l-14 -3l-127 -23l-59 -10l-4 8l-10 4h-5h-5l-15 1q-6 0 -6 5q2 5 4 6l8 1l2 1l7 1l3 2l-3 3
l-5 2q-5 1 -6 2l-9 5l-4 8l3 6l6 5l3 2l5 4l2 5l-2 4l-4 2l-1 1l-5 3l-2 5q2 5 4 6l11 5l46 11l89 16v4l2 3l38 172q7 33 17.5 76.5t14.5 57.5q3 19 5 28t9 35l22 97q1 7 2 9l2 10l23 116l7 40t4 29l-23 -3l-23 -4l-8 -2l-6 -1q-11 -2 -20 -3t-22 -5l-30 -3l-6 1l-1 4v2l2 4
l7 3l2 1l3 1l3 2l2 5v8v5l3 4l5 3l5 3l2 6l-3 5l-5 3l-2 1l-4 2l-2 3l1 5l3 5l2 5l1 4l-3 5l-2 2l-4 4l-1 4q2 4 4 5l10 4h4l5 1h3l8 2l9 3l11 2l14 2l10 1l10 4l6 1q5 1 6 2l7 1q14 0 21 2l21 3l5 1l6 1l16 3l16 3l24 3q15 2 23 5l24 5l22 3l5 -2l3 -5v-3l-1 -4v-4l-1 -2
v-3l2 -5l4 -1h2l2 -3l3 -2v-2l-1 -7l-3 -4l-2 -2l-2 -4l2 -8l6 -1l5 -1l2 -5l-3 -6l-5 -4l-3 -1l-4 -4l-2 -3l2 -3l3 -2l2 -3l2 -4q-2 -4 -4 -5l-8 -2l-8 -2l-12 -3l-4 -1l-3 -1l-7 -3l-5 -2l-25 -100l-26 -126z" />
    <glyph glyph-name="underscore" unicode="_" horiz-adv-x="500" 
d="M0 -125v50h500v-50h-500z" />
    <glyph glyph-name="grave" unicode="`" 
d="M187 687q8 -3 15 -14l10 -17l12 -24l28 -61q6 -12 6 -18l-3 -11l-8 -4l-10 3l-9 8l-7 6l-5 4l-5 -1l-1 -3v-5l2 -7l1 -8l1 -4l-3 -5l-10 -2q-7 0 -18 11l-25 28l-5 5l-4 6l-22 28l-14 19l-18 22l-5 11v4q0 6 3.5 10t12.5 6l5 -2l8 -5h1l8 -6l5 -2l3 1l1 3v1l-3 4l-2 5
l-1 7q0 6 8 9t30 3q10 1 18 -5z" />
    <glyph glyph-name="a" unicode="a" horiz-adv-x="407" 
d="M47 265q19 33 37.5 58.5t42.5 50.5l41 38l36 27l51 28q23 12 31 12h6q6 0 11 -5q6 -3 6 -9l-3 -10l-5 -8l-7 -6l-2 -3l2 -3l5 2l5 1l6 -2q5 -2 7 -4.5t2 -7.5q-1 -5 -2 -6l-4 -4l-2 -2l-3 -2l-1 -3l2 -4l5 1q5 1 6 2l5 2l6 1l5 -3l2 -7q0 -5 -40 -32q-36 -22 -86 -69
q-25 -24 -52 -55q-23 -29 -43 -67l-6 -11l-4 -10l-4 -16l-2 -16q3 -6 5 -8l13 -2q14 0 52.5 42.5t109.5 151.5l2 3l2 4l7 6q3 3 8 3q6 0 11 -4l7 -9l3 -6l3 -5l4 -7l7 -7l2 -3l10 -12l5 -8l-3 -26l-6 -29v-2l-7 -29l-2 -25q0 -7 2 -9l7 -2l10 8l20 20l10 12l10 13l2 4l2 4
l2 3l2 2l3 -1l2 -3l-9 -18l-27 -32l2 -2l2 -1l3 2l7 4l5 4l4 2l3 -2l2 -3l-3 -6l-8 -8l-1 -2l-8 -8l-4 -6l1 -3l3 -1l6 3l8 7v1l8 6l6 4l3 -1l-1 -7l-3 -5l-2 -2l-6 -7l-2 -4l3 -2l5 2l6 1l3 -3l-15 -21l-14 -16t-20 -20l-10 -10l-10 -9l-36 -28q-15 -9 -26 -11l-9 2l-10 8
q-9 7 -18 21t-14 29l-3 11l-1 11l1 9q1 7 2 9l1 8l1 7l-1 8q-3 3 -5 3l-18 -20l-36 -43l-12 -14l-13 -13l-30 -26q-14 -9 -26 -10l-9 1l-9 3q-23 11 -42 43.5t-19 85.5q0 67 36 132z" />
    <glyph glyph-name="b" unicode="b" horiz-adv-x="370" 
d="M32 330l12.5 85.5t13.5 71.5l19 91l15 74l3 19l3 21q2 13 3.5 21.5t7.5 30t17 21.5q7 0 10 -3.5t3 -15.5v-6v-7l-1 -2v-6v-5v-3l1 -4l4 -1q4 2 5 4l4 9q1 7 3 10t4 3q6 0 7 -7l2 -16v-3v-3v-12q2 -4 4 -4l4 1l4 4l4 3l4 2l10 -11q8 -10 19 -31q5 -10 9 -20t12 -36.5
t8 -63.5l-1 -26l-3 -26q-5 -36 -6 -41q-6 -18 -8 -26q-6 -21 -9.5 -31.5t-10.5 -25.5q-9 -25 -18.5 -40t-14.5 -15l-3 1l-1 4l3 9l7 17l2 5l5 14l3 12v2l-1 3l-3 1l-2 -5l-2 -4l-3 -7l-5 -3l-3 1l-1 4l5 17l11 34l1 2l9 31l6 20l1 8q1 7 2 9l1 5l1 4l1 11l1 11l-1 10l-1 12
q0 10 -3.5 18.5t-8.5 8.5l-5 -5l-5 -12l-6 -24l-5 -31l-9 -55l-14 -88l-2 -13l-3 -13l-13 -93q-6 -44 -6 -66t9.5 -36t30.5 -14l6 1l7 2l8 4l7 5l4 3l4 3l-5 43l-1 44l3 30l8 33l14 38q3 8 6 15t11 19l16 23q8 9 14 9q17 0 31 -19t22 -46l5 -20l2 -17q0 -29 -4.5 -50
t-9 -37.5t-9.5 -29.5q13 2 20 5l16 7l12 9l8 4l4 -2l2 -4l-2 -4l-3 -5l-5 -5l-7 -4l-9 -6l-6 -3l4 -2l4 2h1l4 1l3 1l5 -1l2 -3l-4 -7l-6 -4l-5 -2l-4 -2l-2 -2l1 -3l3 -1h2l2 2l6 1q5 -1 6 -2l2 -4l-3 -6l-6 -4l-2 -1l-6 -4l-2 -4l3 -3l4 1l5 3l2 1l5 3l4 2h2l2 -2l1 -4
l-4 -8l-9 -8l-16 -9l-19 -8l-21 -8l-17 -2l-14 1l-12 4l-2 1l-4 1l-3 1l-17 -18l-23 -23l-20 -19l-22 -15l-23 -11q-7 -3 -21 -5q-8 0 -21 5.5t-26 16t-24 22.5q-6 6 -11.5 12.5t-9.5 13.5l-7 21l-3 30l-1 21v18q0 93 12 180z" />
    <glyph glyph-name="c" unicode="c" horiz-adv-x="296" 
d="M14 183q3 23 10 42q17 57 51 110.5t76 90.5l9 7l10 9l13 10l15 9l12 6l13 2l11 -2q6 0 14 -5q16 -10 28 -30t12 -56l-1 -59q0 -12 -7 -13q-6 2 -7 4l-1 10l-1 10q-4 4 -6 4l-5 -1l-2 -4v-4l2 -5v-5l1 -5l-1 -16q0 -6 -5 -6l-4 2l-3 7l-1 1l-2 5l-3 2l-3 -3v-6l-1 -2
q-1 -7 -3 -9.5t-4 -2.5l-5 3l-3 7v1l-3 6l-3 3l-3 -5l-2 -13l-2 -10l-1 -9l-1 -5v-4l-3 -4l-7 -1q-5 4 -6 7l-2 21l-1 63q0 15 -6 15q-7 -6 -10 -11l-12 -27l-10 -29l-8 -31l-9 -42l-3 -34q0 -29 3.5 -42.5t21.5 -13.5q23 0 44 9l37 19l28 19q11 9 16 9l3 -1l-3 -7l-7 -8h-1
l-7 -8l-3 -5l1 -3l5 -1l5 1l3 1l3 2l3 1l3 -1l1 -3l-4 -7l-8 -10l-2 -2l-9 -11l-4 -6l2 -3l4 1l6 3v1q5 1 6 2l4 2l4 -1l2 -2l-4 -7l-19 -18q-56 -48 -95 -71q-19 -10 -31.5 -15t-21.5 -5l-18 3q-10 3 -18 10q-13 8 -24 19l-21 23l-9 12l-7 11l-5 15l-3 20l-1 15v14z" />
    <glyph glyph-name="d" unicode="d" horiz-adv-x="389" 
d="M11 134v5q0 80 27 149t58 118q26 41 49.5 64.5t31.5 23.5h2l5 -2l2 -4l-1 -5l-3 -6v-1l-3 -6l-1 -5v-2l2 -4h4l3 2l4 1l4 1l2 -2l1 -4l-2 -7l-4 -7l-1 -1l-5 -7l-1 -6l1 -3l2 -2h2l3 1l3 2l3 3l4 3l5 2l4 -2l1 -4l-2 -10l-4 -10l-2 -2l-4 -12l-1 -8l1 -3l3 -1l3 2l6 5
l1 1l5 3l4 2l3 -2l2 -5v-2q-3 -5 -5 -7l-11 -14q-28 -31 -56 -79q-24 -46 -33 -92l-3 -22l-1 -20v-5q2 -15 11.5 -27t28.5 -12l10 1l10 4q29 15 54 75t25 143q0 9 -1 20t-4 22q-1 9 -4 22t-6.5 24.5t-8.5 25t-15 36.5t-26 48l-3 4l-2 5l-15 23l-26 41l-2 2l-2 4l-27 43
l-11 26l1 5l5 1l4 -1l4 -1l5 -4l6 -4l7 -8l5 -3l2 1l-3 7l-5 10l-2 2l-5 8l-2 8q1 6 2 7l6 2h3l7 -3l7 -3l6 -4l4 -2l3 5l-3 7l-4 10l-1 1l-5 10l-2 7l1 3l4 2l3 1l1 4v4l2 2l3 3l7 5l1 3q2 4 4 5l9 1q6 0 35 -38q26 -35 61 -94l39 -79q19 -39 34 -83q3 -8 8 -28t8.5 -38
t5.5 -33.5t2 -30.5q0 -100 -33.5 -165.5t-104.5 -125.5l-15 -13l-16 -12l-8 -7l-9 -6l-16 -10l-16 -8l-17 -5l-15 -3h-4q-16 0 -39 17.5t-55 51.5q-8 9 -14 28l-5 42v5z" />
    <glyph glyph-name="e" unicode="e" horiz-adv-x="333" 
d="M78 19q-24 19 -43 45l-9 12l-6 12q-4 9 -7 31l-2 48q0 23 6 53q3 14 6.5 26t13.5 32q30 72 86 131.5t120 59.5q7 0 16 -5t17 -13q16 -15 30.5 -40t14.5 -52q0 -63 -35.5 -93t-107.5 -57l-28 -10l-31 -10q0 -30 12.5 -50t47.5 -20q11 0 26 5l34 14l14 8l15 8l26 16l14 13
l4 5l6 2h2l3 -2l2 -3l-2 -7l-5 -6l-2 -2l-2 -2l-8 -9l-3 -5l3 -3h2l3 1l4 4l3 3l3 2l2 -2l1 -3l-3 -7l-6 -9l-7 -9l-3 -7l3 -2l5 4l3 3l3 1h2l2 -3l1 -4q-2 -3 -3 -5q-5 -8 -11.5 -15t-79.5 -61l-13 -8l-25 -13l-6 -4q-5 -1 -6 -2l-25 -11l-19 -4q-32 0 -58 19zM212 326
l-3 10q-3 13 -11 21q-6 8 -15 10q-7 -3 -9 -5l-9 -11l-15 -30l-13 -36l-13 -47l-5 -31l6 1l9 3l9 3l6 4l1 3l-3 4l-6 2h-2q-5 1 -6 2l-2 3q3 5 5 6l13 6l11 5q3 1 4 3t2 3l-3 2l-7 1h-4l-8 1l-2 5q1 2 3.5 4.5t7.5 5.5l25 13l24 13q10 7 11 17z" />
    <glyph glyph-name="f" unicode="f" horiz-adv-x="259" 
d="M254 122q-10 -10 -23 -18l-15 -10l-16 -9l-36 -19l-24 -10l-8 -99l-4 -48l-4 -11l-3 -3q-5 1 -6 2l-4 3l-2 2l-3 3q-9 -2 -10 -4l-3 -11v-1l-4 -9q-3 -4 -5 -4q-6 2 -8 4l-3 7v4q-1 5 -2 6l-3 2l-3 -5q-1 -5 -2 -6l-2 -8q-1 -5 -5.5 -10t-11.5 -7.5t-8 -4.5l-2 -8v-2
l-3 -9q-1 -3 -9 -5q-8 3 -10 5t-4 12l3 44l6 73l1 11l1 11l3 43l3 41q-12 3 -17 8l-4 19v5v6v18q0 12 2 19v22l1 20l2 8l6 4h4q6 0 11 -4l9 -5l2 -2l19 130q11 66 24 130q24 129 54 258q0 7 2 11l3 10q6 26 14.5 42t23.5 16q6 0 9 -6l4 -15l-1 -9v-10l-1 -10v-9l1 -8
q3 -3 5 -3l4 3l2 7l2 7q0 6 3.5 11t9.5 6l5 -1q11 -3 23 -31q6 -13 10 -24.5t10 -34.5l7 -39l3 -31l-3 -47l-6 -56q-3 -32 -4 -37q-5 -17 -6 -24q-6 -31 -13 -49l-7 -23l-11 -28l-7 -16l-6 -15l-4 -7l-3 -6l-5 -8l-4 -3l-2 2v8l4 17l8 24l1 4l8 23l3 18v4l-4 -3l-4 -9
l-5 -10l-5 -4l-2 5l5 20l11 35l10 36l8 33l5 37l2 43v5q0 13 -2 21t-9 8t-14 -16l-9 -33l-5 -29q0 -14 -2 -18l-8 -59l-11 -74l-5 -41l-5 -41l-6 -62l-5 -58q10 0 16 2l17 7l14 6l14 8l24 16l13 7l4 -1l2 -2l-2 -4l-3 -4l-1 -1l-4 -4l-2 -5l1 -2h1l1 -4l-2 -4l-4 -4l-2 -2
l-8 -7l-3 -3l2 -3l7 4l3 1l4 2h3l3 -3l-1 -4l-3 -3l-3 -2l-5 -4l-2 -3l2 -3h1l7 2l3 1l3 1l2 -2l1 -4q0 -5 -9 -16z" />
    <glyph glyph-name="g" unicode="g" horiz-adv-x="407" 
d="M154 142l20 17q18 16 37 36l11 12l11 12l59 66l29 33l4 2l6 1q7 -2 9 -4l8 -7l4 -6l5 -4l3 -1h6l1 1h4l4 -1l6 -5l3 -5v-2q0 -11 -3 -25.5t-5.5 -28l-6.5 -36.5t-10 -44l-1 -6l-1 -6l-17 -76l-10 -46q-1 -10 -9 -27l-16 -34l-7 -12l-7 -12l-23 -35q-9 -15 -14 -15
q-8 0 -13 -4l-6 -11l-2 -4l-2 -4l-2 -4l-3 -2l-3 2l-1 6l1 7q1 5 2 6l1 7l1 6l-1 7l-2 2l-5 -13l-12 -29q-3 -5 -9 -14t-12 -15q-13 -13 -32 -13q-21 0 -30 13q-7 14 -7 38v3v4q0 18 6 39l15 43l17 35l18 33l8 14l9 13l2 3l3 4l2 4l4 5l3 2h2l3 -1l2 -3l-5 -9l-10 -17l-1 -2
l-10 -17l-4 -10l2 -2l3 2l4 4l1 1l4 3l3 2l2 -4l-8 -17l-15 -37l-4 -8l-3 -9l-12 -33l-5 -26q0 -8 3 -12t9 -4q6 3 8 5l10 14q5 10 10 27.5t10 31.5l21 78l6 31t8 35l13 55l-2 3l-24 -28l-40 -43l-14 -13l-14 -13l-41 -33q-17 -11 -33 -13q-25 0 -41 20.5t-23 47.5l-5 20
l-1 19q0 21 1 39t5.5 40.5t13.5 45.5q27 54 73 98t97.5 76t99.5 50t76 18l11 -3l4 -8q0 -7 -7 -13l-15 -7q-5 -1 -6 -2l-5 -1l-8 -4l-3 -4l1 -5l4 -1l6 1h6q5 -1 6 -2l2 -4v-3v-1l-1 -4l1 -4l3 -1l3 -2l1 -3l-4 -4l-9 -6l-10 -6l-4 -4l5 -2h2l7 1h5l7 1q6 0 8 -2l2 -7v-2
q0 -5 -20 -14l-43 -16l-5 -3l-5 -2l-9 -3l-8 -3l-41 -22q-19 -11 -27.5 -17l-30 -22t-47.5 -42q-25 -23 -39 -46l-14 -27q-5 -13 -5 -26q0 -6 4 -11l12 -4q14 2 41 23z" />
    <glyph glyph-name="h" unicode="h" horiz-adv-x="426" 
d="M40 359l45 208l20 85l18 85l1 3l5 17q3 6 15 8q11 0 17 -4.5t7 -13.5l-1 -5v-4l-1 -5v-4v-3l2 -4l3 -1l4 3l2 7l1 3l3 8l7 4l2 -1l5 -2l2 -5l-1 -3l-1 -4l-1 -4l1 -10l3 -3h1l3 -5l2 -13l1 -15l5 -3l4 3l3 8v2l3 9q5 4 8 4l4 -3l2 -5l1 -4q0 -12 -16 -72l-33 -139l-7 -29
l-6 -28l-20 -92q-4 -21 -8 -45.5t-5 -36.5l23 34l33 53l6 10l7 9q19 30 36 50.5t26 20.5l11 -3l12 -6l20 -20l18 -25l1 -4l1 -4l7 -34l4 -44l-1 -16v-19l-2 -15v-16v-5v-4v-19t2.5 -22t10.5 -14q3 1 5.5 2t6.5 4l15 16l3 4l3 4l16 20l10 10l2 -2l1 -5l-3 -9l-8 -13l-2 -4
l-10 -13l-4 -7v-2l2 -3l3 3l6 7l2 2l5 5l5 3h1l2 -2l-1 -5l-3 -4h-1l-2 -4l-1 -3l1 -4l3 -1l3 -3l-3 -6l-5 -10l-1 -3l-5 -9l-2 -7l3 -3l4 3l1 1l2 3l4 1l2 -2l1 -3l-3 -6l-11 -16l-31 -42l-12 -13l-10 -12l-30 -28q-12 -9 -24 -11q-11 0 -19 9l-7 20l-2 7v8q0 7 -2 10.5
t-4 3.5q-4 -2 -5 -4l-2 -8v-2l-1 -8l-4 -3l-2 1q-4 2 -9 15l-4 45v66v11v31q-2 15 -2 19q0 21 -7 23q-6 0 -27 -30l-42 -68l-5 -9l-4 -8l-39 -70l-22 -42q-46 6 -57 48q-9 42 -9 90v3q0 111 20 211z" />
    <glyph glyph-name="i" unicode="i" 
d="M60 350l5 17l7 21l2 6l7 23l6 18l3 8l5 6l3 3l3 1q6 -3 8.5 -5.5t2.5 -10.5l-1 -6v-7h-1l-1 -8v-5v-3l1 -4l3 -1l4 3l2 7l4 8l8 12q5 6 14 6q7 0 11 -5l6 -9l1 -4l3 -9l5 -2q5 2 6 4l6 9l4 9l7 4l6 -3l2 -8l-8 -35l-19 -65l-1 -4l-18 -63l-10 -33l-1 -4l-13 -44l-4 -28
l1 -12l6 -4q7 0 16 5l20 14l5 4l6 4l22 18q6 6 8 7t3 2l3 -1l-2 -7l-7 -9l-1 -1l-7 -8l-2 -6l1 -3l6 1l3 2l2 2l3 1l3 -1l1 -3l-3 -4l-5 -4l-3 -3l-2 -2l-2 -4l-1 -3l1 -3l4 -1h3l2 -1l1 -4l1 -3l2 -5l2 -1l1 -3l1 -4l-3 -6q-4 -6 -12 -16l-34 -37l-12 -12l-12 -11l-36 -27
q-15 -8 -27 -10l-10 2q-8 2 -10 4q-16 9 -31 33q-13 26 -13 58v13v14v32t2 34q0 13 2 26.5t5 24.5zM143 525l-4 6l-1 4l1 4v2l1 6v6l-2 4l-3 2q-5 0 -8 -4l-3 -10v-5l-4 -7l-7 -3q-2 1 -4.5 2t-4.5 5l-6 17l-1 6v6l1 24l4 27l3 13l5 17q6 13 15.5 25.5t24.5 12.5
q7 0 13.5 -3.5t6.5 -10.5v-5l-1 -3l-1 -8v-4l1 -5l3 -1l4 4l6 11l4 9l5 5q11 0 16.5 -8t8.5 -17v-7l1 -6l-1 -19l-1 -20q-3 -29 -17 -51q-12 -23 -44 -23z" />
    <glyph glyph-name="j" unicode="j" horiz-adv-x="241" 
d="M164 449l8 -15l3 -14l3 -8l2 -2l3 2l2 2l2 3l4 5l7 2q8 0 12 -5q3 -2 5 -12l-13 -50l-29 -97l-3 -10l-3 -10l-25 -93q-5 -19 -8 -36t-3 -27l1 -4l4 -1h2q2 2 4 3q7 5 13 11l28 34l2 2l1 3l29 35l14 17l4 -1l2 -3l-2 -6l-5 -6l-5 -7l-2 -5l2 -4l5 -1l5 -1l2 -4l-1 -2
l-2 -4l-2 -4l-1 -5v-1l2 -2h1l4 1l3 1l2 -3l-3 -5l-5 -8v-1l-6 -8l-2 -5l3 -2l5 4l3 3l5 1l4 -1l2 -3l-4 -8l-10 -13l-3 -4l-2 -3l-14 -20l-14 -22l-21 -35l-19 -38l-34 -73l-22 -56l-3 -7l-2 -5l-6 -8l-8 -2q-13 0 -26 8t-22 19l-6 10l-2 9v6v4v14q-2 15 -2 24v14v11
q-2 9 -2 13l-4 50l-1 57l1 44l4 44q9 71 26.5 138.5t39.5 134.5l8 23l8 23l1 3l1 3l3 6l5 3l5 -3l4 -7l1 -4l-1 -8l-1 -6l-1 -3l-1 -7v-5l1 -5l2 -2l2 2l2 7l4 10l7 13q5 6 12 6q5 1 11 -8zM156 541l-4 6l-1 4l1 4v2l1 6v6l-2 4l-3 2q-5 0 -8 -4l-3 -10v-5l-4 -7l-7 -3
q-2 1 -4.5 2t-4.5 5l-6 17l-1 6v6l1 24l4 27l3 13l5 17q6 13 15.5 25.5t24.5 12.5q7 0 13.5 -3.5t6.5 -10.5v-5l-1 -3l-1 -8v-4l1 -5l3 -1l4 4l6 11l4 9l5 5q11 0 16.5 -8t8.5 -17v-7l1 -6l-1 -19l-1 -20q-3 -29 -17 -51q-12 -23 -44 -23z" />
    <glyph glyph-name="k" unicode="k" horiz-adv-x="407" 
d="M24 196l12 127q5 46 7 62.5t7 49.5l16 106l11 69t18 95t17 64l5 6l7 2l5 -2l2 -5l1 -3l-1 -5l-1 -5v-1q-1 -5 -2 -6v-4v-2v-4l3 -1l3 1l4 3l5 3l7 1q6 -3 6 -5l1 -11v-7v-6v-7l3 -3l2 1l3 3l4 4l7 5q3 3 10 3l4 -2l2 -8q0 -8 -2 -12l-2 -10l-4 -11l-1 -8q1 -5 2 -6l4 -2
q5 2 6 4l6 11l3 4l5 8l5 3q4 -2 5 -4l1 -8l-11 -61l-25 -129l-23 -118l-12 -67q0 -11 -2 -17l-1 -11v-2l1 -6l6 -3q5 0 28 33l46 72l4 6l5 7l23.5 36.5t20.5 27.5q21 27 32 28l10 -2q6 0 11 -4l19 -13l18 -16q10 -10 14 -17t5 -10.5t2 -5.5q0 -62 -18.5 -102.5t-40.5 -70.5
l-14 -19l-13 -17l-12 -18q-3 -6 -7 -7h-2l-3 1l-1 4l1 8v2l1 4v4l-1 5l-3 2l-3 -1l-3 -3l-4 -6l-3 -7l-2 -7l-1 -5l2 -9l7 -12l16 -17q8 -5 21 -7q14 0 28 11l26 24l19 24q8 9 13 11l3 -1l-2 -8l-5 -9l-2 -3l-4 -8l-2 -7l1 -5l4 -3l3 -2l1 -2q-3 -7 -5 -9l-10 -10l-11 -12
l-4 -8l2 -4l4 -1l4 3l8 7l1 1l7 6l5 4l3 -1l1 -3l-1 -4l-2 -4l-3 -4l-1 -4l3 -5v-1l2 -2l1 -3l-2 -8l-5 -9l-15 -19q-10 -13 -23 -25l-16 -14l-15 -12q-11 -8 -26.5 -16t-24.5 -8q-7 0 -15 5l-16 12l-16 18l-15 20l-22 36l-8 20l3 12l8 16l2 4l3 4l7 11l6 10l6 10l6 10l6 10
l7 11l45 69q18 28 20 41l-3 6l-8 2q-8 0 -38 -39l-59 -92l-15 -26l-14 -26l-32 -60l-24 -54l-3 -5l-4 -2l-4 -2l-8 1q-5 1 -6 2l-10 7l-4 9l-1 29q0 7 -5 8l-3 -3l-2 -5l-1 -4l-1 -3l-4 -11l-4 -5l-4 1l-5 4l-2 2l-2 2l-4 4l-2 3l-2 11l-1 16q0 19 2 65t2 52z" />
    <glyph glyph-name="l" unicode="l" horiz-adv-x="241" 
d="M259 520q0 -29 -8 -64q-6 -41 -20 -84t-37 -88l-4 -8l-4 -4l-4 -3l-4 -1l-4 2v4l5 14l12 25l11 25l6 15v3l-2 3l-3 2l-3 -3l-2 -3l-3 -4l-5 -2l-3 1l-1 4l7 16l16 43l8 31l7 38l1 8q1 7 2 9l3 22l2 22v4l-1 4q0 6 -4 11q-2 6 -7 6q-9 0 -15 -13l-8 -29l-2 -10l-2 -10
l-11 -53l-13 -57l-10 -47l-9 -48l-12 -77l-4 -72v-5q0 -6 4 -10l9 -4l16 3q10 3 18 10l11 7l11 8l23 18l12 9l3 -4l-3 -5l-4 -7l-3 -3l-2 -3l-2 -4l-1 -4l1 -5l2 -4l2 -3l1 -3l-1 -5l-2 -3l-2 -2l-2 -3l1 -3h5l2 2l5 1q5 -1 6 -2l3 -6q0 -10 -13 -26.5t-34 -36.5l-18 -16
l-18 -15q-21 -17 -39.5 -26.5t-31.5 -11.5l-11 4l-11 8l-12 14l-11 16l-13 24l-8 16l-6 33l-1 60q0 46 9 108l10 60t13 64l7 33l7 32l26 120l18 94l2 14l4 14q7 25 17.5 43t26.5 18q6 0 9 -3.5t3 -10.5l-1 -8l-1 -7l-2 -5v-5l1 -5l4 -2l2 2l2 5l2 6l3 8l8 4q6 0 7 -4l2 -8
v-2v-2l1 -8q3 -3 5 -3l4 1l3 3l2 1l3 2l7 -4l8 -10l13 -33l11 -41l4 -27l2 -24z" />
    <glyph glyph-name="m" unicode="m" horiz-adv-x="593" 
d="M217 29q-10 8 -10 26l1 20q0 12 2 19v13l2 13v5v4v6v10v12q0 12 -4 23q-1 10 -8 11q-6 0 -22 -29l-35 -64l-4 -8l-4 -8l-33 -54q-14 -21 -25 -23q-10 0 -16 12l-5 27l-1 7v8v4l-2 2l-3 2q-4 -4 -4 -7l-1 -13l-1 -5v-6v-4q-13 -4 -19 20l-5 48v14v13v34l3 36q0 29 3 53
q0 2 9 53l18 92l7.5 31.5t11 33t11.5 19.5q11 0 14 -5l2 -12v-7v-7l3 -3l5 1l5 1l6 -3l2 -6v-3v-5l3 -2l5 3l3 7l1 2l4 8l8 4l5 -1l6 -3l5 -5q1 -5 2 -6l4 -4l2 -4l6 -9q3 -3 3 -10l-7 -32l-13 -51l-1 -3l-15 -52l-6 -30v-2l1 -5l4 -2l7 7q8 9 19 25l46 71l44 67
q21 30 27 30q11 0 15 -4l6 -8l1 -3l4 -5l6 -5l2 -2q12 -7 17 -19q2 -6 3 -13t1 -24l-1 -16l-1 -16l-1 -18q0 -10 -2 -16l-5 -28l-1 -16l1 -14q2 -5 4 -5q4 3 7.5 7.5t13.5 20.5l37 63l4 8l5 7l35 53q16 22 26 23l9 -3l9 -6q8 -7 17 -20l14 -25l3 -8l3 -7l2 -8l2 -8v-10v-9
v-6v-17l-1 -14v-8v-8q0 -17 -2 -27v-36q0 -18 1.5 -21.5t4 -5.5t3.5 -2l9 3l10 7l7 6l6 7l14 15l8 7l3 -2l2 -3l-3 -8l-6 -9l-1 -2l-8 -10l-3 -7v-4l2 -1h3l4 1h3l2 -1l-2 -5l-3 -4l-4 -5v-6l4 -2l2 -2l3 -1l4 -4l2 -3l-16 -24l-37 -47l-4 -6l-5 -5l-16.5 -20t-19.5 -21
q-17 -18 -23 -18q-18 0 -25.5 7.5t-9.5 19.5v5l2 4v3l1 3l-1 8l-3 3l-2 -3l-2 -3l-1 -3q-2 -5 -5.5 -7t-5.5 -2q-2 2 -2 3q-3 5 -4 11l-2 34l1 21q0 16 2 25v2q0 14 2 22l1 22v3q0 13 -3.5 21.5t-9.5 10.5q-3 -4 -5 -6q-9 -10 -14 -20l-34 -58q-7 -13 -15.5 -24.5
t-19.5 -24.5q-17 -22 -38 -32l-8 -2l-8 -1q-25 2 -36 7z" />
    <glyph glyph-name="n" unicode="n" horiz-adv-x="389" 
d="M15 189q0 25 2.5 47.5t10 75t19.5 110t26 57.5q5 0 8 -7l3 -15v-9q0 -13 2 -17l4 -5l4 5l2 3l1 4l5 7l8 4q11 0 15 -5q4 -3 5 -20l-1 -5v-4l-1 -4l1 -7l3 -2l2 3l5 8l5 7l7 4q2 -1 4.5 -2t4.5 -4l4 -13q0 -6 -1 -12q-4 -13 -6 -22l-15 -54l-16 -56l-7 -33l1 -6l4 -2
q6 4 8 8l12 19l4 6l4 7l70 115q29 51 37 53l8 -2l6 -4l2 -2l3 -2l3 -4l5 -2q5 -2 6 -5l2 -5v-2l1 -3l2 -3q13 -4 22 -18q6 -10 8 -27l-3 -44q0 -18 -5 -43l-3 -14l-2 -14l-3 -28l-1 -28q2 -6 4 -7l8 -2l8 4l10 11l2 4l4 4l11 15l8 7l3 -2l2 -3l-1 -4l-2 -2l-2 -3l-5 -5
l-1 -6v-6l3 -5l2 2l2 1l4 2l4 -3v-2l-2 -5l-4 -7l-2 -2l-4 -8l-1 -5l2 -4l1 -4q-1 -5 -2 -6l-3 -5l-4 -4l-1 -4v-2l4 -3l4 2l4 4l4 4l4 2l3 -2l1 -4l-3 -6q-4 -6 -11 -15l-31 -37l-3 -2l-2 -3l-32 -35l-17 -18l-12 -8l-10 -1l-8 1l-8 6l-14 17l-12 22l-10 23l-3 17v18
q0 14 2 21v6l1 5l1 25l1 19v2v2q0 7 -2 10.5t-4 3.5q-4 -4 -6 -7q-9 -11 -15 -22l-33 -62l-3 -6l-3 -6q-16 -32 -31.5 -56t-23.5 -24l-8 1l-8 5l-11 7l-9 10l-9 10l-5 8l-18 35q-5 15 -7 32z" />
    <glyph glyph-name="o" unicode="o" horiz-adv-x="370" 
d="M356 264l-8 -34q-14 -48 -41 -90q-13 -23 -26.5 -41t-29.5 -34q-21 -21 -42 -36q-20 -11 -36 -13l-10 1l-9 3l-7 3l-6 1l-3 -1l-2 -2v-2l2 -2l5 -2l4 -1l4 -1l5 -2l5 -2l-17 -3l-29 -1q-11 0 -21.5 5t-22.5 14l-14 13l-13 15l-10 13l-7 12q-8 14 -12 29l-4 40
q0 99 45 173t128 129l7 -2l8 -3h1l11 -4l8 -1l2 2l-2 3l-4 4l-3 2l-9 5l-4 3l8 6l10 6l14 7l11 3q21 0 41 -14t34 -32l9 -11l7 -10l8 -15l7 -14q6 -20 7.5 -27t1.5 -19l2 -39zM248 307q-3 14 -12 25l-2 2l-2 3l-7 6l-6 7l-10 5q-3 3 -8 3q-21 0 -35.5 -24t-27.5 -58l-10 -40
l-3 -30v-18l3 -20q3 -22 12.5 -39t33.5 -17q26 0 43.5 28t24.5 62l7 41l2 33z" />
    <glyph glyph-name="p" unicode="p" horiz-adv-x="407" 
d="M385 256l-3 -30q-6 -46 -18.5 -84.5t-30.5 -62.5l-12 -16l-24 -29l-13 -14l-14 -13l-18 -12l-17 -5h-5q-7 0 -12 5q-6 3 -10 10l-5 13l-6 18l-3 9l-3 10l-9 35l-4 21q0 7 4 11l8 4l4 2l3 4l3 5l5 7l9 4q6 0 7 5l3 11l3 12q1 4 8 5q6 0 9 -12l5 -26l1 -4q0 -7 0.5 -12
t4 -16.5t12.5 -13.5q6 7 7 12l4 26v17v13v6l-1 26v15v13q-2 10 -2.5 17t-2 18.5t-5.5 30t-15 20.5q-9 0 -19.5 -10.5t-24.5 -33.5q-9 -15 -19.5 -41t-21.5 -58q-18 -60 -18 -130v-5v-14v-13l-1 -17v-22v-20l1 -24v-5l1 -4v-27l1 -18v-27q0 -16 -1.5 -26t-2.5 -11.5t-2 -2.5
l-9 2l-11 5l-10 6l-7 7l-3 8l-2 12v1l-3 16q0 5 -6 7l-5 -3l-1 -9l-3 -7q-2 -4 -4 -4q-6 5 -8 9l-2 28l-1 10l-3 3l-6 -3l-4 -7v-1l-4 -5l-4 -3q-9 0 -13 14l-4 29v5l-1 44v63l-1 60v44v36q3 21 4 31l12 87l3.5 28t7.5 38l13 58l12 42q6 14 12 16l10 -1l3 -4l-1 -5l-1 -5
l-1 -3l-2 -5v-4l1 -5l3 -2l5 2l7 4l4 3q5 1 6 2l5 1q10 0 14 -5.5t6 -14.5v-5v-4l-1 -3v-4l2 -5l4 1l4 4l2 2l2 3l3 1q6 0 9 -7l5 -13v-3l-3 -17l-5 -27l-4 -22l-3 -16l16 22l25 37l32 36q16 16 35 22l6 1l7 1q45 0 71 -40.5t26 -103.5z" />
    <glyph glyph-name="q" unicode="q" horiz-adv-x="407" 
d="M47 250q32 56 106 128q18 17 47.5 37t59.5 34q39 19 81 34q37 11 55 13h7q7 0 13 -5q6 -3 6 -12t-4 -13l-9 -6l-3 -2l-8 -4l-2 -5l2 -5l6 -3l2 -2l10 -6q2 -2 4 -12q-3 -6 -5 -8l-9 -3l-2 -1l-9 -3q-4 -3 -4 -5l1 -6l5 -4l1 -1l2 -4l2 -4l-1 -4l-3 -2l-17 -9l-28 -11
l-26 -12l-25 -14q-41 -22 -78 -52q-18 -14 -34 -29q-12 -11 -31 -31q-23 -25 -40 -52q-14 -26 -14 -47v-4l6 -13q4 -3 11 -5q16 0 36 17l20.5 18.5t24.5 24.5l15 18l16 18l50 65l23 31l2 2l4 3l5 3l8 2q29 0 38 -5t9 -24q0 -12 -3 -31t-5.5 -39l-4.5 -36.5t-11 -70.5l-2 -7
v-8l-15 -94l-10 -60l-2 -8l-2 -10l-1 -7l-1 -7l-2 -8v-8q0 -20 -6 -37t-14 -26l-8 -7l-6 -3l-5 1l-3 3l-4 5l-4 7l-3 4l-3 2l-3 2l-3 3l-3 2l-2 3l-3 7l-1 8v3l-1 11q-2 4 -4 4q-4 -4 -4 -6l-1 -15v-3l-2 -3l-2 -2l-4 2l-5 3l-8 13q-3 6 -3 16q0 9 1 23t4 31l12 68l11 59
l6 50l-25 -23l-33 -29l-15 -14l-16 -12q-13 -10 -19 -14l-21 -12q-20 -10 -34 -10q-11 0 -21 7l-18 14l-6 7l-5 6q-10 13 -13 36l-2 77q0 56 32 113z" />
    <glyph glyph-name="r" unicode="r" horiz-adv-x="296" 
d="M170 118q-13 15 -25 38l-7 -24l-7 -35l-1 -10l-2 -8q-2 -11 -3 -20t-5 -22l-5 -31v-2l-3 -3l-4 -1h-8l-11 3l-15 6q-6 3 -6 9v8l2 8v7l1 8l-2 3l-3 2l-5 -3l-3 -7v-1l-4 -8l-5 -3q-14 0 -22 11q-7 14 -7 34q0 12 1 38t1 40q0 17 2 37.5t5 47.5t7 57t10 60q12 60 27 111
l1 2q2 5 4.5 7t7.5 2q5 -3 7 -5l6 -9l3 -8l2 -5l-1 -6l-2 -7l-1 -4q-1 -5 -2 -6v-5l1 -4l2 -3l7 1l4 7v1l4 7l7 3l3 -1l6 -3l7 -6l3 -7l-1 -7l-1 -9l-1 -1l-2 -8v-7l1 -2l5 -3q4 2 5 4l4 9l1 2l3 7l4 4l5 -2q5 -2 6 -4l3 -6q0 -11 -6 -31l-14 -39l-7 -20l-6 -21l-5 -24
l-2 -23l12 18l13 24q12 20 27 35.5t31 16.5l6 -1l8 -2q7 -2 12 -7q6 -3 6 -10l-2 -10l-3 -7l-4 -6l-1 -3v-1h3l2 2v1l3 2l1 1l1 -1l-1 -1l-1 -3v-2l1 -3l8 5l6 3h2l5 -3l3 -3l2 -3q1 -26 -10 -49q-9 -23 -25 -43l5 -1h5h4h6l9 1l10 2l8 2l8 4l5 2q0 -10 -4 -15l-9 -7
q-5 -1 -6 -2l-4 -1l-3 -1v-6l3 -1l4 1h2l3 1l3 -3l-3 -7l-6 -5l-2 -1l3 -2h4q7 1 9 2l7 2q0 -16 -15 -27l-31 -16l-25 -6l-17 -1q-29 2 -42 15z" />
    <glyph glyph-name="s" unicode="s" horiz-adv-x="296" 
d="M25 250l15 30q3 6 10 16t13 17l28 32l39 37l27 21l92 61q21 15 31 15q6 -2 8 -4.5t2 -8.5l-1 -3l-4 -7l-6 -6l-9 -7l-3 -3l1 -5l3 -1l6 2l5 1h2l5 -3l2 -5q-4 -5 -6 -7l-11 -6l-12 -6q-3 -2 -5 -7l3 -4l6 -1h2l9 -1q4 -2 4 -4l-1 -5v-3l-2 -5v-5l1 -4l2 -2h2l2 -4l2 -10
q0 -7 -25 -26l-54 -39l-4 -2l-2 -2q-29 -18 -51 -36.5t-23 -28.5q2 -4 4 -5l11 -2l12 1l20 3h4l5 1q11 0 17 2l15 1q27 0 40 -17q14 -15 18 -35v-8l1 -7q0 -54 -43 -100t-92 -75q-28 -15 -64 -29q-31 -11 -49 -11q-6 0 -10 8l-2 18q3 5 5 7l11 6l12 4l5 4l-2 3l-5 -1h-7
q-8 0 -12.5 3t-5.5 9l1 12l2 8l1 5l1 4l-1 3v4l-1 4v5q2 3 4 4q6 5 14 8l41 18l20 9t20 11q18 10 19 22q-3 3 -6 3.5l-9 1.5l-35 1h-6h-13h-11q-8 2 -18 2.5t-13 7.5l-5 32l-1 56q0 15 5 28z" />
    <glyph glyph-name="t" unicode="t" horiz-adv-x="259" 
d="M39 27q-18 27 -18 61q0 54 4 90q0 19 2.5 35.5t8.5 42.5l9 50l10 55l1 7l2 8l-30 15q-6 5 -8 10l3 7l7 3l3 -1h4l6 -1l4 3l-4 4l-17 6v38q0 12 2 15.5t7 5.5h4l4 -1l4 -1l33 -11l2 6l15 65l14 52l1 5l1 4l6 14l10 4q10 0 17 -6t12 -16v-4l1 -4l-1 -11l-1 -7l-2 -7l-1 -4
l1 -7l4 -2l3 1l3 2l2 2l2 3l6 5q3 3 11 3q4 -3 5 -5l2 -10v-4l1 -3v-7l2 -2l4 6l1 2l2 5l4 3l6 -3l1 -10q0 -17 -5 -32q-3 -17 -10 -35l-3 -13l-4 -13q-1 -5 -2 -6l-1 -6l38 -7q8 -1 11.5 -1.5t6.5 -2.5l1 -2l1 -3l1 -6v-1v-1l-1 -5l-3 -4l-1 -2l-4 -5l-1 -7l1 -5l2 -4l2 -4
l1 -4l-2 -3h-5h-5l-6 1h-1h-5h-4l-5 -2l-2 -5l3 -4l9 -2l3 -2h5l13 -6q6 -3 6 -10q0 -9 -7 -13l-15 -3l-14 2l-19 5l-16 4l-13 3l-7 -25l-8 -35l-3 -15l-3 -15l-10 -56l-4 -37q0 -6 3 -10t9 -4l12 1l14 5l16 9l17 11l23 17l12 8l5 -2l2 -3l-4 -7l-7 -6l-9 -8l-3 -6l4 -4h4
l4 2l5 1l4 -2l2 -3q-2 -5 -4 -6l-8 -7l-2 -1l-9 -8l-4 -6l1 -3l3 -1l3 1l5 2l6 2l5 1l3 -3q-2 -4 -4 -6q-5 -7 -15 -17l-44 -37l-10 -8l-8 -6l-48 -33q-19 -12 -30 -14q-23 0 -43 27z" />
    <glyph glyph-name="u" unicode="u" horiz-adv-x="389" 
d="M59 25l-16 15q-11 13 -22 34q-10 23 -10 46q0 86 12 163t28 124q9 29 10.5 32.5t8 15.5t13.5 14l3 -1l4 -1l6 -5l6 -7l1 -5v-6l-2 -5v-5l-2 -8l-1 -6v-3l1 -5l3 -2l4 3l4 7v2l4 7l6 4l3 -1h4l6 -3l5 -3l3 -3v-6v-4l-1 -5l-1 -4l-3 -7l-1 -5l1 -4l5 -1l5 2l3 6v1l3 6l6 3
q7 -2 9 -4l4 -10q0 -6 -10 -32l-22 -57l-4 -11l-4 -10l-17 -53q-5 -19 -6 -25.5t-1 -15.5l3 -11l7 -3q12 0 34 32l46 74l5 9l6 9l49 85q21 39 28 39q14 0 19 -5l6 -10l1 -4l1 -10l4 -3l6 1h2l4 1l6 -1q5 -1 6 -2l13 -9q6 -5 6 -11l-1 -6l-1 -8l-2 -3l-1 -4l-6 -17l-6 -17
l-9 -28l-8 -28l-12 -53q-4 -24 -4.5 -32.5t-0.5 -14.5l1 -9q4 -3 6 -3q9 3 13 5l17 13l4 3l4 4l18 16l11 8l2 -1l2 -2l1 -4l-1 -5l-3 -4l-2 -2l-5 -6l-2 -11l-2 -4l-3 -5l-3 -2l-2 -2l-7 -6l-3 -5l1 -3l3 -1l3 1l6 3l2 1l4 2l5 1l3 -1l2 -2l-2 -5l-2 -3l-4 -4l-1 -3l1 -2
l4 1l3 2l4 2l2 -3l1 -5q0 -5 -15 -23l-35 -34l-8 -8l-8 -6l-40 -32q-17 -11 -24 -13q-12 0 -21 6l-16 15l-4 4l-3 4q1 5 2 6l2 8l3 13l1 9l-1 3l-2 2l-4 -5l-4 -9l-4 -11l-4 -4q-7 5 -9 9l-4 19v3v11q0 8 2 12l1 4q1 5 2 6l2 17l2 21v2l-2 3q-7 1 -23 -19l-32 -44l-13 -17
l-12 -15l-24 -24q-12 -9 -23 -9z" />
    <glyph glyph-name="v" unicode="v" horiz-adv-x="352" 
d="M12 169l3 41l15 100q5 28 9 46t11.5 44t16.5 46.5t16 22.5q7 0 10 -2q4 -6 4 -9l-1 -7l-1 -5l-1 -4l-1 -3v-10l3 -3l4 3l3 7l2 4q2 7 4 9l7 4l3 -3l1 -8v-2l-1 -7l-1 -7v-2l-2 -7v-6l1 -6l2 -2l4 4l4 11l4 9l4 5l5 -3l2 -5v-1l1 -6l4 -2l3 2l2 2l2 4l4 4l6 3q6 0 11 -5
l6 -11v-4l-2 -11q0 -7 -5 -16q-4 -16 -11 -31l-14 -42l-6 -21l-6 -21l-13 -54l-5 -44v-4q0 -14 5 -24t20 -11q28 0 50.5 64t41.5 146l18 91l13 75q1 7 2 9l1 8l6 14l9 4q9 0 12 -6l3 -12l-1 -8v-6v-2l-1 -6v-6q0 -7 2 -9l4 -3l3 1l3 3l2 2l2 4l6 6q3 3 10 3l3 -1l4 -1
q5 -2 6 -4l3 -6l-1 -6v-8l-1 -12v-14v-11q3 -4 5 -4l3 3l3 7l1 1l2 7l5 4l4 -2l1 -5v-5q0 -105 -43 -203t-95 -159q-18 -21 -31 -34t-32 -28q-31 -22 -50 -22q-16 0 -29 8t-24 19l-5 4l-4 4l-13 13l-11 12l-8.5 14t-6.5 15t-4 16.5t-1 23.5z" />
    <glyph glyph-name="w" unicode="w" horiz-adv-x="463" 
d="M23 173l7 64q6 49 16 88q10 48 20 77l8 25t9 23q9 18 16 19h2q8 0 12.5 -2.5t4.5 -4.5l-2 -6l-3 -7v-1l-4 -8l-1 -5v-6l3 -2l4 3l7 8l4 5l4 4l3 1l3 1q5 -2 6 -4l2 -8l-1 -7l-3 -9l-3 -9l-1 -10l1 -7l3 -2l4 1l2 5l1 3l5 6q3 3 10 3h3q7 0 12.5 -3.5t6.5 -7.5l1 -2
q0 -15 -9 -45l-19 -66l-16 -57l-10 -59l-3 -22v-22q0 -11 3 -18t8 -7q3 4 5 6q6 8 11 20l25 61l3 8l4 10l22 62q5 17 8.5 26.5t6 15t7.5 8t13 2.5l8 -1q8 0 12 -2l14 -6q5 -3 7 -9l3 -25l3 -22q3 -28 9 -47t17 -33q7 8 13 37l8 59l4 59l1 38l-1 15v15q0 10 -2 16v16l1 34
q0 12 6 14q8 0 15 -8q6 -5 11 -16l2 -6l1 -6l1 -23q0 -9 5 -9l4 3l4 8l2 7l2 4q7 -1 9 -2l8 -3l2 -2l4 -12l2 -15v-6l1 -4l1 -13l2 -5q4 3 4 5l2 11l2 10q2 5 4 5l3 -1l4 -1l2 -2l3 -3l3 -11l1 -20l-1 -33l-3 -33q-9 -79 -35.5 -153t-56.5 -113q-12 -15 -22.5 -22.5
t-23.5 -9.5q-18 0 -29 5.5t-23 21.5l-16 28l-17 41q-51 -100 -73 -118.5t-37 -18.5q-42 0 -61.5 29.5t-27.5 70.5l-4 28l-1 26z" />
    <glyph glyph-name="x" unicode="x" horiz-adv-x="389" 
d="M11 27q-9 21 -9 86q0 66 3.5 83.5t10.5 17.5h6l3 -1l5 3l4 7l2 3l5 9l7 4l2 -1l2 -2l1 -5l-1 -3l-1 -4l-2 -7v-9l1 -4l3 -1q5 0 7 9l4 21q0 13 2 21t8 8q7 0 10 -4l2 -10q0 -48 1.5 -56.5t10.5 -9.5l4 1l5 2l4 4l5 4l4 5l2 5q0 10 -5 33q-4 33 -4 35q-5 17 -6 25l-1 4
l-10 61l-4 39l1 3l2 4l5 7q3 3 8 3l3 -5l2 -11l1 -2l2 -13q0 -2 2 -3.5t3 -2.5l5 3l1 8v2l-1 6l-1 8l-2 10v13l2 5l7 2l5 1l2 -2l2 -5v-3q1 -5 2 -6l6 -3q4 2 4 4l3 11l1 9l3 5l5 3q5 1 6 2h5l5 1q17 0 21 -11l6 -34l3 -47q3 -27 12 -66l3 3q56 56 94 105t46 51
q6 -3 8.5 -5.5t2.5 -7.5l-3 -7l-5 -7l-2 -3l-2 -2l-9 -9l-4 -6l4 -3l3 1l6 4l2 1l4 3l5 1h2l2 -2l1 -4l-3 -8l-5 -7l-3 -2l-2 -2l-5 -6l-4 -5l2 -3l4 -1l5 1l5 1l5 -1l2 -5l-3 -6l-5 -7v-1l-7 -9l-2 -4l1 -4l3 -1l6 2l3 1l3 1l3 -5l3 -11v-4q0 -5 -36 -46l-99 -108l1 -7
l1 -7l9 -24q6 -9 22 -10q13 0 26 7t24 16l20 16l15 7l3 -1l-3 -10l-7 -7l-8 -6l-3 -3l2 -2h1l3 1l4 2l4 2l3 1l3 -1l-2 -7l-6 -6l-3 -2l-8 -7l-4 -3l2 -3l3 1l5 2l5 2l3 1l3 -1l-1 -6l-2 -3l-4 -3l1 -4h4l4 -1q5 -1 6 -2l3 -4q0 -9 -18 -21l-51 -38l-47 -34q-22 -14 -41 -14
q-18 0 -31 15.5t-24 38.5q-2 7 -3.5 11.5t-4.5 10.5l-5 19l-16 -16l-17 -17q-17 -19 -37 -33t-41 -14q-24 1 -34 22z" />
    <glyph glyph-name="y" unicode="y" horiz-adv-x="370" 
d="M128 -132q19 42 30 83l24 84l4 18q2 12 5 18l6 24l6 24l-22 -21l-28 -30l-10 -10l-8 -8l-31 -27q-13 -9 -26 -11l-12 4l-15 12q-12 11 -21.5 26t-9.5 32q0 73 9 135.5t21 118.5l9 38q1 9 2.5 17t5.5 19q1 7 2 9l2 9q3 17 8 27t13 10q5 0 10 -6l4 -11v-4v-4l-1 -8v-7
l-1 -3l-1 -8v-5l4 1q1 11 5 17.5t10 8.5h5q6 -2 9 -6t3 -7l-1 -7l-3 -6l-2 -4l-1 -5q1 -5 2 -6l7 -2l4 2l4 4l4 4l3 2h2l2 -1l-6 -32q6 0 9 3l5 9l1 4q1 5 2 6l4 2l6 -3l2 -8q0 -13 -9 -42l-18 -61l-6 -18l-5 -18l-12 -50l-5 -44l1 -5l2 -5l7 -2q8 0 29 31l42 75l8 17l9 18
l40 89l21 50l4 2l5 1l4 1l11 -2l9 -4l8 -5l7 -5l7 -8l3 -6l-1 -7l-1 -7q-1 -7 -2 -9l-1 -9v-5l2 -7l4 -2l4 4l5 9l4 8l6 4l4 -5l2 -15l-12 -64l-28 -117l-7 -26l-6 -24l-21 -73q-9 -31 -18 -48l-20 -41l-9 -16l-1 -2l-10 -13l-19 -31l-5 -7l-4 -7q-6 -10 -13 -16.5t-12 -7.5
l-4 2l-1 7l1 6v3v5l1 4l-1 4h-4l-2 -3q-1 -5 -2 -8t-2 -4q-9 -23 -27.5 -44t-38.5 -21q-14 0 -21 14.5t-7 44.5q0 19 1 28t6.5 24.5t9.5 25.5t9 20t9 16.5t9 12.5l10 10l4 -2l2 -3l-2 -8q-2 -8 -4 -10l-2 -6l-7 -12l-2 -7l3 -4l2 2l4 3l1 1l3 3l3 1l2 -3v-2q0 -7 -4 -15
l-8 -22l-9 -26l-4 -32l7 -4z" />
    <glyph glyph-name="z" unicode="z" horiz-adv-x="333" 
d="M156 7q-13 6 -19 9t-18 11l-8 4l-8 5l-41 25q-18 12 -28 12q-13 0 -18 5q-3 5 -5 14v19l1 27v27l1 20q3 5 6 8q8 7 12 11l42 34l4 2l3 3l43 31l24 17l19 15l7 8q0 5 -21 13l-46 16l-8 2l-6 3l-37 13q-15 6 -16 13l1 9l5 13q3 8 9 15.5t13 9.5l4 -1h4l4 -1q5 -1 6 -2h6
l5 1l3 2l-7 4l-13 6l-15 7q-6 3 -6 8v6l2 8l6 14q3 6 10 6l41 -14l82 -32l5 -2l5 -1l71 -30q31 -11 41 -18q4 -5 4 -7l1 -9l-3 -14q-3 -6 -10 -10l2 -2l3 -5l2 -8q0 -13 -21 -34q-16 -15 -23.5 -21.5t-26.5 -20.5l-11 -8l-11 -8l-65 -47q-27 -20 -29 -28q4 -5 6 -7l14 -8
l10 -5l11 -4l21 -8l16 -3q23 0 42.5 9.5t34.5 23.5l24 22l12 10l3 -2l1 -4q-1 -5 -2 -6l-5 -5l-2 -2l-2 -2l-8 -7l-3 -6l5 -3l4 3l2 2l4 1h2l3 -1l1 -4l-2 -4l-5 -4l-1 -1l-5 -4l-2 -4l1 -5l2 -2l2 -2l1 -3l-3 -5l-6 -8h-1l-6 -8l-3 -5v-2l4 -3l4 1l5 5l5 3l6 2h2l3 -3
l-13 -17l-33 -34l-29 -25q-15 -12 -32 -19l-18 -6l-16 -1q-13 0 -31 7z" />
    <glyph glyph-name="braceleft" unicode="{" horiz-adv-x="333" 
d="M86 372l17 1l19 6q24 9 42 32q19 20 25 55l28 200q6 46 31.5 75.5t53.5 44.5l27 9l24 4l83 1l-10 -72h-53q-28 0 -41 -20.5t-19 -44.5l-2 -7l-1 -8l-27 -195q-5 -40 -23.5 -63.5t-37.5 -35.5l-29 -15l-22 -6l15 -6q10 -2 19 -7q16 -9 31 -29.5t15 -58.5l-1 -12l-1 -13
l-23 -161l-5 -32l-1 -25v-6q0 -19 9 -34t34 -15h53l-10 -72h-83l-15 2l-15 3q-26 9 -48.5 35t-22.5 68l1 25l5 34l23 165l1 8v9q0 35 -18 53.5t-41 26.5l-9 1l-9 1z" />
    <glyph glyph-name="braceright" unicode="}" horiz-adv-x="333" 
d="M307 290l-18 -3l-18 -6q-23 -9 -42 -31t-25 -56l-28 -198q-6 -46 -31.5 -76.5t-53.5 -44.5l-27 -9l-24 -4h-83l10 72h53q29 0 41.5 20t18.5 44l1 6l2 8l27 197q5 37 23 60.5t38 36.5l28 14l23 7l1 3l-16 2l-19 8q-15 8 -30.5 29t-15.5 59v12l2 13l23 163l4 29l2 27v6
q0 19 -9 34t-34 15l-53 1l10 72h83l14 -3l16 -3q26 -9 48.5 -35t22.5 -68q0 -16 -2 -26v-18q-3 -11 -4 -16l-23 -163l-1 -10v-9q0 -34 18 -55q18 -18 41 -25l9 -2h9z" />
    <glyph glyph-name="florin" unicode="&#x192;" horiz-adv-x="464" 
d="M441 752l14 -8l21 -21l18 -26l16 -29q6 -14 6 -22q0 -71 -9.5 -120t-23.5 -50l-5 2l-2 5h-1l-2 5l-4 2q-5 -3 -7 -5l-6 -10l-8 -11q-2 -4 -8 -5l-5 2l-2 5v1l-3 4l-5 3l-9 -6l-9 -12l-8 -13q-2 -3 -7 -5l-5 2l-1 9l4 17l10 36l5 23l5 26l3 21l1 21q0 9 -3.5 16t-14.5 8
l-5 -1l-4 -2q-23 -12 -48 -81t-46 -148l-14 -52l-12 -50h18q11 3 16 4l47 11l7 1l7 2l50 12l27 6l5 -2l2 -4q-2 -5 -4 -6l-9 -4l-2 -2l-11 -5l-4 -7l1 -4l2 -2l2 -1l2 -4l2 -6v-1v-1l-3 -5l-5 -2h-2l-4 -2l-2 -4l1 -5l3 -3l2 -2l1 -3l-3 -9l-6 -4l-4 -1l-5 -3l-2 -3v-4l2 -3
v-4l1 -3q0 -5 -18 -11l-39 -5l-6 -1h-6l-21 -3l-21 -4q-5 -1 -6 -2l-5 -1l-16 -3l-16 -3l-11 -51l-12 -50l-4 -18l-4 -17l-15 -67l-11 -68l-1 -3v-4l-1 -3q0 -6 -3 -12.5t-8 -6.5l-5 3l-2 5v1l-1 5l-4 2l-5 -2l-3 -7l-2 -2l-1 -3l-6 -9l-8 -4l-3 1l-3 5q-8 -2 -10 -4l-8 -13
l-3 -3l-2 -3l-8 -8l-6 -4l-4 2l-1 4v2l-2 3l-7 -2l-9 -7l-9 -6l-6 -3l-5 3l-2 6v1v1l29 115l25 117l8 39q2 16 3.5 22t4.5 17l-16 -2l-19 -4l-4 -1l-21 -5l-15 -2l-7 3l-3 7l2 6l4 3l1 1l3 2l2 5q-2 6 -4 6l-9 1h-2l-10 1q-4 5 -4 8l2 4l4 4h1l5 4l2 6q-3 6 -5 6l-11 1
l-11 1q-3 1 -5 6l3 5l8 4l34 7l34 9l29 7l29 7l27 98q18 70 49 146q38 99 92 179.5t124 80.5q6 2 12 -3z" />
    <glyph glyph-name="quotedblbase" unicode="&#x201e;" horiz-adv-x="426" 
d="M156 178l7 -4q3 -3 3 -10l-4 -22l-9 -29l-2 -7q-1 -5 -2 -6l-9 -23l-6 -16l-15 -42l-12 -34l-1 -4l-5 -13l-4 -13l-3 -7q-1 -5 -3 -9t-7.5 -7t-15.5 -3l1 3l1 3v6l1 4l-2 7l-9 2l-5 -5l-4 -6l-2 -5l-2 -4l-2 -3l-8 -3l-14 -3v5l2 4l1 4l3 7l1 4l-2 5l-5 1l-7 -4l-5 -11
v-2l-6 -11q-1 -2 -3.5 -3.5t-3.5 -2.5q-8 0 -9 5l-2 19l1 17l2 17l4 21q2 12 5 18l6 28l4 16q2 22 3 30.5t5 21.5q2 14 3 20t5 15q3 14 8 20q3 6 8 6q6 -1 8 -3.5t2 -4.5v-3v-4v-4l2 -2l5 3l3 1l3 1l6 1q4 5 4 7l9 10l12 5h4q5 0 8 -6l3 -12v-2q0 -7 1.5 -10.5t6.5 -5.5l3 1
l4 5l3 5l4 6l8 11q3 3 12 5zM356 178l7 -4q3 -3 3 -10l-4 -22l-9 -29l-2 -7q-1 -5 -2 -6l-9 -23l-6 -16l-15 -42l-12 -34l-1 -4l-5 -13l-4 -13l-3 -7q-1 -5 -3 -9t-7.5 -7t-15.5 -3l1 3l1 3v6l1 4l-2 7l-9 2l-5 -5l-4 -6l-2 -5l-2 -4l-2 -3l-8 -3l-14 -3v5l2 4l1 4l3 7l1 4
l-2 5l-5 1l-7 -4l-5 -11v-2l-6 -11q-3 -6 -8 -6q-6 0 -9 5l-2 19l1 17l2 17l4 21q2 12 5 18l7 28l4 16q2 22 3 30.5t5 21.5q2 14 3 20t5 15q3 14 8 20q3 6 8 6q6 -1 8 -3.5t2 -4.5v-3v-4v-4l2 -2l5 3l3 1l3 1l6 1q4 5 4 7l9 10l12 5h4q5 0 8 -6l3 -12v-2q0 -7 1.5 -10.5
t6.5 -5.5l3 1l4 5l3 5l4 6l8 11q3 3 12 5z" />
    <glyph glyph-name="ellipsis" unicode="&#x2026;" horiz-adv-x="1000" 
d="M187 171l6 -4l6 -5l6 -2l4 1l4 3l4 2l4 1q7 0 12.5 -8.5t5.5 -26.5l-4 -20l-8 -33l-6 -19l-7 -17l-3 -7l-3 -5q-8 -13 -22.5 -22t-33.5 -9q-11 0 -16.5 2t-5.5 7l-1 11q-2 5 -4 5l-3 -3l-4 -5l-7 -7l-7 -2q-4 4 -5 6l-3 15l-1 9v8l1 24l6 34q3 23 12 42t22 22l6 -1l4 -2
v-1l3 -2l5 -1l5 2l8 4l3 2l3 1l5 2l5 1zM520 171l6 -4l6 -5l6 -2l4 1l4 3l4 2l4 1q7 0 12.5 -8.5t5.5 -26.5l-4 -20l-8 -33l-6 -19l-7 -17l-3 -7l-3 -5q-8 -13 -22.5 -22t-33.5 -9q-11 0 -16.5 2t-5.5 7l-1 11q-2 5 -4 5l-3 -3l-4 -5l-7 -7l-7 -2q-4 4 -5 6l-3 15l-1 9v8
l1 24l6 34q3 23 12 42t22 22l6 -1l4 -2v-1l3 -2l5 -1l5 2l8 4l3 2l3 1l5 2l5 1zM853 171l6 -4l6 -5l6 -2l4 1l4 3l4 2l4 1q7 0 12.5 -8.5t5.5 -26.5l-4 -20l-8 -33l-6 -19l-7 -17l-3 -7l-3 -5q-8 -13 -22.5 -22t-33.5 -9q-11 0 -16.5 2t-5.5 7l-1 11q-2 5 -4 5l-3 -3l-4 -5
l-7 -7l-7 -2q-4 4 -5 6l-3 15l-1 9v8l1 24l6 34q3 23 12 42t22 22l6 -1l4 -2v-1l3 -2l5 -1l5 2l8 4l3 2l3 1l5 2l5 1z" />
    <glyph glyph-name="circumflex" unicode="&#x2c6;" 
d="M176 547q-5 2 -10.5 6t-13.5 11l-8 8l-8 8l-9 5q-3 3 -9 3q-7 -2 -9 -4l-8 -10l-3 -5l-2 -4l-13 -17q-5 -5 -18 -7l-7 2l-4 7l-2 2l1 6l2 3l1 2l2 4l-1 5l-3 2q-5 -1 -6 -2l-5 -3l-2 -2l-2 -2l-8 -6q-3 -3 -9 -3t-7 4l-1 9v2l10 17l23 31l4 5l4 5l21 24l15 14l5 2l8 5
l10 5l10 3l12 2q12 0 26 -9l23 -18l19 -19q8 -6 16 -8q9 0 16 7l14 17l6 9l7 8l4 4l6 2q5 -3 5 -5l1 -11l1 -11q1 -3 6 -5l3 1l3 3l2 2l2 3l5 4l6 4l7 1h7l5 -3l4 -6v-2l-9 -21l-22 -35q-16 -23 -38 -39.5t-45 -16.5q-25 2 -40 7z" />
    <glyph glyph-name="Scaron" unicode="&#x160;" horiz-adv-x="444" 
d="M461 768l-14 -8l-3 -2l-12 -7q-4 -2 -5 -8l2 -5l5 -3h2h4l4 1l6 1l5 -2l2 -5q-2 -7 -4 -9l-9 -6l-9 -8l-4 -8l1 -4l4 -2l6 2l5 1l4 -3v-2l-2 -4l-4 -2l-2 -1l-3 -2v-7l6 -2l6 1l3 2l4 1l5 1l4 -2l1 -4q-3 -2 -4 -3q-8 -6 -13 -9l-52 -33l-40 -30q-27 -20 -49 -41l-24 -22
l-23 -23q-26 -26 -45 -53.5t-19 -45.5q0 -6 6 -14l14 -7l5 -2h5l24 4l38 10q8 0 12 2l13 3l31 5l27 3l6 -1q10 -2 18 -11l16 -17l9 -16l5 -11l2 -11l1 -14v-5v-4v-22q-3 -11 -5 -23.5t-10 -27.5q-22 -56 -72 -112q-44 -49 -105 -101.5t-118.5 -89.5t-65.5 -37q-9 0 -13 5
l-5 10l-1 6v4l3 13l9 7l2 2l7 6l2 6v4l-1 3v4l1 2l1 4l1 3l-4 4h-3l-5 -1l-4 -1l-4 2l-2 4q0 6 4 11l10 10l9 8l5 5l-1 3l-3 1l-3 -1l-4 -2l-4 -3l-3 -1l-5 1l-4 4l-1 6l1 6l3 5q7 12 34.5 28t66.5 43l25 19l43 37l16 16l16 17l26 33q9 15 11 30q-2 6 -4.5 8.5t-14.5 2.5
l-18 -3l-22 -6q-12 -2 -18 -5l-18 -3l-7 -1h-8q-46 0 -71 34q-21 31 -26 74l-1 6v7l3 36q2 9 4.5 18.5t6.5 18.5q24 67 80 130q27 30 57 58t63 55q40 31 71 51l33 19q11 6 31 16l10 4l8 2l5 1h4q8 0 13 -6l4 -14q0 -6 -6 -11zM310 787l-8 2h-6l-5 1h-3h-3h-6h-6l-10 -1h-12
q-2 1 -4.5 2t-6.5 4q-7 7 -12 17l-9 15l-8 17l-11 27l-8 21l-2 4l-1 4l-6 11l-4 9l-1 4v4q4 5 6 6l14 4h9l7 1l5 -1l5 -1l2 -1l3 -1h4h5l7 2l9 1l11 1q2 -1 4.5 -2t6.5 -6l12 -17l12 -17q5 -7 11 -8q7 4 9 8l15 17l2 3l13 15q6 6 11 7l4 -1l8 -1l8 -4l4 -5l-1 -4l-1 -3
l-2 -3l1 -6l6 2l9 7l4 2l8 5l6 2l5 -2l3 -6q-2 -6 -4 -10q-6 -9 -9 -14l-31 -43l-4 -6l-4 -5q-15 -23 -30 -39t-20 -18h-11z" />
    <glyph glyph-name="guilsinglleft" unicode="&#x2039;" horiz-adv-x="241" 
d="M140 233l9 -9l5 -5l5 -4l12 -16q6 -6 6 -13l-1 -7q-1 -5 -2 -6l-1 -4l-2 -3v-4l-1 -9l-1 -10v-2q0 -8 -2 -12v-8v-3l-2 -4l-1 -3l-3 -7l-1 -7l-3 -8l-7 -3q-7 5 -11 9l-17 23l-5 5l-5 6l-9 6l-8 9l-6 6l-4 8q-3 6 -8 10l-8 8l-8 6l-8 6l-8 8q-3 3 -3 10l1 10l4 12l1 4
l1 4l2 7l1 8v6l2 8l1 7l1 8q1 3 2 5.5t6 6.5l21 15l7 4l8 5l14 8l14 8l16 10l22 14l2 2l3 2l26 16l19 7l7 -3l3 -6v-2q-3 -5 -5 -7l-9 -9l-2 -1l-11 -10l-5 -6l1 -5l4 -2l2 1h2h2l4 -2l2 -3l-1 -7l-1 -7l-2 -8v-8q0 -6 -17 -17l-35 -24l-12 -8l-11 -8z" />
    <glyph glyph-name="OE" unicode="&#x152;" horiz-adv-x="815" 
d="M101 434q58 109 125 181q37 40 70 66t61 43l68 39q26 14 42 16q5 -1 7 -4t2 -5l-4 -7l-7 -6l-9 -6l-3 -4l6 -2h2l4 -2l3 -2l-1 -6l-1 -5l-1 -3l51 9l86 19l7 2l97 20l51 9l5 -2l3 -3l-1 -5l-2 -2l-1 -1l-2 -3l-1 -3l1 -3l5 -1l8 1l11 2l1 1q7 0 11 2l8 1q6 -1 7 -2l2 -6
q-3 -4 -5 -5l-11 -4l-12 -5q-4 -1 -5 -5l4 -3l10 -1l2 -1l10 -1q5 -2 5 -4q0 -12 -5.5 -20.5t-11.5 -13.5l-12 -8l-5 -4l3 -3h7l4 1l3 1l5 1h2l3 -3l2 -5q-7 -7 -13 -9l-29 -5l-21 -3q-11 0 -16 -2l-31 -6l-33 -8l-31 -8l-32 -6l-2 -9q-1 -7 -2 -9l-1 -3l-5 -18l-2 -15
q0 -15 -4 -30l-4 -31l-1 -1l-6 -41l-3 -35v-4l62 18l63 24l11 5l17 6q5 1 6 2l7 3l19 5l16 2l8 -2q3 -5 3 -8q-3 -7 -5 -9l-10 -5l-4 -2l-4 -2l-5 -4l-2 -3l3 -2h7l8 -1q4 -2 4 -4q0 -6 -7 -10l-13 -5l-3 -1l-13 -5q-3 -2 -5 -7l3 -4h9h7l8 2h1l8 1l7 1h3q5 -1 7 -3.5
t2 -4.5q-3 -5 -5 -6l-11 -4l-6 -1l-5 -1l-4 -2l2 -4l7 -4l7 -5l3 -6q-3 -6 -5 -8l-12 -6l-63 -18l-77 -22l-36 -12l-34 -14l-4 -24l-7 -47l-2 -8l-1 -8l-7 -46l-2 -33q24 3 69 15l104 23l32 6l34 7l7 1l7 2l14 3l10 2h1h1q8 0 12 -7l4 -16q0 -8 -6 -17l-13 -10l-14 -6
q-2 -1 -3.5 -2t-2.5 -2l1 -5h4h3h4l4 1h4l4 1q5 -1 7 -3.5t2 -4.5q-2 -6 -4 -8l-8 -3l-3 -1h-4l-4 1l-6 -1l-2 -4l1 -3l2 -3l3 -3l3 -6l2 -8q0 -9 -10 -15l-23 -7l-6 -1l-4 -1l-21 -3q-12 0 -18 -2l-9 -1l-9 -1l-25 -5l-27 -5l-29 -5l-35 -4q-7 0 -16 -1t-22 -4l-49 -6
l-62 -9l-38 -4q-7 0 -10 2.5t-3 9.5l1 10l3 10l3 8l1 9v7q1 5 2 6l1 5l-2 3l-18 -19l-17 -18q-28 -28 -58.5 -45t-78.5 -17l-17 2l-16 3q-51 15 -94.5 72t-43.5 130q0 127 57 237zM254 109l3 1q42 5 81 42.5t60 81.5l12 31l7 29l-18 -2l-21 -5l-3 -2l-26 -6l-16 -3l-6 1
l-2 5l-1 4l-1 3l-2 3l-2 4l-1 5l1 5l4 3l3 1l2 1q-1 5 -3 5l-9 1h-4l-12 3q-3 1 -5 9q0 6 6 9l13 5h4l4 1l7 2l3 3q-3 4 -5 4l-9 1h-1q-7 0 -11.5 2.5t-4.5 4.5q7 6 12 8l28 6l7 1h7l7 2l20 5l29 7q7 1 9 2l9 2l2 17l3 19v8l2 8l4 24l3 19l2 18l4 21l1 12q0 7 2 11
q0 16 2 24l1 22l-3 17q-3 6 -11 7q-21 0 -54.5 -24.5t-69 -65.5t-69.5 -94t-55 -107q-4 -10 -8 -23.5t-9.5 -37t-5.5 -50.5v-8v-7q3 -35 20.5 -65t60.5 -30h3z" />
    <glyph glyph-name="quoteleft" unicode="&#x2018;" horiz-adv-x="232" 
d="M129 541l-7 4q-3 3 -3 10l4 22l9 30q1 5 2 8t2 4l9 22l6 17l15 41l12 36l1 4l4 13l5 13l2 7l3 6q3 7 8.5 10t15.5 3l-1 -3l-1 -3l-1 -6v-4l2 -7l9 -2l5 5l4 6l2 5l2 4l2 3l8 3l14 3l-1 -5l-1 -4l-1 -4l-3 -7l-1 -4l2 -5l5 -1q5 2 6 4l6 11v2l6 11q3 6 8 6q8 0 9 -5l2 -19
l-1 -17l-2 -17l-4 -21l-5 -19q-2 -9 -3 -18q-4 -7 -5 -10l-3 -16q-2 -22 -3 -30.5t-5 -22.5q-2 -14 -3 -20t-5 -14q-3 -14 -8 -20q-3 -6 -8 -6l-7 2l-3 6v4v3v4l-2 2l-3 -1l-5 -3l-3 -1q-5 -1 -6 -2l-4 -6l-9 -11l-12 -4h-4q-5 0 -8 5l-3 13v2l-3 11q-3 5 -5 5l-4 -2l-3 -4
l-4 -5l-3 -5l-8 -12q-3 -3 -12 -5z" />
    <glyph glyph-name="quoteright" unicode="&#x2019;" horiz-adv-x="232" 
d="M330 795l7 -4q3 -3 3 -10l-4 -22l-9 -29l-2 -7q-1 -5 -2 -6l-9 -23l-6 -16l-15 -42l-12 -35l-1 -4l-5 -13l-4 -13l-3 -7q-1 -5 -2.5 -8.5t-8.5 -8.5l-15 -2l1 3l1 3v6l1 4q-1 5 -4.5 7t-6.5 2l-5 -5l-4 -6l-1 -3l-3 -6l-2 -3l-8 -4l-14 -2v4l2 5l1 4l3 6l1 5l-2 5l-5 1
q-5 -3 -7 -5l-5 -10v-2l-6 -12q-2 -4 -8 -5q-6 0 -9 5l-2 19l1 16q0 12 2 18l4 21l5 19l7 28l4 16q2 22 3 30.5t5 21.5q2 14 3 20t5 15q3 14 8 20q3 6 8 6q6 -1 8 -3.5t2 -4.5v-3v-4v-4l2 -2l5 3l3 1l3 1l6 1q4 5 4 7l9 10l12 5h4q5 0 8 -6l3 -12v-2q0 -7 1.5 -10.5
t6.5 -5.5l3 1l4 5l3 5l4 6l8 11q3 3 12 5z" />
    <glyph glyph-name="quotedblleft" unicode="&#x201c;" horiz-adv-x="426" 
d="M129 541l-7 4q-3 3 -3 10l4 22l9 30q1 5 2 8t2 4l9 22l6 17l15 41l12 36l1 4l4 13l5 13l2 7l3 6q3 7 8.5 10t15.5 3l-1 -3l-1 -3l-1 -6v-4l2 -7l9 -2l5 5l4 6l2 5l2 4l2 3l8 3l14 3l-1 -5l-1 -4l-1 -4l-3 -7l-1 -4l2 -5l5 -1q5 2 6 4l6 11v2l6 11q3 6 8 6q8 0 9 -5l2 -19
l-1 -17l-2 -17l-4 -21l-5 -19q-2 -9 -3 -18q-4 -7 -5 -10l-3 -16q-2 -22 -3 -30.5t-5 -22.5q-2 -14 -3 -20t-5 -14q-3 -14 -8 -20q-3 -6 -8 -6l-7 2l-3 6v4v3v4l-2 2l-3 -1l-5 -3l-3 -1q-5 -1 -6 -2l-4 -6l-9 -11l-12 -4h-4q-5 0 -8 5l-3 13v2l-3 11q-3 5 -5 5l-4 -2l-3 -4
l-4 -5l-3 -5l-8 -12q-3 -3 -12 -5zM323 541l-7 4q-3 3 -3 10l4 22l9 30q1 5 2 8t2 4l9 22l6 17l15 41l12 36l1 4l4 13l5 13l2 7l3 6q3 7 8.5 10t15.5 3l-1 -3l-1 -3l-1 -6v-4l2 -7l9 -2l5 5l4 6l2 5l2 4l2 3l8 3l14 3l-1 -5l-1 -4l-1 -4l-3 -7l-1 -4l2 -5l5 -1q5 2 6 4l6 11
v2l6 11q3 6 8 6q8 0 9 -5l2 -19l-1 -17l-2 -17l-4 -21l-5 -19q-2 -9 -3 -18q-4 -7 -5 -10l-3 -16q-2 -22 -3 -30.5t-5 -22.5q-2 -14 -3 -20t-5 -14q-3 -14 -8 -20q-3 -6 -8 -6l-7 2l-3 6v4v3v4l-2 2l-3 -1l-5 -3l-3 -1q-5 -1 -6 -2l-4 -6l-9 -11l-12 -4h-4q-5 0 -8 5l-3 13
v2l-3 11q-3 5 -5 5l-4 -2l-3 -4l-4 -5l-3 -5l-8 -12q-3 -3 -12 -5z" />
    <glyph glyph-name="quotedblright" unicode="&#x201d;" horiz-adv-x="426" 
d="M330 795l7 -4q3 -3 3 -10l-4 -22l-9 -29l-2 -7q-1 -5 -2 -6l-9 -23l-6 -16l-15 -42l-12 -35l-1 -4l-5 -13l-4 -13l-3 -7q-1 -5 -2.5 -8.5t-8.5 -8.5l-15 -2l1 3l1 3v6l1 4q-1 5 -4.5 7t-6.5 2l-5 -5l-4 -6l-1 -3l-3 -6l-2 -3l-8 -4l-14 -2v4l2 5l1 4l3 6l1 5l-2 5l-5 1
q-5 -3 -7 -5l-5 -10v-2l-6 -12q-2 -4 -8 -5q-6 0 -9 5l-2 19l1 16q0 12 2 18l4 21l5 19l7 28l4 16q2 22 3 30.5t5 21.5q2 14 3 20t5 15q3 14 8 20q3 6 8 6q6 -1 8 -3.5t2 -4.5v-3v-4v-4l2 -2l5 3l3 1l3 1l6 1q4 5 4 7l9 10l12 5h4q5 0 8 -6l3 -12v-2q0 -7 1.5 -10.5
t6.5 -5.5l3 1l4 5l3 5l4 6l8 11q3 3 12 5zM524 795l7 -4q3 -3 3 -10l-4 -22l-9 -29l-2 -7q-1 -5 -2 -6l-9 -23l-6 -16l-15 -42l-12 -35l-1 -4l-5 -13l-4 -13l-3 -7q-1 -5 -2.5 -8.5t-8.5 -8.5l-15 -2l1 3l1 3v6l1 4q-1 5 -4.5 7t-6.5 2l-5 -5l-4 -6l-1 -3l-3 -6l-2 -3l-8 -4
l-14 -2v4l2 5l1 4l3 6l1 5l-2 5l-5 1q-5 -3 -7 -5l-5 -10v-2l-6 -12q-2 -4 -8 -5q-6 0 -9 5l-2 19l1 16q0 12 2 18l4 21l5 19l7 28l4 16q2 22 3 30.5t5 21.5q2 14 3 20t5 15q3 14 8 20q3 6 8 6q6 -1 8 -3.5t2 -4.5v-3v-4v-4l2 -2l5 3l3 1l3 1l6 1q4 5 4 7l9 10l12 5h4
q5 0 8 -6l3 -12v-2q0 -7 1.5 -10.5t6.5 -5.5l3 1l4 5l3 5l4 6l8 11q3 3 12 5z" />
    <glyph glyph-name="bullet" unicode="&#x2022;" horiz-adv-x="500" 
d="M399 225q-51 -51 -124 -51q-71 0 -123 51t-52 124q0 37 12 67t38 57q51 51 125 51q71 0 123 -51t52 -124q0 -71 -51 -124z" />
    <glyph glyph-name="endash" unicode="&#x2013;" horiz-adv-x="500" 
d="M0 224v72h500v-72h-500z" />
    <glyph glyph-name="emdash" unicode="&#x2014;" horiz-adv-x="1000" 
d="M0 296h1000v-72h-1000v72z" />
    <glyph glyph-name="tilde" unicode="&#x2dc;" 
d="M168 684h9l5 -2h6h3h3h6l7 1h9h12q2 -1 4.5 -2t6.5 -5l12 -16l8 -16l9 -16l11 -27l8 -21l1 -4l2 -4l6 -12l4 -8l1 -4v-4q-4 -5 -7 -7l-13 -3l-9 -1h-7h-6l-4 2l-2 1l-7 1l-5 -1l-7 -1l-9 -2h-11q-7 4 -11 8l-12 17l-12 17q-5 7 -11 8q-7 -4 -10 -8l-14 -17l-2 -3l-14 -16
q-3 -3 -6 -4.5t-4 -1.5h-5l-7 2l-8 4l-4 5l2 7l1 3l1 3l-1 3l-7 -2l-8 -6l-2 -2l-10 -6l-6 -2q-5 1 -6 2l-2 6q2 6 4 10q6 9 9 14l31 43l4 5l4 6q15 23 30 39t20 18q6 2 10 -1z" />
    <glyph glyph-name="trademark" unicode="&#x2122;" horiz-adv-x="990" 
d="M196 628h-120v72h336v-72h-120v-340h-96v340zM851 590l-113 -302h-69l-111 302l-2 -302h-90v412h135l103 -268l103 268h134v-412h-90v302z" />
    <glyph glyph-name="scaron" unicode="&#x161;" horiz-adv-x="296" 
d="M25 250l15 30q3 6 10 16t13 17l28 32l39 37l27 21l92 61q21 15 31 15q6 -2 8 -4.5t2 -8.5l-1 -3l-4 -7l-6 -6l-9 -7l-3 -3l1 -5l3 -1l6 2l5 1h2l5 -3l2 -5q-4 -5 -6 -7l-11 -6l-12 -6q-3 -2 -5 -7l3 -4l6 -1h2l9 -1q4 -2 4 -4l-1 -5v-3l-2 -5v-5l1 -4l2 -2h2l2 -4l2 -10
q0 -7 -25 -26l-54 -39l-4 -2l-2 -2q-29 -18 -51 -36.5t-23 -28.5q2 -4 4 -5l11 -2l12 1l20 3h4l5 1q11 0 17 2l15 1q27 0 40 -17q14 -15 18 -35v-8l1 -7q0 -54 -43 -100t-92 -75q-28 -15 -64 -29q-31 -11 -49 -11q-6 0 -10 8l-2 18q3 5 5 7l11 6l12 4l5 4l-2 3l-5 -1h-7
q-8 0 -12.5 3t-5.5 9l1 12l2 8l1 5l1 4l-1 3v4l-1 4v5q2 3 4 4q6 5 14 8l41 18l20 9t20 11q18 10 19 22q-3 3 -6 3.5l-9 1.5l-35 1h-6h-13h-11q-8 2 -18 2.5t-13 7.5l-5 32l-1 56q0 15 5 28zM220 535l-8 2h-6l-5 1h-3h-3h-6h-7l-9 -1h-12q-2 1 -4.5 2t-6.5 4q-7 7 -12 17
l-9 15l-8 17l-11 27l-8 21l-2 4l-1 4l-6 11l-4 9l-1 4v4q4 5 6 6l14 4h9l7 1l5 -1l5 -1l2 -1l3 -1h4h5l7 2l9 1l11 1q2 -1 4.5 -2t6.5 -6l12 -17l12 -17q5 -7 11 -8q7 4 9 8l15 17l2 3l13 15q6 6 11 7l4 -1l8 -1l8 -4l4 -5l-1 -4l-1 -3l-2 -3l1 -6l6 2l9 7l4 2l8 5l6 2l5 -2
l3 -6q-2 -6 -4 -10q-6 -9 -9 -14l-31 -43l-4 -6l-4 -5q-15 -23 -30 -39t-20 -18h-11z" />
    <glyph glyph-name="guilsinglright" unicode="&#x203a;" horiz-adv-x="241" 
d="M99 235l-8 9l-6 4l-4 5l-13 15l-5 14l1 7q1 5 2 6l1 4l1 3l1 4v9l2 10v2l1 11l1 9v3l2 4l1 3l3 6l1 8l3 8l7 3q7 -5 11 -9l17 -23l4 -6l6 -5l8 -7l9 -8l5 -7l5 -7l7 -11l9 -7l8 -7l8 -5l8 -8q3 -3 3 -10l-2 -11l-3 -11l-2 -4v-4l-3 -7v-8l-1 -7l-1 -7l-2 -7v-8
q-1 -3 -3 -6t-6 -6l-20 -15l-7 -5l-8 -4l-15 -9l-13 -7l-16 -10l-22 -14l-3 -2l-2 -2l-27 -16l-18 -7l-7 3l-3 6v2l4 7l10 9l2 1l11 9l5 7l-2 5l-3 2h-2l-2 -1h-2l-4 1l-2 4v6l2 8l1 8l1 8q0 6 16 16l36 25l12 8l11 8z" />
    <glyph glyph-name="oe" unicode="&#x153;" horiz-adv-x="556" 
d="M279 458q14 -8 26 -22l17 -23q6 -9 11 -10q3 1 6 2.5t10 7.5l27 23q15 12 35 22.5t42 10.5q8 0 17.5 -3.5t17.5 -10.5q22 -15 39.5 -42.5t17.5 -60.5l-2 -17l-6 -16l-15 -28l-18 -23l-12 -12l-11 -8q-27 -15 -48.5 -25t-47.5 -19q-40 -13 -41 -20q0 -29 18 -50
q18 -18 43 -18q10 0 15 1t16 6l28 18l16 11l14 9l10 7l9 8l16 13q6 6 13 7l4 -3v-2l-2 -5l-5 -4l-4 -4l-2 -4v-4l7 -2l5 -4l2 -4q-1 -5 -2 -6l-4 -6l-2 -3l-2 -2l-2 -3l1 -5l2 -2h2l4 1h3l4 -2l2 -3l-10 -16l-23 -23l-11 -11l-13 -9l-3 -2l-2 -2q-46 -33 -72 -49
q-20 -12 -38 -16l-12 -1h-14q-22 0 -41 11q-13 9 -17 12l-15 15l-23 27q-4 6 -10 10q-1 0 -2 2l-12 -12q-10 -13 -26.5 -28t-40.5 -26t-55 -11l-15 1l-16 6q-23 11 -43 32q-9 9 -16.5 21t-10.5 23l-1 3l-2 6l-1 11q0 8 -2 12l-1 14q0 14 -2 21v17l3 33l9 34q16 49 51.5 98
t74.5 82q29 24 56 39.5t47 15.5q18 1 35 -11zM241 274l-1 12q-5 25 -17 43q-11 20 -29 20t-33.5 -25.5t-27.5 -55.5l-12 -42l-4 -30v-11q0 -8 2 -12q3 -20 15 -41q13 -19 38 -19q19 0 34.5 26t24.5 57q3 9 5 19.5t3 16.5l3 30zM391 355l-15 -28l-6 -14l-6 -15l-17 -45
l-7 -23l1 -7l5 -2l4 1q5 1 6 2l5 4l4 4l1 2l-1 3l-1 3l-2 3l-1 4l2 5l6 3h1l4 2l2 3l-3 6l-2 2l-2 2l3 7l9 4l9 3l10 4q12 5 21 12t10 22l-2 9l-3 11q-3 8 -9 15.5t-13 9.5q-3 -1 -6 -3t-7 -9z" />
    <glyph glyph-name="Ydieresis" unicode="&#x178;" horiz-adv-x="556" 
d="M184 566l-20 -21l-2 -2l-21 -21l-13 -10h-4l-5 2l-8 4l-3 4q1 8 2 9l1 5l1 4l-3 2l-3 1l-4 -1l-2 -2l-1 -1l-4 -3l-4 -1l-3 1v3v2l2 3l4 4l3 5l2 10l-4 3h-2q-5 -3 -7 -5l-8 -10l-9 -11l-9 -4l-5 2l-1 5q3 8 5 11l13 15l2 2l3 3l11 10l9 10l23 27l31 35l2 2l3 3l29 30
l24 25l15 16l20 22l5 4l5 6l27 24q13 11 21 11q6 0 13 -7l12 -15l5 -13l4 -8l-2 -7l-4 -9l-3 -11l-2 -12v-1v-4l5 -1l5 2l3 6l3 5l5 3q4 -2 5 -4l3 -7v-4v-4q0 -9 -11 -56l-24 -107l-1 -4l-1 -3q-9 -49 -11 -56q-6 -23 -9 -33l-14 -58l-4 -17l-4 -18l-1 -2l-9 -41l-4 -24v-2
q1 -5 2 -6l5 -3q3 3 5 4q7 6 13 13l32 41l5 7l6 7l15 23l14 21l22 32l33 46l4 6l6 8l7 11l8 11l8 12l9 14l6 9l6 9l12 13l11 5l7 -3l10 -7l6 -6l6 -6l5 -7l4 -6l1 -7v-9l-1 -7v-10v-3l-1 -10v-8l2 -8l4 -3l4 3l2 8l2 7q2 4 4 4l3 -2l1 -3l-3 -34l-6 -48l-1 -8v-6l-4 -28
q0 -17 -2 -26q0 -17 -1 -28t-7.5 -53.5t-19 -97t-30.5 -107t-41 -87.5l-4 -6l-4 -8l-1 -3l-7 -9l-4 -5l-3 1l-1 4v5l2 8l1 8l1 5v2l-1 3h-5l-2 -6l-10 -25l-15 -31q-14 -27 -34 -49q-18 -23 -43 -23q-15 0 -20.5 11t-7.5 26l-1 8v7q0 61 9 103t12 53.5t12 32.5l5 11l4 10
l3 9l5 13l2 7l3 6l5 9l5 4l4 -3l1 -6l-3 -12l-5 -15l-2 -2l-7 -18l-3 -10v-2l4 -3l3 2l3 4l1 1l3 5l5 2l3 -3l1 -4q0 -10 -5 -24l-10 -34l-5 -15l-4 -13l-5 -24l-2 -23q0 -15 2.5 -21.5t10.5 -7.5h2l6 3q5 6 7 10q6 14 9 31l8 36l2 13l3 16q1 7 2 9l2 10l6 29l6 30l15 88
l9 53l2 11l3 13l1 5l4 23l2 15l-2 5l-3 2q-7 0 -41 -41l-71 -90l-4 -6l-3 -4q-36 -47 -68.5 -83.5t-46.5 -38.5q-11 0 -20 8l-17 17l-10 13q-3 7 -8 9l-1 4v3q1 7 2 9l2 8l1 4l1 4l-2 2l-4 2l-4 -1l-2 -3l-1 -1l-4 -4l-5 -1l-4 2l-1 4l10 54l10 49t13 54l2 7l2 8l4 22l6 22
l5 19l7 25l1 1l7 27l6 20l4 19l5 19l13 52l7 31v2l-3 5l-4 2zM420 761l-4 6l-1 4l1 4v2l1 6v6l-2 4l-3 2q-5 0 -8 -4l-3 -10v-5l-4 -7l-7 -3q-2 1 -4.5 2t-4.5 5l-6 17l-1 6v6l1 24l4 27l3 13l5 17q6 13 15.5 25.5t24.5 12.5q7 0 13.5 -3.5t6.5 -10.5v-5l-1 -3l-1 -8v-4
l1 -5l3 -1l4 4l6 11l4 9l5 5q11 0 16.5 -8t8.5 -17v-7l1 -6l-1 -19l-1 -20q-3 -29 -17 -51q-12 -23 -44 -23zM643 853l-1 -20q-3 -29 -17 -51q-12 -23 -44 -23q-8 0 -11 2l-4 6l-1 4l1 4v2l1 6v6l-2 4l-3 2q-5 0 -8 -4l-3 -10v-5l-4 -7l-7 -3q-2 1 -4.5 2t-4.5 5l-6 17l-1 6
v6l1 24l4 27l3 13l5 17q6 13 15.5 25.5t24.5 12.5q7 0 13.5 -3.5t6.5 -10.5v-5l-1 -3l-1 -8v-4l1 -5l3 -1l4 4l6 11l4 9l5 5q11 0 16.5 -8t8.5 -17v-7l1 -6z" />
    <glyph glyph-name="nonbreakingspace" unicode="&#xa0;" horiz-adv-x="231" 
 />
    <glyph glyph-name="exclamdown" unicode="&#xa1;" horiz-adv-x="259" 
d="M-6 -136q8 48 24 110l3 10l2 10l23 91l16 58l2 9l3 10l7 31q3 16 12 40q2 9 5 12l10 4l3 -1l4 -1l3 -2h4l4 1l6 4l5 3l5 2l4 -2l3 -5l1 -3l-1 -8v-6l-2 -7v-6l1 -3l2 -2h2l3 2l3 6l1 4l2 4l5 11q2 3 7 5q4 -4 5 -6l3 -12v-4l-3 -32l-6 -39l-1 -7l-1 -6l-4 -25l-4 -21
l-5 -32l-3 -31l-4 -31l-5 -32l-5 -31l-4 -31l-3 -15q0 -10 -2 -16l-7 -46l-6 -46l-3 -26q0 -13 -2 -18l-6 -15l-6 -3q-8 0 -11 6l-2 12v5v4l-1 6l-1 6l-3 2l-7 -3l-3 -9h-1l-3 -8q-5 -4 -8 -4l-6 2l-8 3l-6 4l-5 3l-3 3l-1 3l1 6l1 3v4l1 5l-3 3h-6h-1l-7 1l-3 4h-6l-4 -2
h-4l-6 -1l-3 4l-1 8l-1 6v4q-1 10 11 64zM130 297l-5 5l-6 4l-6 2l-4 -1l-4 -2l-4 -3l-4 -1q-6 0 -13 8q-5 10 -5 27l3 20l9 33l6 18l7 18q1 5 2 6l4 6q9 14 23 23t33 9l15 -3q6 -1 7 -7l1 -11q2 -5 4 -5l3 2l5 7l5 5q3 3 8 3q4 -4 5 -7l3 -14v-10l1 -7l-2 -24q0 -18 -5 -34
q-3 -23 -13 -43q-7 -18 -21 -21l-6 1l-4 2v1l-4 2l-4 1l-6 -2l-7 -4l-4 -2l-8 -4h-4z" />
    <glyph glyph-name="cent" unicode="&#xa2;" horiz-adv-x="464" 
d="M233 327q-14 -30 -25 -71l-11 -55l-3 -39q0 -21 9 -36q10 -13 32 -13q12 0 25 4l30 12l13 6l14 7q7 3 18 8.5t18 10.5l18 9l5 -2l3 -4l-1 -4l-2 -3l-3 -3l-2 -2l-7 -10l-2 -15q-1 -5 -2 -6l-3 -4v-2l-5 -5l-1 -7l1 -5l2 -3v-1l1 -3q1 -8 -12.5 -20.5t-32.5 -23.5l-9 -6
l-9 -6l-21 -13l-18 -11l-4 -2l-5 -3l-4 -2l-4 -1l-6 -3h-5l-3 -17l-6 -30l-1 -2l-6 -30l-3 -16l-3 -7l-5 -2l-5 1l-2 3l-3 3l-4 1l-6 -3l-1 -7v-1l-3 -6l-4 -3l-2 2l-1 3l-2 5l-7 -2l-4 -8l-1 -1l-3 -6l-4 -3l-3 2l-1 3l7 28q7 18 19 93l-6 2q-33 16 -60.5 45.5t-27.5 69.5
q0 109 43.5 185t96.5 120l26 20l26 16l17 73q5 24 9 30l2 1l3 -3l2 -5l1 -7l4 -2l3 5l3 8l3 9q1 3 6 5l3 -2l1 -4l1 -5l3 -2l4 4l4 10l4 9l4 4h2l3 -3l2 -6l-4 -22l-9 -36l-2 -9q-1 -7 -2 -9l-4 -20l-3 -19l9 -5l10 -7l11 -8l10 -9l10 -12l6 -10l2 -21q0 -20 2 -31v-25
l1 -19q-1 -6 -2 -7l-4 -2l-5 3l-3 2l-3 1q-5 -2 -6 -4l-2 -9l-1 -3l-2 -7l-3 -3l-3 1l-2 2l-4 1l-5 -1l-2 -3l-2 -5l-3 -1l-3 1l-3 2l-3 2l-5 1l-2 -3l-2 -5q-1 -5 -2 -6l-1 -6l-5 -14q-3 -6 -8 -6q-6 0 -9 5l-1 12v2v15l2 15v14l1 13v3q0 13 -5 23q-3 9 -15 11
q-23 1 -41 -32z" />
    <glyph glyph-name="sterling" unicode="&#xa3;" horiz-adv-x="464" 
d="M417 749q10 -5 23 -18q24 -21 43.5 -61t19.5 -85l-1 -15l-2 -22l-6 -27q-3 -12 -11 -12l-6 3l-3 7v1l-2 5l-4 3l-4 -1l-3 -3l-1 -1l-2 -2l-2 -2l-3 -3l-3 -4l-1 -4l-2 -2l-7 -10q-2 -2 -12 -4l-7 3l-3 7l-1 2l-3 5l-4 3q-5 -2 -6 -4l-3 -8l-1 -4l-5 -10q-2 -3 -10 -5
l-8 3l-3 9l-1 3l2 22l6 28l1 4l5 27l2 20q0 10 -4.5 17.5t-14.5 8.5h-2l-5 -1l-4 -2q-23 -9 -49 -48q-23 -39 -42 -82q-15 -36 -28 -76l-13 -50l34 5l37 7q7 1 9 2l8 1l66 13l42 6q6 -1 7 -2l2 -3v-2l-3 -5l-5 -2h-2l-6 -1l-3 -4v-4l2 -4l1 -4l1 -4q0 -6 -3 -9l-4 -4l-3 -1
l-4 -2l-1 -6l2 -2l2 -2l3 -5l1 -7l-3 -4l-4 -2h-3l-4 -2v-5l2 -2h1l2 -3l2 -3l-1 -6l-7 -3l-11 -2l-19 -3l-9 -2l-9 -1l-10 -2h-9l-24 -4l-38 -7h-4l-29 -6l-22 -4l-4 -23l-4 -27l-3 -20l-3 -20q0 -14 -2 -22l-2 -20l25 5l72 15l70 14l28 5l10 1l10 2l14 1q7 0 11 2l5 1l4 1
q5 1 6 2l3 1l4 1l13 3l10 2l7 -4l4 -10l1 -3q-2 -8 -4.5 -10.5t-8.5 -2.5l-1 -5l-2 -2l-3 -1l-3 -2l-1 -3l4 -2l5 -2l5 -3l3 -5l-4 -7l-7 -7l-9 -7q-3 -3 -3 -8l3 1l11 -2q4 -6 4 -9q0 -10 -4.5 -17t-14.5 -8h-6h-5q-20 0 -38 -5q-9 -2 -17 -3t-19 -5l-32 -8l-28 -4l-36 -5
l-37 -7l-14 -3q-8 0 -12 -2l-57 -11l-49 -7q-13 0 -20 -2q-10 0 -15 -2l-20 -4l-15 -1h-3l-12 -1l-9 -3l-10 -3l-5 -1l-5 2l-2 6l3 6l5 6l2 2l2 2l3 3l2 4l-3 3l-6 2l-6 1q-3 3 -3 5l3 7l4 8l4 5l3 6l-2 4l-4 3l-1 1l-3 4l-3 5v1v1q1 5 2 6l5 6l24 9l47 11l11 66
q1 16 2.5 31t5.5 35l-20 -1q-11 0 -17 -2l-12 -3l-7 -1q-5 1 -6 2l-2 5l2 4l4 5l2 1l4 5l3 5l-2 6l-4 2h-2h-2l-4 1l-1 5l1 3l2 2v1l2 2l1 4l-1 3l-2 5l1 5l3 3h1l3 3h-6l-8 1q-7 0 -11 1.5t-5 5.5q4 4 6 5l15 4l10 1l8 2l12 2l17 4l14 3l16 3l13 57l17 58q16 48 41 98.5
t65 99.5l14 16l18 17l24 20l27 19l39 21q18 9 33 9q8 1 20 -6z" />
    <glyph glyph-name="yen" unicode="&#xa5;" horiz-adv-x="481" 
d="M2 170q-5 1 -7 6l3 3l6 4l7 3l3 6l-2 3l-5 1l-3 1l-4 1l3 2l9 2l7 1l4 2l-2 3l-4 3l-5 1h-3l-7 1l-3 2l1 5l4 4q3 3 10 3h10l10 1l63 4l87 7l11 19l9 17l5 12l5 14l-8 20l-81 -7l-56 -2l-19 1q-6 1 -8 6l3 3l7 4l7 3l3 6l-2 3l-5 1l-3 1l-4 1l3 2l9 2l7 1l4 2l-2 3l-4 3
l-5 1h-3l-8 1l-3 2l1 5l5 4q3 3 10 3l18 1q13 0 21 2l35 2l43 3l-6 11q-2 8 -5 12l-13 27l-13 29q-42 94 -72.5 172.5t-30.5 100.5v8l3 3l2 -2l3 -4q1 -5 2 -6l3 -5q2 -8 4.5 -12t8.5 -5l3 5l3 11v6l2 5l2 5l3 -1l3 -2l3 -3l3 -1l4 2l4 7l3 5l2 3q5 -2 6 -4l7 -6l6 -8l6 -3
l7 4l8 10l6 9l8 4l4 -3l4 -11q11 -52 11 -53q8 -21 11 -31q13 -43 28 -78l17 -44l17 -44l17 -45l17 -47q25 57 52 130l50 140q14 39 25.5 62.5t16.5 23.5l2 -4l1 -5l1 -4q0 -7 2 -10l4 -4l9 3l10 8l9 7l10 4l2 -3l2 -4l1 -6l2 -2l5 1l5 2l4 1l5 1l2 -3l3 -4q1 -5 2 -6l2 -2
l5 2l5 4l4 6l6 8l5 4q3 -4 3 -7l1 -15q0 -16 -39 -109q-35 -83 -90 -197l-6 -12l-5 -11l95 12l37 4l5 -3l2 -7l-3 -3l-4 -3l-6 -4l-2 -3l3 -1l4 -1l4 -2l2 -3q-1 -5 -2 -6l-4 -4l-3 -2l-3 -2l-1 -3l1 -5l3 -3l2 -2l1 -3l-3 -3l-7 -2l-4 -1h-4l-50 -5l-95 -9l-1 -1v-1l-1 -1
l-5.5 -13t-8.5 -14l-18 -32l-5 -10l-4 -10l26 4l95 11l38 4l5 -3l2 -7l-3 -3l-4 -3l-6 -4l-2 -3l3 -1l4 -1l4 -2l2 -3q-1 -5 -2 -6l-4 -4l-3 -2l-3 -2l-1 -3l1 -5l3 -3l2 -2l1 -3l-3 -3l-7 -2l-4 -1h-5l-56 -6l-115 -11l-52 -102q-25 -50 -47 -83l-1 -4l-2 -5q-1 -5 -2 -6
l-3 -5l-2 -3l-2 -2l-3 3l-2 8l-1 2l-4 9l-3 4l-3 -2l-4 -3l-1 -2l-5 -5l-3 -3l-3 2l-4 3l-3 3l-3 2l-3 1l-4 -3l-3 -5l-6 -4q-3 -3 -8 -3q-4 4 -5 7l-2 13v2q0 8 -2 12q0 2 -1 3.5t-2 2.5l-5 -6l-5 -11l-6 -11l-4 -5q-4 2 -4 4l-1 11l8 22l19 40l2 5l3 6l3 6l4 7l18 35
l23 49l-80 -6l-54 -2z" />
    <glyph glyph-name="dieresis" unicode="&#xa8;" 
d="M113 541l-4 6l-1 4l1 4v2l1 6v6l-2 4l-3 2q-5 0 -8 -4l-3 -10v-5l-4 -7l-7 -3q-2 1 -4.5 2t-4.5 5l-6 17l-1 6v6l1 24l4 27l3 13l5 17q6 13 15.5 25.5t24.5 12.5q7 0 13.5 -3.5t6.5 -10.5v-5l-1 -3l-1 -8v-4l1 -5l3 -1l4 4l6 11l4 9l5 5q11 0 16.5 -8t8.5 -17v-7l1 -6
l-1 -19l-1 -20q-3 -29 -17 -51q-12 -23 -44 -23zM336 633l-1 -20q-3 -29 -17 -51q-12 -23 -44 -23q-8 0 -11 2l-4 6l-1 4l1 4v2l1 6v6l-2 4l-3 2q-5 0 -8 -4l-3 -10v-5l-4 -7l-7 -3q-2 1 -4.5 2t-4.5 5l-6 17l-1 6v6l1 24l4 27l3 13l5 17q6 13 15.5 25.5t24.5 12.5
q7 0 13.5 -3.5t6.5 -10.5v-5l-1 -3l-1 -8v-4l1 -5l3 -1l4 4l6 11l4 9l5 5q11 0 16.5 -8t8.5 -17v-7l1 -6z" />
    <glyph glyph-name="copyright" unicode="&#xa9;" horiz-adv-x="888" 
d="M187 680q119 119 287 119t286.5 -118t118.5 -287q0 -168 -118.5 -286t-286.5 -118t-286.5 118t-118.5 286t118 286zM259 158q83 -85 215 -85t214.5 85.5t82.5 235.5q0 151 -82 236t-215 85q-132 0 -214.5 -85.5t-82.5 -235.5t82 -236zM684 323q-12 -81 -68 -125.5
t-127 -44.5q-101 0 -165 69t-64 169q0 101 60 169.5t167 68.5q72 0 126.5 -41.5t66.5 -123.5l-84 1q-6 39 -38 59q-30 21 -71 21q-60 0 -93 -42q-16 -21 -24 -47.5t-8 -62.5q0 -63 34.5 -109.5t92.5 -46.5q44 0 73 22t34 63z" />
    <glyph glyph-name="ordfeminine" unicode="&#xaa;" horiz-adv-x="265" 
d="M96 565l3 14q6 33 29.5 66t48.5 57l24 20l22 15l34 17l20 7l5 -1q5 -1 6 -2l3 -5q-1 -5 -2 -6l-3 -5l-5 -4l-1 -3h2l4 1h4l5 -4l2 -4l-1 -4l-2 -2l-3 -2l-1 -2l1 -3l7 2l3 1l4 1l3 -2l2 -4q-4 -3 -6 -5q-9 -8 -20 -14q-25 -16 -56 -41l-34 -34q-14 -17 -28 -40l-4 -6
l-2 -7l-3 -9l-1 -10l2 -5l5 -3h2q11 0 36.5 26.5t71.5 92.5l2 3l2 2l4 3l4 1l7 -3l5 -5l2 -4l2 -2l3 -4l4 -5l1 -1l7 -7l3 -5l-2 -16l-4 -17l-1 -2l-4 -17l-2 -15l1 -5l6 -2l7 5l13 12l5 6l6 7l2 3l2 4l3 3l3 -2q-1 -3 -1.5 -5.5t-4.5 -7.5l-17 -18h1l1 -1l6 4l4 2h5l-1 -6
l-5 -5h-1l-6 -6l-2 -3l3 -2l3 1l6 4v1l5 4l4 2h1l2 -2l-1 -3l-3 -2l-1 -1l-4 -3l-1 -4l3 -1l4 1l3 -1l-8 -14l-22 -22l-8 -7l-8 -7l-21 -14q-9 -6 -17 -6l-6 1l-7 5l-11 11l-8 14l-5 10l-1 9l1 5q1 5 2 6l1 4l1 5l-1 4l-3 2l-11 -12l-24 -26l-9 -10l-9 -8l-19 -14
q-9 -6 -16 -6h-5l-4 2q-15 6 -30 28q-13 24 -13 50v12z" />
    <glyph glyph-name="guillemotleft" unicode="&#xab;" horiz-adv-x="407" 
d="M140 233l9 -9l5 -5l5 -4l12 -16q6 -6 6 -13l-1 -7q-1 -5 -2 -6l-1 -4l-2 -3v-4l-1 -9l-1 -10v-2q0 -8 -2 -12v-8v-3l-2 -4l-1 -3l-3 -7l-1 -7l-3 -8l-7 -3q-7 5 -11 9l-17 23l-5 5l-5 6l-9 6l-8 9l-6 6l-4 8q-3 6 -8 10l-8 8l-8 6l-8 6l-8 8q-3 3 -3 10l1 10l4 12l1 4
l1 4l2 7l1 8v6l2 8l1 7l1 8q1 3 2 5.5t6 6.5l21 15l7 4l8 5l14 8l14 8l16 10l22 14l2 2l3 2l26 16l19 7l7 -3l3 -6v-2q-3 -5 -5 -7l-9 -9l-2 -1l-11 -10l-5 -6l1 -5l4 -2l2 1h2h2l4 -2l2 -3l-1 -7l-1 -7l-2 -8v-8q0 -6 -17 -17l-35 -24l-12 -8l-11 -8zM310 233l9 -9l5 -5
l5 -4l12 -16q6 -6 6 -13l-1 -7q-1 -5 -2 -6l-1 -4l-2 -3v-4l-1 -9l-1 -10v-2q0 -8 -2 -12v-8v-3l-2 -4l-1 -3l-3 -7l-1 -7l-3 -8l-7 -3q-7 5 -11 9l-17 23l-5 5l-5 6l-9 6l-8 9l-6 6l-4 8q-3 6 -8 10l-8 8l-8 6l-8 6l-8 8q-3 3 -3 10l1 10l4 12l1 4l1 4l2 7l1 8v6l2 8l1 7
l1 8q1 3 2 5.5t6 6.5l21 15l7 4l8 5l14 8l14 8l16 10l22 14l2 2l3 2l26 16l19 7l7 -3l3 -6v-2q-3 -5 -5 -7l-9 -9l-2 -1l-11 -10l-5 -6l1 -5l4 -2l2 1h2h2l4 -2l2 -3l-1 -7l-1 -7l-2 -8v-8q0 -6 -17 -17l-35 -24l-12 -8l-11 -8z" />
    <glyph glyph-name="registered" unicode="&#xae;" horiz-adv-x="888" 
d="M187 680q119 119 287 119t286.5 -118t118.5 -287q0 -168 -118.5 -286t-286.5 -118t-286.5 118t-118.5 286t118 286zM259 158q83 -85 215 -85t214.5 85.5t82.5 235.5q0 151 -82 236t-215 85q-132 0 -214.5 -85.5t-82.5 -235.5t82 -236zM407 170h-92v447h169q82 0 128 -30
t46 -103q0 -59 -33 -88q-32 -26 -78 -32l119 -194h-98l-110 191h-51v-191zM483 427q36 0 61.5 16.5t25.5 57.5q0 26 -22 35.5t-49 12.5l-11 1h-10l-71 1v-124h76z" />
    <glyph glyph-name="acute" unicode="&#xb4;" 
d="M253 689q6 -3 8 -9l-1 -7l-2 -5l-2 -2l-1 -3l1 -3l3 -1l5 2l8 6h1l7 5l6 2q8 0 12 -5l4 -11v-4l-6 -11l-17 -22l-14 -19l-22 -28l-5 -6l-4 -5l-25 -28q-10 -9 -18 -11q-7 0 -10 2l-3 5v4l2 8l1 7l1 5l-2 3l-4 1l-5 -4l-7 -6l-9 -8l-10 -3l-8 4q-3 3 -3 11q1 3 1.5 7.5
t3.5 10.5l29 61l12 24l10 17q6 8 14 14q6 3 19 5q21 2 30 -3z" />
    <glyph glyph-name="mu" unicode="&#xb5;" horiz-adv-x="389" 
d="M22 275q11 72 25 114q10 37 21 59q4 9 9 16q1 2 4 5l3 -1l4 -1q5 -3 7 -5l6 -7l1 -3l1 -5l-2 -8v-5l-2 -8l-1 -6v-3l1 -5l3 -2l4 3l4 7v2l4 7l6 4l3 -1h4l6 -3l5 -3l3 -3v-6v-4l-1 -5l-1 -4l-3 -7l-1 -5l1 -4l5 -1l5 2l3 6v1l3 6l6 3q7 -2 9 -4l4 -10q0 -6 -10 -32
l-22 -57l-4 -11l-4 -10l-17 -53q-5 -19 -6 -25.5t-1 -15.5l3 -11l7 -3q12 0 34 32l46 74l5 9l6 9l49 85q21 39 28 39q14 0 19 -5l6 -10l1 -4l1 -10l4 -3l6 1h2l4 1l6 -1q5 -1 6 -2l13 -9q6 -5 6 -11l-1 -6l-1 -8l-2 -3l-1 -4l-6 -17l-6 -17l-9 -28l-8 -28l-12 -53
q-4 -24 -4.5 -32.5t-0.5 -14.5l1 -9q4 -3 6 -3q9 3 13 5l17 13l4 3l4 4l18 16l11 8l2 -1l2 -2l1 -4l-1 -5l-3 -4l-2 -2l-5 -6l-2 -11l-2 -4l-3 -5l-3 -2l-2 -2l-7 -6l-3 -5l1 -3l3 -1l3 1l6 3l2 1l4 2l5 1l3 -1l2 -2l-2 -5l-2 -3l-4 -4l-1 -3l1 -2l4 1l3 2l4 2l2 -3l1 -5
q0 -5 -15 -23l-35 -34l-8 -8l-8 -6l-40 -32q-17 -11 -24 -13q-12 0 -21 6l-16 15l-4 4l-3 4q1 5 2 6l2 8l3 13l1 9l-1 3l-2 2l-4 -5l-4 -9l-4 -11l-4 -4q-7 5 -9 9l-4 19v3v11q0 8 2 12l1 4q1 5 2 6l2 17l2 21v2l-2 3q-6 1 -21 -17q-9 -12 -13 -18q-10 -14 -16 -21l-5 -7
l-5 -7l-9 -11l-8 -10l-6 -8l-3 -8l-5 -16v-16v-7v-6l1 -20l2 -20l2 -20l4 -20l6 -37l3 -31l-1 -4l-1 -5l-2 -5l-3 -5l-3 -2l-4 1l-2 2l-5 2l-5 1l-3 -1l-2 -5l-2 -2v-4l-5 -7l-6 -4q-6 3 -8 5l-5 11v1q-1 5 -2 6l-3 5l-5 -2l-4 -5l-5 -5l-4 -2l-4 2l-4 5l-2 3l-3 3l-5 2
l-3 -2l-2 -1l-3 -1q-5 5 -10 31l-4 49v12q0 6 -2 22v28v24q0 16 2 26l1 12l1 14l3 36l1 31q0 92 11 155z" />
    <glyph glyph-name="periodcentered" unicode="&#x2219;" horiz-adv-x="241" 
d="M108 337q22 20 49 20q29 0 49 -20t20 -49q0 -28 -20 -48.5t-49 -20.5q-28 0 -49 20q-20 22 -20 49q0 29 20 49z" />
    <glyph glyph-name="cedilla" unicode="&#xb8;" 
d="M-3 -136q4 10 11 18l4 8l4 6l5 13l3 12l-1 7l-3 7l-1 4l-6 12l-2 7l3 9l9 4l3 1l11 1l10 2l4 1l5 2h6l10 2l10 2l9 3l10 1h3q14 0 21 -17t7 -47v-6l-1 -6q0 -7 -2 -11q0 -6 -5 -10l-12 -11l-17 -17l-6 -4l-6 -6l-22 -15q-9 -6 -16 -6l-5 2l-1 6l-1 4l-2 3l-2 2l-1 2l2 5
l2 5l-1 4l-3 1l-5 -4l-7 -9l-6 -5l-5 -5l-4 -2l-4 -1l-7 3q-3 6 -3 9q-1 5 5 14z" />
    <glyph glyph-name="ordmasculine" unicode="&#xba;" horiz-adv-x="240" 
d="M322 660v-4q0 -32 -12.5 -63.5t-36.5 -61.5q-47 -58 -99 -58h-3l-9 1l-9 2q-21 8 -39 29.5t-18 49.5q0 50 23.5 89.5t52.5 66.5q22 19 44.5 31.5t29.5 12.5l13 -4q13 -3 25.5 -13.5t25 -28.5t12.5 -45v-4zM249 648l-1 6l-9 15q-5 8 -11 12l-4 1l-4 1q-13 0 -24.5 -16
t-18.5 -34l-7 -24l-2 -18v-9l2 -10q1 -11 8.5 -21.5t23.5 -11.5q20 0 30.5 19.5t14.5 43.5l2 21l1 20z" />
    <glyph glyph-name="guillemotright" unicode="&#xbb;" horiz-adv-x="407" 
d="M113 238l-8 9l-6 4l-4 5l-13 15l-5 14l1 7q1 5 2 6l1 4l1 3l1 4v9l2 10v2l1 11l1 9v3l2 4l1 3l3 6l1 8l3 8l7 3q7 -5 11 -9l17 -23l4 -6l6 -5l8 -7l9 -8l5 -7l5 -7l7 -11l9 -7l8 -7l8 -5l8 -8q3 -3 3 -10l-2 -11l-3 -11l-2 -4v-4l-3 -7v-8l-1 -7l-1 -7l-2 -7v-8
q-1 -3 -3 -6t-6 -6l-20 -15l-7 -5l-8 -4l-15 -9l-13 -7l-16 -10l-22 -14l-3 -2l-2 -2l-27 -16l-18 -7l-7 3l-3 6v2l4 7l10 9l2 1l11 9l5 7l-2 5l-3 2h-2l-2 -1h-2l-4 1l-2 4v6l2 8l1 8l1 8q0 6 16 16l36 25l12 8l11 8zM283 238l-8 9l-6 4l-4 5l-13 15l-5 14l1 7q1 5 2 6l1 4
l1 3l1 4v9l2 10v2l1 11l1 9v3l2 4l1 3l3 6l1 8l3 8l7 3q7 -5 11 -9l17 -23l4 -6l6 -5l8 -7l9 -8l5 -7l5 -7l7 -11l9 -7l8 -7l8 -5l8 -8q3 -3 3 -10l-2 -11l-3 -11l-2 -4v-4l-3 -7v-8l-1 -7l-1 -7l-2 -7v-8q-1 -3 -3 -6t-6 -6l-20 -15l-7 -5l-8 -4l-15 -9l-13 -7l-16 -10
l-22 -14l-3 -2l-2 -2l-27 -16l-18 -7l-7 3l-3 6v2l4 7l10 9l2 1l11 9l5 7l-2 5l-3 2h-2l-2 -1h-2l-4 1l-2 4v6l2 8l1 8l1 8q0 6 16 16l36 25l12 8l11 8z" />
    <glyph glyph-name="questiondown" unicode="&#xbf;" horiz-adv-x="389" 
d="M312 -61q3 -3 3 -8l-2 -4l-3 -6l-1 -1l-4 -5l-2 -5l1 -3l3 -2h2l7 4l8 6l4 4l5 4l4 2l4 1l4 -2l2 -4l1 -5v-3q-1 -5 -2 -6l-3 -4l-45 -36l-66 -51l-13 -9l-13 -10l-80 -53q-38 -23 -56 -23l-14 6l-23 13l-8 6l-8 6q-10 7 -15.5 13.5t-5.5 11.5l1 9l2 11l1 4l1 4l3 13l2 6
l-1 3l-3 1l-4 -6l-5 -13l-6 -12q-1 -2 -3.5 -3.5t-3.5 -2.5l-4 10l-2 26q0 22 12 61t31 89l6 16l6 14l28 67l21 50l14 32l11 29l5 14l9 25l4 10l4 10q3 9 6 12.5t5.5 5t3.5 2.5l5 -2l3 -5l1 -3v-5v-2l-1 -4l1 -4h3l1 3l2 1l2 -1l4 4l5 8l6 8l8 4q5 -1 6 -2l2 -5l-1 -4l-1 -5
l-1 -1l-2 -4v-4l2 -4l5 5l8 11l5 7l6 6l3 2l4 1l7 -3l3 -7v-4q0 -11 -7 -33l-14 -52l-1 -5l-1 -4l-13 -43l-9 -30l-3 -10l-4 -10l-1 -2l-6 -14l-3 -15l-2 -10l-3 -10l-2 -5l-1 -4l-4 -8l-2 -8l-5 -14l-8 -25l-4 -10l-2 -10l-6 -23l-2 -21q0 -12 3 -18t11 -6t26 12l35 26l5 5
l5 4l37 33q15 12 22 14l7 -1q3 -4 3 -7l-2 -5l-4 -5l-4 -2l-2 -2l-1 -2l1 -4l3 -2l10 2l10 4l9 5l8 2q6 -1 7 -2zM180 297l-5 5l-6 4l-6 2l-4 -1l-4 -2l-4 -3l-4 -1q-6 0 -13 8q-5 10 -5 27l3 20l9 33l6 18l7 18q1 5 2 6l4 6q9 14 23 23t33 9l15 -3q6 -1 7 -7l1 -11
q2 -5 4 -5l3 2l5 7l5 5q3 3 8 3q4 -4 5 -7l3 -14v-10l1 -7l-2 -24q0 -18 -5 -34q-3 -23 -13 -43q-7 -18 -21 -21l-6 1l-4 2v1l-4 2l-4 1l-6 -2l-7 -4l-4 -2l-8 -4h-4z" />
    <glyph glyph-name="Agrave" unicode="&#xc0;" horiz-adv-x="630" 
d="M229 115l-30 -51l-44 -83l-4 -6l-3 -8l-41 -79l-26 -58q-3 -12 -8.5 -18t-10.5 -6q-6 0 -10 5l-4 11v4v4l1 4l2 3l1 5l1 3l-3 5l-5 3l-1 1q-5 2 -6 4l-3 5q1 5 2 6l4 7l4 8l2 9l-2 4l-4 1l-5 -1l-4 -3l-3 -1l-3 -2l-5 -1q-6 2 -8 4l-3 8l-1 3l1 12l5 7l1 3l3 5l1 6l-3 6
l-5 1l-5 -2l-2 -5l-1 -1l-4 -6l-6 -3l-5 3l-3 6v4q-1 7 8 27l21 35l3 5l23 38l11 21l-2 7l-4 3l-14 -4l-28 -7l-3 -2l-29 -7l-19 -3l-5 3l-3 7v5v7l2 10l3 8l4 7l7 3l11 2l6 1h5l4 1l7 4l2 7q-2 4 -4 5l-10 1q-6 1 -7 2l-2 6l1 4l1 6l6 11q3 6 7 7l109 22l7 1l7 4l3 2l2 2
l62 109q16 30 39 68q20 34 46 73l130 203l77 121l2 2l2 2l3 2l3 1l5 -1l6 -3l5 -3l2 -3l1 -6l-1 -3v-4l-1 -6v-4v-2l2 -4l3 -1l4 2l4 1l3 -2l2 -5l-1 -9l-2 -10l-2 -4v-4l-2 -8v-7v-5l2 -5l5 -2q4 4 5 7l4 17l1 5l4 19q2 5 4 6.5t3 2.5q6 -4 7 -6l2 -18v-7l1 -8l5 -4l3 1
l3 4l2 2l2 2h4h4q6 -3 11.5 -11t5.5 -19l-1 -10l-1 -11l-1 -6v-6l-17 -183l-2 -20l-2 -22l-1 -6v-5l-4 -35l-1 -24v-3l1 -15q1 -5 6 -7l14 4l19 8l19 8l14 4l6 -3l3 -7v-4q0 -9 -6 -17l-11 -10l-6 -3l-5 -3l-5 -3l-1 -3q2 -4 4 -5l8 -1h1l7 -1q4 -2 4 -4q0 -11 -3 -17
q-5 -4 -7 -4l-5 -1l-4 -1l-9 -5l-3 -7l1 -5l5 -1l5 1l6 2l4 1l3 1l4 -2l2 -5l-4 -7l-10 -6l-13 -6l-13 -6l-25 -9l-14 -5q-5 -1 -8 -8l-3 -16l-14 -140q0 -9 -5.5 -14t-16.5 -7q-5 1 -6 2l-2 6l1 5l1 6l1 4l1 5l-3 5l-7 2l-3 -2l-3 -4l-3 -7l-4 -9l-8 -15q-5 -6 -12 -6l-5 1
l-1 5v5l1 6v1v7l1 5q0 7 -2 9l-4 3q-7 0 -13 -15l-4 -35v-3l-2 -5l-4 -2l-5 1l-2 2l-8 -2l-4 -7v-1l-5 -7l-5 -3l-5 3l-2 10l3 35l6 47l1 4l1 4l6 50l4 33l-2 6l-4 2l-6 -1l-8 -3l-3 -1l-4 -1zM450 497l-2 3l-4 2h-2q-3 -1 -11 -12l-20 -32l-120 -199l-1 -3l-2 -3l-1 -3
l-1 -4l1 -4l3 -1l14 2l29 8l88 29zM513 961q8 -3 15 -14l10 -17l12 -24l28 -61q6 -12 6 -18l-3 -11l-8 -4l-10 3l-9 8l-7 6l-5 4l-5 -1l-1 -3v-5l2 -7l1 -8l1 -4l-3 -5l-10 -2q-7 0 -18 11l-25 28l-5 5l-4 6l-22 28l-14 19l-18 22l-5 11v4q0 6 3.5 10t12.5 6l5 -2l8 -5h1
l8 -6l5 -2l3 1l1 3v1l-3 4l-2 5l-1 7q0 6 8 9t30 3q10 1 18 -5z" />
    <glyph glyph-name="Aacute" unicode="&#xc1;" horiz-adv-x="630" 
d="M229 115l-30 -51l-44 -83l-4 -6l-3 -8l-41 -79l-26 -58q-3 -12 -8.5 -18t-10.5 -6q-6 0 -10 5l-4 11v4v4l1 4l2 3l1 5l1 3l-3 5l-5 3l-1 1q-5 2 -6 4l-3 5q1 5 2 6l4 7l4 8l2 9l-2 4l-4 1l-5 -1l-4 -3l-3 -1l-3 -2l-5 -1q-6 2 -8 4l-3 8l-1 3l1 12l5 7l1 3l3 5l1 6l-3 6
l-5 1l-5 -2l-2 -5l-1 -1l-4 -6l-6 -3l-5 3l-3 6v4q-1 7 8 27l21 35l3 5l23 38l11 21l-2 7l-4 3l-14 -4l-28 -7l-3 -2l-29 -7l-19 -3l-5 3l-3 7v5v7l2 10l3 8l4 7l7 3l11 2l6 1h5l4 1l7 4l2 7q-2 4 -4 5l-10 1q-6 1 -7 2l-2 6l1 4l1 6l6 11q3 6 7 7l109 22l7 1l7 4l3 2l2 2
l62 109q16 30 39 68q20 34 46 73l130 203l77 121l2 2l2 2l3 2l3 1l5 -1l6 -3l5 -3l2 -3l1 -6l-1 -3v-4l-1 -6v-4v-2l2 -4l3 -1l4 2l4 1l3 -2l2 -5l-1 -9l-2 -10l-2 -4v-4l-2 -8v-7v-5l2 -5l5 -2q4 4 5 7l4 17l1 5l4 19q2 5 4 6.5t3 2.5q6 -4 7 -6l2 -18v-7l1 -8l5 -4l3 1
l3 4l2 2l2 2h4h4q6 -3 11.5 -11t5.5 -19l-1 -10l-1 -11l-1 -6v-6l-17 -183l-2 -20l-2 -22l-1 -6v-5l-4 -35l-1 -24v-3l1 -15q1 -5 6 -7l14 4l19 8l19 8l14 4l6 -3l3 -7v-4q0 -9 -6 -17l-11 -10l-6 -3l-5 -3l-5 -3l-1 -3q2 -4 4 -5l8 -1h1l7 -1q4 -2 4 -4q0 -11 -3 -17
q-5 -4 -7 -4l-5 -1l-4 -1l-9 -5l-3 -7l1 -5l5 -1l5 1l6 2l4 1l3 1l4 -2l2 -5l-4 -7l-10 -6l-13 -6l-13 -6l-25 -9l-14 -5q-5 -1 -8 -8l-3 -16l-14 -140q0 -9 -5.5 -14t-16.5 -7q-5 1 -6 2l-2 6l1 5l1 6l1 4l1 5l-3 5l-7 2l-3 -2l-3 -4l-3 -7l-4 -9l-8 -15q-5 -6 -12 -6l-5 1
l-1 5v5l1 6v1v7l1 5q0 7 -2 9l-4 3q-7 0 -13 -15l-4 -35v-3l-2 -5l-4 -2l-5 1l-2 2l-8 -2l-4 -7v-1l-5 -7l-5 -3l-5 3l-2 10l3 35l6 47l1 4l1 4l6 50l4 33l-2 6l-4 2l-6 -1l-8 -3l-3 -1l-4 -1zM450 497l-2 3l-4 2h-2q-3 -1 -11 -12l-20 -32l-120 -199l-1 -3l-2 -3l-1 -3
l-1 -4l1 -4l3 -1l14 2l29 8l88 29zM569 963q6 -3 8 -9l-1 -7l-2 -5l-2 -2l-1 -3l1 -3l3 -1l5 2l8 6h1l7 5l6 2q8 0 12 -5l4 -11v-4l-6 -11l-17 -22l-14 -19l-22 -28l-5 -6l-4 -5l-25 -28q-10 -9 -18 -11q-7 0 -10 2l-3 5v4l2 8l1 7l1 5l-2 3l-4 1l-5 -4l-7 -6l-9 -8l-10 -3
l-8 4q-3 3 -3 11q1 3 1.5 7.5t3.5 10.5l29 61l12 24l10 17q6 8 14 14q6 3 19 5q21 2 30 -3z" />
    <glyph glyph-name="Acircumflex" unicode="&#xc2;" horiz-adv-x="630" 
d="M229 115l-30 -51l-44 -83l-4 -6l-3 -8l-41 -79l-26 -58q-3 -12 -8.5 -18t-10.5 -6q-6 0 -10 5l-4 11v4v4l1 4l2 3l1 5l1 3l-3 5l-5 3l-1 1q-5 2 -6 4l-3 5q1 5 2 6l4 7l4 8l2 9l-2 4l-4 1l-5 -1l-4 -3l-3 -1l-3 -2l-5 -1q-6 2 -8 4l-3 8l-1 3l1 12l5 7l1 3l3 5l1 6l-3 6
l-5 1l-5 -2l-2 -5l-1 -1l-4 -6l-6 -3l-5 3l-3 6v4q-1 7 8 27l21 35l3 5l23 38l11 21l-2 7l-4 3l-14 -4l-28 -7l-3 -2l-29 -7l-19 -3l-5 3l-3 7v5v7l2 10l3 8l4 7l7 3l11 2l6 1h5l4 1l7 4l2 7q-2 4 -4 5l-10 1q-6 1 -7 2l-2 6l1 4l1 6l6 11q3 6 7 7l109 22l7 1l7 4l3 2l2 2
l62 109q16 30 39 68q20 34 46 73l130 203l77 121l2 2l2 2l3 2l3 1l5 -1l6 -3l5 -3l2 -3l1 -6l-1 -3v-4l-1 -6v-4v-2l2 -4l3 -1l4 2l4 1l3 -2l2 -5l-1 -9l-2 -10l-2 -4v-4l-2 -8v-7v-5l2 -5l5 -2q4 4 5 7l4 17l1 5l4 19q2 5 4 6.5t3 2.5q6 -4 7 -6l2 -18v-7l1 -8l5 -4l3 1
l3 4l2 2l2 2h4h4q6 -3 11.5 -11t5.5 -19l-1 -10l-1 -11l-1 -6v-6l-17 -183l-2 -20l-2 -22l-1 -6v-5l-4 -35l-1 -24v-3l1 -15q1 -5 6 -7l14 4l19 8l19 8l14 4l6 -3l3 -7v-4q0 -9 -6 -17l-11 -10l-6 -3l-5 -3l-5 -3l-1 -3q2 -4 4 -5l8 -1h1l7 -1q4 -2 4 -4q0 -11 -3 -17
q-5 -4 -7 -4l-5 -1l-4 -1l-9 -5l-3 -7l1 -5l5 -1l5 1l6 2l4 1l3 1l4 -2l2 -5l-4 -7l-10 -6l-13 -6l-13 -6l-25 -9l-14 -5q-5 -1 -8 -8l-3 -16l-14 -140q0 -9 -5.5 -14t-16.5 -7q-5 1 -6 2l-2 6l1 5l1 6l1 4l1 5l-3 5l-7 2l-3 -2l-3 -4l-3 -7l-4 -9l-8 -15q-5 -6 -12 -6l-5 1
l-1 5v5l1 6v1v7l1 5q0 7 -2 9l-4 3q-7 0 -13 -15l-4 -35v-3l-2 -5l-4 -2l-5 1l-2 2l-8 -2l-4 -7v-1l-5 -7l-5 -3l-5 3l-2 10l3 35l6 47l1 4l1 4l6 50l4 33l-2 6l-4 2l-6 -1l-8 -3l-3 -1l-4 -1zM450 497l-2 3l-4 2h-2q-3 -1 -11 -12l-20 -32l-120 -199l-1 -3l-2 -3l-1 -3
l-1 -4l1 -4l3 -1l14 2l29 8l88 29zM516 958h9l5 -2h6h3h3h6l7 1h9h12q2 -1 4.5 -2t6.5 -5l12 -16l8 -16l9 -16l11 -27l8 -21l1 -4l2 -4l6 -12l4 -8l1 -4v-4q-4 -5 -7 -7l-13 -3l-9 -1h-7h-6l-4 2l-2 1l-7 1l-5 -1l-7 -1l-9 -2h-11q-7 4 -11 8l-12 17l-12 17q-5 7 -11 8
q-7 -4 -10 -8l-14 -17l-2 -3l-14 -16q-3 -3 -6 -4.5t-4 -1.5h-5l-7 2l-8 4l-4 5l2 7l1 3l1 3l-1 3l-7 -2l-8 -6l-2 -2l-10 -6l-6 -2q-5 1 -6 2l-2 6q2 6 4 10q6 9 9 14l31 43l4 5l4 6q15 23 30 39t20 18q6 2 10 -1z" />
    <glyph glyph-name="Atilde" unicode="&#xc3;" horiz-adv-x="630" 
d="M229 115l-30 -51l-44 -83l-4 -6l-3 -8l-41 -79l-26 -58q-3 -12 -8.5 -18t-10.5 -6q-6 0 -10 5l-4 11v4v4l1 4l2 3l1 5l1 3l-3 5l-5 3l-1 1q-5 2 -6 4l-3 5q1 5 2 6l4 7l4 8l2 9l-2 4l-4 1l-5 -1l-4 -3l-3 -1l-3 -2l-5 -1q-6 2 -8 4l-3 8l-1 3l1 12l5 7l1 3l3 5l1 6l-3 6
l-5 1l-5 -2l-2 -5l-1 -1l-4 -6l-6 -3l-5 3l-3 6v4q-1 7 8 27l21 35l3 5l23 38l11 21l-2 7l-4 3l-14 -4l-28 -7l-3 -2l-29 -7l-19 -3l-5 3l-3 7v5v7l2 10l3 8l4 7l7 3l11 2l6 1h5l4 1l7 4l2 7q-2 4 -4 5l-10 1q-6 1 -7 2l-2 6l1 4l1 6l6 11q3 6 7 7l109 22l7 1l7 4l3 2l2 2
l62 109q16 30 39 68q20 34 46 73l130 203l77 121l2 2l2 2l3 2l3 1l5 -1l6 -3l5 -3l2 -3l1 -6l-1 -3v-4l-1 -6v-4v-2l2 -4l3 -1l4 2l4 1l3 -2l2 -5l-1 -9l-2 -10l-2 -4v-4l-2 -8v-7v-5l2 -5l5 -2q4 4 5 7l4 17l1 5l4 19q2 5 4 6.5t3 2.5q6 -4 7 -6l2 -18v-7l1 -8l5 -4l3 1
l3 4l2 2l2 2h4h4q6 -3 11.5 -11t5.5 -19l-1 -10l-1 -11l-1 -6v-6l-17 -183l-2 -20l-2 -22l-1 -6v-5l-4 -35l-1 -24v-3l1 -15q1 -5 6 -7l14 4l19 8l19 8l14 4l6 -3l3 -7v-4q0 -9 -6 -17l-11 -10l-6 -3l-5 -3l-5 -3l-1 -3q2 -4 4 -5l8 -1h1l7 -1q4 -2 4 -4q0 -11 -3 -17
q-5 -4 -7 -4l-5 -1l-4 -1l-9 -5l-3 -7l1 -5l5 -1l5 1l6 2l4 1l3 1l4 -2l2 -5l-4 -7l-10 -6l-13 -6l-13 -6l-25 -9l-14 -5q-5 -1 -8 -8l-3 -16l-14 -140q0 -9 -5.5 -14t-16.5 -7q-5 1 -6 2l-2 6l1 5l1 6l1 4l1 5l-3 5l-7 2l-3 -2l-3 -4l-3 -7l-4 -9l-8 -15q-5 -6 -12 -6l-5 1
l-1 5v5l1 6v1v7l1 5q0 7 -2 9l-4 3q-7 0 -13 -15l-4 -35v-3l-2 -5l-4 -2l-5 1l-2 2l-8 -2l-4 -7v-1l-5 -7l-5 -3l-5 3l-2 10l3 35l6 47l1 4l1 4l6 50l4 33l-2 6l-4 2l-6 -1l-8 -3l-3 -1l-4 -1zM450 497l-2 3l-4 2h-2q-3 -1 -11 -12l-20 -32l-120 -199l-1 -3l-2 -3l-1 -3
l-1 -4l1 -4l3 -1l14 2l29 8l88 29zM524 821q-5 2 -10.5 6t-13.5 11l-8 8l-8 8l-9 5q-3 3 -9 3q-7 -2 -9 -4l-8 -10l-3 -5l-2 -4l-13 -17q-5 -5 -18 -7l-7 2l-4 7l-2 2l1 6l2 3l1 2l2 4l-1 5l-3 2q-5 -1 -6 -2l-5 -3l-2 -2l-2 -2l-8 -6q-3 -3 -9 -3t-7 4l-1 9v2l10 17l23 31
l4 5l4 5l21 24l15 14l5 2l8 5l10 5l10 3l12 2q12 0 26 -9l23 -18l19 -19q8 -6 16 -8q9 0 16 7l14 17l6 9l7 8l4 4l6 2q5 -3 5 -5l1 -11l1 -11q1 -3 6 -5l3 1l3 3l2 2l2 3l5 4l6 4l7 1h7l5 -3l4 -6v-2l-9 -21l-22 -35q-16 -23 -38 -39.5t-45 -16.5q-25 2 -40 7z" />
    <glyph glyph-name="Adieresis" unicode="&#xc4;" horiz-adv-x="630" 
d="M229 115l-30 -51l-44 -83l-4 -6l-3 -8l-41 -79l-26 -58q-3 -12 -8.5 -18t-10.5 -6q-6 0 -10 5l-4 11v4v4l1 4l2 3l1 5l1 3l-3 5l-5 3l-1 1q-5 2 -6 4l-3 5q1 5 2 6l4 7l4 8l2 9l-2 4l-4 1l-5 -1l-4 -3l-3 -1l-3 -2l-5 -1q-6 2 -8 4l-3 8l-1 3l1 12l5 7l1 3l3 5l1 6l-3 6
l-5 1l-5 -2l-2 -5l-1 -1l-4 -6l-6 -3l-5 3l-3 6v4q-1 7 8 27l21 35l3 5l23 38l11 21l-2 7l-4 3l-14 -4l-28 -7l-3 -2l-29 -7l-19 -3l-5 3l-3 7v5v7l2 10l3 8l4 7l7 3l11 2l6 1h5l4 1l7 4l2 7q-2 4 -4 5l-10 1q-6 1 -7 2l-2 6l1 4l1 6l6 11q3 6 7 7l109 22l7 1l7 4l3 2l2 2
l62 109q16 30 39 68q20 34 46 73l130 203l77 121l2 2l2 2l3 2l3 1l5 -1l6 -3l5 -3l2 -3l1 -6l-1 -3v-4l-1 -6v-4v-2l2 -4l3 -1l4 2l4 1l3 -2l2 -5l-1 -9l-2 -10l-2 -4v-4l-2 -8v-7v-5l2 -5l5 -2q4 4 5 7l4 17l1 5l4 19q2 5 4 6.5t3 2.5q6 -4 7 -6l2 -18v-7l1 -8l5 -4l3 1
l3 4l2 2l2 2h4h4q6 -3 11.5 -11t5.5 -19l-1 -10l-1 -11l-1 -6v-6l-17 -183l-2 -20l-2 -22l-1 -6v-5l-4 -35l-1 -24v-3l1 -15q1 -5 6 -7l14 4l19 8l19 8l14 4l6 -3l3 -7v-4q0 -9 -6 -17l-11 -10l-6 -3l-5 -3l-5 -3l-1 -3q2 -4 4 -5l8 -1h1l7 -1q4 -2 4 -4q0 -11 -3 -17
q-5 -4 -7 -4l-5 -1l-4 -1l-9 -5l-3 -7l1 -5l5 -1l5 1l6 2l4 1l3 1l4 -2l2 -5l-4 -7l-10 -6l-13 -6l-13 -6l-25 -9l-14 -5q-5 -1 -8 -8l-3 -16l-14 -140q0 -9 -5.5 -14t-16.5 -7q-5 1 -6 2l-2 6l1 5l1 6l1 4l1 5l-3 5l-7 2l-3 -2l-3 -4l-3 -7l-4 -9l-8 -15q-5 -6 -12 -6l-5 1
l-1 5v5l1 6v1v7l1 5q0 7 -2 9l-4 3q-7 0 -13 -15l-4 -35v-3l-2 -5l-4 -2l-5 1l-2 2l-8 -2l-4 -7v-1l-5 -7l-5 -3l-5 3l-2 10l3 35l6 47l1 4l1 4l6 50l4 33l-2 6l-4 2l-6 -1l-8 -3l-3 -1l-4 -1zM450 497l-2 3l-4 2h-2q-3 -1 -11 -12l-20 -32l-120 -199l-1 -3l-2 -3l-1 -3
l-1 -4l1 -4l3 -1l14 2l29 8l88 29zM445 815l-4 6l-1 4l1 4v2l1 6v6l-2 4l-3 2q-5 0 -8 -4l-3 -10v-5l-4 -7l-7 -3q-2 1 -4.5 2t-4.5 5l-6 17l-1 6v6l1 24l4 27l3 13l5 17q6 13 15.5 25.5t24.5 12.5q7 0 13.5 -3.5t6.5 -10.5v-5l-1 -3l-1 -8v-4l1 -5l3 -1l4 4l6 11l4 9l5 5
q11 0 16.5 -8t8.5 -17v-7l1 -6l-1 -19l-1 -20q-3 -29 -17 -51q-12 -23 -44 -23zM668 907l-1 -20q-3 -29 -17 -51q-12 -23 -44 -23q-8 0 -11 2l-4 6l-1 4l1 4v2l1 6v6l-2 4l-3 2q-5 0 -8 -4l-3 -10v-5l-4 -7l-7 -3q-2 1 -4.5 2t-4.5 5l-6 17l-1 6v6l1 24l4 27l3 13l5 17
q6 13 15.5 25.5t24.5 12.5q7 0 13.5 -3.5t6.5 -10.5v-5l-1 -3l-1 -8v-4l1 -5l3 -1l4 4l6 11l4 9l5 5q11 0 16.5 -8t8.5 -17v-7l1 -6z" />
    <glyph glyph-name="Aring" unicode="&#xc5;" horiz-adv-x="630" 
d="M229 115l-30 -51l-44 -83l-4 -6l-3 -8l-41 -79l-26 -58q-3 -12 -8.5 -18t-10.5 -6q-6 0 -10 5l-4 11v4v4l1 4l2 3l1 5l1 3l-3 5l-5 3l-1 1q-5 2 -6 4l-3 5q1 5 2 6l4 7l4 8l2 9l-2 4l-4 1l-5 -1l-4 -3l-3 -1l-3 -2l-5 -1q-6 2 -8 4l-3 8l-1 3l1 12l5 7l1 3l3 5l1 6l-3 6
l-5 1l-5 -2l-2 -5l-1 -1l-4 -6l-6 -3l-5 3l-3 6v4q-1 7 8 27l21 35l3 5l23 38l11 21l-2 7l-4 3l-14 -4l-28 -7l-3 -2l-29 -7l-19 -3l-5 3l-3 7v5v7l2 10l3 8l4 7l7 3l11 2l6 1h5l4 1l7 4l2 7q-2 4 -4 5l-10 1q-6 1 -7 2l-2 6l1 4l1 6l6 11q3 6 7 7l109 22l7 1l7 4l3 2l2 2
l62 109q16 30 39 68q20 34 46 73l130 203l77 121l2 2l2 2l3 2l3 1l5 -1l6 -3l5 -3l2 -3l1 -6l-1 -3v-4l-1 -6v-4v-2l2 -4l3 -1l4 2l4 1l3 -2l2 -5l-1 -9l-2 -10l-2 -4v-4l-2 -8v-7v-5l2 -5l5 -2q4 4 5 7l4 17l1 5l4 19q2 5 4 6.5t3 2.5q6 -4 7 -6l2 -18v-7l1 -8l5 -4l3 1
l3 4l2 2l2 2h4h4q6 -3 11.5 -11t5.5 -19l-1 -10l-1 -11l-1 -6v-6l-17 -183l-2 -20l-2 -22l-1 -6v-5l-4 -35l-1 -24v-3l1 -15q1 -5 6 -7l14 4l19 8l19 8l14 4l6 -3l3 -7v-4q0 -9 -6 -17l-11 -10l-6 -3l-5 -3l-5 -3l-1 -3q2 -4 4 -5l8 -1h1l7 -1q4 -2 4 -4q0 -11 -3 -17
q-5 -4 -7 -4l-5 -1l-4 -1l-9 -5l-3 -7l1 -5l5 -1l5 1l6 2l4 1l3 1l4 -2l2 -5l-4 -7l-10 -6l-13 -6l-13 -6l-25 -9l-14 -5q-5 -1 -8 -8l-3 -16l-14 -140q0 -9 -5.5 -14t-16.5 -7q-5 1 -6 2l-2 6l1 5l1 6l1 4l1 5l-3 5l-7 2l-3 -2l-3 -4l-3 -7l-4 -9l-8 -15q-5 -6 -12 -6l-5 1
l-1 5v5l1 6v1v7l1 5q0 7 -2 9l-4 3q-7 0 -13 -15l-4 -35v-3l-2 -5l-4 -2l-5 1l-2 2l-8 -2l-4 -7v-1l-5 -7l-5 -3l-5 3l-2 10l3 35l6 47l1 4l1 4l6 50l4 33l-2 6l-4 2l-6 -1l-8 -3l-3 -1l-4 -1zM450 497l-2 3l-4 2h-2q-3 -1 -11 -12l-20 -32l-120 -199l-1 -3l-2 -3l-1 -3
l-1 -4l1 -4l3 -1l14 2l29 8l88 29zM488 804q-15 20 -15 49q0 32 18.5 58t42.5 42q12 9 26.5 15.5t23.5 6.5l9 -1l10 -2q20 -6 36 -24q17 -15 17 -36q0 -10 -2 -16q0 -8 -4 -16q-12 -36 -45 -66t-70 -30q-30 1 -47 20zM548 915l-11 -25l-3 -18l-1 -13v-6q1 -5 2 -6l6 -15
q5 -6 12 -6q19 0 29 14q8 14 13 33l1 7v7l-1 6l-1 7q-1 9 -9 18q-6 9 -18 9q-12 1 -19 -12z" />
    <glyph glyph-name="AE" unicode="&#xc6;" horiz-adv-x="815" 
d="M5 -21q0 2 -1.5 3.5l-2.5 2.5l-1 -1l-2 -1l-6 -2l-4 2l-1 4l13 26l27 55l2 3l27 51l16 27l7 12l3 8l-2 5l-4 3l-16 -3l-23 -7h-1l-24 -7l-14 -3h-4l-11 3q-3 2 -5 7q0 5 6 10l14 6l4 2l10 4q3 2 5 7q-2 4 -4 4l-7 1h-1l-7 2q-4 3 -4 5l3 5l6 5l5 3l3 2l2 3l-3 3l-3 1
l-5 3l-2 7q0 7 4 11l12 6l26 7l30 9l5 1l46 13l27 9l5 3l5 6l3 5l43 72l84 137l2 3l3 4l75 120l50 75l7 10l11 16l3 4l12 16l8 7q6 -1 7 -2l2 -6l-1 -4l-1 -3v-2v-2l1 -3h6l5 4l1 1l4 2l4 2l5 -2l3 -6l-1 -3v-4l-2 -5l1 -5l3 -1l5 3l3 2l4 1l4 -2l3 -4l1 -1l3 -4l5 -2l20 3
l30 8l4 1l20 5l17 5l19 3l23 4h6l7 2q12 0 18 2l15 3l4 1l5 1l2 1l8 2l7 1l6 1l7 2l3 1l5 1l5 2l7 1h6l3 -1l1 -3l-2 -4l-5 -1l-5 -2l-2 -4l1 -3l4 -1l6 2l11 4l4 1l10 3l8 2l7 -2q3 -5 3 -7l-3 -9l-5 -5l-4 -2l-3 -2l-2 -2l2 -5q5 -1 6 -2h3l6 -3q4 -4 4 -6l-1 -5l-1 -5
l-3 -8l-4 -6l-5 -4l-7 -2l-4 -2l-4 -1l-7 -3l-2 -4l1 -3l5 -1q5 1 6 2l4 1l3 1h4h4l5 -3l2 -6q0 -6 -12 -12l-26 -7l-21 -3l-14 -1q-16 0 -26 -2l-24 -4l-12 -3l-12 -3l-14 -3l-13 -3l-4 -1l-18 -3q-6 0 -14 -4l-1 -14l-2 -15l-3 -12q0 -8 -2 -12l-4 -23l-3 -22l-3 -19
l-5 -21l-1 -6l-1 -5l-3 -14l-2 -13l-1 -6v-5l-1 -6v-6l4 2l7 2l4 1l5 2q7 1 9 2l7 1q7 1 12 2q11 4 17 6l54 19l4 2l53 18l32 8h2l5 -2l2 -4q-1 -2 -2 -4.5t-4 -4.5l-11 -5l-10 -3l-6 -1l-5 -2l-3 -3v-2l4 -3l9 -1h3l10 -1q5 -3 5 -5q-4 -5 -6 -6l-12 -6l-3 -2q-9 -3 -12 -6
l-3 -5l1 -4l6 -2l5 1l9 2h4l6 1l7 1h2l5 -1l2 -4q0 -6 -6 -9l-12 -4l-2 -1q-7 0 -12 -4q-4 -1 -5 -7l2 -4l6 -1l5 1l5 1l3 -1l3 -2l2 -5l-1 -5l-4 -3l-13 -5l-24 -7l-33 -9l-35 -10l-9 -3l-8 -2l-60 -19l-42 -14l-5 -26l-4 -24l-11 -60l-5 -59l24 3q16 2 24 5l21 4l22 3
q8 0 22 5l36 8l3 1l37 9l24 4l16 1l17 4h2l15 3q10 0 15 2q6 -2 8 -4l4 -10q0 -12 -5 -17l-10 -7l-4 -1l-9 -4q-3 -3 -3 -5l4 -3l9 -2h1l10 -3q5 -2 5 -4l-3 -7l-6 -4l-7 -6l-3 -6v-1l2 -3h5l5 -2l3 -3q0 -20 -27 -32q-27 -9 -88 -18l-35 -5l-40 -5l-39 -6q-32 -3 -36 -4
q-18 -5 -26 -6q-8 0 -12 -2q-7 0 -11 -2q-19 -2 -25 -3t-19 -5q-21 -3 -30 -7l-3 -1l-10 -2l-8 -1l-7 -1h-9l-7 -1l-11 -3l-11 -2l-12 -1h-4l-7 2l-2 5q0 5 7 11l16 8l8 3l8 3l4 2l2 3l-1 3l-3 2h-2l-7 -2l-12 -3l-12 -4l-7 -1q-5 1 -6 2l-2 6q0 10 10 14l22 6l4 1l18 3
q7 3 10 9l-2 3l-4 2l-4 1l-9 -1l-13 -1h-1l-13 -2l-8 -1l-6 1l-2 6v4l1 4q2 7 4 9l7 5l8 2q7 1 9 2l11 3l11 2l4 1l5 2l4 1l5 1l2 1l2 2l2 4l2 11l3 14l1 7l3 19l2 15v6l1 7v5l2 5l1 8l1 8l1 8l2 10v2l2 10l1 10l-2 5l-6 2l-27 -7l-52 -16l-52 -16q-25 -6 -27 -8l-4 -3
l-4 -6l-2 -2l-2 -4l-30 -58l-55 -105l-2 -3l-55 -107l-28 -60l-1 -2l-5 -7l-8 -4q-8 0 -15 6t-7 19q0 7 -2 10l-3 5l-5 5l-1 11l1 10l4 8l3 8l2 6v2l-1 4l-4 1l-5 -3l-4 -6l-5 -6l-4 -3q-4 3 -5 5l-2 21q0 11 -2 15zM323 349l18 3l35 10l31 9l19 6q7 2 11 7.5t9 32.5l4 27
l7 44l1 2l7 48l4 27l-1 15q0 6 -7 6q-7 -6 -9 -10l-13 -22l-3 -7l-4 -6l-4 -6l-3 -4l-18 -28l-19 -35l-3 -4l-2 -5l-23 -42l-19 -32l-15 -23l-4 -9z" />
    <glyph glyph-name="Ccedilla" unicode="&#xc7;" horiz-adv-x="426" 
d="M104 -136l12 18l4 8l4 6l5 13l3 12l-1 7l-3 7l-1 4l-2 2l-4 10l-2 7l3 9l9 4l3 1l11 1l10 2l4 1l5 2h6l10 2l10 2l9 3l10 1h3q14 0 21 -17t7 -47v-6l-1 -6q0 -7 -2 -11q0 -6 -5 -10l-12 -11l-17 -17l-6 -4l-6 -6l-22 -15q-9 -6 -16 -6l-5 2l-1 6l-1 4l-2 3l-2 2l-1 2l2 5
l2 5l-1 4l-3 1l-5 -4l-7 -9l-6 -5l-5 -5l-4 -2l-4 -1l-8 3q-3 6 -3 9q0 6 5 14zM57 278l9 54q13 66 42 134l27.5 62.5t31.5 62.5q6 12 10 18.5t13 18.5q4 7 20 28q11 16 15 20l26 31l28 29q17 16 37 29.5t37 13.5t28.5 -7.5t21.5 -22.5l14 -20l17 -21q6 -6 10 -17l7 -21
l2 -12l1 -12l-1 -17q0 -12 -1.5 -17.5t-2.5 -6.5v-6l-4 -22l-1 -16v-1v-4v-4l-1 -11l-1 -10q-3 -16 -10 -28.5t-15 -12.5l-7 2l-5 4l-2 1l-4 3l-5 2q-5 -2 -6 -4l-3 -7l-1 -3l-7 -13q-3 -5 -11 -5q-5 0 -8 3l-1 8v4v5l-1 6l-4 2q-5 -4 -7 -7l-6 -15l-2 -9l-2 -7l-2 -4l-2 -2
l-4 -1h-2l-3 -1l-6 -10l-7 -3l-4 3l-1 7l2 10l7 19l4 22l4 27l2 15l4 23l1 2l4 23l2 17q0 12 -3.5 22.5t-14.5 11.5q-10 0 -27.5 -30.5t-38.5 -81.5l-23 -62l-20 -67q-15 -51 -24 -98t-9 -82v-11l3 -11q6 -27 27 -51q22 -22 58 -22l14 1l16 3l22 8l23 10l13 6l12 6l15 8
l15 10l23 18l12 8l2 -2l1 -4l-1 -3l-3 -3l-2 -2l-2 -4l1 -7l2 -4l1 -3l1 -6l-3 -6l-6 -5l-2 -1l-6 -4l-2 -5l2 -5l5 -6l4 -6l2 -5q-3 -4 -5 -6q-6 -6 -17 -16q-21 -18 -54 -39l-33 -20l-34 -18l-15 -6.5t-28.5 -9.5t-40.5 -7q-24 0 -43 12.5t-36 31.5l-13 14l-10 13l-9 11
l-8 12q-11 17 -17 46l-4 85z" />
    <glyph glyph-name="Egrave" unicode="&#xc8;" horiz-adv-x="611" 
d="M250 492l1 6l1 7l11 68l5 36l-2 4l-5 2l-25 -5l-49 -10l-3 -1l-50 -11l-27 -4q-6 0 -9 4l-2 10q0 5 3 8l6 3q5 1 7 4t2 5l-3 7l-4 6l-4 2l-2 4l-2 2q1 8 2 9l5 4h1l4 3l2 6l-3 5l-5 4h-1l-5 3l-2 5q2 7 4 9.5t13 4.5l24 4l42 10l3 1l32 8l24 6l16 3l18 4l16 3l17 4l19 3
l18 4l7 1l21 4l23 4l34 7l42 9l3 1l4 1l60 13l31 7l5 -3l2 -5l-1 -4l-2 -2l3 -7h7l5 1l8 2h1l7 1l6 1l7 -3l2 -7l-2 -4l-3 -2l-1 -1l-4 -3l-2 -5v-1l3 -3l5 -3l4 -6q3 -3 3 -8l-3 -12l-5 -7l-2 -2l-5 -5l-1 -5l1 -3l3 -2h1l3 -4l2 -5q0 -6 -5 -9l-13 -6q-5 -1 -6 -2l-7 -1
l-29 -6l-38 -6l-7 -2l-8 -1q-22 -3 -28 -3.5t-22 -4.5l-35 -4l-9 -4l-6 -8l-7 -29l-10 -46l-2 -8l-1 -7l-11 -60l-5 -33l2 -7l7 -2l17 5l32 11l6 3l7 2l19 5l18 5l19 6l30 10l32 12l19 5l6 -3l4 -6v-2l-3 -7l-5 -3l-2 -1l-4 -2l-2 -4l1 -4l3 -1v-1l3 -4l-2 -5l-3 -4l-2 -2
l-3 -4l-1 -3l1 -5l4 -2l3 -1l4 -4q3 -3 3 -11q0 -24 -9.5 -34t-36.5 -16q-7 -1 -9 -2l-8 -2l-43 -15l-90 -27l-10 -3q-7 -1 -10.5 -2t-6.5 -2l-6 -2t-4 -2l-4 -2l-1 -5l-1 -4l-1 -4l-3 -12l-1 -13l-3 -26l-7 -35l-1 -3l-9 -40l-3 -23l3 -5l8 -1l22 3l43 9l22 3t19 5l24 4
l16 2l23 5l4 1l23 5l18 2l12 2l15 4l2 1l14 3l12 2q9 0 13 -3t6 -13l-3 -8l-6 -6l-3 -1l-5 -6l-2 -5l1 -5l5 -1l1 -1l4 -2l3 -6l-3 -7l-5 -5l-6 -5l-2 -7l2 -4l3 -2l2 -3l2 -3l-2 -5l-5 -4l-5 -7l-2 -6l-1 -4l-3 -3l-6 -2l-6 -1l-3 -1l-64 -8q-21 -3 -64 -10.5t-95 -18.5
l-9 -2l-10 -1l-7 -1l-6 -1l-8 -1l-8 -2l-12 -3l-14 -2l-16 -3l-16 -3l-44 -5l-24 -2l-10 -1l-13 -5l-4 -1q-8 0 -12 -2l-10 -2q-7 1 -9 2q-4 5 -4 7q1 5 2 6l5 5l2 2l3 3l1 4l-1 3l-3 2l-4 3l-6 3l-2 7q0 6 3 9l9 5l3 1l5 3l3 5l-3 5l-4 2l-3 3l-7 6l-3 6l2 4l6 5l15 7l18 8
l24 7l15 4l2 3l3 9l3 13l3 16l3 21l2 16l1 17l4 21l3 20l2 17l-1 7l-3 3l-18 -4l-32 -7l-2 -1l-32 -8l-19 -3l-6 1l-2 7l1 3l2 2l2 2l1 4q0 6 -4 7l-7 2h-1l-7 1q-3 4 -3 6l1 3l2 2l3 3l3 1l1 7l-3 2l-3 1l-4 -1l-7 -1l-2 -1q-5 -1 -6 -2h-5q-5 1 -6 2l-2 6v1l1 3l3 4l1 1
l2 3l2 6l-2 4l-2 2h-1l-3 2l-1 4q2 4 4 5l11 4l16 4l20 5l23 5l30 8l4 1l45 10l21 5l3 2l3 6l2 8l2 12zM382 961q8 -3 15 -14l10 -17l12 -24l28 -61q6 -12 6 -18l-3 -11l-8 -4l-10 3l-9 8l-7 6l-5 4l-5 -1l-1 -3v-5l2 -7l1 -8l1 -4l-3 -5l-10 -2q-7 0 -18 11l-25 28l-5 5
l-4 6l-22 28l-14 19l-18 22l-5 11v4q0 6 3.5 10t12.5 6l5 -2l8 -5h1l8 -6l5 -2l3 1l1 3v1l-3 4l-2 5l-1 7q0 6 8 9t30 3q10 1 18 -5z" />
    <glyph glyph-name="Eacute" unicode="&#xc9;" horiz-adv-x="611" 
d="M250 492l1 6l1 7l11 68l5 36l-2 4l-5 2l-25 -5l-49 -10l-3 -1l-50 -11l-27 -4q-6 0 -9 4l-2 10q0 5 3 8l6 3q5 1 7 4t2 5l-3 7l-4 6l-4 2l-2 4l-2 2q1 8 2 9l5 4h1l4 3l2 6l-3 5l-5 4h-1l-5 3l-2 5q2 7 4 9.5t13 4.5l24 4l42 10l3 1l32 8l24 6l16 3l18 4l16 3l17 4l19 3
l18 4l7 1l21 4l23 4l34 7l42 9l3 1l4 1l60 13l31 7l5 -3l2 -5l-1 -4l-2 -2l3 -7h7l5 1l8 2h1l7 1l6 1l7 -3l2 -7l-2 -4l-3 -2l-1 -1l-4 -3l-2 -5v-1l3 -3l5 -3l4 -6q3 -3 3 -8l-3 -12l-5 -7l-2 -2l-5 -5l-1 -5l1 -3l3 -2h1l3 -4l2 -5q0 -6 -5 -9l-13 -6q-5 -1 -6 -2l-7 -1
l-29 -6l-38 -6l-7 -2l-8 -1q-22 -3 -28 -3.5t-22 -4.5l-35 -4l-9 -4l-6 -8l-7 -29l-10 -46l-2 -8l-1 -7l-11 -60l-5 -33l2 -7l7 -2l17 5l32 11l6 3l7 2l19 5l18 5l19 6l30 10l32 12l19 5l6 -3l4 -6v-2l-3 -7l-5 -3l-2 -1l-4 -2l-2 -4l1 -4l3 -1v-1l3 -4l-2 -5l-3 -4l-2 -2
l-3 -4l-1 -3l1 -5l4 -2l3 -1l4 -4q3 -3 3 -11q0 -24 -9.5 -34t-36.5 -16q-7 -1 -9 -2l-8 -2l-43 -15l-90 -27l-10 -3q-7 -1 -10.5 -2t-6.5 -2l-6 -2t-4 -2l-4 -2l-1 -5l-1 -4l-1 -4l-3 -12l-1 -13l-3 -26l-7 -35l-1 -3l-9 -40l-3 -23l3 -5l8 -1l22 3l43 9l22 3t19 5l24 4
l16 2l23 5l4 1l23 5l18 2l12 2l15 4l2 1l14 3l12 2q9 0 13 -3t6 -13l-3 -8l-6 -6l-3 -1l-5 -6l-2 -5l1 -5l5 -1l1 -1l4 -2l3 -6l-3 -7l-5 -5l-6 -5l-2 -7l2 -4l3 -2l2 -3l2 -3l-2 -5l-5 -4l-5 -7l-2 -6l-1 -4l-3 -3l-6 -2l-6 -1l-3 -1l-64 -8q-21 -3 -64 -10.5t-95 -18.5
l-9 -2l-10 -1l-7 -1l-6 -1l-8 -1l-8 -2l-12 -3l-14 -2l-16 -3l-16 -3l-44 -5l-24 -2l-10 -1l-13 -5l-4 -1q-8 0 -12 -2l-10 -2q-7 1 -9 2q-4 5 -4 7q1 5 2 6l5 5l2 2l3 3l1 4l-1 3l-3 2l-4 3l-6 3l-2 7q0 6 3 9l9 5l3 1l5 3l3 5l-3 5l-4 2l-3 3l-7 6l-3 6l2 4l6 5l15 7l18 8
l24 7l15 4l2 3l3 9l3 13l3 16l3 21l2 16l1 17l4 21l3 20l2 17l-1 7l-3 3l-18 -4l-32 -7l-2 -1l-32 -8l-19 -3l-6 1l-2 7l1 3l2 2l2 2l1 4q0 6 -4 7l-7 2h-1l-7 1q-3 4 -3 6l1 3l2 2l3 3l3 1l1 7l-3 2l-3 1l-4 -1l-7 -1l-2 -1q-5 -1 -6 -2h-5q-5 1 -6 2l-2 6v1l1 3l3 4l1 1
l2 3l2 6l-2 4l-2 2h-1l-3 2l-1 4q2 4 4 5l11 4l16 4l20 5l23 5l30 8l4 1l45 10l21 5l3 2l3 6l2 8l2 12zM448 963q6 -3 8 -9l-1 -7l-2 -5l-2 -2l-1 -3l1 -3l3 -1l5 2l8 6h1l7 5l6 2q8 0 12 -5l4 -11v-4l-6 -11l-17 -22l-14 -19l-22 -28l-5 -6l-4 -5l-25 -28q-10 -9 -18 -11
q-7 0 -10 2l-3 5v4l2 8l1 7l1 5l-2 3l-4 1l-5 -4l-7 -6l-9 -8l-10 -3l-8 4q-3 3 -3 11q1 3 1.5 7.5t3.5 10.5l29 61l12 24l10 17q6 8 14 14q6 3 19 5q21 2 30 -3z" />
    <glyph glyph-name="Ecircumflex" unicode="&#xca;" horiz-adv-x="611" 
d="M250 492l1 6l1 7l11 68l5 36l-2 4l-5 2l-25 -5l-49 -10l-3 -1l-50 -11l-27 -4q-6 0 -9 4l-2 10q0 5 3 8l6 3q5 1 7 4t2 5l-3 7l-4 6l-4 2l-2 4l-2 2q1 8 2 9l5 4h1l4 3l2 6l-3 5l-5 4h-1l-5 3l-2 5q2 7 4 9.5t13 4.5l24 4l42 10l3 1l32 8l24 6l16 3l18 4l16 3l17 4l19 3
l18 4l7 1l21 4l23 4l34 7l42 9l3 1l4 1l60 13l31 7l5 -3l2 -5l-1 -4l-2 -2l3 -7h7l5 1l8 2h1l7 1l6 1l7 -3l2 -7l-2 -4l-3 -2l-1 -1l-4 -3l-2 -5v-1l3 -3l5 -3l4 -6q3 -3 3 -8l-3 -12l-5 -7l-2 -2l-5 -5l-1 -5l1 -3l3 -2h1l3 -4l2 -5q0 -6 -5 -9l-13 -6q-5 -1 -6 -2l-7 -1
l-29 -6l-38 -6l-7 -2l-8 -1q-22 -3 -28 -3.5t-22 -4.5l-35 -4l-9 -4l-6 -8l-7 -29l-10 -46l-2 -8l-1 -7l-11 -60l-5 -33l2 -7l7 -2l17 5l32 11l6 3l7 2l19 5l18 5l19 6l30 10l32 12l19 5l6 -3l4 -6v-2l-3 -7l-5 -3l-2 -1l-4 -2l-2 -4l1 -4l3 -1v-1l3 -4l-2 -5l-3 -4l-2 -2
l-3 -4l-1 -3l1 -5l4 -2l3 -1l4 -4q3 -3 3 -11q0 -24 -9.5 -34t-36.5 -16q-7 -1 -9 -2l-8 -2l-43 -15l-90 -27l-10 -3q-7 -1 -10.5 -2t-6.5 -2l-6 -2t-4 -2l-4 -2l-1 -5l-1 -4l-1 -4l-3 -12l-1 -13l-3 -26l-7 -35l-1 -3l-9 -40l-3 -23l3 -5l8 -1l22 3l43 9l22 3t19 5l24 4
l16 2l23 5l4 1l23 5l18 2l12 2l15 4l2 1l14 3l12 2q9 0 13 -3t6 -13l-3 -8l-6 -6l-3 -1l-5 -6l-2 -5l1 -5l5 -1l1 -1l4 -2l3 -6l-3 -7l-5 -5l-6 -5l-2 -7l2 -4l3 -2l2 -3l2 -3l-2 -5l-5 -4l-5 -7l-2 -6l-1 -4l-3 -3l-6 -2l-6 -1l-3 -1l-64 -8q-21 -3 -64 -10.5t-95 -18.5
l-9 -2l-10 -1l-7 -1l-6 -1l-8 -1l-8 -2l-12 -3l-14 -2l-16 -3l-16 -3l-44 -5l-24 -2l-10 -1l-13 -5l-4 -1q-8 0 -12 -2l-10 -2q-7 1 -9 2q-4 5 -4 7q1 5 2 6l5 5l2 2l3 3l1 4l-1 3l-3 2l-4 3l-6 3l-2 7q0 6 3 9l9 5l3 1l5 3l3 5l-3 5l-4 2l-3 3l-7 6l-3 6l2 4l6 5l15 7l18 8
l24 7l15 4l2 3l3 9l3 13l3 16l3 21l2 16l1 17l4 21l3 20l2 17l-1 7l-3 3l-18 -4l-32 -7l-2 -1l-32 -8l-19 -3l-6 1l-2 7l1 3l2 2l2 2l1 4q0 6 -4 7l-7 2h-1l-7 1q-3 4 -3 6l1 3l2 2l3 3l3 1l1 7l-3 2l-3 1l-4 -1l-7 -1l-2 -1q-5 -1 -6 -2h-5q-5 1 -6 2l-2 6v1l1 3l3 4l1 1
l2 3l2 6l-2 4l-2 2h-1l-3 2l-1 4q2 4 4 5l11 4l16 4l20 5l23 5l30 8l4 1l45 10l21 5l3 2l3 6l2 8l2 12zM395 968h9l5 -2h6h3h3h6l7 1h9h12q2 -1 4.5 -2t6.5 -5l12 -16l8 -16l9 -16l11 -27l8 -21l1 -4l2 -4l6 -12l4 -8l1 -4v-4q-4 -5 -7 -7l-13 -3l-9 -1h-7h-6l-4 2l-2 1
l-7 1l-5 -1l-7 -1l-9 -2h-11q-7 4 -11 8l-12 17l-12 17q-5 7 -11 8q-7 -4 -10 -8l-14 -17l-2 -3l-14 -16q-3 -3 -6 -4.5t-4 -1.5h-5l-7 2l-8 4l-4 5l2 7l1 3l1 3l-1 3l-7 -2l-8 -6l-2 -2l-10 -6l-6 -2q-5 1 -6 2l-2 6q2 6 4 10q6 9 9 14l31 43l4 5l4 6q15 23 30 39t20 18
q6 2 10 -1z" />
    <glyph glyph-name="Edieresis" unicode="&#xcb;" horiz-adv-x="611" 
d="M250 492l1 6l1 7l11 68l5 36l-2 4l-5 2l-25 -5l-49 -10l-3 -1l-50 -11l-27 -4q-6 0 -9 4l-2 10q0 5 3 8l6 3q5 1 7 4t2 5l-3 7l-4 6l-4 2l-2 4l-2 2q1 8 2 9l5 4h1l4 3l2 6l-3 5l-5 4h-1l-5 3l-2 5q2 7 4 9.5t13 4.5l24 4l42 10l3 1l32 8l24 6l16 3l18 4l16 3l17 4l19 3
l18 4l7 1l21 4l23 4l34 7l42 9l3 1l4 1l60 13l31 7l5 -3l2 -5l-1 -4l-2 -2l3 -7h7l5 1l8 2h1l7 1l6 1l7 -3l2 -7l-2 -4l-3 -2l-1 -1l-4 -3l-2 -5v-1l3 -3l5 -3l4 -6q3 -3 3 -8l-3 -12l-5 -7l-2 -2l-5 -5l-1 -5l1 -3l3 -2h1l3 -4l2 -5q0 -6 -5 -9l-13 -6q-5 -1 -6 -2l-7 -1
l-29 -6l-38 -6l-7 -2l-8 -1q-22 -3 -28 -3.5t-22 -4.5l-35 -4l-9 -4l-6 -8l-7 -29l-10 -46l-2 -8l-1 -7l-11 -60l-5 -33l2 -7l7 -2l17 5l32 11l6 3l7 2l19 5l18 5l19 6l30 10l32 12l19 5l6 -3l4 -6v-2l-3 -7l-5 -3l-2 -1l-4 -2l-2 -4l1 -4l3 -1v-1l3 -4l-2 -5l-3 -4l-2 -2
l-3 -4l-1 -3l1 -5l4 -2l3 -1l4 -4q3 -3 3 -11q0 -24 -9.5 -34t-36.5 -16q-7 -1 -9 -2l-8 -2l-43 -15l-90 -27l-10 -3q-7 -1 -10.5 -2t-6.5 -2l-6 -2t-4 -2l-4 -2l-1 -5l-1 -4l-1 -4l-3 -12l-1 -13l-3 -26l-7 -35l-1 -3l-9 -40l-3 -23l3 -5l8 -1l22 3l43 9l22 3t19 5l24 4
l16 2l23 5l4 1l23 5l18 2l12 2l15 4l2 1l14 3l12 2q9 0 13 -3t6 -13l-3 -8l-6 -6l-3 -1l-5 -6l-2 -5l1 -5l5 -1l1 -1l4 -2l3 -6l-3 -7l-5 -5l-6 -5l-2 -7l2 -4l3 -2l2 -3l2 -3l-2 -5l-5 -4l-5 -7l-2 -6l-1 -4l-3 -3l-6 -2l-6 -1l-3 -1l-64 -8q-21 -3 -64 -10.5t-95 -18.5
l-9 -2l-10 -1l-7 -1l-6 -1l-8 -1l-8 -2l-12 -3l-14 -2l-16 -3l-16 -3l-44 -5l-24 -2l-10 -1l-13 -5l-4 -1q-8 0 -12 -2l-10 -2q-7 1 -9 2q-4 5 -4 7q1 5 2 6l5 5l2 2l3 3l1 4l-1 3l-3 2l-4 3l-6 3l-2 7q0 6 3 9l9 5l3 1l5 3l3 5l-3 5l-4 2l-3 3l-7 6l-3 6l2 4l6 5l15 7l18 8
l24 7l15 4l2 3l3 9l3 13l3 16l3 21l2 16l1 17l4 21l3 20l2 17l-1 7l-3 3l-18 -4l-32 -7l-2 -1l-32 -8l-19 -3l-6 1l-2 7l1 3l2 2l2 2l1 4q0 6 -4 7l-7 2h-1l-7 1q-3 4 -3 6l1 3l2 2l3 3l3 1l1 7l-3 2l-3 1l-4 -1l-7 -1l-2 -1q-5 -1 -6 -2h-5q-5 1 -6 2l-2 6v1l1 3l3 4l1 1
l2 3l2 6l-2 4l-2 2h-1l-3 2l-1 4q2 4 4 5l11 4l16 4l20 5l23 5l30 8l4 1l45 10l21 5l3 2l3 6l2 8l2 12zM324 821l-4 6l-1 4l1 4v2l1 6v6l-2 4l-3 2q-5 0 -8 -4l-3 -10v-5l-4 -7l-7 -3q-2 1 -4.5 2t-4.5 5l-6 17l-1 6v6l1 24l4 27l3 13l5 17q6 13 15.5 25.5t24.5 12.5
q7 0 13.5 -3.5t6.5 -10.5v-5l-1 -3l-1 -8v-4l1 -5l3 -1l4 4l6 11l4 9l5 5q11 0 16.5 -8t8.5 -17v-7l1 -6l-1 -19l-1 -20q-3 -29 -17 -51q-12 -23 -44 -23zM547 913l-1 -20q-3 -29 -17 -51q-12 -23 -44 -23q-8 0 -11 2l-4 6l-1 4l1 4v2l1 6v6l-2 4l-3 2q-5 0 -8 -4l-3 -10v-5
l-4 -7l-7 -3q-2 1 -4.5 2t-4.5 5l-6 17l-1 6v6l1 24l4 27l3 13l5 17q6 13 15.5 25.5t24.5 12.5q7 0 13.5 -3.5t6.5 -10.5v-5l-1 -3l-1 -8v-4l1 -5l3 -1l4 4l6 11l4 9l5 5q11 0 16.5 -8t8.5 -17v-7l1 -6z" />
    <glyph glyph-name="Igrave" unicode="&#xcc;" horiz-adv-x="500" 
d="M393 239q-10 -52 -12 -59q-8 -28 -11 -41l-1 -3l-24 -101l-12 -51q0 -10 -16 -19l-32 -13l-20 -4l-16 -2l-11 4l-11 9q-10 10 -18 25l-15 28l-16 34l-9 26l-5 11l-4 10l-6 9l-4 10q-1 5 -2 6l-1 7l1 6q2 8 4 11t8 4q6 0 9 -3l5 -5l2 -2l2 -2l2 -3h4q4 4 4 6l3 11v4l1 4
l5 17q3 7 10 8q6 0 9 -8l5 -17v-4l8 -24q5 -9 14 -9q6 0 10 7l4 15l4 23l7 38l1 2l7 40l4 24q-2 6 -4 8l-8 4l-29 -3l-38 -7q-16 -2 -22 -3.5t-17 -4.5l-29 -3q-6 0 -9 4l-3 10l-1 3q0 6 -5 11q-3 6 -14 6h-4l-4 -1h-5q-5 -1 -6 -2h-4q-6 2 -7 4l-1 11v2q0 7 -3 11.5t-7 4.5
q-14 0 -17.5 1.5t-5.5 6.5q0 12 11 15l30 6h4l5 1q15 0 43 7l62 15l6 1l5 2q10 1 19.5 2.5t22.5 5.5l38 8l14 4q5 3 6 10l6 31l8 43l1 4l1 5l10 53l4 35q0 8 -4.5 13.5t-16.5 11.5l-43 15l-71 22l-87 27q-30 10 -38 20l-2 2l3 13l6 9l4 4l4 4l1 4l-1 4q-1 5 -2 6l-2 5l-1 7
l2 5l5 3l5 3l2 6l-2 5l-3 6l-2 3l-3 3v4v2l3 6l6 5l3 1l3 1q9 0 61 -17l117 -36q5 -1 8 -2t4 -2l111 -36q52 -17 56.5 -20t9.5 -12l4 -18q0 -6 -1 -17.5t-3.5 -26.5t-3.5 -29q-5 -22 -7 -33l-2 -10l-2 -9l-13 -66l-6 -30v-5l2 -4l5 -2l12 4l18 9l6 3l8 3l10 4l11 2l6 -3
l2 -7q0 -8 -3 -13l-5 -5l-2 -2l-6 -4l-1 -4q1 -5 2 -6l5 -2h1l4 -2l2 -4l-2 -4l-2 -2l-4 -4l-1 -3l2 -5l5 -4l1 -1l3 -3l2 -3l-3 -7l-6 -4l-2 -2l-7 -3l-1 -3l1 -3l4 -1l4 1l6 -2l1 -4q0 -6 -16 -12l-34 -9l-5 -1l-37 -9q-16 -4 -17 -14q0 -7 -1.5 -16t-9.5 -40zM326 961
q8 -3 15 -14l10 -17l12 -24l28 -61q6 -12 6 -18l-3 -11l-8 -4l-10 3l-9 8l-7 6l-5 4l-5 -1l-1 -3v-5l2 -7l1 -8l1 -4l-3 -5l-10 -2q-7 0 -18 11l-25 28l-5 5l-4 6l-22 28l-14 19l-18 22l-5 11v4q0 6 3.5 10t12.5 6l5 -2l8 -5h1l8 -6l5 -2l3 1l1 3v1l-3 4l-2 5l-1 7q0 6 8 9
t30 3q10 1 18 -5z" />
    <glyph glyph-name="Iacute" unicode="&#xcd;" horiz-adv-x="500" 
d="M393 239q-10 -52 -12 -59q-8 -28 -11 -41l-1 -3l-24 -101l-12 -51q0 -10 -16 -19l-32 -13l-20 -4l-16 -2l-11 4l-11 9q-10 10 -18 25l-15 28l-16 34l-9 26l-5 11l-4 10l-6 9l-4 10q-1 5 -2 6l-1 7l1 6q2 8 4 11t8 4q6 0 9 -3l5 -5l2 -2l2 -2l2 -3h4q4 4 4 6l3 11v4l1 4
l5 17q3 7 10 8q6 0 9 -8l5 -17v-4l8 -24q5 -9 14 -9q6 0 10 7l4 15l4 23l7 38l1 2l7 40l4 24q-2 6 -4 8l-8 4l-29 -3l-38 -7q-16 -2 -22 -3.5t-17 -4.5l-29 -3q-6 0 -9 4l-3 10l-1 3q0 6 -5 11q-3 6 -14 6h-4l-4 -1h-5q-5 -1 -6 -2h-4q-6 2 -7 4l-1 11v2q0 7 -3 11.5t-7 4.5
q-14 0 -17.5 1.5t-5.5 6.5q0 12 11 15l30 6h4l5 1q15 0 43 7l62 15l6 1l5 2q10 1 19.5 2.5t22.5 5.5l38 8l14 4q5 3 6 10l6 31l8 43l1 4l1 5l10 53l4 35q0 8 -4.5 13.5t-16.5 11.5l-43 15l-71 22l-87 27q-30 10 -38 20l-2 2l3 13l6 9l4 4l4 4l1 4l-1 4q-1 5 -2 6l-2 5l-1 7
l2 5l5 3l5 3l2 6l-2 5l-3 6l-2 3l-3 3v4v2l3 6l6 5l3 1l3 1q9 0 61 -17l117 -36q5 -1 8 -2t4 -2l111 -36q52 -17 56.5 -20t9.5 -12l4 -18q0 -6 -1 -17.5t-3.5 -26.5t-3.5 -29q-5 -22 -7 -33l-2 -10l-2 -9l-13 -66l-6 -30v-5l2 -4l5 -2l12 4l18 9l6 3l8 3l10 4l11 2l6 -3
l2 -7q0 -8 -3 -13l-5 -5l-2 -2l-6 -4l-1 -4q1 -5 2 -6l5 -2h1l4 -2l2 -4l-2 -4l-2 -2l-4 -4l-1 -3l2 -5l5 -4l1 -1l3 -3l2 -3l-3 -7l-6 -4l-2 -2l-7 -3l-1 -3l1 -3l4 -1l4 1l6 -2l1 -4q0 -6 -16 -12l-34 -9l-5 -1l-37 -9q-16 -4 -17 -14q0 -7 -1.5 -16t-9.5 -40zM392 963
q6 -3 8 -9l-1 -7l-2 -5l-2 -2l-1 -3l1 -3l3 -1l5 2l8 6h1l7 5l6 2q8 0 12 -5l4 -11v-4l-6 -11l-17 -22l-14 -19l-22 -28l-5 -6l-4 -5l-25 -28q-10 -9 -18 -11q-7 0 -10 2l-3 5v4l2 8l1 7l1 5l-2 3l-4 1l-5 -4l-7 -6l-9 -8l-10 -3l-8 4q-3 3 -3 11q1 3 1.5 7.5t3.5 10.5
l29 61l12 24l10 17q6 8 14 14q6 3 19 5q21 2 30 -3z" />
    <glyph glyph-name="Icircumflex" unicode="&#xce;" horiz-adv-x="500" 
d="M393 239q-10 -52 -12 -59q-8 -28 -11 -41l-1 -3l-24 -101l-12 -51q0 -10 -16 -19l-32 -13l-20 -4l-16 -2l-11 4l-11 9q-10 10 -18 25l-15 28l-16 34l-9 26l-5 11l-4 10l-6 9l-4 10q-1 5 -2 6l-1 7l1 6q2 8 4 11t8 4q6 0 9 -3l5 -5l2 -2l2 -2l2 -3h4q4 4 4 6l3 11v4l1 4
l5 17q3 7 10 8q6 0 9 -8l5 -17v-4l8 -24q5 -9 14 -9q6 0 10 7l4 15l4 23l7 38l1 2l7 40l4 24q-2 6 -4 8l-8 4l-29 -3l-38 -7q-16 -2 -22 -3.5t-17 -4.5l-29 -3q-6 0 -9 4l-3 10l-1 3q0 6 -5 11q-3 6 -14 6h-4l-4 -1h-5q-5 -1 -6 -2h-4q-6 2 -7 4l-1 11v2q0 7 -3 11.5t-7 4.5
q-14 0 -17.5 1.5t-5.5 6.5q0 12 11 15l30 6h4l5 1q15 0 43 7l62 15l6 1l5 2q10 1 19.5 2.5t22.5 5.5l38 8l14 4q5 3 6 10l6 31l8 43l1 4l1 5l10 53l4 35q0 8 -4.5 13.5t-16.5 11.5l-43 15l-71 22l-87 27q-30 10 -38 20l-2 2l3 13l6 9l4 4l4 4l1 4l-1 4q-1 5 -2 6l-2 5l-1 7
l2 5l5 3l5 3l2 6l-2 5l-3 6l-2 3l-3 3v4v2l3 6l6 5l3 1l3 1q9 0 61 -17l117 -36q5 -1 8 -2t4 -2l111 -36q52 -17 56.5 -20t9.5 -12l4 -18q0 -6 -1 -17.5t-3.5 -26.5t-3.5 -29q-5 -22 -7 -33l-2 -10l-2 -9l-13 -66l-6 -30v-5l2 -4l5 -2l12 4l18 9l6 3l8 3l10 4l11 2l6 -3
l2 -7q0 -8 -3 -13l-5 -5l-2 -2l-6 -4l-1 -4q1 -5 2 -6l5 -2h1l4 -2l2 -4l-2 -4l-2 -2l-4 -4l-1 -3l2 -5l5 -4l1 -1l3 -3l2 -3l-3 -7l-6 -4l-2 -2l-7 -3l-1 -3l1 -3l4 -1l4 1l6 -2l1 -4q0 -6 -16 -12l-34 -9l-5 -1l-37 -9q-16 -4 -17 -14q0 -7 -1.5 -16t-9.5 -40zM307 958h9
l5 -2h6h3h3h6l7 1h9h12q2 -1 4.5 -2t6.5 -5l12 -16l8 -16l9 -16l11 -27l8 -21l1 -4l2 -4l6 -12l4 -8l1 -4v-4q-4 -5 -7 -7l-13 -3l-9 -1h-7h-6l-4 2l-2 1l-7 1l-5 -1l-7 -1l-9 -2h-11q-7 4 -11 8l-12 17l-12 17q-5 7 -11 8q-7 -4 -10 -8l-14 -17l-2 -3l-14 -16
q-3 -3 -6 -4.5t-4 -1.5h-5l-7 2l-8 4l-4 5l2 7l1 3l1 3l-1 3l-7 -2l-8 -6l-2 -2l-10 -6l-6 -2q-5 1 -6 2l-2 6q2 6 4 10q6 9 9 14l31 43l4 5l4 6q15 23 30 39t20 18q6 2 10 -1z" />
    <glyph glyph-name="Idieresis" unicode="&#xcf;" horiz-adv-x="500" 
d="M393 239q-10 -52 -12 -59q-8 -28 -11 -41l-1 -3l-24 -101l-12 -51q0 -10 -16 -19l-32 -13l-20 -4l-16 -2l-11 4l-11 9q-10 10 -18 25l-15 28l-16 34l-9 26l-5 11l-4 10l-6 9l-4 10q-1 5 -2 6l-1 7l1 6q2 8 4 11t8 4q6 0 9 -3l5 -5l2 -2l2 -2l2 -3h4q4 4 4 6l3 11v4l1 4
l5 17q3 7 10 8q6 0 9 -8l5 -17v-4l8 -24q5 -9 14 -9q6 0 10 7l4 15l4 23l7 38l1 2l7 40l4 24q-2 6 -4 8l-8 4l-29 -3l-38 -7q-16 -2 -22 -3.5t-17 -4.5l-29 -3q-6 0 -9 4l-3 10l-1 3q0 6 -5 11q-3 6 -14 6h-4l-4 -1h-5q-5 -1 -6 -2h-4q-6 2 -7 4l-1 11v2q0 7 -3 11.5t-7 4.5
q-14 0 -17.5 1.5t-5.5 6.5q0 12 11 15l30 6h4l5 1q15 0 43 7l62 15l6 1l5 2q10 1 19.5 2.5t22.5 5.5l38 8l14 4q5 3 6 10l6 31l8 43l1 4l1 5l10 53l4 35q0 8 -4.5 13.5t-16.5 11.5l-43 15l-71 22l-87 27q-30 10 -38 20l-2 2l3 13l6 9l4 4l4 4l1 4l-1 4q-1 5 -2 6l-2 5l-1 7
l2 5l5 3l5 3l2 6l-2 5l-3 6l-2 3l-3 3v4v2l3 6l6 5l3 1l3 1q9 0 61 -17l117 -36q5 -1 8 -2t4 -2l111 -36q52 -17 56.5 -20t9.5 -12l4 -18q0 -6 -1 -17.5t-3.5 -26.5t-3.5 -29q-5 -22 -7 -33l-2 -10l-2 -9l-13 -66l-6 -30v-5l2 -4l5 -2l12 4l18 9l6 3l8 3l10 4l11 2l6 -3
l2 -7q0 -8 -3 -13l-5 -5l-2 -2l-6 -4l-1 -4q1 -5 2 -6l5 -2h1l4 -2l2 -4l-2 -4l-2 -2l-4 -4l-1 -3l2 -5l5 -4l1 -1l3 -3l2 -3l-3 -7l-6 -4l-2 -2l-7 -3l-1 -3l1 -3l4 -1l4 1l6 -2l1 -4q0 -6 -16 -12l-34 -9l-5 -1l-37 -9q-16 -4 -17 -14q0 -7 -1.5 -16t-9.5 -40zM252 815
l-4 6l-1 4l1 4v2l1 6v6l-2 4l-3 2q-5 0 -8 -4l-3 -10v-5l-4 -7l-7 -3q-2 1 -4.5 2t-4.5 5l-6 17l-1 6v6l1 24l4 27l3 13l5 17q6 13 15.5 25.5t24.5 12.5q7 0 13.5 -3.5t6.5 -10.5v-5l-1 -3l-1 -8v-4l1 -5l3 -1l4 4l6 11l4 9l5 5q11 0 16.5 -8t8.5 -17v-7l1 -6l-1 -19l-1 -20
q-3 -29 -17 -51q-12 -23 -44 -23zM475 907l-1 -20q-3 -29 -17 -51q-12 -23 -44 -23q-8 0 -11 2l-4 6l-1 4l1 4v2l1 6v6l-2 4l-3 2q-5 0 -8 -4l-3 -10v-5l-4 -7l-7 -3q-2 1 -4.5 2t-4.5 5l-6 17l-1 6v6l1 24l4 27l3 13l5 17q6 13 15.5 25.5t24.5 12.5q7 0 13.5 -3.5
t6.5 -10.5v-5l-1 -3l-1 -8v-4l1 -5l3 -1l4 4l6 11l4 9l5 5q11 0 16.5 -8t8.5 -17v-7l1 -6z" />
    <glyph glyph-name="Eth" unicode="&#xd0;" horiz-adv-x="556" 
d="M477 131q-70 -84 -154.5 -138t-157.5 -81l-72 -26q-6 0 -9 3l-2 7l2 5l7 3l2 1l8 5q4 5 4 7l-2 3l-5 1l-9 -2l-10 -5l-11 -4l-9 -2q-5 2 -6 4l-3 8l-2 5l-1 4l-3 6l-2 4l-1 4v5l3 2l1 1l3 3l1 3l-4 3h-2l-6 -1h-2l-4 -1l-3 2l-1 3v3q6 7 10 9l33 17l4 2l15 12q5 6 10 21
l17 82l13 72l-14 -7l-16 -8l-5 -3l-5 -3l-23 -10l-20 -7l-5 -2l-5 -2l-11 -6l-9 -3l-4 -1l-13 2q-6 3 -6 9l1 3l3 3l2 2l1 2l-3 6l-8 3h-2l-7 2l-3 4l2 3l4 3l5 3l2 2l-2 4l-1 1l-2 2l-1 3l3 4l6 3l2 1l5 2l1 3l-1 3l-1 2l-1 1l3 5l9 3l15 5l12 3l15 7l3 1l14 5l12 4
l12.5 3.5t17.5 7.5l32 13l7 40q2 16 3.5 22t4.5 17l3 9l2 10l8 36l9 43l2 10q0 7 2 11l15 62q6 27 12 27q6 -1 8 -4t2 -5v-7l-1 -5v-4q2 -8 4.5 -11t8.5 -5h2l7 1h6q6 0 9 -3t3 -11v-12q0 -8 6 -11l14 -3h2q7 0 13.5 -3.5t7.5 -13.5q0 -9 -1 -16q-4 -18 -7 -33t-7 -37
t-10 -44l16 7l10 3l13 4l12 6l13 8l12 4l7 -1l3 -2l-3 -4l-1 -1l-3 -2l-1 -3l3 -4q5 -1 6 -2h1l7 -3q3 -3 3 -5l-1 -5v-4q-1 -5 -2 -6v-4l2 -3l6 -1l3 -1l7 -2l4 -6l-1 -3l-21 -11l-69 -24l-26 -10l-17 -8l-14 -63l-8 -39l-5 -23l-4 -18l-1 -8v-9q1 -5 2 -6l7 -2
q10 0 35.5 16t50.5 44q34 35 63 85t29 105q0 70 -52 131q-25 30 -52.5 55t-59.5 47.5t-57 37.5t-49 27l-60 31l-5 2l-5 3l-6 3l-4 3l-5 4l-2 4l2 4l5 2h1l3 1l2 3l-4 3l-6 4l-8 4l-3 7v3l3 10l6 9l4 5l4 2l3 -1h4l2 -1h2l3 1l1 4l-1 3l-1 4l-2 3v6l2 8l4 7l4 4l2 3l-1 4
l-2 3l-3 3l-1 4l2 5l7 3l23 -10l41 -21l6 -4l6 -3l20 -12l17 -10l35 -24l43 -29l61 -43l35 -23q41 -25 66 -53q25 -25 47 -55q31 -46 44 -93q5 -20 8 -39.5t3 -36.5q0 -116 -71 -202z" />
    <glyph glyph-name="Ntilde" unicode="&#xd1;" horiz-adv-x="630" 
d="M593 368l-3 -60q0 -25 -5 -58l-4 -54l-11 -93l-4 -48v-4v-5l-3 -14q-2 -6 -7 -6l-5 3l-2 7l-4 6l-4 3q-6 -2 -6 -4l-1 -10v-1q0 -7 -2 -11q-4 -4 -7 -4q-4 2 -5 4l-1 10q-1 7 -2.5 10t-3.5 3q-6 -4 -8 -7l-4 -14l-1 -3l-6 -20q-3 -6 -12 -8q-6 3 -6 5l-1 10l-1 9
q-3 5 -5 5q-6 -4 -8 -7l-4 -12q0 -7 -2 -10v-8v-4q-1 -7 -2 -10t-8 -4q-7 2 -9 4l-5 9v2l2 23l5 41v4l1 5l4 38l2 29l3 41l6 45l6 46l3 52v4v4v4v4q0 9 -2 14q0 6 -8 7q-7 -5 -9 -9l-11 -18l-1 -1l-10 -15l-7 -9l-47 -63l-80 -116l-2 -4l-83 -123l-43 -64l-2 -2l-2 -3
l-10 -8l-12 -4q-7 2 -9 4l-8 9l-2 3l-2 3l-4 4l-3 4q-11 11 -19 25l-5 19l1 7l2 9l1 9l1 10l18 87l39 178l36 166l20 86l1 6l2 8l1 5q0 7 2 11l1 9l-1 7q-3 3 -5 3q-6 0 -15 -10l-20 -20l-2 -2l-20 -21q-7 -6 -15 -8l-4 2l-1 4l1 4l2 3l2 5l-1 4l-4 2l-5 -2l-6 -3l-4 -2
q-5 -1 -6 -2l-5 -1l-4 2l-2 4l1 4l3 4l2 1l4 4l2 7l-3 3l-5 1h-5l-4 -1l-6 -3q-5 -2 -6 -4l-3 -2l-12 -9q-3 -3 -9 -3l-5 2l-2 5q0 6 12 18l27 25l2 2l7 7l8 7l2 2l2 2l33 35l76 77l10 9l11 10l18 15l16 12l7 7l8 11l2 2l3 4l8 9l8 4l12 -3l10 -7l2 -3l3 -2l5 -5l3 -4l1 -5
l1 -6l1 -11q3 -4 5 -4l3 1l3 3l2 3l3 1l6 -3l1 -6v-2l-1 -14l-1 -15l-1 -10l-1 -9q0 -12 -2 -18l-1 -12q0 -15 -4 -36.5l-8 -41.5l-7 -35q-6 -27 -15 -64l-5 -19l-4 -18q-15 -66 -30 -117l-13 -55l1 -8q2 -4 4 -4q6 0 13 13l17 29l7 12l8 11l25 38l50 76l50 78l25 40
q16 35 27.5 48.5t18.5 15.5l5 -1l6 -1l10 -6q4 -2 5 -11l-2 -14l-2 -14q0 -7 -2 -11l-2 -10l1 -8q5 -3 7 -3q6 0 7 7l2 17v2l1 14q0 6 5 7l5 -3l8 -18l7 -25l3 -13l1 -11l2 -12l4 -19l4 -31l2 -42v-20v-18q-2 -13 -2 -19zM496 767q-5 2 -10.5 6t-13.5 11l-8 8l-8 8l-9 5
q-3 3 -9 3q-7 -2 -9 -4l-8 -10l-3 -5l-2 -4l-13 -17q-5 -5 -18 -7l-7 2l-4 7l-2 2l1 6l2 3l1 2l2 4l-1 5l-3 2q-5 -1 -6 -2l-5 -3l-2 -2l-2 -2l-8 -6q-3 -3 -9 -3t-7 4l-1 9v2l10 17l23 31l4 5l4 5l21 24l15 14l5 2l8 5l10 5l10 3l12 2q12 0 26 -9l23 -18l19 -19q8 -6 16 -8
q9 0 16 7l14 17l6 9l7 8l4 4l6 2q5 -3 5 -5l1 -11l1 -11q1 -3 6 -5l3 1l3 3l2 2l2 3l5 4l6 4l7 1h7l5 -3l4 -6v-2l-9 -21l-22 -35q-16 -23 -38 -39.5t-45 -16.5q-25 2 -40 7z" />
    <glyph glyph-name="Oacute" unicode="&#xd3;" horiz-adv-x="537" 
d="M102 452q57 109 135 182q84 80 147 109l83 35q14 3 29.5 7.5t27.5 9.5l19 4h2q7 -1 9 -2q4 -5 4 -7v-1l-3 -8l-7 -4l-2 -2l-6 -4l-2 -3l2 -3h7h3l5 -2q4 -3 4 -5q0 -6 -5 -9l-10 -6h-2l-10 -6q-4 -5 -4 -7l5 -4h2l5 -3l2 -5q-3 -5 -5 -7l-9 -5l-1 -1l-9 -5l-4 -6
q2 -4 4 -5l11 -1h5l14 -3q6 -3 6 -12q0 -6 -4 -9l-10 -3l-3 -2l-28 -9l-39 -15l-12 -4l-10 -4l-9 -3l-8 -2q-21 -6 -51 -27q-25 -17 -58 -48q-53 -52 -98.5 -127t-57.5 -154q0 -12 -2 -19v-18v-15l3 -15q5 -31 23.5 -55.5t52.5 -24.5q53 0 89.5 56t58.5 125l20 83
q3 20 5 36.5t2 29.5l1 25l4 30l3 34l2 41q0 9 1 12.5t3 5t3 2.5q6 -2 6 -4l2 -8l1 -8q4 -4 6 -4l3 1l2 4v1l3 4l5 2q4 -2 5 -4l3 -7l1 -5v-4v-4l-1 -4v-4l-1 -6v-6l1 -6l4 -2l4 3l4 8l1 4l4 10q2 4 8 5q4 -3 4 -5l3 -11q0 -7 1.5 -11t5.5 -5q5 2 6 4l5 10l1 1q2 7 4.5 10
t7.5 5q9 0 12 -13l4 -28v-8v-8v-13l-1 -12q0 -16 -2 -26q0 -13 -4 -24v-1l-15 -88q-9 -67 -46 -141q-14 -30 -35.5 -62t-50.5 -61l-2 -2q-22 -21 -57 -42q-16 -10 -30 -16t-36 -13l-22 -4l-22 -1q-29 0 -48 8l-40 22l-9 6l-10 8q-45 34 -62 76q-14 44 -14 97q0 125 58 235z
M523 989q6 -3 8 -9l-1 -7l-2 -5l-2 -2l-1 -3l1 -3l3 -1l5 2l8 6h1l7 5l6 2q8 0 12 -5l4 -11v-4l-6 -11l-17 -22l-14 -19l-22 -28l-5 -6l-4 -5l-25 -28q-10 -9 -18 -11q-7 0 -10 2l-3 5v4l2 8l1 7l1 5l-2 3l-4 1l-5 -4l-7 -6l-9 -8l-10 -3l-8 4q-3 3 -3 11q1 3 1.5 7.5
t3.5 10.5l29 61l12 24l10 17q6 8 14 14q6 3 19 5q21 2 30 -3z" />
    <glyph glyph-name="Ocircumflex" unicode="&#xd4;" horiz-adv-x="537" 
d="M102 452q57 109 135 182q84 80 147 109l83 35q14 3 29.5 7.5t27.5 9.5l19 4h2q7 -1 9 -2q4 -5 4 -7v-1l-3 -8l-7 -4l-2 -2l-6 -4l-2 -3l2 -3h7h3l5 -2q4 -3 4 -5q0 -6 -5 -9l-10 -6h-2l-10 -6q-4 -5 -4 -7l5 -4h2l5 -3l2 -5q-3 -5 -5 -7l-9 -5l-1 -1l-9 -5l-4 -6
q2 -4 4 -5l11 -1h5l14 -3q6 -3 6 -12q0 -6 -4 -9l-10 -3l-3 -2l-28 -9l-39 -15l-12 -4l-10 -4l-9 -3l-8 -2q-21 -6 -51 -27q-25 -17 -58 -48q-53 -52 -98.5 -127t-57.5 -154q0 -12 -2 -19v-18v-15l3 -15q5 -31 23.5 -55.5t52.5 -24.5q53 0 89.5 56t58.5 125l20 83
q3 20 5 36.5t2 29.5l1 25l4 30l3 34l2 41q0 9 1 12.5t3 5t3 2.5q6 -2 6 -4l2 -8l1 -8q4 -4 6 -4l3 1l2 4v1l3 4l5 2q4 -2 5 -4l3 -7l1 -5v-4v-4l-1 -4v-4l-1 -6v-6l1 -6l4 -2l4 3l4 8l1 4l4 10q2 4 8 5q4 -3 4 -5l3 -11q0 -7 1.5 -11t5.5 -5q5 2 6 4l5 10l1 1q2 7 4.5 10
t7.5 5q9 0 12 -13l4 -28v-8v-8v-13l-1 -12q0 -16 -2 -26q0 -13 -4 -24v-1l-15 -88q-9 -67 -46 -141q-14 -30 -35.5 -62t-50.5 -61l-2 -2q-22 -21 -57 -42q-16 -10 -30 -16t-36 -13l-22 -4l-22 -1q-29 0 -48 8l-40 22l-9 6l-10 8q-45 34 -62 76q-14 44 -14 97q0 125 58 235z
M422 984h9l5 -2h6h3h3h6l7 1h9h12q2 -1 4.5 -2t6.5 -5l12 -16l8 -16l9 -16l11 -27l8 -21l1 -4l2 -4l6 -12l4 -8l1 -4v-4q-4 -5 -7 -7l-13 -3l-9 -1h-7h-6l-4 2l-2 1l-7 1l-5 -1l-7 -1l-9 -2h-11q-7 4 -11 8l-12 17l-12 17q-5 7 -11 8q-7 -4 -10 -8l-14 -17l-2 -3l-14 -16
q-3 -3 -6 -4.5t-4 -1.5h-5l-7 2l-8 4l-4 5l2 7l1 3l1 3l-1 3l-7 -2l-8 -6l-2 -2l-10 -6l-6 -2q-5 1 -6 2l-2 6q2 6 4 10q6 9 9 14l31 43l4 5l4 6q15 23 30 39t20 18q6 2 10 -1z" />
    <glyph glyph-name="Otilde" unicode="&#xd5;" horiz-adv-x="537" 
d="M102 452q57 109 135 182q84 80 147 109l83 35q14 3 29.5 7.5t27.5 9.5l19 4h2q7 -1 9 -2q4 -5 4 -7v-1l-3 -8l-7 -4l-2 -2l-6 -4l-2 -3l2 -3h7h3l5 -2q4 -3 4 -5q0 -6 -5 -9l-10 -6h-2l-10 -6q-4 -5 -4 -7l5 -4h2l5 -3l2 -5q-3 -5 -5 -7l-9 -5l-1 -1l-9 -5l-4 -6
q2 -4 4 -5l11 -1h5l14 -3q6 -3 6 -12q0 -6 -4 -9l-10 -3l-3 -2l-28 -9l-39 -15l-12 -4l-10 -4l-9 -3l-8 -2q-21 -6 -51 -27q-25 -17 -58 -48q-53 -52 -98.5 -127t-57.5 -154q0 -12 -2 -19v-18v-15l3 -15q5 -31 23.5 -55.5t52.5 -24.5q53 0 89.5 56t58.5 125l20 83
q3 20 5 36.5t2 29.5l1 25l4 30l3 34l2 41q0 9 1 12.5t3 5t3 2.5q6 -2 6 -4l2 -8l1 -8q4 -4 6 -4l3 1l2 4v1l3 4l5 2q4 -2 5 -4l3 -7l1 -5v-4v-4l-1 -4v-4l-1 -6v-6l1 -6l4 -2l4 3l4 8l1 4l4 10q2 4 8 5q4 -3 4 -5l3 -11q0 -7 1.5 -11t5.5 -5q5 2 6 4l5 10l1 1q2 7 4.5 10
t7.5 5q9 0 12 -13l4 -28v-8v-8v-13l-1 -12q0 -16 -2 -26q0 -13 -4 -24v-1l-15 -88q-9 -67 -46 -141q-14 -30 -35.5 -62t-50.5 -61l-2 -2q-22 -21 -57 -42q-16 -10 -30 -16t-36 -13l-22 -4l-22 -1q-29 0 -48 8l-40 22l-9 6l-10 8q-45 34 -62 76q-14 44 -14 97q0 125 58 235z
M398 821q-5 2 -10.5 6t-13.5 11l-8 8l-8 8l-9 5q-3 3 -9 3q-7 -2 -9 -4l-8 -10l-3 -5l-2 -4l-13 -17q-5 -5 -18 -7l-7 2l-4 7l-2 2l1 6l2 3l1 2l2 4l-1 5l-3 2q-5 -1 -6 -2l-5 -3l-2 -2l-2 -2l-8 -6q-3 -3 -9 -3t-7 4l-1 9v2l10 17l23 31l4 5l4 5l21 24l15 14l5 2l8 5l10 5
l10 3l12 2q12 0 26 -9l23 -18l19 -19q8 -6 16 -8q9 0 16 7l14 17l6 9l7 8l4 4l6 2q5 -3 5 -5l1 -11l1 -11q1 -3 6 -5l3 1l3 3l2 2l2 3l5 4l6 4l7 1h7l5 -3l4 -6v-2l-9 -21l-22 -35q-16 -23 -38 -39.5t-45 -16.5q-25 2 -40 7z" />
    <glyph glyph-name="Odieresis" unicode="&#xd6;" horiz-adv-x="537" 
d="M102 452q57 109 135 182q84 80 147 109l83 35q14 3 29.5 7.5t27.5 9.5l19 4h2q7 -1 9 -2q4 -5 4 -7v-1l-3 -8l-7 -4l-2 -2l-6 -4l-2 -3l2 -3h7h3l5 -2q4 -3 4 -5q0 -6 -5 -9l-10 -6h-2l-10 -6q-4 -5 -4 -7l5 -4h2l5 -3l2 -5q-3 -5 -5 -7l-9 -5l-1 -1l-9 -5l-4 -6
q2 -4 4 -5l11 -1h5l14 -3q6 -3 6 -12q0 -6 -4 -9l-10 -3l-3 -2l-28 -9l-39 -15l-12 -4l-10 -4l-9 -3l-8 -2q-21 -6 -51 -27q-25 -17 -58 -48q-53 -52 -98.5 -127t-57.5 -154q0 -12 -2 -19v-18v-15l3 -15q5 -31 23.5 -55.5t52.5 -24.5q53 0 89.5 56t58.5 125l20 83
q3 20 5 36.5t2 29.5l1 25l4 30l3 34l2 41q0 9 1 12.5t3 5t3 2.5q6 -2 6 -4l2 -8l1 -8q4 -4 6 -4l3 1l2 4v1l3 4l5 2q4 -2 5 -4l3 -7l1 -5v-4v-4l-1 -4v-4l-1 -6v-6l1 -6l4 -2l4 3l4 8l1 4l4 10q2 4 8 5q4 -3 4 -5l3 -11q0 -7 1.5 -11t5.5 -5q5 2 6 4l5 10l1 1q2 7 4.5 10
t7.5 5q9 0 12 -13l4 -28v-8v-8v-13l-1 -12q0 -16 -2 -26q0 -13 -4 -24v-1l-15 -88q-9 -67 -46 -141q-14 -30 -35.5 -62t-50.5 -61l-2 -2q-22 -21 -57 -42q-16 -10 -30 -16t-36 -13l-22 -4l-22 -1q-29 0 -48 8l-40 22l-9 6l-10 8q-45 34 -62 76q-14 44 -14 97q0 125 58 235z
M351 835l-4 6l-1 4l1 4v2l1 6v6l-2 4l-3 2q-5 0 -8 -4l-3 -10v-5l-4 -7l-7 -3q-2 1 -4.5 2t-4.5 5l-6 17l-1 6v6l1 24l4 27l3 13l5 17q6 13 15.5 25.5t24.5 12.5q7 0 13.5 -3.5t6.5 -10.5v-5l-1 -3l-1 -8v-4l1 -5l3 -1l4 4l6 11l4 9l5 5q11 0 16.5 -8t8.5 -17v-7l1 -6
l-1 -19l-1 -20q-3 -29 -17 -51q-12 -23 -44 -23zM574 927l-1 -20q-3 -29 -17 -51q-12 -23 -44 -23q-8 0 -11 2l-4 6l-1 4l1 4v2l1 6v6l-2 4l-3 2q-5 0 -8 -4l-3 -10v-5l-4 -7l-7 -3q-2 1 -4.5 2t-4.5 5l-6 17l-1 6v6l1 24l4 27l3 13l5 17q6 13 15.5 25.5t24.5 12.5
q7 0 13.5 -3.5t6.5 -10.5v-5l-1 -3l-1 -8v-4l1 -5l3 -1l4 4l6 11l4 9l5 5q11 0 16.5 -8t8.5 -17v-7l1 -6z" />
    <glyph glyph-name="Oslash" unicode="&#xd8;" horiz-adv-x="537" 
d="M498 566l29 26q16 14 41 46l12 12l8 4l4 -1l2 -3l-2 -5l-3 -6l-1 -1l-4 -6l-1 -4l1 -3l3 -1l3 2l6 4l4 4l4 2l3 -1l2 -3l-2 -3l-3 -5h-1l-4 -5l-1 -3l1 -3l3 -1l3 1l5 5l4 3l6 2l3 -2l1 -4q-1 -1 -1 -2q-3 -6 -10 -13l-24 -24l-2 -2l-2 -2l-23 -21l-14 -13v-10l2 -11v-7
v-6v-13l-1 -12q0 -16 -2 -26q0 -13 -4 -24l-16 -88q-9 -66 -48 -146q-9 -19 -15 -28.5l-21 -33.5q-10 -15 -21.5 -29t-25.5 -28l-2 -2q-22 -21 -57 -42q-16 -10 -30 -16t-36 -13l-22 -4l-22 -1l-21 1l-22 6q-23 8 -47 23.5t-41 33.5l-3 2l-2 3l-38 -35q-18 -15 -30 -30
l-3 -2l-3 -2h-7l-1 4l-1 6l-1 2l-2 -2l-5 -4l-5 -1l-3 4l2 4l3 6l2 3l4 6l3 4l-2 4l-4 -3l-6 -4l-2 -2l-2 -2l-5 -3l-5 -1l-4 1l-2 4l3 7l6 8l3 3l6 5l4 6l31 31l33 31q-8 21 -13 47l-3 53q0 123 57.5 233.5t135.5 183.5q84 80 147 109l83 35q14 3 29.5 7.5t27.5 9.5l19 4h2
q7 -1 9 -2q4 -5 4 -7v-1l-3 -8l-7 -4l-2 -2l-6 -4l-2 -3l2 -3h7h3l5 -2q4 -3 4 -5q0 -6 -5 -9l-10 -6h-2l-10 -6q-4 -5 -4 -7l5 -4h2l5 -3l2 -5q-3 -5 -5 -7l-9 -5l-1 -1l-9 -5l-4 -6q2 -4 4 -5l11 -1h5l14 -3q6 -3 6 -12q0 -6 -4 -9l-10 -3l-3 -2l-28 -9l-39 -15l-12 -4
l-10 -4l-9 -3l-8 -2q-21 -6 -51 -27q-25 -17 -58 -48q-53 -52 -98.5 -127t-57.5 -154q0 -12 -2 -19v-18v-4l2 -4h3l12 10l17 19l19 21l12 12l73 83q40 45 121 124l3 34l2 55q0 9 1 12.5t3 5t3 2.5q6 -2 6 -4l2 -8l1 -8q4 -4 6 -4l3 1l2 4v1l3 4l5 2q4 -2 5 -4l3 -7l1 -5v-4
v-4l-1 -4v-4l-1 -6v-6v-2l1 -3zM326 168q36 50 60 109q12 34 22 73q4 19 6 32t2 26l-90 -93l-146 -152l2 -5l2 -5q4 -9 16 -19l24 -12l10 -2l9 -1q44 1 83 49z" />
    <glyph glyph-name="Ugrave" unicode="&#xd9;" horiz-adv-x="630" 
d="M439 -18l-14 16l-6 11l-2 9l-1 4v4l-3 13q0 6 -4 7l-5 -3l-1 -7v-1q-1 -5 -2 -6l-3 -3q-4 4 -4 8l-1 17v5q0 23 2 35l6 34l4 24l3 26q0 13 4 25l6 25l7 28l4 27l-2 6l-3 2l-11 -10l-20 -21l-2 -2l-2 -2l-14 -18l-10 -13l-22 -33l-38 -54l-2 -3l-2 -3l-42 -58
q-18 -24 -23 -25l-3 1v4l-1 2l-1 4l-4 -3l-6 -6l-9 -7l-10 -3l-8 1l-9 5l-10 6l-8 8l-5 6l-1 6v5l2 5v4l1 4l-2 3l-2 1l-4 -2l-3 -2l-3 -1q-5 0 -13 15q-4 13 -4.5 25t-0.5 19l1 34l4 37l4 32l5 31q2 22 3 30.5t5 21.5l5 27l3 25l4 26l4 20q2 14 5 21l11 56q4 26 4.5 37
t0.5 18l-3 8l-6 4q-7 0 -13 -5l-14 -13l-6 -5l-4 -6l-19 -20q-8 -9 -13 -9l-5 2l-2 9l1 5q1 5 2 6l1 2l1 5l1 5v2l-2 3l-3 2l-5 -2l-4 -4l-1 -1l-5 -5l-5 -2q-4 2 -5 4l-2 10v2l-2 8l-3 4q-6 -3 -8 -5l-7 -9l-9 -10l-9 -4l-4 1l-1 4l1 6l10 12l38 41l71 75l4 4l5 6l74 74
q33 33 43 33q14 0 24 -14.5t14 -32.5l4 -21l1 -17l-1 -12l-2 -10l-1 -3q-1 -9 -2 -11l-1 -8v-2l-1 -2l1 -1l3 -2l2 2l1 6l1 1v5l2 2h2l2 -2v-13l-1 -15v-1q0 -7 -2 -11v-9q0 -13 -4 -26l-5 -29l-6 -28l-3 -29l-6 -49l-7 -42l-11 -46l-5 -36l-3 -18q-2 -12 -5 -18l-1 -4
l-6 -26l-3 -21l3 -12q3 -3 10 -3q9 0 33 37l49 81l33 54q15 27 28 43l19 30l27 46l3 4l2 5l32 50q14 21 22 23q10 0 16 -8.5t9 -21.5v-8l1 -6l-1 -6v-4l-1 -6v-4l1 -3l5 1l4 6l2 2l3 3l2 2l3 1l4 -2q5 -2 6 -4l7 -12l4 -15q0 -18 -9 -69l-21 -107l-1 -3v-4l-22 -109
q-9 -50 -9 -63v-4l2 -13q1 -3 6 -5q7 0 15 5l17 12l8 8l8 8l21 22l12 11l3 -2l2 -5l-4 -8l-8 -11l-9 -11l-3 -8l1 -3l3 -1l3 1l3 3l2 3l4 4l5 2l3 -3v-2l-2 -4l-2 -4l-2 -2l-5 -5l-2 -7q-1 -5 -2 -6l-3 -6l-4 -7l-1 -6l2 -3h2l3 1l4 4l1 2l4 4l5 2l3 -2l2 -4l-7 -14l-16 -19
l-3 -3l-2 -3l-17 -17l-10 -11l-17 -17l-31 -30l-5 -4l-4 -4l-33 -26q-15 -12 -21 -12q-11 0 -20 8zM439 907q8 -3 15 -14l10 -17l12 -24l28 -61q6 -12 6 -18l-3 -11l-8 -4l-10 3l-9 8l-7 6l-5 4l-5 -1l-1 -3v-5l2 -7l1 -8l1 -4l-3 -5l-10 -2q-7 0 -18 11l-25 28l-5 5l-4 6
l-22 28l-14 19l-18 22l-5 11v4q0 6 3.5 10t12.5 6l5 -2l8 -5h1l8 -6l5 -2l3 1l1 3v1l-3 4l-2 5l-1 7q0 6 8 9t30 3q10 1 18 -5z" />
    <glyph glyph-name="Uacute" unicode="&#xda;" horiz-adv-x="630" 
d="M439 -18l-14 16l-6 11l-2 9l-1 4v4l-3 13q0 6 -4 7l-5 -3l-1 -7v-1q-1 -5 -2 -6l-3 -3q-4 4 -4 8l-1 17v5q0 23 2 35l6 34l4 24l3 26q0 13 4 25l6 25l7 28l4 27l-2 6l-3 2l-11 -10l-20 -21l-2 -2l-2 -2l-14 -18l-10 -13l-22 -33l-38 -54l-2 -3l-2 -3l-42 -58
q-18 -24 -23 -25l-3 1v4l-1 2l-1 4l-4 -3l-6 -6l-9 -7l-10 -3l-8 1l-9 5l-10 6l-8 8l-5 6l-1 6v5l2 5v4l1 4l-2 3l-2 1l-4 -2l-3 -2l-3 -1q-5 0 -13 15q-4 13 -4.5 25t-0.5 19l1 34l4 37l4 32l5 31q2 22 3 30.5t5 21.5l5 27l3 25l4 26l4 20q2 14 5 21l11 56q4 26 4.5 37
t0.5 18l-3 8l-6 4q-7 0 -13 -5l-14 -13l-6 -5l-4 -6l-19 -20q-8 -9 -13 -9l-5 2l-2 9l1 5q1 5 2 6l1 2l1 5l1 5v2l-2 3l-3 2l-5 -2l-4 -4l-1 -1l-5 -5l-5 -2q-4 2 -5 4l-2 10v2l-2 8l-3 4q-6 -3 -8 -5l-7 -9l-9 -10l-9 -4l-4 1l-1 4l1 6l10 12l38 41l71 75l4 4l5 6l74 74
q33 33 43 33q14 0 24 -14.5t14 -32.5l4 -21l1 -17l-1 -12l-2 -10l-1 -3q-1 -9 -2 -11l-1 -8v-2l-1 -2l1 -1l3 -2l2 2l1 6l1 1v5l2 2h2l2 -2v-13l-1 -15v-1q0 -7 -2 -11v-9q0 -13 -4 -26l-5 -29l-6 -28l-3 -29l-6 -49l-7 -42l-11 -46l-5 -36l-3 -18q-2 -12 -5 -18l-1 -4
l-6 -26l-3 -21l3 -12q3 -3 10 -3q9 0 33 37l49 81l33 54q15 27 28 43l19 30l27 46l3 4l2 5l32 50q14 21 22 23q10 0 16 -8.5t9 -21.5v-8l1 -6l-1 -6v-4l-1 -6v-4l1 -3l5 1l4 6l2 2l3 3l2 2l3 1l4 -2q5 -2 6 -4l7 -12l4 -15q0 -18 -9 -69l-21 -107l-1 -3v-4l-22 -109
q-9 -50 -9 -63v-4l2 -13q1 -3 6 -5q7 0 15 5l17 12l8 8l8 8l21 22l12 11l3 -2l2 -5l-4 -8l-8 -11l-9 -11l-3 -8l1 -3l3 -1l3 1l3 3l2 3l4 4l5 2l3 -3v-2l-2 -4l-2 -4l-2 -2l-5 -5l-2 -7q-1 -5 -2 -6l-3 -6l-4 -7l-1 -6l2 -3h2l3 1l4 4l1 2l4 4l5 2l3 -2l2 -4l-7 -14l-16 -19
l-3 -3l-2 -3l-17 -17l-10 -11l-17 -17l-31 -30l-5 -4l-4 -4l-33 -26q-15 -12 -21 -12q-11 0 -20 8zM537 909q6 -3 8 -9l-1 -7l-2 -5l-2 -2l-1 -3l1 -3l3 -1l5 2l8 6h1l7 5l6 2q8 0 12 -5l4 -11v-4l-6 -11l-17 -22l-14 -19l-22 -28l-5 -6l-4 -5l-25 -28q-10 -9 -18 -11
q-7 0 -10 2l-3 5v4l2 8l1 7l1 5l-2 3l-4 1l-5 -4l-7 -6l-9 -8l-10 -3l-8 4q-3 3 -3 11q1 3 1.5 7.5t3.5 10.5l29 61l12 24l10 17q6 8 14 14q6 3 19 5q21 2 30 -3z" />
    <glyph glyph-name="Ucircumflex" unicode="&#xdb;" horiz-adv-x="630" 
d="M439 -18l-14 16l-6 11l-2 9l-1 4v4l-3 13q0 6 -4 7l-5 -3l-1 -7v-1q-1 -5 -2 -6l-3 -3q-4 4 -4 8l-1 17v5q0 23 2 35l6 34l4 24l3 26q0 13 4 25l6 25l7 28l4 27l-2 6l-3 2l-11 -10l-20 -21l-2 -2l-2 -2l-14 -18l-10 -13l-22 -33l-38 -54l-2 -3l-2 -3l-42 -58
q-18 -24 -23 -25l-3 1v4l-1 2l-1 4l-4 -3l-6 -6l-9 -7l-10 -3l-8 1l-9 5l-10 6l-8 8l-5 6l-1 6v5l2 5v4l1 4l-2 3l-2 1l-4 -2l-3 -2l-3 -1q-5 0 -13 15q-4 13 -4.5 25t-0.5 19l1 34l4 37l4 32l5 31q2 22 3 30.5t5 21.5l5 27l3 25l4 26l4 20q2 14 5 21l11 56q4 26 4.5 37
t0.5 18l-3 8l-6 4q-7 0 -13 -5l-14 -13l-6 -5l-4 -6l-19 -20q-8 -9 -13 -9l-5 2l-2 9l1 5q1 5 2 6l1 2l1 5l1 5v2l-2 3l-3 2l-5 -2l-4 -4l-1 -1l-5 -5l-5 -2q-4 2 -5 4l-2 10v2l-2 8l-3 4q-6 -3 -8 -5l-7 -9l-9 -10l-9 -4l-4 1l-1 4l1 6l10 12l38 41l71 75l4 4l5 6l74 74
q33 33 43 33q14 0 24 -14.5t14 -32.5l4 -21l1 -17l-1 -12l-2 -10l-1 -3q-1 -9 -2 -11l-1 -8v-2l-1 -2l1 -1l3 -2l2 2l1 6l1 1v5l2 2h2l2 -2v-13l-1 -15v-1q0 -7 -2 -11v-9q0 -13 -4 -26l-5 -29l-6 -28l-3 -29l-6 -49l-7 -42l-11 -46l-5 -36l-3 -18q-2 -12 -5 -18l-1 -4
l-6 -26l-3 -21l3 -12q3 -3 10 -3q9 0 33 37l49 81l33 54q15 27 28 43l19 30l27 46l3 4l2 5l32 50q14 21 22 23q10 0 16 -8.5t9 -21.5v-8l1 -6l-1 -6v-4l-1 -6v-4l1 -3l5 1l4 6l2 2l3 3l2 2l3 1l4 -2q5 -2 6 -4l7 -12l4 -15q0 -18 -9 -69l-21 -107l-1 -3v-4l-22 -109
q-9 -50 -9 -63v-4l2 -13q1 -3 6 -5q7 0 15 5l17 12l8 8l8 8l21 22l12 11l3 -2l2 -5l-4 -8l-8 -11l-9 -11l-3 -8l1 -3l3 -1l3 1l3 3l2 3l4 4l5 2l3 -3v-2l-2 -4l-2 -4l-2 -2l-5 -5l-2 -7q-1 -5 -2 -6l-3 -6l-4 -7l-1 -6l2 -3h2l3 1l4 4l1 2l4 4l5 2l3 -2l2 -4l-7 -14l-16 -19
l-3 -3l-2 -3l-17 -17l-10 -11l-17 -17l-31 -30l-5 -4l-4 -4l-33 -26q-15 -12 -21 -12q-11 0 -20 8zM452 904h9l5 -2h6h3h3h6l7 1h9h12q2 -1 4.5 -2t6.5 -5l12 -16l8 -16l9 -16l11 -27l8 -21l1 -4l2 -4l6 -12l4 -8l1 -4v-4q-4 -5 -7 -7l-13 -3l-9 -1h-7h-6l-4 2l-2 1l-7 1
l-5 -1l-7 -1l-9 -2h-11q-7 4 -11 8l-12 17l-12 17q-5 7 -11 8q-7 -4 -10 -8l-14 -17l-2 -3l-14 -16q-3 -3 -6 -4.5t-4 -1.5h-5l-7 2l-8 4l-4 5l2 7l1 3l1 3l-1 3l-7 -2l-8 -6l-2 -2l-10 -6l-6 -2q-5 1 -6 2l-2 6q2 6 4 10q6 9 9 14l31 43l4 5l4 6q15 23 30 39t20 18
q6 2 10 -1z" />
    <glyph glyph-name="Udieresis" unicode="&#xdc;" horiz-adv-x="630" 
d="M439 -18l-14 16l-6 11l-2 9l-1 4v4l-3 13q0 6 -4 7l-5 -3l-1 -7v-1q-1 -5 -2 -6l-3 -3q-4 4 -4 8l-1 17v5q0 23 2 35l6 34l4 24l3 26q0 13 4 25l6 25l7 28l4 27l-2 6l-3 2l-11 -10l-20 -21l-2 -2l-2 -2l-14 -18l-10 -13l-22 -33l-38 -54l-2 -3l-2 -3l-42 -58
q-18 -24 -23 -25l-3 1v4l-1 2l-1 4l-4 -3l-6 -6l-9 -7l-10 -3l-8 1l-9 5l-10 6l-8 8l-5 6l-1 6v5l2 5v4l1 4l-2 3l-2 1l-4 -2l-3 -2l-3 -1q-5 0 -13 15q-4 13 -4.5 25t-0.5 19l1 34l4 37l4 32l5 31q2 22 3 30.5t5 21.5l5 27l3 25l4 26l4 20q2 14 5 21l11 56q4 26 4.5 37
t0.5 18l-3 8l-6 4q-7 0 -13 -5l-14 -13l-6 -5l-4 -6l-19 -20q-8 -9 -13 -9l-5 2l-2 9l1 5q1 5 2 6l1 2l1 5l1 5v2l-2 3l-3 2l-5 -2l-4 -4l-1 -1l-5 -5l-5 -2q-4 2 -5 4l-2 10v2l-2 8l-3 4q-6 -3 -8 -5l-7 -9l-9 -10l-9 -4l-4 1l-1 4l1 6l10 12l38 41l71 75l4 4l5 6l74 74
q33 33 43 33q14 0 24 -14.5t14 -32.5l4 -21l1 -17l-1 -12l-2 -10l-1 -3q-1 -9 -2 -11l-1 -8v-2l-1 -2l1 -1l3 -2l2 2l1 6l1 1v5l2 2h2l2 -2v-13l-1 -15v-1q0 -7 -2 -11v-9q0 -13 -4 -26l-5 -29l-6 -28l-3 -29l-6 -49l-7 -42l-11 -46l-5 -36l-3 -18q-2 -12 -5 -18l-1 -4
l-6 -26l-3 -21l3 -12q3 -3 10 -3q9 0 33 37l49 81l33 54q15 27 28 43l19 30l27 46l3 4l2 5l32 50q14 21 22 23q10 0 16 -8.5t9 -21.5v-8l1 -6l-1 -6v-4l-1 -6v-4l1 -3l5 1l4 6l2 2l3 3l2 2l3 1l4 -2q5 -2 6 -4l7 -12l4 -15q0 -18 -9 -69l-21 -107l-1 -3v-4l-22 -109
q-9 -50 -9 -63v-4l2 -13q1 -3 6 -5q7 0 15 5l17 12l8 8l8 8l21 22l12 11l3 -2l2 -5l-4 -8l-8 -11l-9 -11l-3 -8l1 -3l3 -1l3 1l3 3l2 3l4 4l5 2l3 -3v-2l-2 -4l-2 -4l-2 -2l-5 -5l-2 -7q-1 -5 -2 -6l-3 -6l-4 -7l-1 -6l2 -3h2l3 1l4 4l1 2l4 4l5 2l3 -2l2 -4l-7 -14l-16 -19
l-3 -3l-2 -3l-17 -17l-10 -11l-17 -17l-31 -30l-5 -4l-4 -4l-33 -26q-15 -12 -21 -12q-11 0 -20 8zM409 741l-4 6l-1 4l1 4v2l1 6v6l-2 4l-3 2q-5 0 -8 -4l-3 -10v-5l-4 -7l-7 -3q-2 1 -4.5 2t-4.5 5l-6 17l-1 6v6l1 24l4 27l3 13l5 17q6 13 15.5 25.5t24.5 12.5
q7 0 13.5 -3.5t6.5 -10.5v-5l-1 -3l-1 -8v-4l1 -5l3 -1l4 4l6 11l4 9l5 5q11 0 16.5 -8t8.5 -17v-7l1 -6l-1 -19l-1 -20q-3 -29 -17 -51q-12 -23 -44 -23zM632 833l-1 -20q-3 -29 -17 -51q-12 -23 -44 -23q-8 0 -11 2l-4 6l-1 4l1 4v2l1 6v6l-2 4l-3 2q-5 0 -8 -4l-3 -10v-5
l-4 -7l-7 -3q-2 1 -4.5 2t-4.5 5l-6 17l-1 6v6l1 24l4 27l3 13l5 17q6 13 15.5 25.5t24.5 12.5q7 0 13.5 -3.5t6.5 -10.5v-5l-1 -3l-1 -8v-4l1 -5l3 -1l4 4l6 11l4 9l5 5q11 0 16.5 -8t8.5 -17v-7l1 -6z" />
    <glyph glyph-name="Thorn" unicode="&#xde;" horiz-adv-x="556" 
d="M514 84q-20 -25 -47 -41q-21 -12 -42 -18l-25 -6l-15 2l-15 8l-23 15l-19 20l-2 2l-2 3l-46 70l-9 22v2l2 3l4 3q5 -2 6 -4l5 -7l5 -9l4 -3l4 1l2 3l-3 9l-6 12v2l-7 13l-3 9l4 5l3 -1l4 -1l3 -2l5 -4l3 -1l4 1l3 2v2l-4 8l-8 14l-8 14l-4 8l1 6l6 3q6 0 21 -16l30 -36
l29 -36q13 -14 21 -16h3q9 0 19 6t11 16q0 19 -13 50t-32 64l-18 31l-18 28l-27 36q-3 5 -11 13.5t-13 12.5l-25 -135l-8.5 -45l-5.5 -28l-44 -240q-9 -64 -16 -75l-3 -3l-3 -1q-4 2 -5 4v9v3q0 8 -3 12.5t-6 4.5q-7 -6 -9 -11l-13 -24q-5 -11 -14.5 -21.5t-19.5 -12.5
q-4 2 -5 4l-3 9l-1 2l-3 9l-4 3q-6 0 -10 -7l-5 -18l-1 -2l-6 -19q-3 -9 -13 -9q-6 0 -9 5l-2 12l1 12l2 8l1 4l2 4v4l2 23l5 29l1 10l2 8l6 28l4 16q11 43 30.5 159.5t66.5 342.5l-18 7l-19 6l-29 8l-26 8l-23 9q-7 4 -8 11q4 6 6 6l13 3h5l10 1l4 3l-3 4l-7 3l-2 1l-9 3
l-4 8q2 6 4.5 8t12.5 2l7 -1l7 -1l7 -2h7l6 1q4 6 4 9q0 5 -12 7l-23 3h-1l-26 3q-9 1 -11 9q3 5 5 6l12 4l6 1l6 1l4 1l2 2l-1 3l-3 3l-4 2l-4 4l-9 6l-4 8q0 6 4.5 9.5t10.5 3.5q9 0 25 -5l42 -12l11 -4l12 -3l22 -9l17 -7l4 26l6 29l5 26l7 32q4 26 11 51.5t16 25.5
q8 0 11 -9l4 -20v-4q0 -13 2 -19q0 -5 6 -7l7 3l4 8l1 1l4 8l9 4q11 0 14 -10t3 -24v-4v-7l1 -16q3 -5 5 -5q6 2 6 4l2 9v1l1 8q3 4 5 4q4 -2 5 -4l2 -7v-4q0 -11 -1 -19l-7 -38l-20 -114q52 -37 91.5 -77t67.5 -86t42 -101.5t14 -125.5q0 -38 -22 -64z" />
    <glyph glyph-name="germandbls" unicode="&#xdf;" horiz-adv-x="407" 
d="M380 283q-8 -50 -22 -101l-18 -65l-19 -58l-16 -38q-7 -14 -15 -22l-6 -4l-4 -2h-5l-8 3l-3 6v1v1v4q1 5 2 6l1 4l2 5l1 4l-4 4l-2 -2l-3 -2l-2 -2l-5 -5l-6 -1l-5 2l-4 7l-1 5l-1 7q1 5 2 6l1 3q1 5 2 6l1 8l-2 4l-3 2l-6 -3l-5 -7l-7 -7l-7 -3h-2q-7 2 -9 4l-4 9v2
l4 21l11 30l2 4l2 4l7 19l7 16l14 42l12 54l9 52l3 42q0 25 -9 39l-7 9.5t-13 11.5l-10 6l-8 5l-8 6l-2 7v6q1 5 2 8t2 4l2 7q1 7 2 9l3 8q3 12 7 15l10 5l8 2l9 7l7 8l9 11q8 9 15.5 27.5t7.5 37.5l-1 9v10q-3 14 -11.5 28t-26.5 14q-12 0 -21 -9.5t-18 -36.5l-13 -52
l-16 -77l-4 -20l-3 -21l-16 -118l-13 -139l-10 -141l-3 -118q0 -20 -3.5 -28.5t-12.5 -10.5q-4 3 -5 5l-2 11l-1 3l-2 10l-2 3q-4 -4 -5 -8l-1 -20l-3 -8l-7 -6h-4l-3 -1l-6 3l-1 5l1 7l1 7l-2 2l-3 1l-3 -2l-4 -7l-2 -5l-2 -5l-2 -7l-1 -6v-3q0 -11 -2 -16q0 -7 -7 -8l-3 4
v8v3q0 7 -2.5 11t-4.5 4l-4 -9l-2 -15v-1l-3 -18q-2 -9 -8 -9q-7 0 -12.5 17t-5.5 63l1 45l3 55l1 5v4l3 51l2 42q0 60 14 144q10 73 17 115q3 18 15 74l9 49t14 62l24 103q5 23 9.5 38.5t12 38t8.5 26.5l10 26l2 6l4 7l4 6l4 2l5 -2l2 -5q0 -8 -2 -12l-4 -10l-5 -8l-2 -6
v-2l1 -4h5l2 3l2 5q2 4 4 5l7 3q5 0 8 -5l1 -12l1 -12l3 -4l3 2l2 5l2 5l1 5l4 7l6 7l6 4l11 6l4 2l6 3l9 3l9 2q8 0 25 -6t40.5 -20t45.5 -39.5t22 -55.5q0 -35 -8 -60t-22 -49l-15 -25l-15 -27l-2 -3q23 -18 36.5 -43t19.5 -56l2 -18l1 -17q0 -22 -9 -72z" />
    <glyph glyph-name="agrave" unicode="&#xe0;" horiz-adv-x="407" 
d="M47 265q19 33 37.5 58.5t42.5 50.5l41 38l36 27l51 28q23 12 31 12h6q6 0 11 -5q6 -3 6 -9l-3 -10l-5 -8l-7 -6l-2 -3l2 -3l5 2l5 1l6 -2q5 -2 7 -4.5t2 -7.5q-1 -5 -2 -6l-4 -4l-2 -2l-3 -2l-1 -3l2 -4l5 1q5 1 6 2l5 2l6 1l5 -3l2 -7q0 -5 -40 -32q-36 -22 -86 -69
q-25 -24 -52 -55q-23 -29 -43 -67l-6 -11l-4 -10l-4 -16l-2 -16q3 -6 5 -8l13 -2q14 0 52.5 42.5t109.5 151.5l2 3l2 4l7 6q3 3 8 3q6 0 11 -4l7 -9l3 -6l3 -5l4 -7l7 -7l2 -3l10 -12l5 -8l-3 -26l-6 -29v-2l-7 -29l-2 -25q0 -7 2 -9l7 -2l10 8l20 20l10 12l10 13l2 4l2 4
l2 3l2 2l3 -1l2 -3l-9 -18l-27 -32l2 -2l2 -1l3 2l7 4l5 4l4 2l3 -2l2 -3l-3 -6l-8 -8l-1 -2l-8 -8l-4 -6l1 -3l3 -1l6 3l8 7v1l8 6l6 4l3 -1l-1 -7l-3 -5l-2 -2l-6 -7l-2 -4l3 -2l5 2l6 1l3 -3l-15 -21l-14 -16t-20 -20l-10 -10l-10 -9l-36 -28q-15 -9 -26 -11l-9 2l-10 8
q-9 7 -18 21t-14 29l-3 11l-1 11l1 9q1 7 2 9l1 8l1 7l-1 8q-3 3 -5 3l-18 -20l-36 -43l-12 -14l-13 -13l-30 -26q-14 -9 -26 -10l-9 1l-9 3q-23 11 -42 43.5t-19 85.5q0 67 36 132zM280 687q8 -3 15 -14l10 -17l12 -24l28 -61q6 -12 6 -18l-3 -11l-8 -4l-10 3l-9 8l-7 6
l-5 4l-5 -1l-1 -3v-5l2 -7l1 -8l1 -4l-3 -5l-10 -2q-7 0 -18 11l-25 28l-5 5l-4 6l-22 28l-14 19l-18 22l-5 11v4q0 6 3.5 10t12.5 6l5 -2l8 -5h1l8 -6l5 -2l3 1l1 3v1l-3 4l-2 5l-1 7q0 6 8 9t30 3q10 1 18 -5z" />
    <glyph glyph-name="aacute" unicode="&#xe1;" horiz-adv-x="407" 
d="M47 265q19 33 37.5 58.5t42.5 50.5l41 38l36 27l51 28q23 12 31 12h6q6 0 11 -5q6 -3 6 -9l-3 -10l-5 -8l-7 -6l-2 -3l2 -3l5 2l5 1l6 -2q5 -2 7 -4.5t2 -7.5q-1 -5 -2 -6l-4 -4l-2 -2l-3 -2l-1 -3l2 -4l5 1q5 1 6 2l5 2l6 1l5 -3l2 -7q0 -5 -40 -32q-36 -22 -86 -69
q-25 -24 -52 -55q-23 -29 -43 -67l-6 -11l-4 -10l-4 -16l-2 -16q3 -6 5 -8l13 -2q14 0 52.5 42.5t109.5 151.5l2 3l2 4l7 6q3 3 8 3q6 0 11 -4l7 -9l3 -6l3 -5l4 -7l7 -7l2 -3l10 -12l5 -8l-3 -26l-6 -29v-2l-7 -29l-2 -25q0 -7 2 -9l7 -2l10 8l20 20l10 12l10 13l2 4l2 4
l2 3l2 2l3 -1l2 -3l-9 -18l-27 -32l2 -2l2 -1l3 2l7 4l5 4l4 2l3 -2l2 -3l-3 -6l-8 -8l-1 -2l-8 -8l-4 -6l1 -3l3 -1l6 3l8 7v1l8 6l6 4l3 -1l-1 -7l-3 -5l-2 -2l-6 -7l-2 -4l3 -2l5 2l6 1l3 -3l-15 -21l-14 -16t-20 -20l-10 -10l-10 -9l-36 -28q-15 -9 -26 -11l-9 2l-10 8
q-9 7 -18 21t-14 29l-3 11l-1 11l1 9q1 7 2 9l1 8l1 7l-1 8q-3 3 -5 3l-18 -20l-36 -43l-12 -14l-13 -13l-30 -26q-14 -9 -26 -10l-9 1l-9 3q-23 11 -42 43.5t-19 85.5q0 67 36 132zM380 689q6 -3 8 -9l-1 -7l-2 -5l-2 -2l-1 -3l1 -3l3 -1l5 2l8 6h1l7 5l6 2q8 0 12 -5
l4 -11v-4l-6 -11l-17 -22l-14 -19l-22 -28l-5 -6l-4 -5l-25 -28q-10 -9 -18 -11q-7 0 -10 2l-3 5v4l2 8l1 7l1 5l-2 3l-4 1l-5 -4l-7 -6l-9 -8l-10 -3l-8 4q-3 3 -3 11q1 3 1.5 7.5t3.5 10.5l29 61l12 24l10 17q6 8 14 14q6 3 19 5q21 2 30 -3z" />
    <glyph glyph-name="acircumflex" unicode="&#xe2;" horiz-adv-x="407" 
d="M47 265q19 33 37.5 58.5t42.5 50.5l41 38l36 27l51 28q23 12 31 12h6q6 0 11 -5q6 -3 6 -9l-3 -10l-5 -8l-7 -6l-2 -3l2 -3l5 2l5 1l6 -2q5 -2 7 -4.5t2 -7.5q-1 -5 -2 -6l-4 -4l-2 -2l-3 -2l-1 -3l2 -4l5 1q5 1 6 2l5 2l6 1l5 -3l2 -7q0 -5 -40 -32q-36 -22 -86 -69
q-25 -24 -52 -55q-23 -29 -43 -67l-6 -11l-4 -10l-4 -16l-2 -16q3 -6 5 -8l13 -2q14 0 52.5 42.5t109.5 151.5l2 3l2 4l7 6q3 3 8 3q6 0 11 -4l7 -9l3 -6l3 -5l4 -7l7 -7l2 -3l10 -12l5 -8l-3 -26l-6 -29v-2l-7 -29l-2 -25q0 -7 2 -9l7 -2l10 8l20 20l10 12l10 13l2 4l2 4
l2 3l2 2l3 -1l2 -3l-9 -18l-27 -32l2 -2l2 -1l3 2l7 4l5 4l4 2l3 -2l2 -3l-3 -6l-8 -8l-1 -2l-8 -8l-4 -6l1 -3l3 -1l6 3l8 7v1l8 6l6 4l3 -1l-1 -7l-3 -5l-2 -2l-6 -7l-2 -4l3 -2l5 2l6 1l3 -3l-15 -21l-14 -16t-20 -20l-10 -10l-10 -9l-36 -28q-15 -9 -26 -11l-9 2l-10 8
q-9 7 -18 21t-14 29l-3 11l-1 11l1 9q1 7 2 9l1 8l1 7l-1 8q-3 3 -5 3l-18 -20l-36 -43l-12 -14l-13 -13l-30 -26q-14 -9 -26 -10l-9 1l-9 3q-23 11 -42 43.5t-19 85.5q0 67 36 132zM261 684h9l5 -2h6h3h3h6l7 1h9h12q2 -1 4.5 -2t6.5 -5l12 -16l8 -16l9 -16l11 -27l8 -21
l1 -4l2 -4l6 -12l4 -8l1 -4v-4q-4 -5 -7 -7l-13 -3l-9 -1h-7h-6l-4 2l-2 1l-7 1l-5 -1l-7 -1l-9 -2h-11q-7 4 -11 8l-12 17l-12 17q-5 7 -11 8q-7 -4 -10 -8l-14 -17l-2 -3l-14 -16q-3 -3 -6 -4.5t-4 -1.5h-5l-7 2l-8 4l-4 5l2 7l1 3l1 3l-1 3l-7 -2l-8 -6l-2 -2l-10 -6
l-6 -2q-5 1 -6 2l-2 6q2 6 4 10q6 9 9 14l31 43l4 5l4 6q15 23 30 39t20 18q6 2 10 -1z" />
    <glyph glyph-name="atilde" unicode="&#xe3;" horiz-adv-x="407" 
d="M47 265q19 33 37.5 58.5t42.5 50.5l41 38l36 27l51 28q23 12 31 12h6q6 0 11 -5q6 -3 6 -9l-3 -10l-5 -8l-7 -6l-2 -3l2 -3l5 2l5 1l6 -2q5 -2 7 -4.5t2 -7.5q-1 -5 -2 -6l-4 -4l-2 -2l-3 -2l-1 -3l2 -4l5 1q5 1 6 2l5 2l6 1l5 -3l2 -7q0 -5 -40 -32q-36 -22 -86 -69
q-25 -24 -52 -55q-23 -29 -43 -67l-6 -11l-4 -10l-4 -16l-2 -16q3 -6 5 -8l13 -2q14 0 52.5 42.5t109.5 151.5l2 3l2 4l7 6q3 3 8 3q6 0 11 -4l7 -9l3 -6l3 -5l4 -7l7 -7l2 -3l10 -12l5 -8l-3 -26l-6 -29v-2l-7 -29l-2 -25q0 -7 2 -9l7 -2l10 8l20 20l10 12l10 13l2 4l2 4
l2 3l2 2l3 -1l2 -3l-9 -18l-27 -32l2 -2l2 -1l3 2l7 4l5 4l4 2l3 -2l2 -3l-3 -6l-8 -8l-1 -2l-8 -8l-4 -6l1 -3l3 -1l6 3l8 7v1l8 6l6 4l3 -1l-1 -7l-3 -5l-2 -2l-6 -7l-2 -4l3 -2l5 2l6 1l3 -3l-15 -21l-14 -16t-20 -20l-10 -10l-10 -9l-36 -28q-15 -9 -26 -11l-9 2l-10 8
q-9 7 -18 21t-14 29l-3 11l-1 11l1 9q1 7 2 9l1 8l1 7l-1 8q-3 3 -5 3l-18 -20l-36 -43l-12 -14l-13 -13l-30 -26q-14 -9 -26 -10l-9 1l-9 3q-23 11 -42 43.5t-19 85.5q0 67 36 132zM269 547q-5 2 -10.5 6t-13.5 11l-8 8l-8 8l-9 5q-3 3 -9 3q-7 -2 -9 -4l-8 -10l-3 -5
l-2 -4l-13 -17q-5 -5 -18 -7l-7 2l-4 7l-2 2l1 6l2 3l1 2l2 4l-1 5l-3 2q-5 -1 -6 -2l-5 -3l-2 -2l-2 -2l-8 -6q-3 -3 -9 -3t-7 4l-1 9v2l10 17l23 31l4 5l4 5l21 24l15 14l5 2l8 5l10 5l10 3l12 2q12 0 26 -9l23 -18l19 -19q8 -6 16 -8q9 0 16 7l14 17l6 9l7 8l4 4l6 2
q5 -3 5 -5l1 -11l1 -11q1 -3 6 -5l3 1l3 3l2 2l2 3l5 4l6 4l7 1h7l5 -3l4 -6v-2l-9 -21l-22 -35q-16 -23 -38 -39.5t-45 -16.5q-25 2 -40 7z" />
    <glyph glyph-name="adieresis" unicode="&#xe4;" horiz-adv-x="407" 
d="M47 265q19 33 37.5 58.5t42.5 50.5l41 38l36 27l51 28q23 12 31 12h6q6 0 11 -5q6 -3 6 -9l-3 -10l-5 -8l-7 -6l-2 -3l2 -3l5 2l5 1l6 -2q5 -2 7 -4.5t2 -7.5q-1 -5 -2 -6l-4 -4l-2 -2l-3 -2l-1 -3l2 -4l5 1q5 1 6 2l5 2l6 1l5 -3l2 -7q0 -5 -40 -32q-36 -22 -86 -69
q-25 -24 -52 -55q-23 -29 -43 -67l-6 -11l-4 -10l-4 -16l-2 -16q3 -6 5 -8l13 -2q14 0 52.5 42.5t109.5 151.5l2 3l2 4l7 6q3 3 8 3q6 0 11 -4l7 -9l3 -6l3 -5l4 -7l7 -7l2 -3l10 -12l5 -8l-3 -26l-6 -29v-2l-7 -29l-2 -25q0 -7 2 -9l7 -2l10 8l20 20l10 12l10 13l2 4l2 4
l2 3l2 2l3 -1l2 -3l-9 -18l-27 -32l2 -2l2 -1l3 2l7 4l5 4l4 2l3 -2l2 -3l-3 -6l-8 -8l-1 -2l-8 -8l-4 -6l1 -3l3 -1l6 3l8 7v1l8 6l6 4l3 -1l-1 -7l-3 -5l-2 -2l-6 -7l-2 -4l3 -2l5 2l6 1l3 -3l-15 -21l-14 -16t-20 -20l-10 -10l-10 -9l-36 -28q-15 -9 -26 -11l-9 2l-10 8
q-9 7 -18 21t-14 29l-3 11l-1 11l1 9q1 7 2 9l1 8l1 7l-1 8q-3 3 -5 3l-18 -20l-36 -43l-12 -14l-13 -13l-30 -26q-14 -9 -26 -10l-9 1l-9 3q-23 11 -42 43.5t-19 85.5q0 67 36 132zM206 541l-4 6l-1 4l1 4v2l1 6v6l-2 4l-3 2q-5 0 -8 -4l-3 -10v-5l-4 -7l-7 -3q-2 1 -4.5 2
t-4.5 5l-6 17l-1 6v6l1 24l4 27l3 13l5 17q6 13 15.5 25.5t24.5 12.5q7 0 13.5 -3.5t6.5 -10.5v-5l-1 -3l-1 -8v-4l1 -5l3 -1l4 4l6 11l4 9l5 5q11 0 16.5 -8t8.5 -17v-7l1 -6l-1 -19l-1 -20q-3 -29 -17 -51q-12 -23 -44 -23zM429 633l-1 -20q-3 -29 -17 -51
q-12 -23 -44 -23q-8 0 -11 2l-4 6l-1 4l1 4v2l1 6v6l-2 4l-3 2q-5 0 -8 -4l-3 -10v-5l-4 -7l-7 -3q-2 1 -4.5 2t-4.5 5l-6 17l-1 6v6l1 24l4 27l3 13l5 17q6 13 15.5 25.5t24.5 12.5q7 0 13.5 -3.5t6.5 -10.5v-5l-1 -3l-1 -8v-4l1 -5l3 -1l4 4l6 11l4 9l5 5q11 0 16.5 -8
t8.5 -17v-7l1 -6z" />
    <glyph glyph-name="aring" unicode="&#xe5;" horiz-adv-x="407" 
d="M47 265q19 33 37.5 58.5t42.5 50.5l41 38l36 27l51 28q23 12 31 12h6q6 0 11 -5q6 -3 6 -9l-3 -10l-5 -8l-7 -6l-2 -3l2 -3l5 2l5 1l6 -2q5 -2 7 -4.5t2 -7.5q-1 -5 -2 -6l-4 -4l-2 -2l-3 -2l-1 -3l2 -4l5 1q5 1 6 2l5 2l6 1l5 -3l2 -7q0 -5 -40 -32q-36 -22 -86 -69
q-25 -24 -52 -55q-23 -29 -43 -67l-6 -11l-4 -10l-4 -16l-2 -16q3 -6 5 -8l13 -2q14 0 52.5 42.5t109.5 151.5l2 3l2 4l7 6q3 3 8 3q6 0 11 -4l7 -9l3 -6l3 -5l4 -7l7 -7l2 -3l10 -12l5 -8l-3 -26l-6 -29v-2l-7 -29l-2 -25q0 -7 2 -9l7 -2l10 8l20 20l10 12l10 13l2 4l2 4
l2 3l2 2l3 -1l2 -3l-9 -18l-27 -32l2 -2l2 -1l3 2l7 4l5 4l4 2l3 -2l2 -3l-3 -6l-8 -8l-1 -2l-8 -8l-4 -6l1 -3l3 -1l6 3l8 7v1l8 6l6 4l3 -1l-1 -7l-3 -5l-2 -2l-6 -7l-2 -4l3 -2l5 2l6 1l3 -3l-15 -21l-14 -16t-20 -20l-10 -10l-10 -9l-36 -28q-15 -9 -26 -11l-9 2l-10 8
q-9 7 -18 21t-14 29l-3 11l-1 11l1 9q1 7 2 9l1 8l1 7l-1 8q-3 3 -5 3l-18 -20l-36 -43l-12 -14l-13 -13l-30 -26q-14 -9 -26 -10l-9 1l-9 3q-23 11 -42 43.5t-19 85.5q0 67 36 132zM209 530q-15 20 -15 49q0 32 18.5 58t42.5 42q12 9 26.5 15.5t23.5 6.5l9 -1l10 -2
q20 -6 36 -24q17 -15 17 -36q0 -10 -2 -16q0 -8 -4 -16q-12 -36 -45 -66t-70 -30q-30 1 -47 20zM269 641l-11 -25l-3 -18l-1 -13v-6q1 -5 2 -6l6 -15q5 -6 12 -6q19 0 29 14q8 14 13 33l1 7v7l-1 6l-1 7q-1 9 -9 18q-6 9 -18 9q-12 1 -19 -12z" />
    <glyph glyph-name="ae" unicode="&#xe6;" horiz-adv-x="519" 
d="M307 -10q-18 0 -38.5 16.5t-34.5 34.5l-9 12l-7 12l-2 -2q-39 -31 -69 -46t-44 -17q-18 0 -36 9l-13.5 9t-14.5 11l-8 8l-5 8l-7 16l-5 18l-4 29l-1 18q0 42 5 61.5t21 37.5l14 13l19 15l48 35l25 15q0 10 -8 23l-14 29l-2 2l-18 33l-7 24v3q0 6 6.5 12.5t13.5 7.5l5 -1
l7 -3h1q5 -1 6 -2l6 -1l3 3l1 7v2l2 8q4 4 6 4l5 -1l3 -2l2 -2l2 -1h4v4l-3 5v4q2 6 4 6l10 2q16 0 30 -21l24 -45l15 -35q7 -16 14 -25l14 19l16 21q25 30 62.5 58t74.5 28l11 -3q7 -2 12 -7q10 -7 22 -22t21 -34l11 -26l4 -22q0 -58 -41.5 -93.5t-91.5 -57.5l-36 -15
l-32 -12l2 -8l2 -8q4 -16 15.5 -31t31.5 -15q13 0 26 4l29 12l18 10l17 10l39 25l19 11h2l2 -2l1 -3l-3 -6l-5 -5l-6 -6l-2 -5l2 -4l4 -1l1 -1l4 -2l2 -4l-2 -5l-3 -4l-2 -2l-6 -6l-2 -5l1 -4l4 -2l6 1h3l2 -1l2 -3q-1 -3 -2.5 -5t-8.5 -8l-24 -21l-3 -2l-2 -2l-25 -19
l-14 -11l-17 -12l-22 -14l-12 -8l-13 -6l-30 -14l-25 -5h-5zM117 170v-10l2 -8q2 -16 10.5 -27.5t25.5 -11.5h1h1l7 1l8 2l12 6q6 3 10 8l1 3l1 3l-2 7l-3 10l-4 15l-4 18l-4 19l-4 20q-2 6 -4 7l-7 2l-8 -4l-10 -8l-4 -3l-3 -3l-8 -8l-4 -7l-8 -16l-2 -10v-4v-1zM392 321
l-2 10l-9 16q-4 6 -13 8q-8 -2 -10 -4l-10 -11l-15 -26l-14 -33l-13 -40l-5 -28q16 0 22 2.5t9 4.5q0 1 1 2l-1 5l-2 3l-1 1l-2 3l-1 4q1 5 2 6l7 4h2l4 2l2 4l-3 2l-3 1l-4 2l-2 5q5 5 9 7l22 10q14 7 22 14t9 19z" />
    <glyph glyph-name="ccedilla" unicode="&#xe7;" horiz-adv-x="296" 
d="M33 -136l12 18l4 8l4 6l5 13l3 12l-1 7l-3 7l-1 4l-2 2l-4 10l-2 7l3 9l9 4l3 1l11 1l10 2l4 1l5 2h6l10 2l10 2l9 3l10 1h3q14 0 21 -17t7 -47v-6l-1 -6q0 -7 -2 -11q0 -6 -5 -10l-12 -11l-17 -17l-6 -4l-6 -6l-22 -15q-9 -6 -16 -6l-5 2l-1 6l-1 4l-2 3l-2 2l-1 2l2 5
l2 5l-1 4l-3 1l-5 -4l-7 -9l-6 -5l-5 -5l-4 -2l-4 -1l-8 3q-3 6 -3 9q0 6 5 14zM14 183q3 23 10 42q17 57 51 110.5t76 90.5l9 7l10 9l13 10l15 9l12 6l13 2l11 -2q6 0 14 -5q16 -10 28 -30t12 -56l-1 -59q0 -12 -7 -13q-6 2 -7 4l-1 10l-1 10q-4 4 -6 4l-5 -1l-2 -4v-4
l2 -5v-5l1 -5l-1 -16q0 -6 -5 -6l-4 2l-3 7l-1 1l-2 5l-3 2l-3 -3v-6l-1 -2q-1 -7 -3 -9.5t-4 -2.5l-5 3l-3 7v1l-3 6l-3 3l-3 -5l-2 -13l-2 -10l-1 -9l-1 -5v-4l-3 -4l-7 -1q-5 4 -6 7l-2 21l-1 63q0 15 -6 15q-7 -6 -10 -11l-12 -27l-10 -29l-8 -31l-9 -42l-3 -34
q0 -29 3.5 -42.5t21.5 -13.5q23 0 44 9l37 19l28 19q11 9 16 9l3 -1l-3 -7l-7 -8h-1l-7 -8l-3 -5l1 -3l5 -1l5 1l3 1l3 2l3 1l3 -1l1 -3l-4 -7l-8 -10l-2 -2l-9 -11l-4 -6l2 -3l4 1l6 3v1q5 1 6 2l4 2l4 -1l2 -2l-4 -7l-19 -18q-56 -48 -95 -71q-19 -10 -31.5 -15t-21.5 -5
l-18 3q-10 3 -18 10q-13 8 -24 19l-21 23l-9 12l-7 11l-5 15l-3 20l-1 15v14z" />
    <glyph glyph-name="egrave" unicode="&#xe8;" horiz-adv-x="333" 
d="M78 19q-24 19 -43 45l-9 12l-6 12q-4 9 -7 31l-2 48q0 23 6 53q3 14 6.5 26t13.5 32q30 72 86 131.5t120 59.5q7 0 16 -5t17 -13q16 -15 30.5 -40t14.5 -52q0 -63 -35.5 -93t-107.5 -57l-28 -10l-31 -10q0 -30 12.5 -50t47.5 -20q11 0 26 5l34 14l14 8l15 8l26 16l14 13
l4 5l6 2h2l3 -2l2 -3l-2 -7l-5 -6l-2 -2l-2 -2l-8 -9l-3 -5l3 -3h2l3 1l4 4l3 3l3 2l2 -2l1 -3l-3 -7l-6 -9l-7 -9l-3 -7l3 -2l5 4l3 3l3 1h2l2 -3l1 -4q-2 -3 -3 -5q-5 -8 -11.5 -15t-79.5 -61l-13 -8l-25 -13l-6 -4q-5 -1 -6 -2l-25 -11l-19 -4q-32 0 -58 19zM212 326
l-3 10q-3 13 -11 21q-6 8 -15 10q-7 -3 -9 -5l-9 -11l-15 -30l-13 -36l-13 -47l-5 -31l6 1l9 3l9 3l6 4l1 3l-3 4l-6 2h-2q-5 1 -6 2l-2 3q3 5 5 6l13 6l11 5q3 1 4 3t2 3l-3 2l-7 1h-4l-8 1l-2 5q1 2 3.5 4.5t7.5 5.5l25 13l24 13q10 7 11 17zM203 687q8 -3 15 -14l10 -17
l12 -24l28 -61q6 -12 6 -18l-3 -11l-8 -4l-10 3l-9 8l-7 6l-5 4l-5 -1l-1 -3v-5l2 -7l1 -8l1 -4l-3 -5l-10 -2q-7 0 -18 11l-25 28l-5 5l-4 6l-22 28l-14 19l-18 22l-5 11v4q0 6 3.5 10t12.5 6l5 -2l8 -5h1l8 -6l5 -2l3 1l1 3v1l-3 4l-2 5l-1 7q0 6 8 9t30 3q10 1 18 -5z
" />
    <glyph glyph-name="eacute" unicode="&#xe9;" horiz-adv-x="333" 
d="M78 19q-24 19 -43 45l-9 12l-6 12q-4 9 -7 31l-2 48q0 23 6 53q3 14 6.5 26t13.5 32q30 72 86 131.5t120 59.5q7 0 16 -5t17 -13q16 -15 30.5 -40t14.5 -52q0 -63 -35.5 -93t-107.5 -57l-28 -10l-31 -10q0 -30 12.5 -50t47.5 -20q11 0 26 5l34 14l14 8l15 8l26 16l14 13
l4 5l6 2h2l3 -2l2 -3l-2 -7l-5 -6l-2 -2l-2 -2l-8 -9l-3 -5l3 -3h2l3 1l4 4l3 3l3 2l2 -2l1 -3l-3 -7l-6 -9l-7 -9l-3 -7l3 -2l5 4l3 3l3 1h2l2 -3l1 -4q-2 -3 -3 -5q-5 -8 -11.5 -15t-79.5 -61l-13 -8l-25 -13l-6 -4q-5 -1 -6 -2l-25 -11l-19 -4q-32 0 -58 19zM212 326
l-3 10q-3 13 -11 21q-6 8 -15 10q-7 -3 -9 -5l-9 -11l-15 -30l-13 -36l-13 -47l-5 -31l6 1l9 3l9 3l6 4l1 3l-3 4l-6 2h-2q-5 1 -6 2l-2 3q3 5 5 6l13 6l11 5q3 1 4 3t2 3l-3 2l-7 1h-4l-8 1l-2 5q1 2 3.5 4.5t7.5 5.5l25 13l24 13q10 7 11 17zM309 689q6 -3 8 -9l-1 -7
l-2 -5l-2 -2l-1 -3l1 -3l3 -1l5 2l8 6h1l7 5l6 2q8 0 12 -5l4 -11v-4l-6 -11l-17 -22l-14 -19l-22 -28l-5 -6l-4 -5l-25 -28q-10 -9 -18 -11q-7 0 -10 2l-3 5v4l2 8l1 7l1 5l-2 3l-4 1l-5 -4l-7 -6l-9 -8l-10 -3l-8 4q-3 3 -3 11q1 3 1.5 7.5t3.5 10.5l29 61l12 24l10 17
q6 8 14 14q6 3 19 5q21 2 30 -3z" />
    <glyph glyph-name="ecircumflex" unicode="&#xea;" horiz-adv-x="333" 
d="M78 19q-24 19 -43 45l-9 12l-6 12q-4 9 -7 31l-2 48q0 23 6 53q3 14 6.5 26t13.5 32q30 72 86 131.5t120 59.5q7 0 16 -5t17 -13q16 -15 30.5 -40t14.5 -52q0 -63 -35.5 -93t-107.5 -57l-28 -10l-31 -10q0 -30 12.5 -50t47.5 -20q11 0 26 5l34 14l14 8l15 8l26 16l14 13
l4 5l6 2h2l3 -2l2 -3l-2 -7l-5 -6l-2 -2l-2 -2l-8 -9l-3 -5l3 -3h2l3 1l4 4l3 3l3 2l2 -2l1 -3l-3 -7l-6 -9l-7 -9l-3 -7l3 -2l5 4l3 3l3 1h2l2 -3l1 -4q-2 -3 -3 -5q-5 -8 -11.5 -15t-79.5 -61l-13 -8l-25 -13l-6 -4q-5 -1 -6 -2l-25 -11l-19 -4q-32 0 -58 19zM212 326
l-3 10q-3 13 -11 21q-6 8 -15 10q-7 -3 -9 -5l-9 -11l-15 -30l-13 -36l-13 -47l-5 -31l6 1l9 3l9 3l6 4l1 3l-3 4l-6 2h-2q-5 1 -6 2l-2 3q3 5 5 6l13 6l11 5q3 1 4 3t2 3l-3 2l-7 1h-4l-8 1l-2 5q1 2 3.5 4.5t7.5 5.5l25 13l24 13q10 7 11 17zM224 684h9l5 -2h6h3h3h6l7 1
h9h12q2 -1 4.5 -2t6.5 -5l12 -16l8 -16l9 -16l11 -27l8 -21l1 -4l2 -4l6 -12l4 -8l1 -4v-4q-4 -5 -7 -7l-13 -3l-9 -1h-7h-6l-4 2l-2 1l-7 1l-5 -1l-7 -1l-9 -2h-11q-7 4 -11 8l-12 17l-12 17q-5 7 -11 8q-7 -4 -10 -8l-14 -17l-2 -3l-14 -16q-3 -3 -6 -4.5t-4 -1.5h-5l-7 2
l-8 4l-4 5l2 7l1 3l1 3l-1 3l-7 -2l-8 -6l-2 -2l-10 -6l-6 -2q-5 1 -6 2l-2 6q2 6 4 10q6 9 9 14l31 43l4 5l4 6q15 23 30 39t20 18q6 2 10 -1z" />
    <glyph glyph-name="edieresis" unicode="&#xeb;" horiz-adv-x="333" 
d="M78 19q-24 19 -43 45l-9 12l-6 12q-4 9 -7 31l-2 48q0 23 6 53q3 14 6.5 26t13.5 32q30 72 86 131.5t120 59.5q7 0 16 -5t17 -13q16 -15 30.5 -40t14.5 -52q0 -63 -35.5 -93t-107.5 -57l-28 -10l-31 -10q0 -30 12.5 -50t47.5 -20q11 0 26 5l34 14l14 8l15 8l26 16l14 13
l4 5l6 2h2l3 -2l2 -3l-2 -7l-5 -6l-2 -2l-2 -2l-8 -9l-3 -5l3 -3h2l3 1l4 4l3 3l3 2l2 -2l1 -3l-3 -7l-6 -9l-7 -9l-3 -7l3 -2l5 4l3 3l3 1h2l2 -3l1 -4q-2 -3 -3 -5q-5 -8 -11.5 -15t-79.5 -61l-13 -8l-25 -13l-6 -4q-5 -1 -6 -2l-25 -11l-19 -4q-32 0 -58 19zM212 326
l-3 10q-3 13 -11 21q-6 8 -15 10q-7 -3 -9 -5l-9 -11l-15 -30l-13 -36l-13 -47l-5 -31l6 1l9 3l9 3l6 4l1 3l-3 4l-6 2h-2q-5 1 -6 2l-2 3q3 5 5 6l13 6l11 5q3 1 4 3t2 3l-3 2l-7 1h-4l-8 1l-2 5q1 2 3.5 4.5t7.5 5.5l25 13l24 13q10 7 11 17zM169 541l-4 6l-1 4l1 4v2l1 6
v6l-2 4l-3 2q-5 0 -8 -4l-3 -10v-5l-4 -7l-7 -3q-2 1 -4.5 2t-4.5 5l-6 17l-1 6v6l1 24l4 27l3 13l5 17q6 13 15.5 25.5t24.5 12.5q7 0 13.5 -3.5t6.5 -10.5v-5l-1 -3l-1 -8v-4l1 -5l3 -1l4 4l6 11l4 9l5 5q11 0 16.5 -8t8.5 -17v-7l1 -6l-1 -19l-1 -20q-3 -29 -17 -51
q-12 -23 -44 -23zM392 633l-1 -20q-3 -29 -17 -51q-12 -23 -44 -23q-8 0 -11 2l-4 6l-1 4l1 4v2l1 6v6l-2 4l-3 2q-5 0 -8 -4l-3 -10v-5l-4 -7l-7 -3q-2 1 -4.5 2t-4.5 5l-6 17l-1 6v6l1 24l4 27l3 13l5 17q6 13 15.5 25.5t24.5 12.5q7 0 13.5 -3.5t6.5 -10.5v-5l-1 -3
l-1 -8v-4l1 -5l3 -1l4 4l6 11l4 9l5 5q11 0 16.5 -8t8.5 -17v-7l1 -6z" />
    <glyph glyph-name="igrave" unicode="&#xec;" 
d="M60 350l5 17l7 21l2 6l7 23l6 18l3 8l5 6l3 3l3 1q6 -3 8.5 -5.5t2.5 -10.5l-1 -6v-7h-1l-1 -8v-5v-3l1 -4l3 -1l4 3l2 7l4 8l8 12q5 6 14 6q7 0 11 -5l6 -9l1 -4l3 -9l5 -2q5 2 6 4l6 9l4 9l7 4l6 -3l2 -8l-8 -35l-19 -65l-1 -4l-18 -63l-10 -33l-1 -4l-13 -44l-4 -28
l1 -12l6 -4q7 0 16 5l20 14l5 4l6 4l22 18q6 6 8 7t3 2l3 -1l-2 -7l-7 -9l-1 -1l-7 -8l-2 -6l1 -3l6 1l3 2l2 2l3 1l3 -1l1 -3l-3 -4l-5 -4l-3 -3l-2 -2l-2 -4l-1 -3l1 -3l4 -1h3l2 -1l1 -4l1 -3l2 -5l2 -1l1 -3l1 -4l-3 -6q-4 -6 -12 -16l-34 -37l-12 -12l-12 -11l-36 -27
q-15 -8 -27 -10l-10 2q-8 2 -10 4q-16 9 -31 33q-13 26 -13 58v13v14v32t2 34q0 13 2 26.5t5 24.5zM187 687q8 -3 15 -14l10 -17l12 -24l28 -61q6 -12 6 -18l-3 -11l-8 -4l-10 3l-9 8l-7 6l-5 4l-5 -1l-1 -3v-5l2 -7l1 -8l1 -4l-3 -5l-10 -2q-7 0 -18 11l-25 28l-5 5l-4 6
l-22 28l-14 19l-18 22l-5 11v4q0 6 3.5 10t12.5 6l5 -2l8 -5h1l8 -6l5 -2l3 1l1 3v1l-3 4l-2 5l-1 7q0 6 8 9t30 3q10 1 18 -5z" />
    <glyph glyph-name="iacute" unicode="&#xed;" 
d="M60 350l5 17l7 21l2 6l7 23l6 18l3 8l5 6l3 3l3 1q6 -3 8.5 -5.5t2.5 -10.5l-1 -6v-7h-1l-1 -8v-5v-3l1 -4l3 -1l4 3l2 7l4 8l8 12q5 6 14 6q7 0 11 -5l6 -9l1 -4l3 -9l5 -2q5 2 6 4l6 9l4 9l7 4l6 -3l2 -8l-8 -35l-19 -65l-1 -4l-18 -63l-10 -33l-1 -4l-13 -44l-4 -28
l1 -12l6 -4q7 0 16 5l20 14l5 4l6 4l22 18q6 6 8 7t3 2l3 -1l-2 -7l-7 -9l-1 -1l-7 -8l-2 -6l1 -3l6 1l3 2l2 2l3 1l3 -1l1 -3l-3 -4l-5 -4l-3 -3l-2 -2l-2 -4l-1 -3l1 -3l4 -1h3l2 -1l1 -4l1 -3l2 -5l2 -1l1 -3l1 -4l-3 -6q-4 -6 -12 -16l-34 -37l-12 -12l-12 -11l-36 -27
q-15 -8 -27 -10l-10 2q-8 2 -10 4q-16 9 -31 33q-13 26 -13 58v13v14v32t2 34q0 13 2 26.5t5 24.5zM253 689q6 -3 8 -9l-1 -7l-2 -5l-2 -2l-1 -3l1 -3l3 -1l5 2l8 6h1l7 5l6 2q8 0 12 -5l4 -11v-4l-6 -11l-17 -22l-14 -19l-22 -28l-5 -6l-4 -5l-25 -28q-10 -9 -18 -11
q-7 0 -10 2l-3 5v4l2 8l1 7l1 5l-2 3l-4 1l-5 -4l-7 -6l-9 -8l-10 -3l-8 4q-3 3 -3 11q1 3 1.5 7.5t3.5 10.5l29 61l12 24l10 17q6 8 14 14q6 3 19 5q21 2 30 -3z" />
    <glyph glyph-name="icircumflex" unicode="&#xee;" 
d="M60 350l5 17l7 21l2 6l7 23l6 18l3 8l5 6l3 3l3 1q6 -3 8.5 -5.5t2.5 -10.5l-1 -6v-7h-1l-1 -8v-5v-3l1 -4l3 -1l4 3l2 7l4 8l8 12q5 6 14 6q7 0 11 -5l6 -9l1 -4l3 -9l5 -2q5 2 6 4l6 9l4 9l7 4l6 -3l2 -8l-8 -35l-19 -65l-1 -4l-18 -63l-10 -33l-1 -4l-13 -44l-4 -28
l1 -12l6 -4q7 0 16 5l20 14l5 4l6 4l22 18q6 6 8 7t3 2l3 -1l-2 -7l-7 -9l-1 -1l-7 -8l-2 -6l1 -3l6 1l3 2l2 2l3 1l3 -1l1 -3l-3 -4l-5 -4l-3 -3l-2 -2l-2 -4l-1 -3l1 -3l4 -1h3l2 -1l1 -4l1 -3l2 -5l2 -1l1 -3l1 -4l-3 -6q-4 -6 -12 -16l-34 -37l-12 -12l-12 -11l-36 -27
q-15 -8 -27 -10l-10 2q-8 2 -10 4q-16 9 -31 33q-13 26 -13 58v13v14v32t2 34q0 13 2 26.5t5 24.5zM168 684h9l5 -2h6h3h3h6l7 1h9h12q2 -1 4.5 -2t6.5 -5l12 -16l8 -16l9 -16l11 -27l8 -21l1 -4l2 -4l6 -12l4 -8l1 -4v-4q-4 -5 -7 -7l-13 -3l-9 -1h-7h-6l-4 2l-2 1l-7 1
l-5 -1l-7 -1l-9 -2h-11q-7 4 -11 8l-12 17l-12 17q-5 7 -11 8q-7 -4 -10 -8l-14 -17l-2 -3l-14 -16q-3 -3 -6 -4.5t-4 -1.5h-5l-7 2l-8 4l-4 5l2 7l1 3l1 3l-1 3l-7 -2l-8 -6l-2 -2l-10 -6l-6 -2q-5 1 -6 2l-2 6q2 6 4 10q6 9 9 14l31 43l4 5l4 6q15 23 30 39t20 18
q6 2 10 -1z" />
    <glyph glyph-name="idieresis" unicode="&#xef;" 
d="M60 350l5 17l7 21l2 6l7 23l6 18l3 8l5 6l3 3l3 1q6 -3 8.5 -5.5t2.5 -10.5l-1 -6v-7h-1l-1 -8v-5v-3l1 -4l3 -1l4 3l2 7l4 8l8 12q5 6 14 6q7 0 11 -5l6 -9l1 -4l3 -9l5 -2q5 2 6 4l6 9l4 9l7 4l6 -3l2 -8l-8 -35l-19 -65l-1 -4l-18 -63l-10 -33l-1 -4l-13 -44l-4 -28
l1 -12l6 -4q7 0 16 5l20 14l5 4l6 4l22 18q6 6 8 7t3 2l3 -1l-2 -7l-7 -9l-1 -1l-7 -8l-2 -6l1 -3l6 1l3 2l2 2l3 1l3 -1l1 -3l-3 -4l-5 -4l-3 -3l-2 -2l-2 -4l-1 -3l1 -3l4 -1h3l2 -1l1 -4l1 -3l2 -5l2 -1l1 -3l1 -4l-3 -6q-4 -6 -12 -16l-34 -37l-12 -12l-12 -11l-36 -27
q-15 -8 -27 -10l-10 2q-8 2 -10 4q-16 9 -31 33q-13 26 -13 58v13v14v32t2 34q0 13 2 26.5t5 24.5zM113 541l-4 6l-1 4l1 4v2l1 6v6l-2 4l-3 2q-5 0 -8 -4l-3 -10v-5l-4 -7l-7 -3q-2 1 -4.5 2t-4.5 5l-6 17l-1 6v6l1 24l4 27l3 13l5 17q6 13 15.5 25.5t24.5 12.5
q7 0 13.5 -3.5t6.5 -10.5v-5l-1 -3l-1 -8v-4l1 -5l3 -1l4 4l6 11l4 9l5 5q11 0 16.5 -8t8.5 -17v-7l1 -6l-1 -19l-1 -20q-3 -29 -17 -51q-12 -23 -44 -23zM336 633l-1 -20q-3 -29 -17 -51q-12 -23 -44 -23q-8 0 -11 2l-4 6l-1 4l1 4v2l1 6v6l-2 4l-3 2q-5 0 -8 -4l-3 -10v-5
l-4 -7l-7 -3q-2 1 -4.5 2t-4.5 5l-6 17l-1 6v6l1 24l4 27l3 13l5 17q6 13 15.5 25.5t24.5 12.5q7 0 13.5 -3.5t6.5 -10.5v-5l-1 -3l-1 -8v-4l1 -5l3 -1l4 4l6 11l4 9l5 5q11 0 16.5 -8t8.5 -17v-7l1 -6z" />
    <glyph glyph-name="eth" unicode="&#xf0;" horiz-adv-x="370" 
d="M108 -5l-21 12l-16 12l-15 14l-20 21l-13 17l-2 3l-7 20l-3 35v7v7q0 52 10 90.5t30 78.5l5 9l5 9l15 24l25 33l15 18l16 18l27 22q12 9 23 9l3 -3l1 -7l1 -15q1 -2 2 -3.5t2 -2.5l4 2l4 2l1 -1l2 -6l-1 -5l-1 -4l-2 -4v-4v-4l3 -1l2 1l5 1h2l3 -3l2 -5l-1 -4l-1 -4
l-2 -4l-1 -3l-4 -6l-1 -4l2 -3l5 -1l2 -1l5 -2l3 -4l-2 -5l-10 -14l-18 -21l-20 -27l-23 -37q-11 -21 -18 -41l-9 -30l-3 -28v-5q2 -15 11.5 -27t28.5 -12l10 1l10 4q29 15 54 75t25 143l-3 28l-6 30q-3 18 -10 33l-12 32l-18 40l-11 24l-7 12l-5 8l-4 1l-13 -6l-21 -12h-1
l-21 -13l-12 -6l-9 3l-9 8l-3 2l-9 7l-7 5l-5 2l-5 3l-10 6l-7 6l-2 2q1 4 3 7t7 7l25 14l4 3l5 2l30 15q13 6 14 11l-8 11l-17 21l-2 2l-17 19l-7 13q1 6 3 8t7 2l3 -1l4 -3l4 -3l5 -5l5 -2l4 1l2 4l-2 5l-5 6v1l-6 6l-2 5l1 5l2 4l2 3l2 1l8 -2l7 -3l3 -2l4 -2l4 -1l3 1
l1 4q-1 6 -2 7l-3 4l-2 2l-6 7l-2 14l1 5l3 6l8 11l11 7l6 1q7 0 16.5 -6.5t17.5 -15.5l12 -15l12 -16l25 -38q10 -15 14 -16q3 1 6.5 3t11.5 8l31 25l1 1l31 25l17 12l5 -3l2 -7l-1 -3l-2 -3l-2 -6l-1 -9l1 -6l3 -4l3 -4l1 -3v-3l-2 -3l-2 -5l-1 -2l3 -4l1 -4q-3 -8 -5 -11
l-13 -12l-8 -5l-8 -6l-24 -16q-9 -7 -10 -13v-1l35 -73q5 -11 15 -36q7 -17 14 -38q3 -8 6 -18.5t7 -30t6 -33.5t2 -28q0 -100 -33.5 -165.5t-104.5 -125.5l-15 -13l-16 -12l-8 -7l-9 -6l-16 -10l-16 -8l-17 -5l-15 -3q-10 0 -20 5z" />
    </font>
</defs>
</svg>
